<svg xmlns="http://www.w3.org/2000/svg" xmlns:xlink="http://www.w3.org/1999/xlink" version="1.1"><metadata>Created by FontForge 20170731 at Thu Jul 13 18:45:33 2017 By Aleksey,,, Copyright 2011 The Londrina Solid Authors (https://github.com/marcelommp/Londrina-Typeface), with Reserved Font Name &quot;Londrina Solid&quot;</metadata><defs><font id="LondrinaSolid-Regular" horiz-adv-x="476"><font-face x-height="498.5" ascent="800" bbox="-127.4 -207.75 980 935.615" cap-height="708" descent="-200" font-family="Londrina Solid" font-stretch="normal" font-weight="400" panose-1="0 0 5 0 0 0 0 0 0 0" underline-position="-150" underline-thickness="50" unicode-range="U+000D-FB04" units-per-em="1000"/><glyph glyph-name=".notdef" horiz-adv-x="238"/><glyph glyph-name=".null" horiz-adv-x="0"/><glyph glyph-name="nonmarkingreturn" horiz-adv-x="200"/><glyph glyph-name="NULL" horiz-adv-x="0"/><glyph glyph-name="NULL" horiz-adv-x="0"/><glyph glyph-name="space" horiz-adv-x="200"/><glyph d="M128 2q11 0 18.5 -0.5t19.5 -0.5h7q0 29 1 60.5t2 59.5q-15 0 -31 1.5t-32.5 2.5t-31.5 0t-27 -6v-1q0 -14 -2 -34t-3 -38.5t-1 -31.5t3 -13l75 1h2zM43.5 567q-0.5 -67 0.5 -133t1.5 -132t-0.5 -132h1q29 1 66 1.5t63 3.5q-6 128 -4.5 264.5t3.5 264.5q-28 8 -62.5 4 t-60.5 -6h-3q-4 -68 -4.5 -135z" glyph-name="exclam" horiz-adv-x="217" unicode="!"/><glyph d="M39 702q-2 -35 -3 -60t-1 -50.5t1 -56t1 -75.5v-1h29t38 0.5t32.5 0.5h13.5v40t-0.5 73.5t-1 78t-0.5 54.5q-2 4 -17.5 4.5t-34.5 -1t-35.5 -3.5t-20.5 -2h-1v-2zM232 702q-2 -35 -3 -60t-1 -50.5t1 -56t1 -75.5v-1h29t38 0.5t32.5 0.5h13.5v40t-0.5 73.5t-1 78 t-0.5 54.5q-2 4 -17.5 4.5t-34.5 -1t-35.5 -3.5t-20.5 -2h-1v-2z" glyph-name="quotedbl" horiz-adv-x="378" unicode="&quot;"/><glyph d="M639 482q-16 0 -31.5 0.5t-31.5 0.5q14 48 22.5 75.5t13 42.5t5.5 21.5t0 12.5q-28 5 -56.5 2t-56.5 2h-1h-1q-16 -60 -29 -100t-21 -53q-36 1 -64 0t-55 0q13 43 22 70.5t14 44t6.5 23.5t1.5 9q-32 1 -54 2t-35.5 1t-20 0.5t-9.5 1.5v-1q-3 -14 -9.5 -36.5t-14 -46 t-14 -42.5t-9.5 -25q0 -1 -0.5 -1t-0.5 -1q-6 -1 -15 -0.5t-16 0.5q-51 -1 -80 -0.5t-42.5 2t-17 2.5l-3.5 1l2 -108q49 0 77 0.5t41.5 0.5h16.5h3q-12 -35 -19 -58t-11 -37l-6 -21t-5 -10q-34 -1 -55 -0.5t-32.5 1.5t-16.5 2t-6 2q1 -27 1 -55t2 -54q15 -1 32 0.5t34 1.5 q-14 -38 -28.5 -75.5t-22.5 -79.5q45 2 71 1.5t36 -1.5q6 0 8 2q6 11 8.5 18t5.5 17q12 31 18 45t9.5 23t7.5 19t12 33q34 1 56.5 1h35.5t18.5 -0.5l5.5 -0.5h1q-10 -37 -25 -74.5t-26 -81.5q61 -2 86.5 -1t27.5 1h2l1 1q10 18 20 42.5t18 47.5t13.5 41t7.5 21h2h1 q40 1 65.5 1h43.5t32 0.5t30 2.5v2q-2 23 -2 37t-0.5 24t-1 17t-3.5 15q-51 4 -85 3.5t-45 0.5q11 32 21 63t21 63l106 3l-7 92v4zM275.5 321q10.5 32 21.5 64v1h2q29 0 58 -0.5t61 -1.5h1h1v-1q-9 -33 -21 -62t-19 -60q0 -1 -0.5 -1.5t-0.5 -1.5l-125 -1q11 32 21.5 64z" glyph-name="numbersign" horiz-adv-x="669" unicode="#"/><glyph d="M292.5 357q-26.5 17 -50 36.5t-39.5 40t-16 42.5q0 18 15.5 31.5t31.5 13.5q24 0 28.5 -12.5t6.5 -28t10.5 -28t40.5 -12.5q15 0 28 1t28 1h16q16 0 25 5.5t9 20.5q0 27 -1.5 48.5t-12.5 44.5q-6 12 -15.5 25.5t-23 25.5t-29.5 21t-35 11q-13 1 -13 14v82q-3 6 -17.5 9 t-30.5 3.5t-28 0.5t-10 0q-9 0 -19 0.5t-19 -1t-14.5 -5t-5.5 -10.5q0 -2 1 -13t1.5 -24t1.5 -24t1 -13q0 -5 1 -8.5t-4 -5.5q-23 -7 -48 -21t-42 -31q-19 -19 -27.5 -42t-8.5 -48q0 -36 15.5 -72t38.5 -62q22 -24 53 -47t59.5 -48t48.5 -52t20 -59q0 -16 -15 -26t-31 -10 q-26 0 -34 14t-8 30q0 8 -0.5 15.5t-0.5 15.5q0 15 -6.5 22t-16 9t-22 1.5t-24.5 0.5q-9 1 -18.5 2t-20.5 1q-17 0 -26.5 -2.5t-14 -8t-5 -15.5t-0.5 -25q0 -33 3 -61t13.5 -50.5t32 -39.5t57.5 -29q17 -5 23 -15t7.5 -22t0 -24.5t0 -23t9 -17t25.5 -6.5h28q11 0 21.5 0.5 t20.5 0.5q21 0 29.5 7.5t8.5 19.5v4v13.5v22t0.5 22t0.5 13.5q2 0 11 5t19.5 11.5t20 12.5t12.5 9q32 26 45.5 55t13.5 61q0 21 -5.5 44t-16 45.5t-25.5 42t-35 33.5q-21 15 -47.5 32z" glyph-name="dollar" horiz-adv-x="445" unicode="$"/><glyph d="M307.5 181q5.5 15 10.5 30q20 54 37.5 108t36.5 109q9 27 19 54.5t20 55.5q20 66 30 98.5t14 46.5q2 6 3 9.5t3 8.5q-12 6 -29 7t-35 0t-36 -1.5t-32 2.5q-7 -28 -15 -55t-15.5 -48.5t-12.5 -35.5t-6 -16q-10 -29 -18.5 -58t-19.5 -58q-30 -81 -48 -129t-27.5 -75 t-13 -38t-5.5 -18q-10 -22 -17.5 -44t-14.5 -44q-1 -4 -7 -18.5t-11.5 -30.5t-8.5 -29t1 -13h1q34 1 55.5 1h35t21 0.5t13.5 1.5q1 1 3 5l57 144q6 15 11.5 30zM19 487q2 -14 4 -28.5t4 -30.5q5 -24 15.5 -41t33.5 -32q23 -12 48 -13q34 -2 57.5 15.5t37.5 44t19.5 58.5 t4.5 61q1 14 -0.5 28t-3.5 30q-4 20 -12.5 39t-22.5 34t-33.5 23.5t-44.5 7.5q-23 -1 -41.5 -11t-32.5 -27q-20 -22 -24 -50.5t-8 -56.5l-2 -25l1 -25v-1zM97 553q-1 11 0 21t6 18q7 10 16 13q10 5 17.5 2t12.5 -10q1 -2 1.5 -2.5t1.5 -2.5q8 -29 9.5 -59.5t-0.5 -59.5 q0 -3 -0.5 -5.5t-0.5 -5.5q-2 -12 -5.5 -23.5t-18.5 -16.5q-11 -4 -21.5 1.5t-10.5 17.5q-1 10 -1 19t-1 19l-5 73v1zM362 170q2 -14 4 -28.5t4 -30.5q5 -24 15.5 -41t33.5 -32q23 -12 48 -13q34 -2 57.5 15.5t37.5 44t19.5 58.5t4.5 61q1 14 -0.5 28t-3.5 30 q-4 20 -12.5 39t-22.5 34t-33.5 23.5t-44.5 7.5q-23 -1 -41.5 -11t-32.5 -27q-20 -22 -24 -50.5t-8 -56.5l-2 -25l1 -25v-1zM440 236q-1 11 0 21t6 18q7 10 16 13q10 5 17.5 2t12.5 -10q1 -2 1.5 -2.5t1.5 -2.5q8 -29 9.5 -59.5t-0.5 -59.5q0 -3 -0.5 -5.5t-0.5 -5.5 q-2 -12 -5.5 -23.5t-18.5 -16.5q-11 -4 -21.5 1.5t-10.5 17.5q-1 10 -1 19t-1 19l-5 73v1z" glyph-name="percent" horiz-adv-x="604" unicode="%"/><glyph d="M553 43q-5 26 -20.5 47t-29.5 39v-1q-9 12 -17.5 21.5t-8.5 15.5q0 5 6 17t11 23q3 5 5.5 10.5t4.5 8.5q2 7 4 11.5t4 9.5v-1q11 26 20 50.5t9 56.5q0 23 -10 30t-27 7h-71q-32 0 -44 -13.5t-14 -32.5q0 -11 -2.5 -21.5t-7.5 -18.5q-19 25 -28 43t-12 30.5t-2.5 19 t0.5 9.5q0 2 7 13q5 9 11 17.5t12 17.5q19 29 36 59.5t17 67.5q0 30 -12.5 57.5t-35 48.5t-54.5 33.5t-70 12.5q-36 0 -70.5 -11.5t-62 -32t-44 -48t-16.5 -59.5q0 -23 7.5 -46.5t19 -45.5t25 -42t25.5 -36q-19 -18 -37 -40t-32 -46.5t-22.5 -50.5t-8.5 -53q0 -40 13 -79.5 t38 -71t62.5 -51t87.5 -19.5q39 2 76 10.5t67 28.5q15 -14 27 -21.5t24 -11.5t26 -5t32 -1h5q12 0 24 0.5t22.5 3.5t18.5 9t11 17l1 5v9zM249.5 612q4.5 -6 4.5 -15q0 -36 -7 -64.5t-25 -31.5v1q-5 -1 -10.5 7t-10 20t-7.5 25t-3 23q0 20 11.5 30.5t31.5 10.5q11 0 15.5 -6z M250 140q-7 -1 -15 -1q-18 0 -30 5.5t-19.5 14.5t-11 20t-4.5 21q-2 12 0 26.5t7.5 27.5t13.5 22.5t17 10.5q28 4 45 -3.5t26 -20.5t11.5 -30.5t1.5 -33.5t-3 -28.5t-2 -16.5q0 -1 -9.5 -5.5t-15.5 -6.5q-5 -1 -12 -2z" glyph-name="ampersand" horiz-adv-x="565" unicode="&amp;"/><glyph d="M39 702q-2 -35 -3 -60t-1 -50.5t1 -56t1 -75.5v-1h29t38 0.5t32.5 0.5h13.5v40t-0.5 73.5t-1 78t-0.5 54.5q-2 4 -17.5 4.5t-34.5 -1t-35.5 -3.5t-20.5 -2h-1v-2z" glyph-name="quotesingle" horiz-adv-x="185" unicode="'"/><glyph d="M163 11q33 -10 65 -11h17q11 0 23.5 0.5t18.5 8.5q2 25 1.5 57t1.5 58v5h-1q-30 1 -59.5 21.5t-43.5 52.5q-12 42 -10.5 88t0.5 89q2 23 4.5 46.5t7.5 48.5q1 7 2.5 13t3.5 13q3 16 12.5 29.5t22.5 23.5t28 16.5t29 10.5q1 29 2.5 60.5t-2.5 62.5l-1 1q-17 2 -36.5 3.5 t-36.5 2.5q-45 -1 -85 -21.5t-65 -68.5q-12 -20 -16.5 -42t-6 -44.5t-1 -45.5t-0.5 -45v-24q1 -51 -1.5 -107.5t-4.5 -109.5q2 -26 8.5 -54t25.5 -62q3 -6 4 -7q16 -22 38 -39q26 -20 55 -30z" glyph-name="parenleft" horiz-adv-x="314" unicode="("/><glyph d="M244 80q1 1 4 7q19 34 25.5 62t8.5 54q-2 53 -4.5 109.5t-1.5 107.5v24q-1 22 -0.5 45t-1 45.5t-6 44.5t-16.5 42q-25 48 -65 68.5t-85 21.5q-17 -1 -36.5 -2.5t-36.5 -3.5l-1 -1q-4 -31 -2.5 -62.5t2.5 -60.5q14 -4 29 -10.5t28 -16.5t22.5 -23.5t12.5 -29.5 q2 -7 3.5 -13t2.5 -13q5 -25 7.5 -48.5t4.5 -46.5q-1 -43 0.5 -89t-10.5 -88q-14 -32 -43.5 -52.5t-59.5 -21.5h-1v-5q2 -26 1.5 -58t1.5 -57q6 -8 18.5 -8.5t23.5 -0.5h17q32 1 65 11q29 10 55 30q22 17 38 39z" glyph-name="parenright" horiz-adv-x="313" unicode=")"/><glyph d="M326 421q5 4 10.5 9.5t9 10.5t2.5 9q-2 1 -12.5 13.5t-22.5 27t-23 26.5t-12 12q3 8 13.5 18.5t22 21.5t20.5 22t10 20l-15.5 15.5l-27 27t-27 26.5t-14.5 15q1 1 -10 -9t-25 -23t-26 -24t-13 -12q-4 3 -16 14t-25 23t-24 22t-14 11l-1 -1q-7 -5 -20 -18t-26.5 -27 t-25 -25.5t-15.5 -12.5q2 -5 12 -16t21.5 -24.5t22 -26t13.5 -18.5q2 -4 1 -5q-8 -9 -19 -20.5t-21 -22.5t-18 -20t-11 -14q22 -18 41 -36t45 -43q2 0 3.5 1t3.5 3q7 5 17 14t19.5 18t17.5 17t12 10q2 -1 9 -7t15.5 -14.5t16.5 -16t12 -11.5q2 -1 9.5 -8.5t9.5 -10.5 q1 -2 3 0l65 52q2 3 7 7z" glyph-name="asterisk" horiz-adv-x="367" unicode="*"/><glyph d="M168 114q24 -1 51.5 -1.5t50.5 0t23 3.5v2q0 7 1.5 24t3 36t2.5 36t0 26q5 3 23 3.5t38.5 0.5t37.5 0.5t20 2.5q4 37 3 70t1 75q-11 2 -27 2.5t-33 0.5h-33t-28 1q-2 5 -2 20.5v35v38.5v30q-8 1 -29.5 0.5t-45 -1.5t-44 0t-26.5 5q-1 -5 -1.5 -8.5t-1.5 -9.5 q-1 -10 -2 -22.5t-2 -26.5q-1 -21 -1.5 -36.5t-0.5 -26.5q-3 -1 -22 -3t-41.5 -3.5t-41.5 -3t-22 -0.5q0 -3 1 -20t2 -38.5t1.5 -42.5t-0.5 -32q0 -1 1 -2q4 -2 20 -4t34.5 -3t34.5 -2t22 -1h2q1 -1 1.5 -6.5t0.5 -13.5q1 -18 1 -30t-0.5 -23t-0.5 -22.5t2 -26.5 q0 -2 0.5 -2t0.5 -1q2 1 26 0z" glyph-name="plus" horiz-adv-x="445" unicode="+"/><glyph d="M148.5 -9.5q1.5 6.5 1.5 10.5q0 1 0.5 1.5t0.5 1.5h2l4 115h-1q-35 2 -64.5 5.5t-55.5 -4.5h-1v-1q-2 -41 -2.5 -63.5t-1 -33.5t-0.5 -14v-4q1 -1 3 -1l47 -4q-2 -14 -5.5 -30t-7.5 -30.5t-6.5 -24.5t-0.5 -12q29 -1 46.5 -0.5t22.5 -1.5q2 10 4 19.5t4 19.5l8 40 q1 5 2.5 11.5z" glyph-name="comma" horiz-adv-x="188" unicode=","/><glyph d="M75 201q34 -1 82 -1.5t103 -1.5t103 -2t82 -1h39h1q-7 41 -4.5 83t1.5 84h-49h-85.5h-102.5h-99.5h-75.5h-31q0 -3 -0.5 -24t-1 -47.5t-1 -51.5t-0.5 -37q5 0 39 -1z" glyph-name="hyphen" horiz-adv-x="521" unicode="-"/><glyph d="M152 0v1v1q0 7 1 26t2 39t2 35.5t1 16.5q-7 3 -23.5 4.5t-35.5 1.5t-37.5 -2t-28.5 -6q0 -7 -0.5 -22t-1 -32t0 -34t2.5 -28h3l113 -1h2z" glyph-name="period" horiz-adv-x="189" unicode="."/><glyph d="M219.5 181q5.5 15 10.5 30q20 54 37.5 108t36.5 109q9 27 19 54.5t20 55.5q20 66 30 98.5t14 46.5q2 6 3 9.5t3 8.5q-12 6 -29 7t-35 0t-36 -1.5t-32 2.5q-7 -28 -15 -55t-15.5 -48.5t-12.5 -35.5t-6 -16q-10 -29 -18.5 -58t-19.5 -58q-30 -81 -48 -129t-27.5 -75 t-13 -38t-5.5 -18q-10 -22 -17.5 -44t-14.5 -44q-1 -4 -7 -18.5t-11.5 -30.5t-8.5 -29t1 -13h1q34 1 55.5 1h35t21 0.5t13.5 1.5q1 1 3 5l57 144q6 15 11.5 30z" glyph-name="slash" horiz-adv-x="412" unicode="/"/><glyph d="M48.5 547q-11.5 -37 -16 -76t-3.5 -78.5t3 -77.5q1 -45 4.5 -90t17 -85.5t41.5 -73t79 -51.5q30 -11 70 -13q47 -3 84 12.5t64.5 44t47 66t31 80t15.5 86t2 82.5q2 29 -0.5 58.5t-7.5 61.5q-8 42 -26 82t-47 70.5t-69 48.5t-91 16t-88 -23.5t-67 -55.5q-6 -6 -10 -13 q-22 -34 -33.5 -71zM213.5 177.5q-6.5 6.5 -10.5 15.5t-6 18.5t-5 18.5q-14 53 -14 104t5 114q3 25 6.5 45t8.5 28q5 9 14.5 17t19.5 10q39 13 61 -16q12 -17 18.5 -43.5t9 -57t2 -62t-1.5 -57.5q-2 -26 -3 -49t-9 -48q-5 -16 -13 -29t-28 -19q-8 -3 -18 -2t-19 4 q-11 2 -17.5 8.5z" glyph-name="zero" horiz-adv-x="513" unicode="0"/><glyph d="M313 53v35q0 115 5.5 227t5.5 227q0 42 -1 83.5t-4 84.5q-27 2 -53 3t-52 1q-23 0 -45.5 -0.5t-45.5 -1.5q-2 -2 -11.5 -16.5t-22.5 -35.5t-28 -46t-27.5 -49t-21.5 -44t-10 -32q0 -5 17 -11t39 -12t41 -10t24 -4q8 0 14 9t11 19.5t9 19t9 7.5q1 -5 1 -9v-9 q0 -97 -6 -192t-6 -192v-97v-1q20 -2 46.5 -4.5t51.5 -2.5q9 0 20 0.5t20 2.5t15 5.5t6 9.5q-1 17 -1 35z" glyph-name="one" horiz-adv-x="366" unicode="1"/><glyph d="M460 5q-3 11 -2.5 22t0.5 22q1 25 1 50.5t-8 45.5q-65 0 -122.5 -2t-124.5 0q-4 2 -3.5 9.5t3 16.5t6 18t5.5 14q18 22 43.5 37.5t53 29.5l55 28t50 33t38 44.5t18.5 62.5q1 20 0 44.5t-2 45.5q-5 54 -29 99t-69 68q-27 11 -67.5 15.5t-82.5 0.5t-79 -18t-57 -40 q-37 -41 -49.5 -101.5t-0.5 -129.5v-2h1q34 -4 68.5 -2t79.5 7h1v2q1 18 3.5 39t10 39.5t22 30.5t38.5 12q23 -3 36.5 -20.5t15.5 -40.5t-6.5 -46t-28.5 -36q-26 -21 -53.5 -37t-55 -33t-54 -36.5t-50.5 -46.5q-16 -26 -22.5 -55.5t-8.5 -61t-1.5 -64.5t-2.5 -67q0 -2 1 -3 h45l380 5q4 0 4 1z" glyph-name="two" horiz-adv-x="498" unicode="2"/><glyph d="M84 33q12 -9 33 -15q14 -4 27.5 -8t27.5 -6q38 -5 82 -4.5t81 11.5q37 12 61.5 36t38.5 57q13 27 14 57t3 59q3 81 3.5 163.5t-1.5 167.5q1 19 -1.5 37.5t-12.5 34.5q-17 30 -50.5 50t-75 29t-86 6.5t-84 -17.5t-70 -42t-42.5 -67q-8 -22 -6 -47.5t2 -45.5v-2 q2 0 19.5 0.5t40 0.5h43.5t29 1q8 21 31 37.5t48 20.5t44.5 -7t20.5 -45q2 -32 -13 -44t-37.5 -15t-47 -2.5t-41.5 -5.5v-1q2 -14 0.5 -32.5t-2.5 -37.5t0 -37t7 -31q25 5 56.5 4t53.5 -17q21 -16 24.5 -41.5t-8.5 -45.5q-15 -21 -35.5 -24t-40.5 4.5t-36 23.5t-22 34l-1 1 h-1q-37 2 -68.5 -4.5t-61.5 -4.5h-1q-1 0 -1 -1q4 -31 4.5 -55.5t4.5 -47.5q2 -20 10.5 -38.5t22.5 -32.5q2 -2 14 -11z" glyph-name="three" horiz-adv-x="492" unicode="3"/><glyph d="M384 366.5q0 30.5 0.5 71.5t2 87.5t2.5 86t2 65.5t1 27h-2q-8 1 -32 0.5t-50 -1t-48.5 -1t-26.5 -0.5q-1 0 -1 -1q-56 -84 -93.5 -146t-62 -105.5t-38.5 -70t-24 -40.5q-2 -60 3 -99t7 -46q1 -2 16 -2.5t37.5 -0.5t49 0.5t50 0.5t40.5 -1t21 -2q0 -2 -1 -17t-2.5 -36 t-3 -45t-2.5 -44.5t-2 -34.5t0 -15q69 1 103.5 0.5t40.5 6.5q1 4 2 19t2.5 35t3 41.5t3 40t2.5 30t1 10.5q14 3 29.5 0.5t31.5 2.5l6 145q-12 0 -30 2t-31 0l-6 -1q-1 7 -1 37.5zM236.5 326q-21.5 0 -44.5 0.5t-41 1l-18 0.5q1 2 11.5 20t25.5 43.5t32 54t31.5 51.5t24 36.5 t10.5 7.5l-3 -214q-7 -1 -28.5 -1z" glyph-name="four" horiz-adv-x="469" unicode="4"/><glyph d="M43 214q-6 -32 -6 -58q-1 -56 28 -92.5t73.5 -54.5t98.5 -18t102.5 16t84.5 48.5t46 78.5q8 59 5.5 121t-21.5 115t-56 90.5t-97 46.5q-49 9 -105 -2h-1l-1 1l-1 1q-4 6 -4 16t-2 18q0 1 -0.5 1.5t-0.5 1.5v1v2h1h26.5t48.5 0.5t59.5 1.5t60 1.5t50 1.5t28.5 2l0.5 11.5 t1 27.5t1.5 35t1 35v27t-1 12q-7 1 -40 1t-79 -0.5t-98.5 -1.5t-98 -2t-76.5 -2t-34 -1h-1q0 -47 0.5 -88t1 -81.5t0.5 -83v-92.5q0 -1 2 -1q21 -2 48 -1t56 2.5t57.5 2t54.5 -3.5q30 -9 45.5 -38t15.5 -61t-16.5 -59.5t-51.5 -33.5q-23 -5 -41 8t-22 50q0 1 -0.5 2t-0.5 2 v1l-142 -5v-2z" glyph-name="five" horiz-adv-x="503" unicode="5"/><glyph d="M468 273.5q-8 23.5 -23 37.5q-26 29 -69 43q-29 8 -61.5 4t-59.5 -11q-27 -8 -51 -22v1q1 28 -1.5 60t-3 62.5t5.5 56.5t25 42q14 14 36.5 15.5t36.5 -14.5q12 -13 17 -32.5t6 -36.5v-1h2q35 2 69 2t63 5q11 40 3.5 80t-30.5 72.5t-60 52t-84 18.5q-36 0 -72.5 -8 t-69 -23.5t-58 -38.5t-38.5 -53q-2 -4 -3 -7t-2 -7q-6 -20 -6 -40.5t-2 -41.5q-3 -49 -5 -102.5t0.5 -105.5t11.5 -99.5t28 -85.5t49 -63.5t75 -33.5q55 -6 108.5 3t94.5 33.5t64 66t17 101.5l-2 24q-3 23 -11 46.5zM362 200v-9q-2 -11 -10 -19.5t-19 -13.5q-15 -8 -32.5 -8 t-28.5 5q-15 8 -22.5 27t5.5 37q14 19 34 26t40 4q13 -2 21 -11t11 -21q1 -4 1 -13v-2v-2z" glyph-name="six" horiz-adv-x="503" unicode="6"/><glyph d="M81.5 570.5q32.5 -0.5 66.5 -2t68 -3.5t63 -4q-60 -136 -127.5 -272t-135.5 -282q15 -4 35 -4.5t41 0.5t41 2.5t35 1.5q36 71 75 141t78 139.5t75.5 139t66.5 138.5q0 39 -1.5 69.5t0.5 69.5v1q-49 5 -103.5 6.5t-111 1t-112.5 -2.5t-108 -3v-1q-1 -30 -1 -66.5t-4 -69.5 h2q25 1 57.5 0.5z" glyph-name="seven" unicode="7"/><glyph d="M463 523q0 5 -0.5 9t-1.5 9q-2 14 -4 24.5t-6 26.5q-2 9 -7 21t-8 17q-9 14 -16 22.5t-12.5 14t-11.5 9.5t-13 9q-17 10 -34 15t-38.5 7t-48.5 2t-62 -1q-41 -2 -72.5 -21.5t-53 -50.5t-32 -69t-9.5 -77t14.5 -75t39.5 -63q-31 -30 -46 -68.5t-16.5 -79t10 -79 t35.5 -68.5q16 -22 42 -37t58 -23t66.5 -9t66.5 5t59 19t44 33q27 30 41.5 70.5t13 82.5t-19.5 81t-55 66v1q32 26 48.5 54t24.5 64q2 7 3 15t1 16v18v6v4zM201 512.5q4 3.5 6 5.5q3 2 5 4t7 4q3 2 4.5 2t3.5 1q32 8 47.5 -6.5t16.5 -34t-12 -36.5t-37 -15q-14 1 -23.5 7.5 t-15 16.5t-7.5 21.5t-1 21.5v2q0 1 1 1q1 2 5 5.5zM299.5 207q-0.5 -4 -2.5 -7q-3 -5 -5.5 -10t-7.5 -8q-5 -4 -15 -7q-13 -2 -28.5 -2t-28.5 5q-17 7 -22.5 21t-3 29.5t12.5 29t24 18.5q17 4 33.5 -1t27.5 -15q7 -5 11 -13.5t6 -16.5q1 -2 1 -5.5v-5.5t-0.5 -3.5t-0.5 -2.5 q-1 -2 -1.5 -6z" glyph-name="eight" horiz-adv-x="490" unicode="8"/><glyph d="M468 570q-5 48 -28 83q-15 23 -36 34.5t-45.5 16t-51 4.5t-51.5 1q-55 -2 -106 -20t-84 -57q-7 -8 -12 -16.5t-10 -17.5q-9 -22 -13 -51t-2.5 -59.5t9 -59.5t21.5 -50q19 -29 46.5 -49.5t60 -31.5t68 -10.5t68.5 14.5l1 -1q1 -19 0 -40t-6.5 -39t-17 -30t-29.5 -14 q-23 -2 -40.5 12.5t-22.5 34.5q-37 5 -79.5 2t-77.5 -4v-5q-10 -77 24 -128q17 -25 45.5 -44t63 -31t72.5 -16.5t73.5 0.5t66.5 19.5t52 39.5q21 29 33 63.5t17 71.5q4 33 2 65.5t-3 65.5l-2 148q-1 51 -6 99zM320 475.5q0 -1.5 -2 -6.5q-2 -4 -2.5 -5.5t-3.5 -6.5 q-8 -12 -22.5 -18t-30 -5t-30 9t-21.5 23v1q-3 8 -4.5 17.5t-2.5 19.5q0 15 9 24t22 14q15 7 32 6.5t30.5 -7.5t21.5 -19t7 -27q0 -8 -1 -13q-2 -5 -2 -6.5z" glyph-name="nine" horiz-adv-x="513" unicode="9"/><glyph d="M160 0v1v1q0 7 1 26t2 39t2 35.5t1 16.5q-7 3 -23.5 4.5t-35.5 1.5t-37.5 -2t-28.5 -6q0 -7 -0.5 -22t-1 -32t0 -34t2.5 -28h3l113 -1h2zM160 336v1v1q0 7 1 26t2 39t2 35.5t1 16.5q-7 3 -23.5 4.5t-35.5 1.5t-37.5 -2t-28.5 -6q0 -7 -0.5 -22t-1 -32t0 -34t2.5 -28h3 l113 -1h2z" glyph-name="colon" horiz-adv-x="205" unicode=":"/><glyph d="M160 336v1v1q0 7 1 26t2 39t2 35.5t1 16.5q-7 3 -23.5 4.5t-35.5 1.5t-37.5 -2t-28.5 -6q0 -7 -0.5 -22t-1 -32t0 -34t2.5 -28h3l113 -1h2zM157.5 -9.5q1.5 6.5 1.5 10.5q0 1 0.5 1.5t0.5 1.5h2l4 115h-1q-35 2 -64.5 5.5t-55.5 -4.5h-1v-1q-2 -41 -2.5 -63.5t-1 -33.5 t-0.5 -14v-4q1 -1 3 -1l47 -4q-2 -14 -5.5 -30t-7.5 -30.5t-6.5 -24.5t-0.5 -12q29 -1 46.5 -0.5t22.5 -1.5q2 10 4 19.5t4 19.5l8 40q1 5 2.5 11.5z" glyph-name="semicolon" horiz-adv-x="205" unicode=";"/><glyph d="M250 179q-45 47 -92 88q19 24 43.5 50t49 51.5t46.5 48.5t37 42q-9 6 -19 15.5t-20 19.5t-19 19.5t-18 14.5q-14 -14 -28 -28.5t-29 -30.5q-23 -24 -48 -49.5l-50 -51t-48 -50t-42 -48.5q28 -38 60 -70t64 -62t64.5 -58.5t62.5 -59.5l1 -1q15 13 24 21.5t14 13.5l8 8l5 5 l16 16l11 10q-48 39 -93 86z" glyph-name="less" horiz-adv-x="363" unicode="&lt;"/><glyph d="M75 325.5q29 -0.5 70 -1.5t88 -2t88 -1.5t70 -0.5h34h1q-6 34 -4 71t1 72h-41.5h-73.5h-88h-85h-64.5h-26.5q0 -3 -0.5 -21t-1 -40.5t-1 -44t-0.5 -31.5q5 0 34 -0.5zM75 118.5q29 -0.5 70 -1.5t88 -2t88 -1.5t70 -0.5h34h1q-6 34 -4 71t1 72h-41.5h-73.5h-88h-85h-64.5 h-26.5q0 -3 -0.5 -21t-1 -40.5t-1 -44t-0.5 -31.5q5 0 34 -0.5z" glyph-name="equal" horiz-adv-x="466" unicode="="/><glyph d="M47 67q2 -2 4.5 -5t8 -8t14.5 -13.5t24 -21.5l1 1q30 31 62.5 59.5t64.5 58.5t63.5 62t60.5 70q-19 24 -42 48.5t-48 50l-50 51t-48 49.5q-15 16 -29 30.5t-28 28.5q-9 -5 -18.5 -14.5t-19 -19.5t-19.5 -19.5t-19 -15.5q15 -19 37 -42t46.5 -48.5t48.5 -51.5t44 -50 q-47 -41 -92 -88t-93 -86l11 -10z" glyph-name="greater" horiz-adv-x="363" unicode="&gt;"/><glyph d="M142 187.5q0 -6.5 4 -10.5h1q31 2 61.5 0t61.5 2v1q-2 8 0 17t4 17q7 35 17.5 64t31.5 58q15 20 29.5 33.5t30.5 35.5q17 22 30 48t17 58q5 44 -11 82t-46.5 65t-72 40t-87.5 9q-43 -2 -78 -20.5t-61 -47.5t-41 -65.5t-17 -74.5v-1q30 -1 60.5 -3t61.5 1q13 5 21 18 t17 24.5t21.5 17t35.5 -4.5q36 -13 37 -37t-15 -52t-38.5 -56.5t-33.5 -49.5q-19 -28 -26.5 -57.5t-12.5 -61.5l-2 -38v-11.5zM261 0v1v1q0 7 1 26t2 39t2 35.5t1 16.5q-7 3 -23.5 4.5t-35.5 1.5t-37.5 -2t-28.5 -6q0 -7 -0.5 -22t-1 -32t0 -34t2.5 -28h3l113 -1h2z" glyph-name="question" horiz-adv-x="451" unicode="?"/><glyph d="M364 475.5q-15 3.5 -31 3.5q-19 0 -38.5 -4.5t-36.5 -12t-30.5 -17t-21.5 -19.5q-40 -46 -42 -111q-1 -28 4 -62t25 -57q33 -36 85 -36q48 0 81 27q5 -7 10.5 -12.5l7.5 -7.5q9 -5 19.5 -9t21.5 -4q43 1 72.5 22.5t36.5 59.5q4 23 5 41.5t1 48.5v54q0 28 -1.5 58 t-7.5 59.5t-18.5 56.5t-35.5 48q-23 22 -50.5 34t-56.5 16q-20 3 -41 5t-42 2q-12 0 -26 -0.5t-25 -2.5q-42 -5 -80 -18t-66 -48q-32 -41 -40.5 -88.5t-9.5 -95.5v-30q0 -48 2 -89t5 -92q1 -14 5.5 -33.5t11 -39t15.5 -38t18 -31.5q24 -32 59 -50t75 -23q33 -3 69 -3 q26 0 51 1.5t48 6.5q14 2 32.5 8t37.5 14t37 17t32 18l-38 82q-18 -9 -40.5 -18t-45.5 -16.5t-45.5 -13t-40.5 -6.5h1q-6 0 -14 -0.5t-16 -0.5q-25 0 -52.5 4t-46.5 15q-27 17 -39 45t-18 68q-5 31 -7.5 63t-2.5 63v22.5t1 22.5q1 21 2.5 44t6 45t13 42t22.5 35q20 20 46 28 t53 8q6 0 13.5 -0.5t13.5 -1.5q17 -2 37.5 -6t34.5 -11h-1q20 -11 33.5 -27t21.5 -36t11.5 -41.5t4.5 -42.5v-28q1 -14 1.5 -28.5t-0.5 -31.5q0 -8 -1 -21t-3 -26t-5 -23t-7 -13q-6 1 -10.5 10t-6.5 24t-3 33t-1 37v30t1 28q0 8 0.5 15.5t0.5 13.5q1 22 -10 34l-3 2 q-13 8 -28 11.5zM250.5 323.5q1.5 17.5 12.5 35.5q9 18 25 21.5t36 1.5q-1 0 -2 -8t-1.5 -18.5t-1 -20.5t-0.5 -15q0 -20 -5 -37.5t-22 -24.5q-17 -8 -30 1t-13 27v3q0 17 1.5 34.5z" glyph-name="at" horiz-adv-x="564" unicode="@"/><glyph d="M351 397q-7 29 -15 64t-16.5 73t-16 71.5t-14 60t-9.5 39.5q-33 -3 -53.5 -3.5t-33.5 -0.5h-21t-15 -1q-24 -80 -44 -161t-37 -156t-29.5 -141.5t-21.5 -117.5t-14 -83t-7 -39q1 -1 2 -1q68 1 100 -1t40 0q1 0 1.5 0.5t1.5 0.5q9 17 14 39t9.5 45.5t9 45t11.5 37.5 q11 0 17.5 0.5t12 0.5h12.5t20 -2q7 -15 13 -36t11.5 -44t11 -45t11.5 -38h1q32 -7 68 -8.5t66 4.5v1l-75 350q-4 17 -11 46zM222 285.5q-19 -0.5 -36 0.5q7 51 12.5 95t10 73t10 38.5t11 -7.5t13 -65t17.5 -134q-19 0 -38 -0.5z" glyph-name="A" horiz-adv-x="434" unicode="A"/><glyph d="M388 341q-2 4 2 11q20 34 34.5 74t14.5 82q0 56 -18 94.5t-49 63t-71.5 35.5t-84.5 13t-89 -4t-85 -17l-1 -1q3 -174 0 -344.5t3 -343.5q5 -2 10.5 -2h11.5q36 -1 77.5 -4t83 -2.5t80.5 6t71 21.5t54.5 45.5t30.5 76.5q6 32 2 58t-14.5 47.5t-25 41t-30.5 39.5 q-5 6 -7 10zM277.5 147.5q-13.5 -5.5 -29 -7t-31 -1t-29.5 0.5l-2 1q-8 12 -11 30t-2.5 37.5t3.5 38.5t7 34q19 -2 39 -2.5t39 -5.5q13 -3 25 -12.5t18 -21.5q7 -17 7.5 -38t-10.5 -36q-10 -12 -23.5 -17.5zM278.5 427.5q-13.5 -7.5 -29.5 -9.5t-33 -1t-32 3q-9 35 -5.5 68 t1.5 56q15 8 37.5 7.5t42.5 -4.5q16 -4 28.5 -12.5t20.5 -24.5t3 -32t-12 -28q-8 -15 -21.5 -22.5z" glyph-name="B" horiz-adv-x="477" unicode="B"/><glyph d="M215.5 553q14.5 3 27.5 5q29 1 42.5 -12t18.5 -33.5t5.5 -44.5t3.5 -43q38 -7 73.5 -9.5t72.5 5.5q16 46 12 90t-23 81.5t-51 66.5t-71.5 46.5t-84.5 20.5t-91 -12q-14 -4 -27 -9.5t-24 -13.5q-19 -17 -32.5 -39t-22.5 -48q-6 -15 -9.5 -32.5t-1.5 -34.5 q-1 -81 -1.5 -142.5t0 -110t1.5 -87.5t3 -75q4 -42 26.5 -70t55.5 -43.5t71 -20t74 0.5q55 1 98.5 27.5t70.5 67.5t35 92.5t-9 103.5q-14 4 -31.5 5t-35.5 1t-35.5 -1t-31.5 1q-5 -25 -3.5 -50.5t-9.5 -48.5q-10 -20 -29.5 -28.5t-41.5 -6.5q-29 8 -41.5 35.5t-15.5 56.5 q-3 35 -3 82.5t1 91.5t2.5 76t3.5 35q1 2 2.5 6.5t3.5 6.5q8 8 22.5 11z" glyph-name="C" horiz-adv-x="488" unicode="C"/><glyph d="M345.5 669.5q-29.5 23.5 -61.5 31.5q-29 -1 -59.5 0t-61.5 1.5t-61.5 -2t-58.5 -9.5q-1 -1 -1.5 -2t-1.5 -2q2 -87 0.5 -175.5t-1.5 -175.5t3 -171.5t14 -163.5l1 1q63 0 130 0.5t133 2.5q38 47 72.5 100t54.5 112q0 1 0.5 1t0.5 1q9 46 10.5 93.5t3.5 94.5 q-1 16 -2.5 31.5t-6.5 31.5q-9 40 -23.5 76.5t-36.5 70.5q-18 29 -47.5 52.5zM287.5 236.5q-7.5 -8.5 -17.5 -14.5q-5 -2 -9 -4.5t-9 -1.5q-18 -2 -37.5 -3t-30.5 9q-2 34 -2 68.5t1 68t1 64.5t-2 58v4h1h2q18 4 38 3.5t37 -2.5q17 -6 28 -17.5t18.5 -26.5t11.5 -31.5 t7 -31.5q8 -37 0.5 -68t-24.5 -57q-6 -9 -13.5 -17.5z" glyph-name="D" horiz-adv-x="482" unicode="D"/><glyph d="M331 137.5q-64 3.5 -130 3.5l-1 1q-2 24 -3.5 60t3.5 65q5 4 19 5t31.5 1t36.5 0.5t34 4.5q-1 37 1 71t-3 68v1q-31 1 -62 1t-61 2l-1 1q-7 27 -3.5 57.5t2.5 59.5l1 1h3q33 3 66 3t66 -0.5t65.5 1t64.5 8.5v1q0 35 2.5 71t-2.5 71q0 1 -20 2t-53 1t-76 -1t-89 -2 t-91.5 -2.5t-84.5 -3.5q-5 -86 -6 -171t0 -170t3 -170.5t2 -172.5q97 -8 202.5 -4.5t207.5 2.5q8 30 9 64.5t-1 66.5v2q-68 -2 -132 1.5z" glyph-name="E" horiz-adv-x="481" unicode="E"/><glyph d="M356 263q-2 18 -1.5 43t1.5 49.5t0.5 44.5t-3.5 27q-11 -1 -27 -2t-33 -1t-34.5 0.5t-31.5 2.5q-1 0 -2 1q-9 16 -11 40t9 50q31 3 66.5 5t71 3.5t69 3.5t60.5 4q1 13 1 32.5v41t-0.5 41.5t-0.5 33q-28 7 -67 11t-83 4.5t-89.5 -1t-86 -4.5t-72.5 -6t-49 -6v-1v-141.5 t-0.5 -118.5t-0.5 -104.5t-0.5 -98.5t-0.5 -101.5v-112.5l1 -1q4 -2 24.5 -3t47.5 -1t54.5 1t47.5 3q1 57 2 119.5t6 125.5h1q30 5 63.5 7.5t64.5 7.5q3 0 3 2z" glyph-name="F" horiz-adv-x="494" unicode="F"/><glyph d="M241 347q-1 0 -1 -1v-1q2 -18 2 -30t-0.5 -23.5t0 -23.5t2.5 -28q5 -2 14.5 -2.5t21 0t22 1t16.5 -0.5q3 -1 3.5 -9t0 -18t-2 -19.5t-2.5 -13.5q-4 -14 -12 -22.5t-19 -13.5q-14 -5 -30.5 -8t-31.5 -1q-14 3 -23 9q-19 15 -25 41t-8 48q-3 37 -4 78t1 79.5t6.5 72.5 t11.5 58q2 8 5.5 16.5t5.5 10.5q12 12 28 12t33 -1q15 0 26 -9.5t19.5 -22t14 -27t8.5 -24.5q15 -2 26 -3t21.5 -1t21 0.5t25.5 0.5q16 1 23 1t9 3l1 6q7 61 -11 105.5t-54 71.5t-86 37.5t-105 3.5q-27 -4 -52 -12t-45 -25q-29 -20 -41.5 -51t-17.5 -64q-5 -32 -7 -65.5 t-3 -65.5q-1 -37 -0.5 -65.5t2 -54t3.5 -51.5t5 -58q2 -20 5.5 -39.5t6.5 -30.5q12 -43 33 -72t61 -46q24 -10 50.5 -13t54.5 -0.5t55 8t52 12.5q38 14 64 41t31 78q10 54 8 113.5t-8 112.5l-1 1h-2q-10 0 -38.5 2.5t-61.5 3.5t-62.5 -0.5t-42.5 -9.5z" glyph-name="G" horiz-adv-x="481" unicode="G"/><glyph d="M408.5 707.5q-18.5 0.5 -37.5 -1t-36.5 -4.5t-29.5 -7q3 -72 2.5 -132t-6.5 -129h-1q-25 -2 -54 -4.5t-54 3.5h-1q-12 64 -12 129t-9 134q-14 4 -30 4t-32.5 -1l-33 -2t-31.5 2h-2h-1v-1q-1 -51 -1.5 -114.5t0.5 -132t2.5 -136.5t3.5 -128.5t4.5 -109t4.5 -76.5 q9 5 26.5 4t37.5 -3t40 -2t32 7q5 32 5.5 64.5t-0.5 66.5t-1.5 68t2.5 69q29 7 58 7t58 -5l1 -1q4 -32 5 -67t1.5 -70t2 -70.5t6.5 -68.5h1q12 1 29.5 1h36t38 1t36.5 4l-27 700q-15 1 -33.5 1.5z" glyph-name="H" horiz-adv-x="499" unicode="H"/><glyph d="M129.5 703.5q-23.5 1.5 -41.5 2.5q-7 0 -21.5 1.5t-19.5 0.5v-2q-9 -84 -8.5 -171.5t3 -177t3.5 -180.5t-6 -181q10 3 37 1.5t56.5 -2.5t55 0.5t33.5 9.5q-5 85 -6 172t0.5 174.5t4 174.5t2.5 173v4h-24q-45 -1 -68.5 0.5z" glyph-name="I" horiz-adv-x="260" unicode="I"/><glyph d="M279 703q-4 -119 -2.5 -237t3.5 -230q-1 -15 -5 -28.5t-11.5 -24t-18.5 -15.5t-26 -2q-18 1 -29 13t-18 29.5t-9.5 37t-3.5 34.5v5v1q-18 3 -39.5 5t-42.5 2t-40.5 -1t-32.5 -4q-2 -38 1.5 -83.5t16.5 -87t38 -73.5t66 -44q45 -10 95 -7.5t92 23.5q46 17 69.5 53t33 80 t10.5 91.5t3 88.5q2 97 -2 193t-2 190l-146 -2v-7z" glyph-name="J" horiz-adv-x="463" unicode="J"/><glyph d="M334 443q24 42 48.5 84t46 84t33.5 84q-32 5 -68 3t-68 0q-21 -30 -37.5 -60t-32 -60t-32.5 -59t-38 -56q-2 -2 -3.5 -4.5t-1.5 -1.5q-2 57 -1 120t-1 120q-32 0 -66.5 1.5t-67.5 0.5q1 -175 -4.5 -348.5t2.5 -345.5q13 -3 32.5 -5t40.5 -2t40 1.5t33 5.5q0 28 -0.5 61 t-1.5 67t-1.5 67.5t0.5 62.5q16 -28 32 -63t32.5 -71t34.5 -69.5t39 -57.5q32 -1 69.5 -3t69.5 5l-171 355q18 42 42 84z" glyph-name="K" horiz-adv-x="459" unicode="K"/><glyph d="M456.5 109.5q0.5 10.5 1.5 20.5q1 11 1 22q-8 -1 -28.5 -0.5t-47 1.5t-56 2.5t-55.5 2.5t-45.5 1.5t-26.5 -1.5v1q1 64 0.5 132.5t-1.5 137.5t-1.5 137.5t1.5 133.5q-14 6 -37 9t-47 3t-45 -2.5t-31 -6.5q1 -70 2 -127.5t2 -108.5t1 -100t-0.5 -101.5t-2.5 -113 t-5 -135.5v-18q121 -2 193.5 -2t114 1t59 2t28.5 0q11 0 17 0.5t8.5 9t2.5 27t-2 54.5q-1 8 -0.5 18.5z" glyph-name="L" horiz-adv-x="461" unicode="L"/><glyph d="M460 507.5q-4 93.5 0 189.5q-16 0 -38.5 -0.5t-44 -1.5t-40 -2t-25.5 0q-9 -12 -18.5 -38t-17 -52.5t-14 -46.5t-9.5 -19q-3 0 -6 3q-8 12 -15.5 33t-15.5 44t-17 43.5t-18 30.5h-1q-17 -1 -35 -0.5l-36 1t-35 -0.5t-30 -5q-1 -136 -1.5 -238t-1 -176t-0.5 -124 t0.5 -80.5t1.5 -45.5t2 -19q1 -3 3 -3q32 0 70 -1t70 4q-6 93 -8.5 189t5.5 190l3.5 -10t8.5 -25t12 -33t13.5 -34t13 -26.5t11.5 -10.5q4 0 12 19t17 44t18 48.5t16 34.5q5 -42 7.5 -92t3 -102t1 -102t2.5 -93q12 0 28.5 0.5t34.5 0.5h36t33 -2l3 319q5 96 1 189.5z" glyph-name="M" horiz-adv-x="501" unicode="M"/><glyph d="M448 -3q7 2 9 3v20q0 20 -0.5 40t-0.5 40q0 28 0.5 55t0.5 56v86t-1 85v322q-29 6 -66 6q-38 0 -72 -6q-1 -25 -1.5 -46.5t-0.5 -42.5q0 -36 1.5 -70.5t1.5 -74.5q0 -17 -2 -35t-5 -20q-1 0 -7 11.5t-14.5 28t-18.5 37t-19 39t-16 32.5t-9 19q-9 21 -15.5 34.5t-12 24.5 l-11.5 23t-13 30q0 2 -10.5 4t-24.5 3.5t-28 2t-20 0.5q-12 0 -23.5 -1t-21.5 -3q-5 -64 -7 -131.5t-2 -136.5q0 -94 1.5 -180t1.5 -181v-70q23 0 47.5 -3t48.5 -3q11 0 22 1t22 4q-1 17 -1 38.5v44.5q0 42 0.5 87t1.5 82t2.5 61t2.5 24q2 0 5.5 -9.5t7.5 -20.5l10 -30 q23 -64 55.5 -133.5t65.5 -143.5q20 0 46 -2.5t46 -2.5q17 0 24 2z" glyph-name="N" horiz-adv-x="498" unicode="N"/><glyph d="M396 653q-29 22 -65.5 33.5t-75 13.5t-77 -5.5t-71.5 -23.5q-13 -8 -23 -18q-31 -35 -41.5 -80.5t-11.5 -90.5q-5 -79 -1.5 -157.5t6.5 -156.5q1 -29 5.5 -57.5t18.5 -53.5q9 -20 23 -32.5t31.5 -20.5t37 -11.5t40.5 -5.5q29 -2 57.5 0t56.5 10q31 8 58.5 22.5t44.5 38.5 q18 29 27 64.5t11 70.5l3 33q4 52 3 102t2 103q1 25 0.5 49.5t-2.5 49.5q-2 16 -5.5 31.5t-10.5 30.5q-12 35 -41 61zM330 300q0 -2 -0.5 -17t-1.5 -35q-2 -21 -1.5 -33.5t-0.5 -21.5t-5 -16.5t-13 -19.5q-15 -17 -37 -24.5t-44 -6t-41 12.5t-29 31q-10 33 -12 69.5t-7 71.5 q-2 42 -0.5 84t9.5 80q12 42 47 69q16 12 37 17t41 -3q23 -11 36.5 -34t15.5 -51q1 -17 2.5 -36.5t1.5 -20.5l2 -68v-48z" glyph-name="O" horiz-adv-x="483" unicode="O"/><glyph d="M458 588q-23 40 -58.5 66.5t-81.5 40t-94.5 17.5t-97 -1t-89.5 -16q3 -83 3.5 -174t0.5 -181v-175.5t3 -158.5q17 -2 40 -3t46.5 -0.5t45 2t35.5 5.5q1 0 1.5 0.5t1.5 0.5v1q-2 73 -2.5 116t-0.5 68.5v39t-1 27.5q48 -8 94 4.5t84 40.5t63.5 68t31.5 88q1 6 1 12.5v13.5 v1q-3 57 -26 97zM329.5 513q7.5 -12 10 -26t-1 -28t-11.5 -25q-12 -12 -28.5 -17.5t-34 -7.5t-35.5 -2.5t-34 -1.5h-3q-5 15 -6.5 33.5t-2 38.5t0 40t-0.5 38q1 1 3 1q32 8 65 2.5t58 -25.5q13 -8 20.5 -20z" glyph-name="P" horiz-adv-x="497" unicode="P"/><glyph d="M462.5 214q0.5 25 2.5 50q2 30 2.5 51.5t0.5 52.5q0 60 -6 120t-23 114q-17 40 -35 62.5t-40 33.5t-49 13.5t-62 2.5q-39 0 -72 -7t-59.5 -20t-44.5 -30.5t-25 -38.5q-10 -36 -14.5 -76t-6 -80.5t-1.5 -80v-74.5v-72t5 -67.5t17.5 -61t37.5 -52.5q15 -14 29.5 -24 t31 -17.5t36 -12t44.5 -6.5q15 -1 32 1t32 6t27 10t18 13q6 -8 18.5 -20t18.5 -12q11 0 23 6.5t20 11.5q11 8 19 16t8 22q0 7 -6 14.5t-13 15.5q17 37 23 61q4 14 5 26q6 24 6.5 49zM275 224q-8 -8 -16 -13q-11 -8 -22 -13t-11 -19q0 -9 6.5 -19.5t14.5 -20.5q10 -11 22 -23 q-5 -1 -9 -1h-9q-30 0 -54.5 13t-35.5 43q-5 15 -7 38.5t-2 48.5t0.5 48t0.5 37q0 21 0.5 38.5t1 34t2 34t3.5 38.5q2 25 5.5 40.5t13 23.5t26 10.5t45.5 2.5q47 0 65 -22.5t21 -58.5q4 -36 5.5 -62t1.5 -61q0 -11 0.5 -26.5t0.5 -32t-0.5 -31.5t-1.5 -26q-1 -5 -2 -13.5 t-2 -18t-2 -18t-2 -13.5q-6 6 -10.5 15t-9 16.5t-9.5 13t-11 5.5q-11 0 -19 -8z" glyph-name="Q" horiz-adv-x="495" unicode="Q"/><glyph d="M479 82.5q-22 38.5 -46 75.5t-49 73.5t-46 73.5v1h1h4q48 3 79.5 27t50.5 60q31 52 29.5 107.5t-27.5 101.5t-73 77t-106 34q-73 8 -140 1t-123 -15q2 -13 3.5 -49.5t2.5 -88t2.5 -113t2 -124t0.5 -121v-103.5t-1 -72.5t-3 -27.5q5 1 26.5 0t48.5 -0.5t54.5 2.5t44.5 9 q-1 19 -3 51t-3.5 67.5t-1.5 69t3 56.5l2 -3q21 -26 42 -60t39 -69t33 -67t25 -55h1q45 -3 88 -0.5t78 2.5h-1q-15 41 -37 79.5zM248 574.5q34 1.5 56 -18.5q14 -11 20 -29.5t4 -37t-12.5 -34t-29.5 -19.5q-24 -4 -51 -3t-50 3h-1q-2 11 -2.5 27t-0.5 33t-0.5 33.5 t-1.5 29.5q35 14 69 15.5z" glyph-name="R" horiz-adv-x="518" unicode="R"/><glyph d="M451 598q-26 49 -74 74q-24 11 -52.5 18t-58 8.5t-58.5 -2t-53 -13.5q-48 -20 -81.5 -61t-45.5 -91t1.5 -103t59.5 -97q14 -12 31 -21t37 -13q21 -4 45 -8.5t44.5 -13.5t35.5 -23.5t18 -38.5q6 -35 -13.5 -52t-46 -17.5t-50 15.5t-25.5 48q-34 -1 -76 1.5t-77 -2.5v-3v-3 q-3 -48 17 -85.5t54 -63.5t77.5 -40.5t87.5 -15.5q31 -1 60.5 5.5t55 20.5t45.5 36t32 53q12 26 17.5 54.5t4 56.5t-10.5 54.5t-27 49.5q-29 43 -74.5 71t-98.5 34q-21 3 -39 11t-26 32q-1 7 -1.5 13.5t1.5 13.5q4 28 26.5 38t46.5 5t41 -23t11 -45q35 -10 75 -8.5t75 7.5h1 q14 75 -12 124z" glyph-name="S" horiz-adv-x="485" unicode="S"/><glyph d="M220.5 705.5q-108.5 -0.5 -210.5 -1.5q0 -1 0.5 -1t0.5 -1q-2 -24 -2 -50t0.5 -48.5t2 -38.5t3.5 -20q6 -2 21 -2t33 -0.5t36 -2t30 -7.5l1 -1q6 -140 7.5 -239t1 -162.5t-1.5 -95.5t0 -36q18 3 39 3h42.5t43 0.5t39.5 3.5v1v1q-2 109 -3 189.5t-2 138t-1.5 94t-0.5 59 t0.5 33t1.5 15.5q0 1 0.5 1.5t0.5 1.5h1h2q47 2 75 3t47 -3q5 36 5.5 79t-1.5 76q-103 11 -211.5 10.5z" glyph-name="T" horiz-adv-x="443" unicode="T"/><glyph d="M438 678q-19 2 -40 1t-41.5 -3.5t-33.5 -3.5q-3 -116 -3.5 -240t-5.5 -244q-5 -23 -22 -36t-37 -14t-38.5 10t-25.5 35q-20 249 -9 491v1q-15 4 -33 5.5t-37 1.5t-37.5 -1t-33.5 -1h-1l1 -1q2 -132 -1 -266t-3 -266q2 -46 26.5 -78.5t61 -52t81.5 -27t87 -3.5 q72 7 114 53t50 112q14 129 16 259.5t-4 258.5q-12 7 -31 9z" glyph-name="U" horiz-adv-x="505" unicode="U"/><glyph d="M409.5 687.5q-18.5 0.5 -37 0.5t-36.5 0.5t-35 4.5q-2 0 -2 -2q-11 -42 -19 -90t-17 -105t-21 -124.5t-31 -148.5q-20 81 -29.5 157t-13.5 139t-5 108t-5 65q-8 2 -29 3t-44 0.5t-43 -3.5t-26 -10v-1q14 -173 43 -343.5t74 -332.5q16 -5 38.5 -6.5t44.5 -1.5q21 0 38 2 t25 2q24 87 46 171.5t43 168.5t40.5 169t36.5 174q-17 3 -35.5 3.5z" glyph-name="V" horiz-adv-x="440" unicode="V"/><glyph d="M378 700q-18 0 -36 -1t-35 -5v-1q-4 -44 -5.5 -99.5t-3 -113.5t-3.5 -113.5t-6 -98.5q-6 15 -13.5 46t-15 63t-15 57.5t-11.5 28.5q-1 -1 -1 -2t-1 -3q-11 -45 -21.5 -88.5t-23.5 -88.5q-11 43 -14 97t-3 110v111t-4 99q-18 1 -38 2t-40 1q-17 0 -33.5 -1.5t-31.5 -3.5 v-1q3 -173 26 -346t47 -344h1q22 -3 38 -3q14 0 25 1.5t24 3.5q8 13 14 37t12 49.5t12.5 48t15.5 31.5h1q9 -14 16 -38t14 -49.5t13.5 -48t15.5 -34.5h12h36h18.5t15.5 2q14 174 32.5 346t33.5 345l-1 1q-33 3 -67 3z" glyph-name="W" horiz-adv-x="465" unicode="W"/><glyph d="M439.5 699q0.5 0 0.5 1h-1q-57 0 -92 -1t-61 -3v-1q-7 -22 -15 -53t-17 -63t-18.5 -62t-18.5 -50q-7 19 -15.5 48.5t-17.5 60.5t-18 61t-15 51q-3 5 -14 5h-38q-18 0 -43 -1t-57 -3q33 -85 65 -169.5t49 -172.5q-9 -42 -23 -86t-28.5 -87.5l-28.5 -85.5t-24 -79 q19 -7 42.5 -8t46.5 -1q12 0 24 0.5t23 1.5q12 25 20.5 53.5t16.5 58t16.5 59t21.5 58.5l1 -1q12 -24 19.5 -53t14.5 -59t15 -59t19 -53l1 -1q19 -4 44 -4q17 0 32.5 1t31.5 1h13t13 -1q-10 41 -23 83.5l-26 85t-25 85.5t-19 85q7 46 19.5 91.5t27.5 90t31 88t30 87.5 q0 1 0.5 1z" glyph-name="X" horiz-adv-x="436" unicode="X"/><glyph d="M434 694.5q-10 0.5 -22 0.5q-26 0 -56.5 -1.5t-48.5 -5.5q-9 -20 -19 -50t-20.5 -61t-21 -59.5t-20.5 -46.5q-9 19 -20.5 47t-22 59t-20 61t-14.5 52q-11 5 -23 6.5t-24 1.5q-22 0 -44 -3t-42 -3q10 -42 27 -85t35.5 -86t35.5 -86.5t28 -87.5v-2q-35 -88 -70 -176.5 t-61 -169.5h2q6 -1 12 -1h12q23 0 48 1.5t46 1.5h13t12 -1q30 88 69 173.5t80 171t79 171.5t66 176v1q-6 1 -16 1.5z" glyph-name="Y" horiz-adv-x="435" unicode="Y"/><glyph d="M453 614q3 41 -2 80q-115 1 -225 3.5t-213 -7.5q2 -2 2 -4v-1q5 -16 5.5 -35.5t0.5 -38.5t1 -36t7 -27q18 0 49.5 -1.5t66.5 -3t68.5 -3.5t56.5 -5q-29 -41 -62.5 -87t-67 -94t-63.5 -97t-52 -98q2 -21 1.5 -41.5t-0.5 -41t1 -40t7 -37.5q107 6 210.5 5t198.5 -6v2 q3 36 5 79t-3 81v3q-43 -2 -72.5 -2.5t-56 -1t-55 -2.5t-68.5 -7l1 1q63 97 131 191t126 192v1q-1 38 2 79z" glyph-name="Z" horiz-adv-x="474" unicode="Z"/><glyph d="M294.5 66.5q-1.5 33.5 -3.5 65.5q-24 2 -52.5 3t-54.5 7v1q0 49 -2.5 105t-4.5 114.5t-1.5 115.5t5.5 108h1q26 -2 53.5 1t52.5 1h2h1q6 19 6 52.5v65.5q-29 -3 -59 -2t-60.5 2.5t-61.5 2t-63 -3.5v-1q-6 -86 -8 -174.5t-2 -177.5t0.5 -177.5t-0.5 -172.5v-4 q11 1 31.5 1.5t43.5 0.5h44.5h34.5l97 1q2 32 0.5 65.5z" glyph-name="bracketleft" horiz-adv-x="321" unicode="["/><glyph d="M264 2q6 -1 13 -1.5t20.5 -0.5h35.5t56 -1h1q4 0 1 13t-8.5 29t-11.5 30.5t-7 18.5q-7 22 -14.5 44t-17.5 44q-2 7 -5.5 18t-13 38t-27.5 75t-48 129q-11 29 -19.5 58t-18.5 58q-1 2 -6 16t-12.5 35.5t-15.5 48.5t-15 55q-14 -3 -32 -2.5t-36 1.5t-35 0t-29 -7 q2 -5 3 -8.5t3 -9.5q4 -14 14 -46.5t30 -98.5q10 -28 20 -55.5t19 -54.5q19 -55 36.5 -109t37.5 -108q5 -15 10.5 -30t11.5 -30l57 -144q2 -4 3 -5z" glyph-name="backslash" horiz-adv-x="412" unicode="\"/><glyph d="M158.5 0h44.5t43.5 -0.5t31.5 -1.5v4q-2 84 -1.5 172.5t0.5 177.5t-1.5 177.5t-7.5 174.5v1q-32 4 -63 3.5t-61.5 -2t-60.5 -2.5t-59 2v-65.5t6 -52.5h1h2q25 2 52.5 -1t53.5 -1h1q5 -51 5.5 -108t-1.5 -115.5t-4.5 -114.5t-2.5 -105v-1q-26 -6 -54.5 -7t-52.5 -3 q-2 -32 -3.5 -65.5t0.5 -65.5l97 -1h34.5z" glyph-name="bracketright" horiz-adv-x="321" unicode="]"/><glyph d="M108.5 586.5q-54.5 -49.5 -97.5 -108.5q43 -2 65.5 -3.5t34.5 -2.5t19 -0.5t19 1.5q5 1 14 10.5t19 20t19.5 20t15.5 11.5q6 -3 15.5 -13t19 -21t18 -19.5t13.5 -8.5q30 -4 56.5 -3t46 3.5t31 4.5t13.5 1l-210 210q-57 -53 -111.5 -102.5z" glyph-name="asciicircum" horiz-adv-x="440" unicode="^"/><glyph d="M41 -71q0 -17 0.5 -33t1 -28.5t0.5 -15.5h40t98 -0.5t128.5 -1t132 -0.5h108h57.5q0 21 -0.5 33.5t-0.5 23.5t1 23.5t4 32.5h-1h-30h-65.5t-88.5 -0.5t-100.5 -1t-100.5 -1t-88.5 -1t-65.5 -1t-30 -0.5v-29z" glyph-name="underscore" horiz-adv-x="650" unicode="_"/><glyph d="M14 619q7 -7 22 -20t31 -27.5t29.5 -27.5t18.5 -21q16 -2 36 -2.5t39.5 0.5t35.5 2.5t23 3.5q-17 16 -38.5 38.5t-44 46t-44.5 44t-40 34.5l-69 -70z" glyph-name="grave" horiz-adv-x="255" unicode="`"/><glyph d="M382.5 501q-24.5 1 -41.5 2h-11t-16 0.5t-14.5 0t-6.5 -1.5q0 -12 -2.5 -23.5t-1.5 -27.5q-7 17 -17 26.5t-23 14t-28.5 5t-33.5 0.5q-35 -1 -66 -18.5t-53.5 -48t-35.5 -72.5t-13 -92q0 -40 8.5 -87t26.5 -87t45.5 -67t66.5 -27q35 0 71.5 17t60.5 41q0 -10 -2 -17 t-2 -18q0 -8 2.5 -14t9.5 -8q11 0 21.5 1.5t21.5 1.5q16 0 32.5 -1.5t32.5 -1.5h12q12 2 12.5 15t0.5 26q7 107 3 211.5t-1 212.5v10q0 6 -0.5 12t-1.5 12q-32 2 -56.5 3zM176.5 343.5q23.5 19.5 64.5 19.5q21 0 31.5 -3t15 -14t5 -31.5t0.5 -55.5q0 -28 -0.5 -50.5t-6 -38 t-18 -24t-37.5 -8.5q-42 0 -65.5 31.5t-23.5 76.5q0 13 1 26.5t5 26.5q5 25 28.5 44.5z" glyph-name="a" unicode="a"/><glyph d="M153.5 705.5q-13.5 1.5 -33 2t-41.5 0t-38 -3.5v-66q0 -83 -2 -166t-3.5 -163.5t-2 -158t1.5 -149.5q31 0 68 -1.5t67 2.5q1 2 1 7q0 10 0.5 16t0.5 17q2 5 4.5 7.5t5.5 -3.5q15 -30 40 -38.5t53 -4.5q57 4 90 29.5t49.5 65t21.5 88.5t7 99q0 35 -4.5 68t-14 60.5t-25 47 t-37.5 27.5q-27 10 -59.5 12.5t-61.5 0t-49 -9.5t-22 -16q1 47 1 76v46.5t-0.5 27t-1 18t-1 19t-1.5 30.5v11q0 1 -13.5 2.5zM328 286q1 -15 1 -29q0 -25 -6 -48.5t-18 -42t-29 -29.5t-38 -11q-26 0 -40 11t-21.5 30t-9 45.5t-1.5 58.5q0 39 1.5 61.5t7.5 34.5t18.5 15.5 t33.5 3.5q41 0 65.5 -18t29.5 -53q5 -14 6 -29z" glyph-name="b" horiz-adv-x="464" unicode="b"/><glyph d="M393 195.5q-17 0.5 -36 -0.5t-36 -1.5t-27 0.5q-3 -13 -8.5 -29.5t-15.5 -23.5q-12 -8 -32 -10.5t-39 2t-32.5 17.5t-11.5 36q2 35 2 67t4 63q3 16 9 20q13 16 34 22q39 10 63 -9.5t29 -54.5q13 -2 29.5 -4t34 -3t34 -1t29.5 3q-1 33 -1.5 61.5t-4.5 51.5t-11.5 40 t-21.5 27q-21 20 -50 30t-61 12q-21 2 -39.5 0.5t-38.5 0.5q-24 0 -47.5 -3t-44 -10.5t-36 -18.5t-22.5 -26q-3 -10 -9 -29t-7 -30q-6 -36 -6 -72q4 -33 2.5 -73t0.5 -79.5t12 -75.5t37 -60q35 -35 86 -44q28 0 62 -2.5t66 0t59.5 12.5t44.5 34q7 7 11.5 22.5t7.5 37t5 46.5 t4 51q-11 3 -28 3.5z" glyph-name="c" horiz-adv-x="442" unicode="c"/><glyph d="M295.5 661.5q-0.5 -10.5 -1 -19t-1 -18t-0.5 -27v-46.5t1 -76q-2 9 -22 16t-49 9.5t-61.5 0t-59.5 -12.5q-22 -8 -37.5 -27.5t-25 -47t-14 -60.5t-4.5 -68q1 -50 6.5 -99t22 -88.5t49.5 -65t90 -29.5q28 -4 53 4.5t40 38.5q3 6 5.5 3.5t4.5 -7.5q0 -11 0.5 -17t0.5 -16 q0 -5 1 -7q30 -4 67 -2.5t68 1.5q4 144 -1 307t-5 330v66q-16 3 -38 3.5t-41.5 0t-33 -2t-13.5 -2.5v-11q-1 -20 -1.5 -30.5zM171.5 368q24.5 18 65.5 18q21 0 33.5 -3.5t18.5 -15.5t7.5 -34.5t1.5 -61.5q0 -32 -1.5 -58.5t-9 -45.5t-22 -30t-39.5 -11q-21 0 -38 11 t-29 29.5t-18 42t-6 48.5q0 14 1 29t6 29q5 35 29.5 53z" glyph-name="d" horiz-adv-x="463" unicode="d"/><glyph d="M188 248q22 -1 49.5 -1t57.5 1t56.5 3t46 4t26.5 4q3 42 0 83t-17.5 75t-42.5 58t-74 32q-36 9 -74 8t-72 -11.5t-61 -31t-40 -49.5q-12 -33 -15.5 -67.5t-6.5 -71.5q-2 -41 2 -82t15 -77.5t29 -67t45 -49.5q24 -14 52 -18q28 0 61.5 -2t65.5 0t59 12t44 34 q7 6 11.5 21.5t7.5 37t5 46.5t4 51q-11 3 -28 3.5t-35.5 -0.5t-35.5 -1.5t-27 0.5q2 -41 -12.5 -61.5t-35.5 -24.5t-43 7t-34 34q-11 18 -12.5 37t-2.5 49v18q10 -2 32 -3zM305.5 379q10.5 -18 10.5 -38v-10.5t-5.5 -3t-18.5 0.5t-39 1q-38 0 -57.5 -0.5t-28.5 1t-9.5 6 t1.5 15.5q2 13 6.5 25t13.5 21t24 14t39 5q11 0 19 -2.5t16 -7.5q18 -9 28.5 -27z" glyph-name="e" horiz-adv-x="444" unicode="e"/><glyph d="M216 356q31 -1 65.5 -3t85.5 -5q2 19 3 30t1.5 18t0.5 13.5v17.5q1 14 0 24.5t1 21.5h-153q-5 25 0.5 44.5t28.5 23.5q14 2 31 4.5t34 4.5t32.5 3t27.5 0q2 14 4 31t3 35t-0.5 36t-6.5 33q-47 2 -96.5 -1.5t-91.5 -17.5q-34 -11 -55 -33.5t-32.5 -50t-14.5 -56.5t-1 -54 q-16 1 -33.5 1h-38.5l3 -122q20 1 37.5 1h33.5q0 -15 -0.5 -43t-1 -63.5t-0.5 -73.5t0.5 -72.5t1 -62t2.5 -39.5q13 -2 28.5 -1t32.5 2.5t34 2.5t34 -1v134v218z" glyph-name="f" horiz-adv-x="379" unicode="f"/><glyph d="M135 256.5q0 9.5 2 19.5q4 23 14.5 43.5t25.5 37.5q12 10 27.5 14.5t31.5 2.5t29.5 -10.5t19.5 -23.5q10 -38 11.5 -79.5t1.5 -81.5q-1 -9 -2.5 -18.5t-4.5 -18t-8 -15t-14 -9.5q-26 -8 -56 -3.5t-48 26.5q-30 36 -30 87v9v19.5zM334 -196q14 3 28 10.5t28.5 20.5 t28.5 35q10 16 9 39.5t0 47.5q6 144 5.5 280.5t-4.5 261.5q-34 0 -68 1.5t-67 -2.5q-3 -5 -2.5 -13.5l1 -17t0 -14t-4.5 -3.5q-12 28 -39.5 38.5t-59.5 8.5q-64 -4 -98 -36.5t-49.5 -80t-17.5 -101.5t-2 -101q2 -31 8 -60.5t20 -56.5q9 -19 23 -31t31.5 -19t37 -10t38.5 -3 q14 1 30 1t31.5 2t29 7t23.5 16q-2 -18 0 -35q1 -8 0 -18.5t-2 -20.5q-6 -28 -25.5 -40t-40 -10t-37 17.5t-16.5 41.5q-12 2 -29.5 3.5t-36 2t-35.5 -1t-27 -5.5q-1 -8 -0.5 -19t3 -23t6 -23.5t7.5 -18.5q23 -34 60 -54t84 -20q41 0 67 -1t36 1q12 1 26 4z" glyph-name="g" horiz-adv-x="467" unicode="g"/><glyph d="M167 471v50v62.5v63v51t-1 26.5q0 3 -8 3.5t-18 -0.5t-20 -2.5t-14 -1.5q-12 -1 -20 -1.5t-15 -0.5t-15 0.5t-20 1.5q-1 -44 -1.5 -103.5t-0.5 -126.5v-137.5t0.5 -136.5t1 -123.5t0.5 -98.5q24 2 40 1t29 -1.5t25.5 0.5t29.5 6v4q4 33 4 66t-1.5 66.5t-2.5 67t1 68.5 q2 27 14 40.5t27 18t30.5 2t23.5 -6.5q1 -1 2 -1t2 -1q8 -6 12.5 -17t7 -25t3.5 -28.5t2 -26.5q2 -27 2.5 -58t0 -62t-0.5 -60t2 -52q35 0 62.5 -0.5t62.5 4.5q-2 34 -1 79t2 93.5t1.5 96t-1 87.5t-7 68.5t-15.5 37.5q-21 18 -47 25t-53.5 6t-53.5 -10t-47 -24 q-5 -4 -12.5 -8t-12.5 -7v25z" glyph-name="h" horiz-adv-x="448" unicode="h"/><glyph d="M103 503q-23 1 -36 2q-5 0 -14.5 1t-13.5 0v-1q-6 -59 -6 -121.5t2 -126.5t2.5 -129t-4.5 -128q7 2 28 1t44.5 -1.5t43.5 0t25 6.5q-7 121 -3.5 247t4.5 247v3h-17q-32 -1 -55 0zM36.5 643.5q2.5 -31.5 2.5 -60.5q19 1 41 -0.5t41.5 -2t34 1.5t18.5 8q0 15 -0.5 34.5 t-1 38t-1 34t-0.5 21.5l-136 3q-1 -46 1.5 -77.5z" glyph-name="i" horiz-adv-x="207" unicode="i"/><glyph d="M35.5 276q-0.5 -48 -0.5 -98v-99t-1 -91q-10 -14 -29 -22t-41 -12.5t-44.5 -5.5t-39.5 0q-2 -14 -4 -31t-3 -35t0.5 -36t6.5 -33q40 -2 83 0.5t81 11.5t67.5 27t42.5 49q8 48 11.5 92.5t4 88t0 88t-0.5 93.5q-2 18 -1 48.5t1.5 64t0.5 67t-3 57.5q-13 2 -28.5 1 t-32.5 -2.5t-34.5 -2.5t-33.5 1v-134q-2 -39 -2.5 -87zM33.5 643.5q2.5 -31.5 2.5 -60.5q19 1 41 -0.5t40.5 -2t32.5 1.5t18 8q0 15 -0.5 34.5t-1 38t-1 34t-0.5 21.5l-133 3q-1 -46 1.5 -77.5z" glyph-name="j" horiz-adv-x="204" unicode="j"/><glyph d="M144 728q-17 0 -35.5 -0.5l-37 -1t-33.5 -0.5q1 -182 -3 -361t3 -365q15 -2 33.5 -2t36.5 1t34.5 1.5t27.5 -0.5q4 22 5 48.5t1 52.5t-1 50t-1 42q17 -22 30.5 -46t25.5 -48.5t24.5 -49.5t27.5 -49q15 -3 36.5 -4t44.5 0t44.5 2.5t35.5 1.5q-38 77 -83.5 148.5 t-90.5 144.5q42 56 85 111.5t80 112.5q-14 1 -36 -0.5t-44.5 -2t-43.5 0t-34 5.5q-15 -17 -26.5 -36t-22.5 -37.5t-23.5 -36.5t-29.5 -33q-3 23 -1.5 60t1.5 70v219q-13 2 -30 2z" glyph-name="k" horiz-adv-x="435" unicode="k"/><glyph d="M30.5 545q0.5 -91 3.5 -182t4.5 -182t-5.5 -181q7 2 28 1t44.5 -1.5t43.5 0t25 6.5q-2 40 -3 97.5t-1 123.5t0.5 137t1.5 137t2 124t1 99l-136 3q-9 -91 -8.5 -182z" glyph-name="l" horiz-adv-x="206" unicode="l"/><glyph d="M167.5 471q0.5 11 -1.5 28q0 3 -8 3.5t-18 -0.5t-20 -2.5t-14 -1.5q-12 -1 -20 -1.5t-15 -0.5t-15 0.5t-20 1.5q-4 -132 -1.5 -255t2.5 -246q24 2 40 1t29 -1.5t25.5 0.5t29.5 6v4q4 33 4 66t-1.5 66.5t-2.5 67t1 68.5q2 27 14 40.5t27 18t30.5 2t23.5 -6.5q1 -1 2 -1 t2 -1q8 -6 12.5 -17t7 -25t3.5 -28.5t2 -26.5q2 -27 2.5 -58t0 -62t-0.5 -60t2 -52q35 0 62.5 -0.5t62.5 4.5q-2 30 -1.5 69.5t1.5 82t2 86t0 82.5q9 7 19.5 10.5t21 3.5t19.5 -2t15 -5q1 -1 2 -1t2 -1q8 -6 12.5 -17t7 -25t3.5 -28.5t2 -26.5q2 -27 2.5 -58t0 -62t-0.5 -60 t2 -52q35 0 62.5 -0.5t62.5 4.5q-2 34 -1 79t2 93.5t1.5 96t-1 87.5t-7 68.5t-15.5 37.5q-21 18 -47 25t-53.5 6t-53.5 -10t-47 -24q-5 -4 -12 -7.5t-12 -6.5q-5 12 -10 17q-21 18 -47 25t-53.5 6t-53.5 -10t-47 -24q-5 -4 -12.5 -8t-12.5 -7q-1 14 -0.5 25z" glyph-name="m" horiz-adv-x="684" unicode="m"/><glyph d="M168.5 471q0.5 11 -1.5 28q0 3 -8 3.5t-18 -0.5t-20 -2.5t-14 -1.5q-12 -1 -20 -1.5t-15 -0.5t-15 0.5t-20 1.5q-4 -132 -1.5 -255t2.5 -246q24 2 40 1t29 -1.5t25.5 0.5t29.5 6v4q4 33 4 66t-1.5 66.5t-2.5 67t1 68.5q2 27 14 40.5t27 18t30.5 2t23.5 -6.5q1 -1 2 -1 t2 -1q8 -6 12.5 -17t7 -25t3.5 -28.5t2 -26.5q2 -27 2.5 -58t0 -62t-0.5 -60t2 -52q35 0 62.5 -0.5t62.5 4.5q-2 34 -1 79t2 93.5t1.5 96t-1 87.5t-7 68.5t-15.5 37.5q-21 18 -47 25t-53.5 6t-53.5 -10t-47 -24q-5 -4 -12.5 -8t-12.5 -7q-1 14 -0.5 25z" glyph-name="n" horiz-adv-x="450" unicode="n"/><glyph d="M36 426.5q-6 -18.5 -7 -29.5q-3 -19 -4 -36.5t-1 -35.5q3 -33 1.5 -73t0.5 -79.5t12 -75.5t37 -60q35 -35 86 -44q28 0 62 -2.5t66 0t59.5 12.5t44.5 34q10 10 15.5 37t9 61t5 71t2.5 66q-1 33 -2 64.5t-5 58t-12 46.5t-22 29q-21 20 -50 30.5t-61 12.5q-21 2 -39.5 0.5 t-38.5 0.5q-24 0 -47.5 -3t-44 -10.5t-36 -18.5t-22.5 -26q-3 -11 -9 -29.5zM204 360q39 9 63 -7t29 -51q6 -29 3.5 -61.5t-6.5 -64.5q-6 -25 -23 -33q-13 -7 -33 -9.5t-38.5 2t-31.5 17t-12 35.5q2 35 2 66.5t4 63.5q3 16 9 20q13 16 34 22z" glyph-name="o" horiz-adv-x="448" unicode="o"/><glyph d="M168.5 -161.5q0.5 10.5 1 19t1 18t0.5 27v46.5t-1 76q2 -9 22 -16t49 -9.5t61.5 0t59.5 12.5q22 8 37.5 27.5t25 47t14 60.5t4.5 68q-2 50 -7 99t-21.5 88.5t-49.5 65t-90 29.5q-28 4 -53 -4.5t-40 -38.5q-3 -6 -5.5 -3.5t-4.5 7.5q0 11 -0.5 17t-0.5 16q0 5 -1 7 q-30 4 -67 2.5t-68 -1.5q-2 -72 -1.5 -149.5t2 -158t3.5 -163.5t2 -166v-66q16 -3 38 -3.5t41.5 0t33 2t13.5 2.5v11q1 20 1.5 30.5zM292.5 132q-24.5 -18 -65.5 -18q-21 0 -33.5 3.5t-18.5 15.5t-7.5 34.5t-1.5 61.5q0 31 1.5 58t9 46t21.5 30t40 11q21 0 38 -11t29 -29.5 t18 -42t6 -48.5q0 -14 -1 -29t-6 -29q-5 -35 -29.5 -53z" glyph-name="p" horiz-adv-x="464" unicode="p"/><glyph d="M310.5 -205.5q13.5 -1.5 33 -2t41.5 0t38 3.5v66q0 83 2 166t3.5 163.5t2 158t-1.5 149.5q-31 0 -68 1.5t-67 -2.5q-1 -2 -1 -7q0 -10 -0.5 -16t-0.5 -17q-2 -5 -4.5 -7.5t-5.5 3.5q-15 30 -40 38.5t-53 4.5q-57 -4 -90 -29.5t-49.5 -65t-22 -88.5t-6.5 -99 q0 -35 4.5 -68t14 -60.5t25 -47t37.5 -27.5q27 -10 59.5 -12.5t61.5 0t49 9.5t22 16q-1 -47 -1 -76v-46.5t0.5 -27t1 -18t1 -19t1.5 -30.5v-11q0 -1 13.5 -2.5zM136 214q-1 15 -1 29q0 25 6 48.5t18 42t29 29.5t38 11q25 0 39.5 -11t22 -30t9 -46t1.5 -58q0 -39 -1.5 -61.5 t-7.5 -34.5t-18.5 -15.5t-33.5 -3.5q-41 0 -65.5 18t-29.5 53q-5 14 -6 29z" glyph-name="q" horiz-adv-x="463" unicode="q"/><glyph d="M172.5 475q-0.5 3 -0.5 5.5v6.5v12q0 2 -8.5 2.5t-20 -0.5t-22 -2t-14.5 -1q-12 -1 -20 -1.5t-15 -0.5t-15 0.5t-20 1.5q-4 -132 -1.5 -255t2.5 -246q24 2 41.5 1t32.5 -1.5t29 0.5t31 6v4q0 37 -0.5 69.5t-0.5 64t-1 62.5t-2 66q-1 28 8 43t25.5 22t39 7t49.5 -3 q1 0 13.5 -2t24.5 -5q5 -2 10.5 -3.5t10.5 -3.5l9 -3q-1 15 -1 32v37.5t0.5 46.5t0.5 60q0 1 -14.5 1.5t-35.5 -0.5t-45 -4.5t-43 -9.5q-14 -5 -28.5 -11t-18.5 -8q0 7 -0.5 10z" glyph-name="r" horiz-adv-x="368" unicode="r"/><glyph d="M416 443.5q-20 43.5 -67 63.5q-26 6 -57 9.5t-62 3.5t-58.5 -3t-46.5 -8q-49 -13 -75.5 -50t-28 -80.5t24 -84t81.5 -59.5q28 -12 57 -17t52 -11.5t37 -18.5t11 -36q1 -29 -18 -40t-42 -8.5t-43.5 17t-21.5 37.5q-31 0 -73 1.5t-75 -2.5v-2v-3q0 -40 16.5 -72t46 -54 t70.5 -33t92 -9q58 -1 107 20t72 70q19 55 14 92.5t-27 73.5q-23 30 -72 43.5t-105 21.5q-23 8 -35 24t-12 32t11.5 29.5t34.5 17.5q13 1 26.5 -3.5t24 -13.5t16 -21t2.5 -24q34 -7 72.5 -6t70.5 6q0 54 -20 97.5z" glyph-name="s" horiz-adv-x="450" unicode="s"/><glyph d="M181 683q-17 1 -34 2.5t-32.5 2.5t-28.5 -1q-2 -19 -2.5 -43t-0.5 -50t1 -51.5t1 -47.5h-33.5t-37.5 1l-3 -122h38.5t33.5 1q-1 -73 1 -141.5t15 -145.5q13 -31 42.5 -49t67.5 -27t81 -11.5t83 -0.5q5 15 6.5 33t0.5 36t-3 35t-4 31q-17 -1 -39.5 0t-44.5 5.5t-41 12.5 t-29 22q-1 45 -1 96.5v105.5h155q-2 13 -0.5 31.5t2.5 36.5t0 33.5t-8 23.5q-51 -3 -85.5 -5t-65.5 -3q0 15 -0.5 29t-0.5 27v134q-17 -2 -34 -1z" glyph-name="t" horiz-adv-x="387" unicode="t"/><glyph d="M281.5 29q-0.5 -11 1.5 -28q0 -3 8 -3.5t18 0.5t20 2.5t14 1.5q12 1 20 1.5t15 0.5t15 -0.5t20 -1.5q4 132 1.5 255t-2.5 246q-24 -2 -40 -1t-29 1.5t-25.5 -0.5t-29.5 -6v-4q-5 -33 -4.5 -66t2 -66.5t2.5 -67.5t-1 -68q-2 -27 -14 -40.5t-27 -18t-30.5 -2t-23.5 6.5 q-1 1 -2 1t-2 1q-8 6 -12.5 17t-7 25t-3.5 28.5t-2 26.5q-2 27 -2.5 58t0 62t0.5 60t-2 52q-35 0 -62.5 0.5t-62.5 -4.5q2 -34 1 -79t-2 -93.5t-1.5 -96t1 -87.5t7 -68.5t15.5 -37.5q21 -18 47 -25t53.5 -6t53.5 10t47 24q5 4 12.5 8t12.5 7q1 -14 0.5 -25z" glyph-name="u" horiz-adv-x="450" unicode="u"/><glyph d="M82.5 498.5q-35.5 -2.5 -71.5 1.5q32 -118 58 -248t46 -255q19 0 43.5 -0.5t50 -1t50 0t44.5 3.5q17 63 31 127.5t28 128.5t29.5 125.5t36.5 118.5q-21 1 -38 1t-33 -1t-31 -2t-32 -1q-12 -30 -22 -76t-18.5 -95t-17.5 -94.5t-20 -75.5q-11 30 -20 73.5t-17 91.5 t-15 94.5t-14 82.5q-32 4 -67.5 1.5z" glyph-name="v" horiz-adv-x="429" unicode="v"/><glyph d="M83 498.5q-36 -2.5 -72 1.5q32 -118 58 -248t46 -255q19 0 43.5 -0.5t50 -1t50 0t44.5 3.5q14 54 20.5 114.5t18.5 115.5q11 -56 20.5 -117t18.5 -115q19 0 41.5 -0.5t46 -1t46 0t42.5 3.5q17 63 31 127.5t28 128.5t29.5 125.5t36.5 118.5q-40 3 -69 0t-61 -3 q-9 -23 -18.5 -68t-19.5 -96t-21 -99.5t-23 -77.5q-11 30 -20 74t-16.5 92t-14 95t-13.5 83q-15 3 -27 3t-24.5 -1t-26.5 -2t-33 1l-2 -11t-4 -24t-4.5 -24l-2.5 -11q-12 -55 -19.5 -93.5t-14.5 -69t-14 -56.5t-18 -56q-11 30 -20 73.5t-16.5 91.5t-14.5 94.5t-14 82.5 q-32 4 -68 1.5z" glyph-name="w" horiz-adv-x="683" unicode="w"/><glyph d="M413 501h-1h-44t-46.5 -0.5t-41 -1t-27.5 -1.5q-5 -15 -10.5 -38.5t-12 -48.5t-13 -47.5t-12.5 -36.5q-5 13 -11 36t-12.5 47.5t-13 48t-10.5 38.5q-1 1 -11 2t-23.5 1h-28h-23.5q-25 0 -70 -3q23 -60 47.5 -124t36.5 -126q-7 -29 -17 -61t-21 -63.5t-21.5 -62 t-17.5 -56.5q13 -5 34.5 -5.5t37.5 -0.5h14.5t22.5 0.5t22 0.5h14q17 36 26 79.5t27 83.5v-1q8 -17 13.5 -37.5t10.5 -41.5t10.5 -41.5t13.5 -37.5h1q3 -1 14.5 -1.5t24 -1t24 -0.5h15.5q12 0 25 0.5t24 0.5h9t9 -1q-14 58 -37 122t-34 124q11 65 36.5 128.5t45.5 125.5 q1 0 1 1z" glyph-name="x" horiz-adv-x="413" unicode="x"/><glyph d="M79 498.5q-40 -2.5 -76 1.5q31 -113 63 -234t53 -242q5 -33 -5.5 -48t-30.5 -19.5t-45.5 -2.5t-49.5 2q-5 -28 -4.5 -65.5t10.5 -67.5q85 -5 143.5 13t98 52.5t63.5 81.5t39.5 99t26 106t23.5 103q12 52 24.5 106.5t28.5 114.5q-42 3 -77 1t-69 -1q-12 -30 -20 -79 t-14.5 -102t-13.5 -102t-18 -79q-11 30 -22 76.5t-21 97.5t-19 100.5t-16 85.5q-32 4 -72 1.5z" glyph-name="y" horiz-adv-x="449" unicode="y"/><glyph d="M412.5 498.5q-17.5 -0.5 -38.5 -1t-40.5 -1t-27.5 1.5q-54 0 -125.5 -0.5t-152.5 -0.5q1 -22 0 -38t-1.5 -31.5t-0.5 -34.5t2 -46q22 3 49.5 6t57.5 5t60 3t56 2q-25 -30 -55 -58.5t-61 -57t-60 -58t-53 -60.5q-1 -15 -0.5 -26t1.5 -24t1.5 -31t-0.5 -47q48 0 100 0.5 t105 1.5t104.5 2t97.5 2q0 35 -1 71t-1 68q-54 -8 -110.5 -5t-106.5 -1q51 57 111 112.5t111 110.5q-4 33 -2 64.5t2 69.5q-4 2 -21.5 1.5z" glyph-name="z" horiz-adv-x="456" unicode="z"/><glyph d="M293.5 52q-0.5 28 -0.5 51q-21 2 -33 13.5t-17.5 27t-6.5 34t0 35.5q2 42 -9 76.5t-44 52.5q30 11 41 33.5t12.5 50.5t-0.5 59t2 60q4 19 20 27t32 13q2 22 2.5 45.5t-3.5 47.5q-24 2 -46 1.5t-51 -3.5q-19 -3 -33 -13.5t-23 -26t-11.5 -35t1.5 -39.5q3 -31 1 -62.5 t-14 -56.5t-35.5 -39.5t-62.5 -10.5q-4 -23 -5.5 -48.5t3.5 -49.5q2 -1 8 -1q39 2 61.5 -16.5t33 -47t11 -61.5t-3.5 -61q-1 -23 10 -44t32.5 -36.5t53 -23.5t73.5 -3q2 23 1.5 51z" glyph-name="braceleft" horiz-adv-x="318" unicode="{"/><glyph d="M157 10v86.5v118.5v135t-0.5 135t-0.5 118.5t-0.5 86.5t-0.5 38v1q-20 -3 -32 -4t-22.5 -0.5t-22.5 1t-33 0.5v-125v-40v-76.5v-100.5v-111.5v-110v-94.5v-66.5v-26.5q3 0 15 -0.5t27.5 -1t32 -1t28.5 -0.5h9v38z" glyph-name="bar" horiz-adv-x="201" unicode="|"/><glyph d="M99.5 4q31.5 8 53 23.5t32.5 36.5t10 44q-4 28 -3.5 61t11 61.5t33 47t61.5 16.5q6 0 8 1q5 24 3.5 49.5t-5.5 48.5q-39 -4 -62.5 10.5t-35.5 39.5t-14 56.5t1 62.5q4 20 1.5 39.5t-11.5 35t-23 26t-33 13.5q-29 3 -51 3.5t-46 -1.5q-4 -24 -3.5 -47.5t2.5 -45.5 q16 -5 32 -13t20 -27q4 -29 2 -60t-0.5 -59t12.5 -50.5t41 -33.5q-33 -18 -44 -52.5t-9 -76.5q1 -17 0 -35.5t-6.5 -34t-17.5 -27t-33 -13.5q0 -23 -0.5 -51t1.5 -51q42 -5 73.5 3z" glyph-name="braceright" horiz-adv-x="318" unicode="}"/><glyph d="M164.5 161q-0.5 11 4.5 25t21 24q24 12 45 12q20 1 31 -7.5t20 -21.5q10 -23 27.5 -38t39 -22t45.5 -6.5t46 8.5q30 10 52 37q12 17 22.5 37t18 41.5t9.5 43.5t-2 43l-3 3q-27 -1 -54.5 -1.5t-53.5 -2.5q-3 -12 -12 -30.5t-22 -32.5t-30 -18.5t-36 12.5q-8 6 -15 14 t-13.5 17t-14.5 17.5t-18 15.5q-21 14 -45 18t-47.5 0.5t-45.5 -15t-39 -28.5q-13 -15 -25 -37.5t-22.5 -47.5t-18.5 -47.5t-12 -37.5q34 1 64 1q26 0 51 -0.5t37 -3.5v1q-4 16 -4.5 27z" glyph-name="asciitilde" horiz-adv-x="570" unicode="~"/><glyph glyph-name="uni00A0" horiz-adv-x="200"/><glyph d="M89 630q-11 0 -18.5 0.5t-19.5 0.5h-7q0 -29 -1 -60.5t-2 -59.5q15 0 31 -1.5t32.5 -2.5t31.5 0t27 6v1q0 14 2 34t3 38.5t1 31.5t-3 13l-75 -1h-2zM173 198q-3 132 -1 264h-1q-29 -1 -66 -1.5t-63 -3.5q6 -128 4.5 -264.5t-3.5 -264.5q28 -8 62.5 -4t60.5 6h3 q7 136 4 268z" glyph-name="exclamdown" horiz-adv-x="216" unicode=""/><glyph d="M133 420.5q0 12.5 2 24t7.5 19.5t17.5 8q2 -65 2 -133t-1 -133q-15 8 -21 25t-7 34q-3 33 -3 66t2 67q1 10 1 22.5zM196.5 284.5q-0.5 32.5 -0.5 61v58t1 70.5q10 -6 14.5 -16.5t5.5 -22.5t1 -25t2 -23q26 -5 49.5 -6t50.5 3v1q10 31 5.5 66t-21 64t-44 48.5t-62.5 20.5 h-1q-2 14 -1 30.5t1 34.5v1q-8 6 -20 3.5t-15 -7.5q-1 -15 0 -31.5t-2 -28.5q-33 8 -58.5 -3t-42 -33t-24 -51t-4.5 -57q0 -38 -1 -70.5t-1.5 -64t1 -63.5t5.5 -68q3 -23 16 -40t31 -27.5t39 -14.5t40 -1q1 -20 0.5 -34t1.5 -29q5 -8 15 -5.5t15 4.5q1 0 1.5 0.5t1.5 0.5 q3 14 1 30.5t0 32.5v1h2q22 3 43 12.5t38 24t28.5 33.5t14.5 42q2 20 -1.5 41t-2.5 41v1q-9 3 -21 4t-24.5 0.5t-24.5 -1t-21 0.5q-2 -11 -2 -24t-2 -25t-7.5 -22.5t-18.5 -15.5h-1q0 46 -0.5 78.5z" glyph-name="cent" horiz-adv-x="350" unicode=""/><glyph d="M112 369q-16 1 -31.5 2t-30.5 -0.5t-30 -7.5q-1 -1 -1 -3q-1 -3 -0.5 -9t1 -19.5t1 -36t0.5 -58.5q2 -1 7.5 -1h19.5h38t62 -1q2 -51 4 -112t-2 -112q5 -4 25 -6t57.5 -2.5t94 -0.5h133.5q1 4 2 38t6 117q-3 0 -16 1t-32 2t-41 2.5t-41.5 2.5t-34.5 1.5t-20 1.5 q-1 1 -3.5 10t-5 19.5t-3.5 20.5t1 13q8 0 16 0.5t21.5 1t36 0.5t58.5 -1q-3 3 -2 16t2.5 31t2.5 40.5t-2 45.5h-1q-6 -2 -13.5 -3t-21 -0.5t-36 1.5t-60.5 3q2 80 2 153.5t-2 154.5v1q-13 -3 -31.5 -4.5t-36.5 -2t-32 0t-17 0.5q-2 -6 -3.5 -37t-2 -74.5t-0.5 -93.5t2 -94 h-1h-5h-3q-15 -2 -31 -1z" glyph-name="sterling" horiz-adv-x="486" unicode=""/><glyph d="M166.5 615.5q-23.5 26.5 -45.5 50.5l-103 -88q13 -18 19.5 -25t12.5 -13t15 -15.5t27 -33.5q-6 -23 -9.5 -54t-4.5 -64t0 -64.5t3 -54.5q2 -13 4 -25.5t7 -27.5v-1q-5 -6 -10 -13t-13.5 -17t-20.5 -24l-30 -35q7 -3 23 -17t33.5 -30t33 -28t23.5 -11q25 34 41.5 56 t27.5 37q44 -10 91.5 -9t93.5 10q16 -19 25 -28t17.5 -17t19 -18t29.5 -31q7 -1 20 8.5t27 22.5t27 24.5t20 14.5l19 16q-18 8 -42.5 35t-46.5 54q17 32 23 70t6 75q0 21 0.5 41t-3.5 40q-6 33 -20 58q22 25 43.5 49t39.5 45l-103 88q-23 -25 -46.5 -52.5t-48.5 -54.5 q-29 5 -61 7t-61 0q-8 0 -26 -3.5t-26 -4.5q-27 31 -50.5 57.5zM306 458.5q37 0.5 73 -10.5q17 -5 29 -22q14 -18 16 -38t-1 -40q-2 -14 -3.5 -28.5t-4.5 -28.5q-4 -26 -16 -45t-42 -23h-2q-5 0 -8 -1t-7 -1q-25 -5 -49 -5.5t-50 1.5q-26 5 -40.5 24t-14.5 44 q0 28 -1.5 55.5t3.5 56.5q8 42 48 55q33 6 70 6.5z" glyph-name="currency" horiz-adv-x="607" unicode=""/><glyph d="M464 292.5q1 25.5 0 45.5v1h-1q-7 4 -20.5 4t-28.5 -0.5t-28.5 0t-19.5 5.5q44 82 81 168t66 173q-11 2 -28.5 2t-38 -0.5t-40 -2t-33.5 -3.5q-1 -1 -2 -1t-2 -1q-17 -42 -38 -88.5t-41 -82.5q-20 43 -34 90t-28 90q-37 4 -72.5 0t-71.5 0q8 -43 23 -85.5t32.5 -86 t35 -88t30.5 -89.5q0 -1 0.5 -1t0.5 -1q-45 -2 -89 -1t-87 -4h-2q0 -25 -1.5 -44t1.5 -41q14 -5 32 -6.5t37 -1t37 1.5t32 0h1v-1q-1 -1 -1 -3q-5 -11 -9 -20t-9 -19v-1q-25 1 -55 -1.5t-61 -0.5q-5 -14 -4.5 -40t-0.5 -48v-1q9 -5 20 -5.5t22.5 -0.5h22.5t19 -3 q-8 -24 -20.5 -52t-14.5 -48h3q35 -3 73.5 1t66.5 -2h1v1q11 26 20.5 54t22.5 51q52 2 105.5 4t97.5 1q-2 9 -2 20.5v24v25v21.5q-36 2 -79.5 1t-84.5 -1l1 1q8 11 11.5 25.5t14.5 19.5q34 -1 72 2t67 -1v1q-3 17 -2 42.5z" glyph-name="yen" horiz-adv-x="530" unicode=""/><glyph glyph-name="brokenbar" horiz-adv-x="147" unicode=""/><glyph glyph-name="section" horiz-adv-x="867" unicode=""/><glyph d="M138 521v1v1q0 7 1 23t2 33.5t2 30.5t1 14q-7 3 -21.5 4.5t-31 1.5t-32 -2t-24.5 -5q0 -6 -0.5 -19t-1 -28t0 -29.5t2.5 -24.5h3l97 -1h2zM312 521v1v1q0 7 1 23t2 33.5t2 30.5t1 14q-7 3 -21.5 4.5t-31 1.5t-32 -2t-24.5 -5q0 -6 -0.5 -19t-1 -28t0 -29.5t2.5 -24.5h3 l97 -1h2z" glyph-name="dieresis" horiz-adv-x="349" unicode=""/><glyph d="M515.5 333.5q5.5 43.5 3.5 84t-15.5 76t-47.5 59.5l-6 4l-6 4q-20 13 -41 20.5t-42 11.5q-40 8 -81 6.5t-82 -3.5q-35 -5 -67 -20.5t-54 -43.5q-33 -39 -37 -86q-4 -51 -3.5 -100.5t8.5 -98.5q5 -42 31.5 -71t70.5 -49q26 -8 53 -11t55 -3q26 2 53.5 3.5t54.5 6t51 15 t44 30.5q36 34 48 81q4 41 9.5 84.5zM443.5 445.5q1.5 -19.5 2.5 -39.5q1 -27 -0.5 -54t-3.5 -53q-2 -17 -7.5 -34.5t-15.5 -32t-24.5 -24.5t-33.5 -13q-35 -7 -74 -7.5t-72 -3.5q-19 1 -37 7t-32 16.5t-22.5 24.5t-8.5 31q-3 43 -5.5 88t3.5 90q4 29 25 52t55 29 q2 0 2.5 0.5t2.5 0.5q74 9 148 0q26 -5 48.5 -16t33.5 -25q14 -17 15.5 -36.5zM257 430q6 1 10 3q11 0 16.5 -5t8 -13t3 -17.5t1.5 -17.5q14 -2 27 -3t29 1q9 27 1 51.5t-26 41.5t-43.5 23.5t-51.5 -1.5q-5 -2 -10.5 -4.5t-9.5 -5.5q-13 -12 -21 -34q-2 -5 -4 -11.5 t-1 -13.5q-1 -62 -0.5 -98t2.5 -64q1 -16 10 -26.5t21.5 -16.5t27 -7.5t28.5 0.5q21 0 38 10.5t27.5 26t13.5 35.5t-3 40q-12 4 -27 2.5t-26 -0.5q-1 -10 -1 -19.5t-2 -18.5q-5 -8 -13 -11t-17 -2q-11 4 -15.5 14t-5.5 22q-1 13 -1 31v35t1 29t1 14q1 2 1.5 3.5t1.5 2.5 q3 3 9 4z" glyph-name="copyright" horiz-adv-x="553" unicode=""/><glyph d="M210 724.5q-12 0.5 -21 1.5q-3 -1 -14 0t-11 -1q0 -6 -1 -12t-1 -14q-6 18 -20.5 21t-31.5 3q-36 0 -60.5 -33.5t-24.5 -84.5q0 -21 4 -45t13 -44.5t23 -34t34 -13.5q18 0 37 8.5t31 21.5q0 -5 -1.5 -8.5t-1.5 -9.5q0 -9 6 -11q6 0 11.5 0.5t11.5 0.5q8 0 16.5 -0.5 t16.5 -0.5h6q7 1 7 7.5v13.5q4 55 2 108t0 109v4q0 3 -1 6t-1 6q-17 1 -29 1.5zM105 644.5q12 9.5 33 9.5q11 0 16.5 -1.5t7.5 -7t2 -15.5v-28q0 -29 -3 -46t-28 -17q-20 0 -33 16.5t-13 39.5q0 7 0.5 13.5t3.5 12.5q2 14 14 23.5z" glyph-name="ordfeminine" horiz-adv-x="276" unicode=""/><glyph d="M50.5 221.5q0.5 2.5 -0.5 0.5q0 -3 0.5 -0.5zM250 171q-45 47 -92 88q19 24 43.5 50t49 51.5t46.5 48.5t37 42q-9 6 -19 15.5t-20 19.5t-19 19.5t-18 14.5q-14 -14 -28 -28.5t-29 -30.5q-23 -24 -48 -49.5l-50 -51t-48 -50t-42 -48.5q28 -38 60 -70t64 -62t64.5 -58.5 t62.5 -59.5l1 -1q15 13 24 21.5t14 13.5l8 8l5 5l16 16l11 10q-48 39 -93 86zM471 171q-45 47 -92 88q19 24 43.5 50t49 51.5t46.5 48.5t37 42q-9 6 -19 15.5t-20 19.5t-19 19.5t-18 14.5q-14 -14 -28 -28.5t-29 -30.5q-23 -24 -48 -49.5l-50 -51t-48 -50t-42 -48.5 q28 -38 60 -70t64 -62t64.5 -58.5t62.5 -59.5l1 -1q15 13 24 21.5t14 13.5l8 8l5 5l16 16l11 10q-48 39 -93 86z" glyph-name="guillemotleft" horiz-adv-x="583" unicode=""/><glyph d="M432 266v37t0.5 48t1 50t0.5 42v24h-1q0 1 0.5 1.5t0.5 1.5q-3 0 -34 0.5t-76 0.5t-97 0.5t-97 0.5h-76h-34v-15t0.5 -17.5t0.5 -15v-7.5l18.5 -0.5t49 -1t68.5 -1t77 -1t76 -1t65 -0.5v-49t0.5 -51t0.5 -41v-20h55z" glyph-name="logicalnot" horiz-adv-x="471" unicode=""/><glyph d="M36 289q0 -9 0.5 -17.5t0.5 -15v-7.5h20.5t51 -0.5t67 -0.5h69h56.5h30v16.5v12.5v12t2 17h-25.5h-54.5t-69 -0.5t-69 -1t-54 -0.5h-25v-15z" glyph-name="uni00AD" horiz-adv-x="369" unicode=""/><glyph d="M506.5 255.5q0.5 9.5 2.5 18.5q5 39 9 79t0.5 77t-17.5 68.5t-45 54.5l-6 4l-6 4q-20 13 -41 20.5t-42 11.5q-40 8 -81 6.5t-82 -3.5q-35 -5 -67 -20.5t-54 -43.5q-33 -39 -37 -86q-4 -51 -3.5 -100.5t8.5 -98.5q5 -42 31.5 -71t70.5 -49q26 -8 53 -11t55 -3 q26 2 53.5 3.5t54.5 6t51 15t44 30.5q31 30 45 69q3 9 3.5 18.5zM443.5 445.5q1.5 -19.5 2.5 -39.5q1 -27 -0.5 -54t-3.5 -53q-2 -17 -7.5 -34.5t-15.5 -32t-24.5 -24.5t-33.5 -13l-15 -3l-80 -6t-77 2q-14 3 -26 9q-32 13 -41 37.5t-10 53.5t-2.5 59.5t0.5 60.5l3 33 q4 29 25 52t55 29q2 0 2.5 0.5t2.5 0.5q74 9 148 0q26 -5 48.5 -16t33.5 -25q14 -17 15.5 -36.5zM344 278.5q-21 29.5 -39 58.5v1h1h2q19 1 31.5 10.5t20.5 24.5q12 21 11.5 44t-11 41.5t-29 31t-42.5 14.5q-31 2 -58 -0.5t-49 -5.5q1 -7 1.5 -30.5t1 -55t1 -66.5t0.5 -64.5 t-0.5 -48.5t-1.5 -19h10t20 0.5t22.5 1.5t18.5 3q0 8 -1 21t-2 27t-1 28t2 23l1 -2q9 -10 17 -23.5t15 -28t13.5 -27.5l11.5 -23h1q17 -1 34 0.5t31 1.5q-12 33 -33 62.5zM268 448q13 1 24 -7q6 -5 8 -12.5t1 -15t-5.5 -14t-12.5 -8.5q-9 -2 -19 -1.5t-21 1.5h-1 q-1 10 -0.5 25t-0.5 26q14 5 27 6z" glyph-name="registered" horiz-adv-x="553" unicode=""/><glyph d="M134.5 401.5q28.5 -0.5 57.5 4.5l10 2t10 3q19 7 30.5 19.5t18.5 29t9.5 34.5t2.5 36v22t-2 22q-2 14 -7.5 26t-16.5 21q-12 11 -28 17q-5 2 -9 3.5t-9 3.5q-10 3 -20 4t-21 1h-19t-20 -1q-3 0 -6.5 -0.5t-6.5 -0.5q-27 -5 -47.5 -20t-28.5 -40q-7 -25 -6 -53.5t3 -54.5 l2 -14t4 -15q11 -25 44 -41q27 -8 55.5 -8.5zM151 591.5q20 0.5 40 -5.5q9 -3 16 -12q8 -10 9 -21t-1 -22q-1 -8 -1.5 -15.5t-2.5 -15.5q-2 -14 -8.5 -24.5t-23.5 -12.5h-1q-2 0 -4 -0.5t-4 -0.5q-14 -2 -27 -2.5t-27 0.5q-14 2 -22 12.5t-8 24.5q0 15 -0.5 30t1.5 31 q5 23 26 30q18 3 38 3.5z" glyph-name="degree" horiz-adv-x="298" unicode=""/><glyph d="M194 256q24 -1 51.5 -1.5t50.5 0t23 3.5v2q0 7 1.5 24t3 36t2.5 36t0 26q5 3 23 3.5t38.5 0.5t37.5 0.5t20 2.5q4 37 3 70t1 75q-11 2 -27 2.5t-33 0.5h-33t-28 1q-2 5 -2 20.5v35v38.5v30q-8 1 -29.5 0.5t-45 -1.5t-44 0t-26.5 5q-1 -5 -1.5 -8.5t-1.5 -9.5 q-1 -10 -2 -22.5t-2 -26.5q-1 -21 -1.5 -36.5t-0.5 -26.5q-3 -1 -22 -3t-41.5 -3.5t-41.5 -3t-22 -0.5q0 -3 1 -20t2 -38.5t1.5 -42.5t-0.5 -32q0 -1 1 -2q4 -2 20 -4t34.5 -3t34.5 -2t22 -1h2q1 -1 1.5 -6.5t0.5 -13.5q1 -18 1 -30t-0.5 -23t-0.5 -22.5t2 -26.5 q0 -2 0.5 -2t0.5 -1q2 1 26 0zM67 10q34 -1 82 -1.5t103 -1.5t103 -2t82 -1h39h1q-7 41 -4.5 83t1.5 84h-49h-85.5h-102.5h-99.5h-75.5h-31q0 -3 -0.5 -24t-1 -47.5t-1 -51.5t-0.5 -37q5 0 39 -1z" glyph-name="plusminus" horiz-adv-x="501" unicode=""/><glyph d="M228 336q-2 5 -1.5 9.5t0.5 9.5q1 11 1 22.5t-4 20.5q-30 0 -55.5 -0.5t-56.5 -0.5q-4 2 -0.5 12.5t5.5 15.5q12 15 31 24t37.5 18.5t33 24t16.5 39.5q0 10 -0.5 20.5t-1.5 20.5q-2 24 -13 45t-31 31q-12 5 -31 7t-38 0t-35.5 -8.5t-25.5 -17.5q-17 -19 -23 -47t0 -58v-1 q16 -1 31.5 -0.5t35.5 2.5v1q0 8 1.5 17.5t5 18t10 14t18.5 5.5q10 -1 16 -9t7 -18.5t-3 -21t-13 -16.5q-23 -19 -48.5 -31.5t-48.5 -37.5q-15 -25 -14 -53.5t-2 -58.5v-2h21l173 3h2z" glyph-name="uni00B2" horiz-adv-x="264" unicode=""/><glyph d="M54 346q5 -4 15 -6q5 -2 11.5 -4t12.5 -3q17 -2 38 -1.5t38 5.5q32 11 44 41q6 13 6 26.5t2 27.5q2 36 2 73.5t-1 76.5q1 8 0 16.5t-6 15.5q-12 21 -39.5 30.5t-57.5 8t-55.5 -15.5t-33.5 -41q-4 -10 -3 -22t1 -21v-1h9h18t19.5 0.5t13.5 0.5q3 10 14 17.5t22 9.5 t20.5 -3.5t9.5 -20.5q0 -14 -6.5 -19.5t-16.5 -7t-21.5 -1t-19.5 -2.5q2 -13 -0.5 -32.5t3.5 -31.5q11 3 25.5 2.5t24.5 -8.5q9 -6 10.5 -18t-3.5 -21q-7 -9 -16.5 -10.5t-18.5 2t-16 10.5t-10 15h-1q-17 1 -31 -1.5t-28 -1.5h-1q2 -14 2 -26t2 -22q2 -8 5.5 -17.5 t9.5 -14.5q2 -1 7 -5z" glyph-name="uni00B3" horiz-adv-x="254" unicode=""/><glyph d="M133 657.5q-22 -20.5 -44.5 -44t-44 -46t-38.5 -38.5q7 -2 22.5 -3.5t35 -2.5t40 -0.5t36.5 2.5q4 8 18 21t30 27.5t31 27.5t22 20l1 1l-69 70q-18 -14 -40 -34.5z" glyph-name="acute" horiz-adv-x="255" unicode=""/><glyph d="M209.5 8.5q16.5 2.5 32 7.5t28 14t21.5 24q1 -14 0.5 -25t1.5 -28q1 -5 19 -5t40.5 1.5t43.5 3t27 1.5q4 132 1.5 255t-2.5 246q-24 -3 -37.5 -3h-25h-25t-38.5 -3q-5 -33 -4.5 -66.5t2.5 -67.5t3.5 -69t-0.5 -69q-2 -27 -14 -40.5t-27 -18t-30.5 -2t-23.5 6.5q-1 1 -2 1 t-2 1q-8 6 -12.5 17t-7 25t-3.5 28.5t-2 26.5q-2 27 -2.5 58t0 62t0.5 60t-2 52q-35 0 -62.5 0.5t-62.5 -4.5q1 -28 1 -63t-1 -73t-2 -78t-1 -77q-1 -14 -1 -45.5t-0.5 -71t-0.5 -82v-79t0.5 -62.5t0.5 -31q7 2 28 1t44.5 -1.5t43.5 0t25 6.5q0 12 -0.5 17t-1 9.5t-1 11 t-1 20.5t-0.5 38.5v65.5q16 2 32.5 4.5z" glyph-name="uni00B5" horiz-adv-x="458" unicode=""/><glyph d="M219 727q-19 -1 -39 -1t-38.5 -1.5t-35 -4.5t-29.5 -9q-37 -17 -49 -66q-8 -63 -9 -118.5t12 -114.5q16 -30 31.5 -50.5t34.5 -32t45.5 -13.5t65.5 4q1 -67 1.5 -139.5t-0.5 -142.5t-2.5 -132.5t-5.5 -109.5q7 2 28 1t44.5 -1.5t43.5 0t25 6.5q-2 33 -2.5 87t-0.5 121.5 t0.5 143t1.5 152t2 148.5t2 132l77 -1q-3 -94 -3.5 -200t-0.5 -211t-1.5 -203t-7.5 -175q7 2 28 1t44.5 -1.5t43.5 0t25 6.5q-2 32 -2.5 86t0 120.5t1 142t2 152t2.5 149t2 132.5q17 -1 33.5 -2t30 -0.5t23.5 2.5t13 7q0 15 -0.5 36t-1 41.5t-1 37t-0.5 22.5l-95 2l-162 -2z" glyph-name="paragraph" horiz-adv-x="672" unicode=""/><glyph d="M37.5 315.5q2.5 -31.5 2.5 -60.5q19 1 34 0t26 -1t18 2t11 8q0 15 -0.5 34.5t-1 38t-1 34t-0.5 21.5l-90 1q-1 -46 1.5 -77.5z" glyph-name="periodcentered" horiz-adv-x="164" unicode=""/><glyph d="M77 -2q-4 1 -9 2q-8 -22 -11 -32t-6.5 -21.5t-11 -31.5t-22.5 -62q0 -1 14 -1h32.5h36.5h26v1q3 9 10 29.5t14.5 43t14 41.5t8.5 27h1l-87 2z" glyph-name="cedilla" horiz-adv-x="190" unicode=""/><glyph d="M147.5 471q2.5 48 2.5 96v37t-2 36q-11 1 -22.5 1.5t-22.5 0.5q-10 0 -19.5 -0.5t-20.5 -0.5q-1 -2 -9 -14t-17 -28t-17 -31.5t-8 -22.5q0 -2 7.5 -4.5t16.5 -5t17 -4.5t10 -2q4 0 6.5 4t5 8.5t4.5 8t4 3.5v-8q0 -42 -3 -82.5t-3 -82.5v-41v-1q9 -1 20.5 -2t22.5 -1 q8 0 16.5 1t8.5 6v30q0 51 2.5 99z" glyph-name="uni00B9" horiz-adv-x="187" unicode=""/><glyph d="M28 541q-2 -35 0 -69q0 -20 1.5 -39.5t7.5 -37.5t18.5 -32t34.5 -23q17 -5 31 -5q31 -2 52.5 13.5t34 40t17.5 54t3 55.5q1 13 0 26t-3 27q-3 18 -11 36t-21 31.5t-30.5 21.5t-39.5 7q-23 -1 -39 -10.5t-30 -25.5q-2 -1 -4 -5q-20 -30 -22 -65zM103.5 418.5 q-2.5 8.5 -5.5 16.5q-6 23 -6 45.5t3 50.5q1 11 2.5 20t3.5 12q2 4 6 7.5t9 4.5q17 6 27 -7q5 -7 8 -19t4 -25.5t1 -27t-1 -25.5q-1 -11 -1.5 -21.5t-3.5 -21.5q-2 -6 -6 -12t-12 -9q-7 -3 -16 1q-10 2 -12.5 10.5z" glyph-name="ordmasculine" horiz-adv-x="254" unicode=""/><glyph d="M267 59q2 -2 4.5 -5t8 -8t14.5 -13.5t24 -21.5l1 1q30 31 62.5 59.5t64.5 58.5t63.5 62t60.5 70q-19 24 -42 48.5t-48 50l-50 51t-48 49.5q-15 16 -29 30.5t-28 28.5q-9 -5 -18.5 -14.5t-19 -19.5t-19.5 -19.5t-19 -15.5q15 -19 37 -42t46.5 -48.5t48.5 -51.5t44 -50 q-47 -41 -92 -88t-93 -86l11 -10zM46 59q2 -2 4.5 -5t8 -8t14.5 -13.5t24 -21.5l1 1q30 31 62.5 59.5t64.5 58.5t63.5 62t60.5 70q-19 24 -42 48.5t-48 50l-50 51t-48 49.5q-15 16 -29 30.5t-28 28.5q-9 -5 -18.5 -14.5t-19 -19.5t-19.5 -19.5t-19 -15.5q15 -19 37 -42 t46.5 -48.5t48.5 -51.5t44 -50q-47 -41 -92 -88t-93 -86l11 -10z" glyph-name="guillemotright" horiz-adv-x="583" unicode=""/><glyph d="M338.5 350q58.5 177 118.5 354v1q-5 4 -18 4.5t-27.5 -0.5t-27.5 -1.5t-19 1.5q-24 -89 -53 -176.5t-61 -175t-64 -176.5t-62 -180q4 1 17 0.5t27 -1t26.5 -0.5t16.5 1l2 4q1 2 2 3q64 165 122.5 342zM561.5 182q-7.5 2 -14.5 0q-1 3 -1.5 17.5t-0.5 33.5v40.5v40v30.5 v12h-1h-16h-25.5t-25 -0.5t-13.5 -0.5q-27 -41 -46 -70t-31.5 -48.5t-19.5 -30.5t-10 -16q-2 -3 -3 -4v-1q-1 -29 1.5 -49t3.5 -23v-1q1 -1 16 -1h33.5h34.5t19 -1q0 -2 -0.5 -18.5t-0.5 -36v-35.5v-17h53.5t21.5 3q0 3 1.5 18.5t3 33t2.5 31l1 13.5h1q7 2 13 1t13 1h1l3 76 q-6 0 -13.5 2zM480 181h-1q-3 0 -11.5 -0.5t-17 -0.5t-15 0.5l-6.5 0.5q1 1 9.5 14t18 27t17.5 24t8 6l-2 -70v-1zM169 329.5v17.5q0 57 2.5 112.5t2.5 112.5v41t-2 42q-13 1 -26 1.5t-26 0.5q-11 0 -22.5 -0.5t-22.5 -0.5q-2 -2 -11 -16t-19.5 -32.5t-19.5 -36t-10 -26.5 q0 -2 8.5 -5t19 -6t20.5 -5t12 -2q4 0 7 4.5t5.5 10t4.5 9.5t4 4q1 -4 1 -10q0 -48 -3 -95t-3 -95v-48v-1q11 0 23.5 -1.5t24.5 -1.5q10 0 20.5 2t10.5 7q-1 9 -1 17.5z" glyph-name="onequarter" horiz-adv-x="595" unicode=""/><glyph d="M338.5 350q58.5 177 118.5 354v1q-5 4 -18 4.5t-27.5 -0.5t-27.5 -1.5t-19 1.5q-24 -89 -53 -176.5t-61 -175t-64 -176.5t-62 -180q4 1 17 0.5t27 -1t26.5 -0.5t16.5 1l2 4q1 2 2 3q64 165 122.5 342zM572 5q-2 5 -1.5 10.5t0.5 11.5q0 12 0.5 24.5t-4.5 23.5 q-32 0 -60.5 -1t-62.5 0q-4 2 -0.5 13t5.5 16q13 16 34 26t41.5 21t36 27t17.5 43q1 11 0.5 22.5t-1.5 22.5q-2 27 -14 49.5t-35 34.5q-14 6 -34 8t-41 0t-39.5 -9t-28.5 -20q-18 -20 -24.5 -50.5t-0.5 -65.5v-1h1q17 -2 34 -0.5t40 3.5v1q0 9 1.5 19.5t5.5 19.5t11 15t19 6 q12 -1 18.5 -10t8 -20.5t-3 -23t-14.5 -17.5q-26 -21 -54.5 -35.5t-52.5 -41.5q-8 -13 -11 -27.5t-4 -30.5t-1 -32.5t-1 -33.5v-1h23l190 2q2 0 2 1zM169 329.5v17.5q0 57 2.5 112.5t2.5 112.5v41t-2 42q-13 1 -26 1.5t-26 0.5q-11 0 -22.5 -0.5t-22.5 -0.5q-2 -2 -11 -16 t-19.5 -32.5t-19.5 -36t-10 -26.5q0 -2 8.5 -5t19 -6t20.5 -5t12 -2q4 0 7 4.5t5.5 10t4.5 9.5t4 4q1 -4 1 -10q0 -48 -3 -95t-3 -95v-48v-1q11 0 23.5 -1.5t24.5 -1.5q10 0 20.5 2t10.5 7q-1 9 -1 17.5z" glyph-name="onehalf" horiz-adv-x="602" unicode=""/><glyph d="M371.5 350q58.5 177 118.5 354v1q-5 4 -18 4.5t-27.5 -0.5t-27.5 -1.5t-19 1.5q-24 -89 -53 -176.5t-61 -175t-64 -176.5t-62 -180q4 1 17 0.5t27 -1t26.5 -0.5t16.5 1l2 4q1 2 2 3q64 165 122.5 342zM594.5 182q-7.5 2 -14.5 0q-1 3 -1.5 17.5t-0.5 33.5v40.5v40v30.5 v12h-1h-16h-25.5t-25 -0.5t-13.5 -0.5q-27 -41 -46 -70t-31.5 -48.5t-19.5 -30.5t-10 -16q-2 -3 -3 -4v-1q-1 -29 1.5 -49t3.5 -23v-1q1 -1 16 -1h33.5h34.5t19 -1q0 -2 -0.5 -18.5t-0.5 -36v-35.5v-17h53.5t21.5 3q0 3 1.5 18.5t3 33t2.5 31l1 13.5h1q7 2 13 1t13 1h1l3 76 q-6 0 -13.5 2zM513 181h-1q-3 0 -11.5 -0.5t-17 -0.5t-15 0.5l-6.5 0.5q1 1 9.5 14t18 27t17.5 24t8 6l-2 -70v-1zM51.5 318.5q5.5 -4.5 16.5 -7.5q7 -2 13.5 -4t13.5 -3q20 -2 41.5 -1.5t40.5 5.5q36 12 50 46q6 14 6.5 29t1.5 29q2 41 2 82.5t-1 83.5q1 9 -0.5 18.5 t-6.5 17.5q-13 22 -43 33t-62.5 9t-61 -17.5t-37.5 -45.5q-4 -11 -3 -23.5t1 -22.5v-1h10h20t21.5 0.5t14.5 0.5q4 10 15.5 18.5t24 10.5t22.5 -3.5t10 -22.5q1 -16 -6.5 -22t-18.5 -7.5t-23 -1.5t-21 -3q1 -14 -1.5 -35t3.5 -34q13 2 28.5 1.5t26.5 -8.5t12.5 -20.5 t-4.5 -22.5q-8 -11 -18 -12.5t-19.5 2.5t-18 12t-11.5 17h-1q-18 1 -34 -2t-31 -2q-1 0 -1 -1q2 -15 2.5 -27.5t2.5 -23.5q2 -20 16 -36q2 -1 7.5 -5.5z" glyph-name="threequarters" horiz-adv-x="626" unicode=""/><glyph d="M308 428.5q0 6.5 -4 10.5h-1q-31 -2 -61.5 0t-61.5 -2v-1q2 -8 0 -17t-4 -17q-7 -35 -17.5 -64t-31.5 -58q-15 -20 -29.5 -33.5t-30.5 -35.5q-17 -22 -30 -48t-17 -58q-5 -44 11 -82t46.5 -65t72 -40.5t87.5 -8.5q43 2 78 20.5t61 47.5t41 65.5t17 74.5v1q-30 1 -60.5 3 t-61.5 -1q-13 -5 -21 -18t-17 -24.5t-22 -17t-35 4.5q-24 8 -32 22t-4.5 31t14.5 36t24.5 38t27 36.5t20.5 31.5q19 28 26.5 57.5t12.5 61.5l2 38v11.5zM189 616v-1v-1q0 -8 -1 -26.5t-2 -38.5t-2 -35.5t-1 -16.5q7 -3 23.5 -4.5t35.5 -1.5t37 2t29 6q0 7 0.5 22t1 32t0 34 t-2.5 28h-3l-113 1h-2z" glyph-name="questiondown" horiz-adv-x="450" unicode=""/><glyph d="M55 846q7 -7 22 -20t31 -27.5t29.5 -27.5t18.5 -21q16 -2 36 -2.5t39.5 0.5t35.5 2.5t23 3.5q-17 16 -38.5 38.5t-44 46t-44.5 44t-40 34.5l-69 -70zM351 397q-7 29 -15 64t-16.5 73t-16 71.5t-13.5 60t-10 39.5q-33 -3 -53.5 -3.5t-33.5 -0.5h-21t-15 -1 q-24 -80 -44 -161t-37 -156t-29.5 -141.5t-21.5 -117.5t-14.5 -83t-6.5 -39q1 -1 2 -1q68 1 100 -1t40 0q1 0 1.5 0.5t1.5 0.5q9 17 14 39t9.5 45.5t9 45t11.5 37.5q11 0 17.5 0.5t12 0.5h12.5t20 -2q7 -15 13 -36t11.5 -44t11 -45t11.5 -38h1q32 -7 68 -8.5t66 4.5v1 l-75 350q-4 17 -11 46zM222 285.5q-19 -0.5 -36 0.5q7 51 12.5 95t10 73t10 38.5t11 -7.5t13 -65t17.5 -134q-19 0 -38 -0.5z" glyph-name="Agrave" horiz-adv-x="434" unicode=""/><glyph d="M259 882.5q-22 -20.5 -44.5 -44t-44 -46t-38.5 -38.5q7 -2 22.5 -3.5t35 -2.5t40 -0.5t36.5 2.5q4 8 18 21t30 27.5t31 27.5t22 20l1 1l-69 70q-18 -14 -40 -34.5zM351 397q-7 29 -15 64t-16.5 73t-16 71.5t-13.5 60t-10 39.5q-33 -3 -53.5 -3.5t-33.5 -0.5h-21t-15 -1 q-24 -80 -44 -161t-37 -156t-29.5 -141.5t-21.5 -117.5t-14.5 -83t-6.5 -39q1 -1 2 -1q68 1 100 -1t40 0q1 0 1.5 0.5t1.5 0.5q9 17 14 39t9.5 45.5t9 45t11.5 37.5q11 0 17.5 0.5t12 0.5h12.5t20 -2q7 -15 13 -36t11.5 -44t11 -45t11.5 -38h1q32 -7 68 -8.5t66 4.5v1 l-75 350q-4 17 -11 46zM222 285.5q-19 -0.5 -36 0.5q7 51 12.5 95t10 73t10 38.5t11 -7.5t13 -65t17.5 -134q-19 0 -38 -0.5z" glyph-name="Aacute" horiz-adv-x="434" unicode=""/><glyph d="M135 839q-42 -38 -76 -84q33 -2 50.5 -3t27 -1.5t15 -0.5t14.5 1q4 1 11 8t15 15.5t15 16t11 9.5q5 -3 12 -11t14.5 -16.5t14.5 -15t10 -6.5q24 -3 44.5 -2t36 3t24.5 3.5t10 0.5l-163 162q-44 -41 -86 -79zM351 397q-7 29 -15 64t-16.5 73t-16 71.5t-14 60t-9.5 39.5 q-33 -3 -53.5 -3.5t-33.5 -0.5h-21t-15 -1q-24 -80 -44 -161t-37 -156t-29.5 -141.5t-21.5 -117.5t-14 -83t-7 -39q1 -1 2 -1q68 1 100 -1t40 0q1 0 1.5 0.5t1.5 0.5q9 17 14 39t9.5 45.5t9 45t11.5 37.5q11 0 17.5 0.5t12 0.5h12.5t20 -2q7 -15 13 -36t11.5 -44t11 -45 t11.5 -38h1q32 -7 68 -8.5t66 4.5v1l-75 350q-4 17 -11 46zM222 285.5q-19 -0.5 -36 0.5q7 51 12.5 95t10 73t10 38.5t11 -7.5t13 -65t17.5 -134q-19 0 -38 -0.5z" glyph-name="Acircumflex" horiz-adv-x="434" unicode=""/><glyph d="M130 775.5q0 8.5 4 19.5l3 6q8 13 24 17.5t27 4.5q13 -1 21 -7t14 -16q13 -31 42 -42.5t60 -6.5q26 4 45.5 20.5t31.5 39.5t16.5 49.5t1.5 49.5v1q-1 0 -1 1l-1 1q-21 -1 -41.5 -1t-40.5 -2q-3 -9 -9.5 -23.5t-17 -25t-23 -14t-27.5 9.5q-13 8 -22 23t-25 25 q-16 11 -34 14.5t-36 0.5t-35 -12t-30 -22q-10 -11 -19 -28t-17 -36t-14.5 -36.5t-9.5 -28.5q26 1 49 1q20 0 39 -1t29 -3v1q-4 12 -4 20.5zM351 397q-7 29 -15 64t-16.5 73t-16 71.5t-13.5 60t-10 39.5q-33 -3 -53.5 -3.5t-33.5 -0.5h-21t-15 -1q-24 -80 -44 -161t-37 -156 t-29.5 -141.5t-21.5 -117.5t-14 -83t-7 -39q1 -1 2 -1q68 1 100 -1t40 0q1 0 1.5 0.5t1.5 0.5q9 17 14 39t9.5 45.5t9 45t11.5 37.5q11 0 17.5 0.5t12 0.5h12.5t20 -2q7 -15 13 -36t11.5 -44t11 -45t11.5 -38h1q32 -7 68 -8.5t66 4.5v1l-75 350q-4 17 -11 46zM222 285.5 q-19 -0.5 -36 0.5q7 51 12.5 95t10 73t10 38.5t11 -7.5t13 -65t17.5 -134q-19 0 -38 -0.5z" glyph-name="Atilde" horiz-adv-x="434" unicode=""/><glyph d="M171 758v1v1q0 7 1 23t2 33.5t2 30.5t1 14q-7 3 -21.5 4.5t-31 1.5t-32 -2t-24.5 -5q0 -6 -0.5 -19t-1 -28t0 -29.5t2.5 -24.5h3l97 -1h2zM345 758v1v1q0 7 1 23t2 33.5t2 30.5t1 14q-7 3 -21.5 4.5t-31 1.5t-32 -2t-24.5 -5q0 -6 -0.5 -19t-1 -28t0 -29.5t2.5 -24.5h3 l97 -1h2zM351 397q-7 29 -15 64t-16.5 73t-16 71.5t-14 60t-9.5 39.5q-33 -3 -53.5 -3.5t-33.5 -0.5h-21t-15 -1q-24 -80 -44 -161t-37 -156t-29.5 -141.5t-21.5 -117.5t-14 -83t-7 -39q1 -1 2 -1q68 1 100 -1t40 0q1 0 1.5 0.5t1.5 0.5q9 17 14 39t9.5 45.5t9 45t11.5 37.5 q11 0 17.5 0.5t12 0.5h12.5t20 -2q7 -15 13 -36t11.5 -44t11 -45t11.5 -38h1q32 -7 68 -8.5t66 4.5v1l-75 350q-4 17 -11 46zM222 285.5q-19 -0.5 -36 0.5q7 51 12.5 95t10 73t10 38.5t11 -7.5t13 -65t17.5 -134q-19 0 -38 -0.5z" glyph-name="Adieresis" horiz-adv-x="434" unicode=""/><glyph d="M305.5 841q1.5 34 -7.5 65q-11 16 -34.5 22t-44.5 7q-23 2 -43.5 -2.5t-34.5 -17.5q-8 -10 -11 -20q-7 -27 -5.5 -56.5t6.5 -57.5q5 -13 18 -20.5t27 -8.5t28 -1t28 2q17 1 34 5.5t26 18.5q12 30 13.5 64zM216 891q11 0 21 -3t18 -11q5 -8 7 -22q1 -11 -1 -23t-4 -22 q-5 -11 -18.5 -12.5t-24.5 -2.5h-10q-15 0 -25 9q-8 8 -9 20.5t-1 23.5q0 7 2 17q3 13 15 20q13 6 30 6zM351 397q-7 29 -15 64t-16.5 73t-16 71.5t-14 60t-9.5 39.5q-33 -3 -53.5 -3.5t-33.5 -0.5h-21t-15 -1q-24 -80 -44 -161t-37 -156t-29.5 -141.5t-21.5 -117.5t-14 -83 t-7 -39q1 -1 2 -1q68 1 100 -1t40 0q1 0 1.5 0.5t1.5 0.5q9 17 14 39t9.5 45.5t9 45t11.5 37.5q11 0 17.5 0.5t12 0.5h12.5t20 -2q7 -15 13 -36t11.5 -44t11 -45t11.5 -38h1q32 -7 68 -8.5t66 4.5v1l-75 350q-4 17 -11 46zM222 285.5q-19 -0.5 -36 0.5q7 51 12.5 95t10 73 t10 38.5t11 -7.5t13 -65t17.5 -134q-19 0 -38 -0.5z" glyph-name="Aring" horiz-adv-x="434" unicode=""/><glyph d="M572 141q-66 -1 -132 2h-1q-5 10 -7 25t-2 32.5t1 36t2 33.5q4 4 18 5t32 1t37 0.5t34 3.5q0 35 2.5 71t-4.5 68q-29 5 -61 3t-60 3q-5 13 -6 27.5t0 30t2.5 30.5t0.5 29q33 5 66.5 5t67.5 -0.5t67.5 0.5t65.5 8v2q0 35 2 71t-2 71v1v1q-5 0 -34 0.5t-74 0t-101.5 -1 t-115.5 -1.5t-115.5 -2.5t-101.5 -3.5q-29 -123 -49 -206t-33 -137t-20.5 -86t-12 -52t-7 -35l-6 -36t-8.5 -53.5t-15 -88.5q2 0 3 0.5t3 0.5q36 4 70 2.5t67 -1.5q1 1 1.5 1t1.5 1q6 27 15 56t17 57l1 2h2q22 0 31 -0.5t13 -0.5t8 -0.5t17 -0.5v-1q5 -28 13 -54.5t15 -55.5 q97 -6 202 -3.5t208 2.5l2 2q11 61 6 128v3q-60 5 -126 4zM240.5 282.5q-8.5 -0.5 -17.5 0.5t-18.5 2t-16.5 -1h-1h-1q2 22 4 37t5.5 29t8.5 30t14 41l1 -3q8 -32 19 -65.5t16 -65.5q-5 -4 -13.5 -4.5z" glyph-name="AE" horiz-adv-x="716" unicode=""/><glyph d="M33 356.5q0 -85.5 2 -162.5v-10q1 -36 8.5 -72.5t23.5 -64.5t42.5 -43.5t67.5 -10.5v-3q-2 -14 -6.5 -32t-9 -34.5t-7.5 -30t-3 -18.5q0 -3 1 -3q18 -3 42 0t47 1v2q8 26 16.5 60t13.5 56l1 -1h2q52 3 91 29.5t62 66.5t28.5 88.5t-9.5 95.5q-14 4 -31.5 5t-35.5 1 t-34.5 -1t-28.5 -1q-3 -23 -2.5 -48t-9.5 -46q-10 -20 -29 -28t-40 -6q-24 7 -36 27.5t-17 44.5q-6 65 -5.5 130.5t3.5 131.5q2 26 20 44t46 16q7 0 10 -1q22 -5 31 -20t12 -34.5t4 -40t7 -35.5h2q35 -5 66.5 -7.5t65.5 5.5q1 0 1.5 0.5t1.5 0.5q12 38 9 79.5t-18.5 79 t-42.5 67.5t-64 45q-31 11 -65 13t-69 1q-23 1 -48.5 -1.5t-45.5 -15.5q-31 -26 -45.5 -63t-18.5 -78q-1 -4 -1 -11q-5 -82 -5 -167.5z" glyph-name="Ccedilla" unicode=""/><glyph d="M112 846q7 -7 22 -20t31 -27.5t29.5 -27.5t18.5 -21q16 -2 36 -2.5t39.5 0.5t35.5 2.5t23 3.5q-17 16 -38.5 38.5t-44 46t-44.5 44t-40 34.5l-69 -70zM331 137.5q-64 3.5 -130 3.5l-1 1q-2 24 -3.5 60t3.5 65q5 4 19 5t31.5 1t36.5 0.5t34 4.5q-1 37 1 71t-3 68v1 q-31 1 -62 1t-61 2l-1 1q-7 27 -3.5 57.5t2.5 59.5l1 1h3q33 3 66 3t66 -0.5t65.5 1t64.5 8.5v1q0 35 2.5 71t-2.5 71q0 1 -20 2t-53 1t-76 -1t-89 -2t-91.5 -2.5t-84.5 -3.5q-5 -86 -6 -171t0 -170t3 -170.5t2 -172.5q97 -8 202.5 -4.5t207.5 2.5q8 30 9 64.5t-1 66.5v2 q-68 -2 -132 1.5z" glyph-name="Egrave" horiz-adv-x="481" unicode=""/><glyph d="M331 137.5q-64 3.5 -130 3.5l-1 1q-2 24 -3.5 60t3.5 65q5 4 19 5t31.5 1t36.5 0.5t34 4.5q-1 37 1 71t-3 68v1q-31 1 -62 1t-61 2l-1 1q-7 27 -3.5 57.5t2.5 59.5l1 1h3q33 3 66 3t66 -0.5t65.5 1t64.5 8.5v1q0 35 2.5 71t-2.5 71q0 1 -20 2t-53 1t-76 -1t-89 -2 t-91.5 -2.5t-84.5 -3.5q-5 -86 -6 -171t0 -170t3 -170.5t2 -172.5q97 -8 202.5 -4.5t207.5 2.5q8 30 9 64.5t-1 66.5v2q-68 -2 -132 1.5zM287 882.5q-22 -20.5 -44.5 -44t-44 -46t-38.5 -38.5q7 -2 22.5 -3.5t35 -2.5t40 -0.5t36.5 2.5q4 8 18 21t30 27.5t31 27.5t22 20l1 1 l-69 70q-18 -14 -40 -34.5z" glyph-name="Eacute" horiz-adv-x="481" unicode=""/><glyph d="M166 839q-42 -38 -76 -84q33 -2 50.5 -3t27 -1.5t15 -0.5t14.5 1q4 1 11 8t15 15.5t15 16t11 9.5q5 -3 12 -11t14.5 -16.5t14.5 -15t10 -6.5q24 -3 44.5 -2t36 3t24.5 3.5t10 0.5l-163 162q-44 -41 -86 -79zM331 137.5q-64 3.5 -130 3.5l-1 1q-2 24 -3.5 60t3.5 65 q5 4 19 5t31.5 1t36.5 0.5t34 4.5q-1 37 1 71t-3 68v1q-31 1 -62 1t-61 2l-1 1q-7 27 -3.5 57.5t2.5 59.5l1 1h3q33 3 66 3t66 -0.5t65.5 1t64.5 8.5v1q0 35 2.5 71t-2.5 71q0 1 -20 2t-53 1t-76 -1t-89 -2t-91.5 -2.5t-84.5 -3.5q-5 -86 -6 -171t0 -170t3 -170.5t2 -172.5 q97 -8 202.5 -4.5t207.5 2.5q8 30 9 64.5t-1 66.5v2q-68 -2 -132 1.5z" glyph-name="Ecircumflex" horiz-adv-x="481" unicode=""/><glyph d="M331 137.5q-64 3.5 -130 3.5l-1 1q-2 24 -3.5 60t3.5 65q5 4 19 5t31.5 1t36.5 0.5t34 4.5q-1 37 1 71t-3 68v1q-31 1 -62 1t-61 2l-1 1q-7 27 -3.5 57.5t2.5 59.5l1 1h3q33 3 66 3t66 -0.5t65.5 1t64.5 8.5v1q0 35 2.5 71t-2.5 71q0 1 -20 2t-53 1t-76 -1t-89 -2 t-91.5 -2.5t-84.5 -3.5q-5 -86 -6 -171t0 -170t3 -170.5t2 -172.5q97 -8 202.5 -4.5t207.5 2.5q8 30 9 64.5t-1 66.5v2q-68 -2 -132 1.5zM210 758v1v1q0 7 1 23t2 33.5t2 30.5t1 14q-7 3 -21.5 4.5t-31 1.5t-32 -2t-24.5 -5q0 -6 -0.5 -19t-1 -28t0 -29.5t2.5 -24.5h3l97 -1 h2zM384 758v1v1q0 7 1 23t2 33.5t2 30.5t1 14q-7 3 -21.5 4.5t-31 1.5t-32 -2t-24.5 -5q0 -6 -0.5 -19t-1 -28t0 -29.5t2.5 -24.5h3l97 -1h2z" glyph-name="Edieresis" horiz-adv-x="481" unicode=""/><glyph d="M-15 846q7 -7 22 -20t31 -27.5t29.5 -27.5t18.5 -21q16 -2 36 -2.5t39.5 0.5t35.5 2.5t23 3.5q-17 16 -38.5 38.5t-44 46t-44.5 44t-40 34.5l-69 -70zM129.5 703.5q-23.5 1.5 -41.5 2.5q-7 0 -21.5 1.5t-19.5 0.5v-2q-9 -84 -8.5 -171.5t3 -177t3.5 -180.5t-6 -181 q10 3 37 1.5t56.5 -2.5t55 0.5t33.5 9.5q-5 85 -6 172t0.5 174.5t4 174.5t2.5 173v4h-24q-45 -1 -68.5 0.5z" glyph-name="Igrave" horiz-adv-x="260" unicode=""/><glyph d="M129.5 703.5q-23.5 1.5 -41.5 2.5q-7 0 -21.5 1.5t-19.5 0.5v-2q-9 -84 -8.5 -171.5t3 -177t3.5 -180.5t-6 -181q10 3 37 1.5t56.5 -2.5t55 0.5t33.5 9.5q-5 85 -6 172t0.5 174.5t4 174.5t2.5 173v4h-24q-45 -1 -68.5 0.5zM186 882.5q-22 -20.5 -44.5 -44t-44 -46 t-38.5 -38.5q7 -2 22.5 -3.5t35 -2.5t40 -0.5t36.5 2.5q4 8 18 21t30 27.5t31 27.5t22 20l1 1l-69 70q-18 -14 -40 -34.5z" glyph-name="Iacute" horiz-adv-x="259" unicode=""/><glyph d="M58 839q-42 -38 -76 -84q33 -2 50.5 -3t27 -1.5t15 -0.5t14.5 1q4 1 11 8t15 15.5t15 16t11 9.5q5 -3 12 -11t14.5 -16.5t14.5 -15t10 -6.5q24 -3 44.5 -2t36 3t24.5 3.5t10 0.5l-163 162q-44 -41 -86 -79zM129.5 703.5q-23.5 1.5 -41.5 2.5q-7 0 -21.5 1.5t-19.5 0.5v-2 q-9 -84 -8.5 -171.5t3 -177t3.5 -180.5t-6 -181q10 3 37 1.5t56.5 -2.5t55 0.5t33.5 9.5q-5 85 -6 172t0.5 174.5t4 174.5t2.5 173v4h-24q-45 -1 -68.5 0.5z" glyph-name="Icircumflex" horiz-adv-x="260" unicode=""/><glyph d="M129.5 703.5q-23.5 1.5 -41.5 2.5q-7 0 -21.5 1.5t-19.5 0.5v-2q-9 -84 -8.5 -171.5t3 -177t3.5 -180.5t-6 -181q10 3 37 1.5t56.5 -2.5t55 0.5t33.5 9.5q-5 85 -6 172t0.5 174.5t4 174.5t2.5 173v4h-24q-45 -1 -68.5 0.5zM104 758v1v1q0 7 1 23t2 33.5t2 30.5t1 14 q-7 3 -21.5 4.5t-31 1.5t-32 -2t-24.5 -5q0 -6 -0.5 -19t-1 -28t0 -29.5t2.5 -24.5h3l97 -1h2zM278 758v1v1q0 7 1 23t2 33.5t2 30.5t1 14q-7 3 -21.5 4.5t-31 1.5t-32 -2t-24.5 -5q0 -6 -0.5 -19t-1 -28t0 -29.5t2.5 -24.5h3l97 -1h2z" glyph-name="Idieresis" horiz-adv-x="260" unicode=""/><glyph d="M-3.5 332.5q2.5 -31.5 2.5 -60.5h25.5t27.5 -1q0 -63 1 -129t3 -138q31 1 63.5 -1t66.5 -3t67.5 0.5t65.5 7.5q14 3 30.5 13t33 33.5t33 63t30.5 101.5q11 46 14 94t-2 95q-2 29 -9 59t-15 57q-7 26 -17.5 48.5t-24.5 45.5q-27 46 -68 65t-87.5 21.5t-94.5 -4.5t-91 -13 q2 -73 2 -141t-1 -137l-57 1q-1 -46 1.5 -77.5zM277 177q-16 -9 -39 -11q-3 0 -14 -1t-23 -1t-22 2t-10 7q-2 20 -2 48v57l63 -1q0 15 -0.5 34.5t-1 38t-1 34t-0.5 21.5l-59 1q1 35 1 66.5t-2 51.5q8 3 21 6t27.5 4t28.5 -1t24 -8q18 -12 28.5 -29t17 -36.5t9.5 -40t6 -39.5 q3 -22 2.5 -47t-3.5 -49.5t-8.5 -45t-13.5 -33.5q-13 -19 -29 -28z" glyph-name="Eth" horiz-adv-x="482" unicode=""/><glyph d="M474 199q1 92 -1 183l1 320q-6 1 -24 2.5t-41.5 1.5t-48 -1.5t-42.5 -5.5v-3q-5 -28 -4.5 -59.5t3 -61.5t3.5 -56.5t-4 -44.5q-14 24 -34 56.5t-38.5 64t-33 57t-16.5 35.5v1q-15 4 -35.5 7.5t-41 5t-39 0.5t-30.5 -6q-7 -84 -8.5 -171t-0.5 -175t2.5 -175.5t0.5 -172.5 q0 -1 1 -1q18 3 39 1t42.5 -4t41.5 -2.5t35 4.5q1 0 1 1q-3 78 -1.5 148.5t6.5 145.5q26 -69 56.5 -147.5t63.5 -151.5h1q15 3 38.5 1.5t46 -3t40.5 -0.5t22 10l1 14q-3 90 -2 182zM172 773.5q0 8.5 4 19.5q2 6 6 10.5t9 8.5q10 4 18.5 6.5t16.5 2.5q15 0 23.5 -6t15.5 -17 q7 -18 21 -29t30.5 -16.5t34.5 -5t35 6.5q22 7 40 28q18 26 30.5 60.5t5.5 66.5q-1 0 -1 1l-1 1q-21 -1 -41.5 -1t-40.5 -2q-3 -9 -9.5 -23.5t-17 -25t-23 -14t-27.5 9.5q-13 8 -22 23t-25 25q-16 11 -34 14.5t-36 0.5t-35 -12t-30 -22q-10 -11 -19 -28t-17 -36t-14.5 -36.5 t-9.5 -28.5q26 1 49 1q20 0 39 -1t29 -3v1q-4 12 -4 20.5z" glyph-name="Ntilde" horiz-adv-x="516" unicode=""/><glyph d="M67 846q7 -7 22 -20t31 -27.5t29.5 -27.5t18.5 -21q16 -2 36 -2.5t39.5 0.5t35.5 2.5t23 3.5q-17 16 -38.5 38.5t-44 46t-44.5 44t-40 34.5l-69 -70zM397 658q-29 22 -65.5 33.5t-75 13.5t-77 -5.5t-71.5 -23.5q-13 -8 -23 -18q-31 -35 -41.5 -80.5t-11.5 -90.5 q-5 -79 -1.5 -157.5t6.5 -156.5q1 -29 5.5 -57.5t18.5 -53.5q9 -20 23 -32.5t31.5 -20.5t37 -11.5t40.5 -5.5q29 -2 57.5 0t56.5 10q31 8 58.5 22.5t44.5 38.5q18 29 27 64.5t11 70.5l3 33q4 52 3 102t2 103q1 25 0.5 49.5t-2.5 49.5q-2 16 -5.5 31.5t-10.5 30.5 q-12 35 -41 61zM331 305q0 -2 -0.5 -17t-1.5 -35q-2 -21 -1.5 -33.5t-0.5 -21.5t-5 -16.5t-13 -19.5q-15 -17 -37 -24.5t-44 -6t-41 12.5t-29 31q-10 33 -12 69.5t-7 71.5q-2 42 -0.5 84t9.5 80q12 42 47 69q16 12 37 17t41 -3q23 -11 36.5 -34t15.5 -51q1 -17 2.5 -36.5 t1.5 -20.5l2 -68v-48z" glyph-name="Ograve" horiz-adv-x="485" unicode=""/><glyph d="M397 658q-29 22 -65.5 33.5t-75 13.5t-77 -5.5t-71.5 -23.5q-13 -8 -23 -18q-31 -35 -41.5 -80.5t-11.5 -90.5q-5 -79 -1.5 -157.5t6.5 -156.5q1 -29 5.5 -57.5t18.5 -53.5q9 -20 23 -32.5t31.5 -20.5t37 -11.5t40.5 -5.5q29 -2 57.5 0t56.5 10q31 8 58.5 22.5t44.5 38.5 q18 29 27 64.5t11 70.5l3 33q4 52 3 102t2 103q1 25 0.5 49.5t-2.5 49.5q-2 16 -5.5 31.5t-10.5 30.5q-12 35 -41 61zM331 305q0 -2 -0.5 -17t-1.5 -35q-2 -21 -1.5 -33.5t-0.5 -21.5t-5 -16.5t-13 -19.5q-15 -17 -37 -24.5t-44 -6t-41 12.5t-29 31q-10 33 -12 69.5t-7 71.5 q-2 42 -0.5 84t9.5 80q12 42 47 69q16 12 37 17t41 -3q23 -11 36.5 -34t15.5 -51q1 -17 2.5 -36.5t1.5 -20.5l2 -68v-48zM293 882.5q-22 -20.5 -44.5 -44t-44 -46t-38.5 -38.5q7 -2 22.5 -3.5t35 -2.5t40 -0.5t36.5 2.5q4 8 18 21t30 27.5t31 27.5t22 20l1 1l-69 70 q-18 -14 -40 -34.5z" glyph-name="Oacute" horiz-adv-x="485" unicode=""/><glyph d="M161 839q-42 -38 -76 -84q33 -2 50.5 -3t27 -1.5t15 -0.5t14.5 1q4 1 11 8t15 15.5t15 16t11 9.5q5 -3 12 -11t14.5 -16.5t14.5 -15t10 -6.5q24 -3 44.5 -2t36 3t24.5 3.5t10 0.5l-163 162q-44 -41 -86 -79zM396 658q-29 22 -65.5 33.5t-75 13.5t-77 -5.5t-71.5 -23.5 q-13 -8 -23 -18q-31 -35 -41.5 -80.5t-11.5 -90.5q-5 -79 -1.5 -157.5t6.5 -156.5q1 -29 5.5 -57.5t18.5 -53.5q9 -20 23 -32.5t31.5 -20.5t37 -11.5t40.5 -5.5q29 -2 57.5 0t56.5 10q31 8 58.5 22.5t44.5 38.5q18 29 27 64.5t11 70.5l3 33q4 52 3 102t2 103q1 25 0.5 49.5 t-2.5 49.5q-2 16 -5.5 31.5t-10.5 30.5q-12 35 -41 61zM330 305q0 -2 -0.5 -17t-1.5 -35q-2 -21 -1.5 -33.5t-0.5 -21.5t-5 -16.5t-13 -19.5q-15 -17 -37 -24.5t-44 -6t-41 12.5t-29 31q-10 33 -12 69.5t-7 71.5q-2 42 -0.5 84t9.5 80q12 42 47 69q16 12 37 17t41 -3 q23 -11 36.5 -34t15.5 -51q1 -17 2.5 -36.5t1.5 -20.5l2 -68v-48z" glyph-name="Ocircumflex" horiz-adv-x="484" unicode=""/><glyph d="M396 658q-29 22 -65.5 33.5t-75 13.5t-77 -5.5t-71.5 -23.5q-13 -8 -23 -18q-31 -35 -41.5 -80.5t-11.5 -90.5q-5 -79 -1.5 -157.5t6.5 -156.5q1 -29 5.5 -57.5t18.5 -53.5q9 -20 23 -32.5t31.5 -20.5t37 -11.5t40.5 -5.5q29 -2 57.5 0t56.5 10q31 8 58.5 22.5t44.5 38.5 q18 29 27 64.5t11 70.5l3 33q4 52 3 102t2 103q1 25 0.5 49.5t-2.5 49.5q-2 16 -5.5 31.5t-10.5 30.5q-12 35 -41 61zM330 305q0 -2 -0.5 -17t-1.5 -35q-2 -21 -1.5 -33.5t-0.5 -21.5t-5 -16.5t-13 -19.5q-15 -17 -37 -24.5t-44 -6t-41 12.5t-29 31q-10 33 -12 69.5t-7 71.5 q-2 42 -0.5 84t9.5 80q12 42 47 69q16 12 37 17t41 -3q23 -11 36.5 -34t15.5 -51q1 -17 2.5 -36.5t1.5 -20.5l2 -68v-48zM152 764.5q0 8.5 4 19.5q2 6 6 10.5t9 8.5q10 4 18.5 6.5t16.5 2.5q15 0 23.5 -6t15.5 -17q7 -18 21 -29t30.5 -16.5t34.5 -5t35 6.5q22 7 40 28 q18 26 30.5 60.5t5.5 66.5q-1 0 -1 1l-1 1q-21 -1 -41.5 -1t-40.5 -2q-3 -9 -9.5 -23.5t-17 -25t-23 -14t-27.5 9.5q-13 8 -22 23t-25 25q-16 11 -34 14.5t-36 0.5t-35 -12t-30 -22q-10 -11 -19 -28t-17 -36t-14.5 -36.5t-9.5 -28.5q26 1 49 1q20 0 39 -1t29 -3v1 q-4 12 -4 20.5z" glyph-name="Otilde" horiz-adv-x="484" unicode=""/><glyph d="M396 658q-29 22 -65.5 33.5t-75 13.5t-77 -5.5t-71.5 -23.5q-13 -8 -23 -18q-31 -35 -41.5 -80.5t-11.5 -90.5q-5 -79 -1.5 -157.5t6.5 -156.5q1 -29 5.5 -57.5t18.5 -53.5q9 -20 23 -32.5t31.5 -20.5t37 -11.5t40.5 -5.5q29 -2 57.5 0t56.5 10q31 8 58.5 22.5t44.5 38.5 q18 29 27 64.5t11 70.5l3 33q4 52 3 102t2 103q1 25 0.5 49.5t-2.5 49.5q-2 16 -5.5 31.5t-10.5 30.5q-12 35 -41 61zM330 305q0 -2 -0.5 -17t-1.5 -35q-2 -21 -1.5 -33.5t-0.5 -21.5t-5 -16.5t-13 -19.5q-15 -17 -37 -24.5t-44 -6t-41 12.5t-29 31q-10 33 -12 69.5t-7 71.5 q-2 42 -0.5 84t9.5 80q12 42 47 69q16 12 37 17t41 -3q23 -11 36.5 -34t15.5 -51q1 -17 2.5 -36.5t1.5 -20.5l2 -68v-48zM208 758v1v1q0 7 1 23t2 33.5t2 30.5t1 14q-7 3 -21.5 4.5t-31 1.5t-32 -2t-24.5 -5q0 -6 -0.5 -19t-1 -28t0 -29.5t2.5 -24.5h3l97 -1h2zM382 758v1v1 q0 7 1 23t2 33.5t2 30.5t1 14q-7 3 -21.5 4.5t-31 1.5t-32 -2t-24.5 -5q0 -6 -0.5 -19t-1 -28t0 -29.5t2.5 -24.5h3l97 -1h2z" glyph-name="Odieresis" horiz-adv-x="484" unicode=""/><glyph d="M43.5 541q2.5 -89 5 -176.5t2.5 -177t-5 -185.5q178 -5 295 -7t188 -2t105 2t46 4.5t11.5 6.5t1.5 7q-2 44 -3.5 101.5t-2 121.5t-0.5 131.5v131.5t0.5 122t0.5 103l-647 2q0 -96 2.5 -185zM236.5 324.5q-6.5 -20.5 -16 -47.5t-26.5 -68t-49 -108v127.5t0.5 143t1 143 t1.5 128.5q30 -56 47.5 -94.5t27.5 -68.5t16.5 -55t15.5 -53q-12 -27 -18.5 -47.5zM484 431.5q15 35.5 34 72.5t37.5 72t29.5 62q0 -55 1 -123t1.5 -139t0 -140.5t-2.5 -128.5q-11 28 -29.5 62.5t-37 69.5t-34 69t-19.5 62q4 26 19 61.5zM341.5 447.5q-11.5 25.5 -25 58 t-27 67.5t-22.5 67h43h53t53 0.5t43 0.5q-11 -34 -26.5 -69t-30.5 -66.5t-27.5 -56.5t-17.5 -39q-4 12 -15.5 37.5zM430 99.5q-24 -1.5 -54 -3t-61.5 -1.5t-55.5 2q7 23 20.5 55.5t28.5 65.5t28 62.5t20 47.5l107 -225q-9 -2 -33 -3.5z" glyph-name="multiply" horiz-adv-x="735" unicode=""/><glyph d="M453 489.5q0 28.5 -4 55.5t-14 52.5t-29 47.5q-2 17 7.5 34t10.5 37q-9 6 -25 7t-35.5 0t-39 -1.5t-35.5 1.5h-1q-4 0 -5 -3t-1.5 -7t-1 -7.5t-2.5 -4.5q-22 2 -46 3t-48 -1.5t-46 -10t-40 -21.5l-3 -3q-24 -24 -40 -59q-9 -17 -12.5 -34.5t-5 -36t-2 -37t-2.5 -36.5 q-6 -100 -2.5 -198t28.5 -196q0 -1 0.5 -1t0.5 -1t-0.5 -1t-0.5 -1q-3 -8 -8 -21t-9.5 -27t-7.5 -25.5t-1 -14.5q15 1 34 0.5t37.5 -0.5t34.5 0.5t26 2.5h-1l1 1q8 6 10.5 10t2.5 5h1h1q24 3 53 2.5t57 2.5q55 5 93.5 39.5t50.5 88.5q14 75 15 150.5t2 152.5q2 27 2 55.5z M138.5 295q-0.5 10 0.5 21.5l2 23t2 20.5q1 6 1.5 11.5t1.5 11.5q5 32 6 63.5t6 63.5q8 20 28 35.5t40 17.5h7h1v-1q-22 -71 -47.5 -145t-45.5 -138q-2 6 -2.5 16zM324 353q2 -21 3.5 -47t0 -56t-9.5 -63q-4 -13 -14.5 -22.5t-23 -16.5t-26 -11.5t-23.5 -6.5q-1 0 -1 0.5 t-1 0.5q11 31 23.5 66t24.5 70t23.5 68t21.5 60v-4q0 -17 2 -38z" glyph-name="Oslash" horiz-adv-x="479" unicode=""/><glyph d="M96 846q7 -7 22 -20t31 -27.5t29.5 -27.5t18.5 -21q16 -2 36 -2.5t39.5 0.5t35.5 2.5t23 3.5q-17 16 -38.5 38.5t-44 46t-44.5 44t-40 34.5l-69 -70zM437.5 678.5q-19.5 1.5 -40.5 0t-41 -3.5t-33 -3q-3 -116 -3.5 -240t-5.5 -244q-5 -23 -22 -36t-37 -14t-38.5 10 t-25.5 35q-20 249 -9 491v1q-15 4 -33 5.5t-37 1.5t-37.5 -1t-33.5 -1h-1l1 -1q2 -132 -1 -266t-3 -266q2 -46 26.5 -78.5t61 -52t81.5 -27t87 -3.5q72 7 114 53t50 112q14 129 16 259.5t-4 258.5v1q-12 7 -31.5 8.5z" glyph-name="Ugrave" horiz-adv-x="505" unicode=""/><glyph d="M437.5 678.5q-19.5 1.5 -40.5 0t-41 -3.5t-33 -3q-3 -116 -3.5 -240t-5.5 -244q-5 -23 -22 -36t-37 -14t-38.5 10t-25.5 35q-20 249 -9 491v1q-15 4 -33 5.5t-37 1.5t-37.5 -1t-33.5 -1h-1l1 -1q2 -132 -1 -266t-3 -266q2 -46 26.5 -78.5t61 -52t81.5 -27t87 -3.5 q72 7 114 53t50 112q14 129 16 259.5t-4 258.5v1q-12 7 -31.5 8.5zM310 882.5q-22 -20.5 -44.5 -44t-44 -46t-38.5 -38.5q7 -2 22.5 -3.5t35 -2.5t40 -0.5t36.5 2.5q4 8 18 21t30 27.5t31 27.5t22 20l1 1l-69 70q-18 -14 -40 -34.5z" glyph-name="Uacute" horiz-adv-x="505" unicode=""/><glyph d="M162 839q-42 -38 -76 -84q33 -2 50.5 -3t27 -1.5t15 -0.5t14.5 1q4 1 11 8t15 15.5t15 16t11 9.5q5 -3 12 -11t14.5 -16.5t14.5 -15t10 -6.5q24 -3 44.5 -2t36 3t24.5 3.5t10 0.5l-163 162q-44 -41 -86 -79zM437.5 678.5q-19.5 1.5 -40.5 0t-41 -3.5t-33 -3 q-3 -116 -3.5 -240t-5.5 -244q-5 -23 -22 -36t-37 -14t-38.5 10t-25.5 35q-20 249 -9 491v1q-15 4 -33 5.5t-37 1.5t-37.5 -1t-33.5 -1h-1l1 -1q2 -132 -1 -266t-3 -266q2 -46 26.5 -78.5t61 -52t81.5 -27t87 -3.5q72 7 114 53t50 112q14 129 16 259.5t-4 258.5v1 q-12 7 -31.5 8.5z" glyph-name="Ucircumflex" horiz-adv-x="505" unicode=""/><glyph d="M214 758v1v1q0 7 1 23t2 33.5t2 30.5t1 14q-7 3 -21.5 4.5t-31 1.5t-32 -2t-24.5 -5q0 -6 -0.5 -19t-1 -28t0 -29.5t2.5 -24.5h3l97 -1h2zM388 758v1v1q0 7 1 23t2 33.5t2 30.5t1 14q-7 3 -21.5 4.5t-31 1.5t-32 -2t-24.5 -5q0 -6 -0.5 -19t-1 -28t0 -29.5t2.5 -24.5h3 l97 -1h2zM437.5 678.5q-19.5 1.5 -40.5 0t-41 -3.5t-33 -3q-3 -116 -3.5 -240t-5.5 -244q-5 -23 -22 -36t-37 -14t-38.5 10t-25.5 35q-20 249 -9 491v1q-15 4 -33 5.5t-37 1.5t-37.5 -1t-33.5 -1h-1l1 -1q2 -132 -1 -266t-3 -266q2 -46 26.5 -78.5t61 -52t81.5 -27t87 -3.5 q72 7 114 53t50 112q14 129 16 259.5t-4 258.5v1q-12 7 -31.5 8.5z" glyph-name="Udieresis" horiz-adv-x="505" unicode=""/><glyph d="M421 691q-18 0 -38.5 -0.5t-40.5 -2t-34 -3.5l-2 -1q-17 -41 -38 -88t-41 -83q-19 38 -33.5 83t-25.5 90q-15 6 -35 7t-40.5 0t-40.5 -3t-36 -2q10 -42 27 -85t35.5 -85.5t35 -86t27.5 -87.5v-2q-34 -87 -69 -175t-61 -169h2q35 -2 75 1t67 0q30 88 69 173t79.5 170 t78.5 171t66 175v1q-9 2 -27 2zM276 882.5q-22 -20.5 -44.5 -44t-44 -46t-38.5 -38.5q7 -2 22.5 -3.5t35 -2.5t40 -0.5t36.5 2.5q4 8 18 21t30 27.5t31 27.5t22 20l1 1l-69 70q-18 -14 -40 -34.5z" glyph-name="Yacute" horiz-adv-x="434" unicode=""/><glyph d="M242 148.5q35 -15.5 69 -15.5q39 0 66.5 27t45.5 67t26.5 87t8.5 87q0 50 -13 92t-35.5 72.5t-53.5 48t-66 18.5q-18 0 -34.5 -0.5t-30.5 -5t-25 -14t-18 -26.5v63t-0.5 30.5t-1 18.5t-0.5 29l-136 3q-5 -96 -4 -182t2.5 -172.5t1.5 -179t-7 -200.5q7 2 28.5 1.5t45.5 -1 t44.5 0.5t25.5 7q-2 6 -2 13t1 25t2 52t1 93q24 -23 59 -38.5zM334 407.5q1 -13.5 1 -26.5q0 -45 -23.5 -76.5t-65.5 -31.5q-25 0 -37.5 8.5t-18 24t-6 38t-0.5 50.5q0 35 0.5 55.5t5 31.5t15 14t31.5 3q41 0 64.5 -19.5t28.5 -44.5q4 -13 5 -26.5z" glyph-name="Thorn" horiz-adv-x="478" unicode=""/><glyph d="M270 276q17 -16 23.5 -32t6.5 -46q0 -27 -5.5 -39t-36.5 -17q-27 -2 -32 -20q-9 -79 3 -122q53 -4 82 1.5t61 21.5t54.5 45.5t30.5 76.5q6 32 2 58t-14.5 47.5t-25 41t-30.5 39.5q-5 6 -7 10t2 11q20 34 34.5 74t14.5 82q0 56 -18 94.5t-49 63t-71.5 35.5t-84.5 13 t-89 -4t-85 -17l-1 -1q3 -174 0 -344.5t3 -344.5q5 -2 10.5 -2h11.5q36 -1 98 -1q10 -1 9 94t-2 120.5t-1.5 57t-1 59.5t-3 76t-1 77.5t3.5 59.5q15 8 43.5 7.5t48.5 -4.5q16 -4 28.5 -12.5t20.5 -24.5t3 -37t-32.5 -46.5t-35.5 -71.5q-3 -43 32 -79z" glyph-name="germandbls" horiz-adv-x="470" unicode=""/><glyph d="M382.5 501q-24.5 1 -41.5 2h-11t-16 0.5t-14.5 0t-6.5 -1.5q0 -12 -2.5 -23.5t-1.5 -27.5q-7 17 -17 26.5t-23 14t-28.5 5t-33.5 0.5q-35 -1 -66 -18.5t-53.5 -48t-35.5 -72.5t-13 -92q0 -40 8.5 -87t26.5 -87t45.5 -67t66.5 -27q35 0 71.5 17t60.5 41q0 -10 -2 -17 t-2 -18q0 -8 2.5 -14t9.5 -8q11 0 21.5 1.5t21.5 1.5q16 0 32.5 -1.5t32.5 -1.5h12q12 2 12.5 15t0.5 26q7 107 3 211.5t-1 212.5v10q0 6 -0.5 12t-1.5 12q-32 2 -56.5 3zM176.5 343.5q23.5 19.5 64.5 19.5q21 0 31.5 -3t15 -14t5 -31.5t0.5 -55.5q0 -28 -0.5 -50.5t-6 -38 t-18 -24t-37.5 -8.5q-42 0 -65.5 31.5t-23.5 76.5q0 13 1 26.5t5 26.5q5 25 28.5 44.5zM115 683q7 -7 22 -20t31 -27.5t29.5 -27.5t18.5 -21q16 -2 36 -2.5t39.5 0.5t35.5 2.5t23 3.5q-17 16 -38.5 38.5t-44 46t-44.5 44t-40 34.5l-69 -70z" glyph-name="agrave" unicode=""/><glyph d="M382.5 501q-24.5 1 -41.5 2h-11t-16 0.5t-14.5 0t-6.5 -1.5q0 -12 -2.5 -23.5t-1.5 -27.5q-7 17 -17 26.5t-23 14t-28.5 5t-33.5 0.5q-35 -1 -66 -18.5t-53.5 -48t-35.5 -72.5t-13 -92q0 -40 8.5 -87t26.5 -87t45.5 -67t66.5 -27q35 0 71.5 17t60.5 41q0 -10 -2 -17 t-2 -18q0 -8 2.5 -14t9.5 -8q11 0 21.5 1.5t21.5 1.5q16 0 32.5 -1.5t32.5 -1.5h12q12 2 12.5 15t0.5 26q7 107 3 211.5t-1 212.5v10q0 6 -0.5 12t-1.5 12q-32 2 -56.5 3zM176.5 343.5q23.5 19.5 64.5 19.5q21 0 31.5 -3t15 -14t5 -31.5t0.5 -55.5q0 -28 -0.5 -50.5t-6 -38 t-18 -24t-37.5 -8.5q-42 0 -65.5 31.5t-23.5 76.5q0 13 1 26.5t5 26.5q5 25 28.5 44.5zM286 719.5q-22 -20.5 -44.5 -44t-44 -46t-38.5 -38.5q7 -2 22.5 -3.5t35 -2.5t40 -0.5t36.5 2.5q4 8 18 21t30 27.5t31 27.5t22 20l1 1l-69 70q-18 -14 -40 -34.5z" glyph-name="aacute" unicode=""/><glyph d="M166 678q-42 -38 -76 -84q33 -2 50.5 -3t27 -1.5t15 -0.5t14.5 1q4 1 11 8t15 15.5t15 16t11 9.5q5 -3 12 -11t14.5 -16.5t14.5 -15t10 -6.5q24 -3 44.5 -2t36 3t24.5 3.5t10 0.5l-163 162q-44 -41 -86 -79zM382.5 501q-24.5 1 -41.5 2h-11t-16 0.5t-14.5 0t-6.5 -1.5 q0 -12 -2.5 -23.5t-1.5 -27.5q-7 17 -17 26.5t-23 14t-28.5 5t-33.5 0.5q-35 -1 -66 -18.5t-53.5 -48t-35.5 -72.5t-13 -92q0 -40 8.5 -87t26.5 -87t45.5 -67t66.5 -27q35 0 71.5 17t60.5 41q0 -10 -2 -17t-2 -18q0 -8 2.5 -14t9.5 -8q11 0 21.5 1.5t21.5 1.5 q16 0 32.5 -1.5t32.5 -1.5h12q12 2 12.5 15t0.5 26q7 107 3 211.5t-1 212.5v10q0 6 -0.5 12t-1.5 12q-32 2 -56.5 3zM176.5 343.5q23.5 19.5 64.5 19.5q21 0 31.5 -3t15 -14t5 -31.5t0.5 -55.5q0 -28 -0.5 -50.5t-6 -38t-18 -24t-37.5 -8.5q-42 0 -65.5 31.5t-23.5 76.5 q0 13 1 26.5t5 26.5q5 25 28.5 44.5z" glyph-name="acircumflex" unicode=""/><glyph d="M382.5 501q-24.5 1 -41.5 2h-11t-16 0.5t-14.5 0t-6.5 -1.5q0 -12 -2.5 -23.5t-1.5 -27.5q-7 17 -17 26.5t-23 14t-28.5 5t-33.5 0.5q-35 -1 -66 -18.5t-53.5 -48t-35.5 -72.5t-13 -92q0 -40 8.5 -87t26.5 -87t45.5 -67t66.5 -27q35 0 71.5 17t60.5 41q0 -10 -2 -17 t-2 -18q0 -8 2.5 -14t9.5 -8q11 0 21.5 1.5t21.5 1.5q16 0 32.5 -1.5t32.5 -1.5h12q12 2 12.5 15t0.5 26q7 107 3 211.5t-1 212.5v10q0 6 -0.5 12t-1.5 12q-32 2 -56.5 3zM176.5 343.5q23.5 19.5 64.5 19.5q21 0 31.5 -3t15 -14t5 -31.5t0.5 -55.5q0 -28 -0.5 -50.5t-6 -38 t-18 -24t-37.5 -8.5q-42 0 -65.5 31.5t-23.5 76.5q0 13 1 26.5t5 26.5q5 25 28.5 44.5zM160 610.5q0 8.5 4 19.5l3 6q8 13 24 17.5t27 4.5q13 -1 21 -7t14 -16q13 -31 42 -42.5t60 -6.5q26 4 45.5 20.5t31.5 39.5t16.5 49.5t1.5 49.5v1q-1 0 -1 1l-1 1q-21 -1 -41.5 -1 t-40.5 -2q-3 -9 -9.5 -23.5t-17 -25t-23 -14t-27.5 9.5q-13 8 -22 23t-25 25q-16 11 -34 14.5t-36 0.5t-35 -12t-30 -22q-10 -11 -19 -28t-17 -36t-14.5 -36.5t-9.5 -28.5q26 1 49 1q20 0 39 -1t29 -3v1q-4 12 -4 20.5z" glyph-name="atilde" unicode=""/><glyph d="M382.5 501q-24.5 1 -41.5 2h-11t-16 0.5t-14.5 0t-6.5 -1.5q0 -12 -2.5 -23.5t-1.5 -27.5q-7 17 -17 26.5t-23 14t-28.5 5t-33.5 0.5q-35 -1 -66 -18.5t-53.5 -48t-35.5 -72.5t-13 -92q0 -40 8.5 -87t26.5 -87t45.5 -67t66.5 -27q35 0 71.5 17t60.5 41q0 -10 -2 -17 t-2 -18q0 -8 2.5 -14t9.5 -8q11 0 21.5 1.5t21.5 1.5q16 0 32.5 -1.5t32.5 -1.5h12q12 2 12.5 15t0.5 26q7 107 3 211.5t-1 212.5v10q0 6 -0.5 12t-1.5 12q-32 2 -56.5 3zM176.5 343.5q23.5 19.5 64.5 19.5q21 0 31.5 -3t15 -14t5 -31.5t0.5 -55.5q0 -28 -0.5 -50.5t-6 -38 t-18 -24t-37.5 -8.5q-42 0 -65.5 31.5t-23.5 76.5q0 13 1 26.5t5 26.5q5 25 28.5 44.5zM116.5 682.5q2.5 -31.5 2.5 -60.5q19 1 41 -0.5t41.5 -2t34 1.5t18.5 8q0 15 -0.5 34.5t-1 38t-1 34t-0.5 21.5l-136 3q-1 -46 1.5 -77.5zM300.5 682.5q2.5 -31.5 2.5 -60.5 q19 1 41 -0.5t41.5 -2t34 1.5t18.5 8q0 15 -0.5 34.5t-1 38t-1 34t-0.5 21.5l-136 3q-1 -46 1.5 -77.5z" glyph-name="adieresis" unicode=""/><glyph d="M340.5 658q1.5 34 -7.5 65q-11 16 -34.5 22t-44.5 7q-23 2 -43.5 -2.5t-34.5 -17.5q-8 -10 -11 -20q-7 -27 -5.5 -56.5t6.5 -57.5q5 -13 18 -20.5t27 -8.5t28 -1t28 2q17 1 34 5.5t26 18.5q12 30 13.5 64zM251 708q11 0 21 -3t18 -11q5 -8 7 -22q1 -11 -1 -23t-4 -22 q-5 -11 -18.5 -12.5t-24.5 -2.5h-10q-15 0 -25 9q-8 8 -9 20.5t-1 23.5q0 7 2 17q3 13 15 20q13 6 30 6zM382.5 501q-24.5 1 -41.5 2h-11t-16 0.5t-14.5 0t-6.5 -1.5q0 -12 -2.5 -23.5t-1.5 -27.5q-7 17 -17 26.5t-23 14t-28.5 5t-33.5 0.5q-35 -1 -66 -18.5t-53.5 -48 t-35.5 -72.5t-13 -92q0 -40 8.5 -87t26.5 -87t45.5 -67t66.5 -27q35 0 71.5 17t60.5 41q0 -10 -2 -17t-2 -18q0 -8 2.5 -14t9.5 -8q11 0 21.5 1.5t21.5 1.5q16 0 32.5 -1.5t32.5 -1.5h12q12 2 12.5 15t0.5 26q7 107 3 211.5t-1 212.5v10q0 6 -0.5 12t-1.5 12q-32 2 -56.5 3z M176.5 343.5q23.5 19.5 64.5 19.5q21 0 31.5 -3t15 -14t5 -31.5t0.5 -55.5q0 -28 -0.5 -50.5t-6 -38t-18 -24t-37.5 -8.5q-42 0 -65.5 31.5t-23.5 76.5q0 13 1 26.5t5 26.5q5 25 28.5 44.5z" glyph-name="aring" unicode=""/><glyph d="M482.5 245.5q37.5 -0.5 79 1t76.5 4.5t45 6q3 39 0.5 77.5t-16 70.5t-40 54.5t-70.5 30.5q-27 7 -55.5 8t-55 -4t-50.5 -16t-42 -27q-19 18 -51.5 28t-69.5 10.5t-75 -8t-67.5 -27t-46.5 -47t-12 -67.5q10 -5 26 -6.5t34 -1t35 2.5t29 4q0 25 17 40.5t38 18t40.5 -8.5 t25.5 -38q2 -6 2 -11.5v-14v-22t1 -35.5q-25 14 -60 19.5t-70 2t-66 -17.5t-47 -39q-26 -44 -27.5 -82.5t14.5 -69.5t46 -52.5t67.5 -30.5t79 -4t80.5 27q16 10 28.5 19.5t23.5 18.5q15 -21 37 -36t52 -20q27 0 58 -2.5t61 0t56 11.5t42 31q7 6 11 20.5t7 35t4.5 44.5 t3.5 48q-10 3 -26 3.5t-33.5 -0.5t-33.5 -1.5t-25 0.5q2 -39 -12 -58t-33.5 -23t-40 6.5t-32.5 31.5q-11 17 -12.5 35t-2.5 47v17q15 -3 52.5 -3.5zM129 113.5q-12 12.5 -13.5 27t5 29t15.5 23.5q26 23 55.5 22t59.5 -15q12 -7 18.5 -27t0 -39.5t-29.5 -32t-71 -4.5 q-28 4 -40 16.5zM571.5 369.5q9.5 -17.5 9.5 -36.5v-10t-5 -3t-17 1t-37 1q-36 0 -54.5 -0.5t-27 1t-9 5.5t1.5 15q2 12 6.5 23.5t13 19.5t22.5 13t37 5q10 0 17.5 -2.5t15.5 -6.5q17 -8 26.5 -25.5z" glyph-name="ae" horiz-adv-x="703" unicode=""/><glyph d="M345.5 -0.5q29.5 9.5 47.5 35.5q7 7 11.5 22.5t7.5 37t5 46.5t4 51q-11 3 -28 3.5t-36 -0.5t-36 -1.5t-27 0.5q-3 -13 -8.5 -29.5t-15.5 -23.5q-12 -8 -32 -10.5t-39 2t-32.5 17.5t-11.5 36q2 35 2 67t4 63q3 16 9 20q13 16 34 22q39 10 63 -9.5t29 -54.5q13 -2 29.5 -4 t34 -3t34 -1t29.5 3q-1 33 -1.5 61.5t-4.5 51.5t-11.5 40t-21.5 27q-21 20 -50 30t-61 12q-21 2 -39.5 0.5t-38.5 0.5q-24 0 -47.5 -3t-44 -10.5t-36 -18.5t-22.5 -26q-3 -10 -9 -29t-7 -30q-6 -36 -6 -72q4 -33 2.5 -73t0.5 -79.5t12 -75.5t37 -60q35 -35 86 -44l13 -1 l-9 -27t-6.5 -20t-10.5 -30.5t-22 -59.5q0 -1 14 -1h32.5h36.5h26v1q2 9 8.5 27t14 38.5t14 39.5t9.5 30q35 2 64.5 11.5zM424 -89q0 -1 1 -1l-1 2v-1z" glyph-name="ccedilla" horiz-adv-x="443" unicode=""/><glyph d="M93 683q7 -7 22 -20t31 -27.5t29.5 -27.5t18.5 -21q16 -2 36 -2.5t39.5 0.5t35.5 2.5t23 3.5q-17 16 -38.5 38.5t-44 46t-44.5 44t-40 34.5l-69 -70zM188 248q22 -1 49.5 -1t57.5 1t56.5 3t46 4t26.5 4q3 42 0 83t-17.5 75t-42.5 58t-74 32q-36 9 -74 8t-72 -11.5 t-61 -31t-40 -49.5q-12 -33 -15.5 -67.5t-6.5 -71.5q-2 -41 2 -82t15 -77.5t29 -67t45 -49.5q24 -14 52 -18q28 0 61.5 -2t65.5 0t59 12t44 34q7 6 11.5 21.5t7.5 37t5 46.5t4 51q-11 3 -28 3.5t-35.5 -0.5t-35.5 -1.5t-27 0.5q2 -41 -12.5 -61.5t-35.5 -24.5t-43 7t-34 34 q-11 18 -12.5 37t-2.5 49v18q10 -2 32 -3zM305.5 379q10.5 -18 10.5 -38v-10.5t-5.5 -3t-18.5 0.5t-39 1q-38 0 -57.5 -0.5t-28.5 1t-9.5 6t1.5 15.5q2 13 6.5 25t13.5 21t24 14t39 5q11 0 19 -2.5t16 -7.5q18 -9 28.5 -27z" glyph-name="egrave" horiz-adv-x="444" unicode=""/><glyph d="M271 719.5q-22 -20.5 -44.5 -44t-44 -46t-38.5 -38.5q7 -2 22.5 -3.5t35 -2.5t40 -0.5t36.5 2.5q4 8 18 21t30 27.5t31 27.5t22 20l1 1l-69 70q-18 -14 -40 -34.5zM188.5 248q21.5 -1 49 -1t57.5 1t56.5 3t46 4t26.5 4q3 42 0 83t-17.5 75t-42.5 58t-74 32q-36 9 -74 8 t-72 -11.5t-61 -31t-40 -49.5q-12 -33 -15.5 -67.5t-6.5 -71.5q-2 -41 2 -82t15 -77.5t29 -67t45 -49.5q24 -14 52 -18q28 0 61.5 -2t65.5 0t59 12t44 34q7 6 11.5 21.5t7.5 37t5 46.5t4 51q-11 3 -28 3.5t-35.5 -0.5t-35.5 -1.5t-27 0.5q2 -41 -12.5 -61.5t-35.5 -24.5 t-43 7t-34 34q-11 18 -12.5 37t-2.5 49v18q11 -2 32.5 -3zM305.5 379q10.5 -18 10.5 -38v-10.5t-5.5 -3t-18.5 0.5t-39 1q-38 0 -57.5 -0.5t-28.5 1t-9.5 6t1.5 15.5q2 13 6.5 25t13.5 21t24 14t39 5q11 0 19 -2.5t16 -7.5q18 -9 28.5 -27z" glyph-name="eacute" horiz-adv-x="444" unicode=""/><glyph d="M148 678q-42 -38 -76 -84q33 -2 50.5 -3t27 -1.5t15 -0.5t14.5 1q4 1 11 8t15 15.5t15 16t11 9.5q5 -3 12 -11t14.5 -16.5t14.5 -15t10 -6.5q24 -3 44.5 -2t36 3t24.5 3.5t10 0.5l-163 162q-44 -41 -86 -79zM188.5 248q21.5 -1 49 -1t57.5 1t56.5 3t46 4t26.5 4 q3 42 0 83t-17.5 75t-42.5 58t-74 32q-36 9 -74 8t-72 -11.5t-61 -31t-40 -49.5q-12 -33 -15.5 -67.5t-6.5 -71.5q-2 -41 2 -82t15 -77.5t29 -67t45 -49.5q24 -14 52 -18q28 0 61.5 -2t65.5 0t59 12t44 34q7 6 11.5 21.5t7.5 37t5 46.5t4 51q-11 3 -28 3.5t-35.5 -0.5 t-35.5 -1.5t-27 0.5q2 -41 -12.5 -61.5t-35.5 -24.5t-43 7t-34 34q-11 18 -12.5 37t-2.5 49v18q11 -2 32.5 -3zM305.5 379q10.5 -18 10.5 -38v-10.5t-5.5 -3t-18.5 0.5t-39 1q-38 0 -57.5 -0.5t-28.5 1t-9.5 6t1.5 15.5q2 13 6.5 25t13.5 21t24 14t39 5q11 0 19 -2.5 t16 -7.5q18 -9 28.5 -27z" glyph-name="ecircumflex" horiz-adv-x="444" unicode=""/><glyph d="M63.5 682.5q2.5 -31.5 2.5 -60.5q19 1 41 -0.5t41.5 -2t34 1.5t18.5 8q0 15 -0.5 34.5t-1 38t-1 34t-0.5 21.5l-136 3q-1 -46 1.5 -77.5zM247.5 682.5q2.5 -31.5 2.5 -60.5q19 1 41 -0.5t41.5 -2t34 1.5t18.5 8q0 15 -0.5 34.5t-1 38t-1 34t-0.5 21.5l-136 3 q-1 -46 1.5 -77.5zM188 248q22 -1 49.5 -1t57.5 1t56.5 3t46 4t26.5 4q3 42 0 83t-17.5 75t-42.5 58t-74 32q-36 9 -74 8t-72 -11.5t-61 -31t-40 -49.5q-12 -33 -15.5 -67.5t-6.5 -71.5q-2 -41 2 -82t15 -77.5t29 -67t45 -49.5q24 -14 52 -18q28 0 61.5 -2t65.5 0t59 12 t44 34q7 6 11.5 21.5t7.5 37t5 46.5t4 51q-11 3 -28 3.5t-35.5 -0.5t-35.5 -1.5t-27 0.5q2 -41 -12.5 -61.5t-35.5 -24.5t-43 7t-34 34q-11 18 -12.5 37t-2.5 49v18q10 -2 32 -3zM305.5 379q10.5 -18 10.5 -38v-10.5t-5.5 -3t-18.5 0.5t-39 1q-38 0 -57.5 -0.5t-28.5 1 t-9.5 6t1.5 15.5q2 13 6.5 25t13.5 21t24 14t39 5q11 0 19 -2.5t16 -7.5q18 -9 28.5 -27z" glyph-name="edieresis" horiz-adv-x="444" unicode=""/><glyph d="M103 503q-23 1 -36 2q-5 0 -14.5 1t-13.5 0v-1q-6 -59 -6 -121.5t2 -126.5t2.5 -129t-4.5 -128q7 2 28 1t44.5 -1.5t43.5 0t25 6.5q-7 121 -3.5 247t4.5 247v3h-17q-32 -1 -55 0zM-55 683q7 -7 22 -20t31 -27.5t29.5 -27.5t18.5 -21q16 -2 36 -2.5t39.5 0.5t35.5 2.5 t23 3.5q-17 16 -38.5 38.5t-44 46t-44.5 44t-40 34.5l-69 -70z" glyph-name="igrave" horiz-adv-x="207" unicode=""/><glyph d="M32 500q1 -121 4.5 -247t-3.5 -247q5 -6 25 -6.5t43.5 0t44.5 1.5t28 -1q-5 63 -4.5 128t2.5 129t2 126.5t-6 121.5v1q-4 1 -13.5 0t-14.5 -1q-13 -1 -36 -2t-55 0h-17v-3zM154 719.5q-22 -20.5 -44.5 -44t-44 -46t-38.5 -38.5q7 -2 22.5 -3.5t35 -2.5t40 -0.5t36.5 2.5 q4 8 18 21t30 27.5t31 27.5t22 20l1 1l-69 70q-18 -14 -40 -34.5z" glyph-name="iacute" horiz-adv-x="207" unicode=""/><glyph d="M103 503q-23 1 -36 2q-5 0 -14.5 1t-13.5 0v-1q-6 -59 -6 -121.5t2 -126.5t2.5 -129t-4.5 -128q7 2 28 1t44.5 -1.5t43.5 0t25 6.5q-7 121 -3.5 247t4.5 247v3h-17q-32 -1 -55 0zM22 678q-42 -38 -76 -84q33 -2 50.5 -3t27 -1.5t15 -0.5t14.5 1q4 1 11 8t15 15.5t15 16 t11 9.5q5 -3 12 -11t14.5 -16.5t14.5 -15t10 -6.5q24 -3 44.5 -2t36 3t24.5 3.5t10 0.5l-163 162q-44 -41 -86 -79z" glyph-name="icircumflex" horiz-adv-x="207" unicode=""/><glyph d="M-53.5 682.5q2.5 -31.5 2.5 -60.5q19 1 41 -0.5t41.5 -2t34 1.5t18.5 8q0 15 -0.5 34.5t-1 38t-1 34t-0.5 21.5l-136 3q-1 -46 1.5 -77.5zM130.5 682.5q2.5 -31.5 2.5 -60.5q19 1 41 -0.5t41.5 -2t34 1.5t18.5 8q0 15 -0.5 34.5t-1 38t-1 34t-0.5 21.5l-136 3 q-1 -46 1.5 -77.5zM103 503q-23 1 -36 2q-5 0 -14.5 1t-13.5 0v-1q-6 -59 -6 -121.5t2 -126.5t2.5 -129t-4.5 -128q7 2 28 1t44.5 -1.5t43.5 0t25 6.5q-7 121 -3.5 247t4.5 247v3h-17q-32 -1 -55 0z" glyph-name="idieresis" horiz-adv-x="207" unicode=""/><glyph d="M155.5 275.5q13.5 29.5 55.5 34.5q20 2 45 -2t47.5 -15.5t39 -30.5t19.5 -47q5 -38 -17 -60t-66 -27q-19 -2 -39.5 0.5t-38.5 10t-32 21t-20 32.5l-2 16q-5 38 8.5 67.5zM245.5 792.5q-14.5 7.5 -27.5 15.5t-27 16t-32 15q-5 2 -17 -4.5t-26.5 -17t-31 -23.5t-29 -24.5 t-20.5 -19t-7 -8.5q40 -17 66.5 -34.5t52.5 -23.5q-25 -18 -46.5 -33.5t-38 -27.5t-26.5 -19l-10 -7q2 -3 11 -10t21 -16t23.5 -19.5t18.5 -20.5q3 2 16.5 10.5t34.5 22.5t48.5 32t58.5 39q31 -26 45 -57.5t20 -61.5q5 -23 5.5 -45t5.5 -46q-8 4 -21 9.5t-32.5 10t-46.5 5.5 t-64 -3q-47 -6 -77.5 -25t-48 -50t-23 -73t-3.5 -93l1 -28q0 -6 0.5 -12t1.5 -11q6 -53 33 -89.5t67.5 -57.5t90 -28t101.5 -1q73 9 115 46t61 92.5t20 125.5t-8 145q-8 70 -19.5 138.5t-37.5 120.5q-12 24 -27.5 43t-34.5 35q14 9 25 16t22 13.5l22 13t25 15.5 q-14 15 -25.5 22t-21.5 12.5t-20 13.5t-22 24q-11 -6 -40 -27t-68 -49q-19 6 -33.5 13.5z" glyph-name="eth" horiz-adv-x="531" unicode=""/><glyph d="M168.5 471q0.5 11 -1.5 28q0 3 -8 3.5t-18 -0.5t-20 -2.5t-14 -1.5q-12 -1 -20 -1.5t-15 -0.5t-15 0.5t-20 1.5q-4 -132 -1.5 -255t2.5 -246q24 2 40 1t29 -1.5t25.5 0.5t29.5 6v4q4 33 4 66t-1.5 66.5t-2.5 67t1 68.5q2 27 14 40.5t27 18t30.5 2t23.5 -6.5q1 -1 2 -1 t2 -1q8 -6 12.5 -17t7 -25t3.5 -28.5t2 -26.5q2 -27 2.5 -58t0 -62t-0.5 -60t2 -52q35 0 62.5 -0.5t62.5 4.5q-2 34 -1 79t2 93.5t1.5 96t-1 87.5t-7 68.5t-15.5 37.5q-21 18 -47 25t-53.5 6t-53.5 -10t-47 -24q-5 -4 -12.5 -8t-12.5 -7q-1 14 -0.5 25zM138 610.5 q0 8.5 4 19.5l3 6q8 13 24 17.5t27 4.5q13 -1 21 -7t14 -16q13 -31 42 -42.5t60 -6.5q26 4 45.5 20.5t31.5 39.5t16.5 49.5t1.5 49.5v1q-1 0 -1 1l-1 1q-21 -1 -41.5 -1t-40.5 -2q-3 -9 -9.5 -23.5t-17 -25t-23 -14t-27.5 9.5q-13 8 -22 23t-25 25q-16 11 -34 14.5t-36 0.5 t-35 -12t-30 -22q-10 -11 -19 -28t-17 -36t-14.5 -36.5t-9.5 -28.5q26 1 49 1q20 0 39 -1t29 -3v1q-4 12 -4 20.5z" glyph-name="ntilde" horiz-adv-x="450" unicode=""/><glyph d="M80 683q7 -7 22 -20t31 -27.5t29.5 -27.5t18.5 -21q16 -2 36 -2.5t39.5 0.5t35.5 2.5t23 3.5q-17 16 -38.5 38.5t-44 46t-44.5 44t-40 34.5l-69 -70zM36 426.5q-6 -18.5 -7 -29.5q-3 -19 -4 -36.5t-1 -35.5q3 -33 1.5 -73t0.5 -79.5t12 -75.5t37 -60q35 -35 86 -44 q28 0 62 -2.5t66 0t59.5 12.5t44.5 34q10 10 15.5 37t9 61t5 71t2.5 66q-1 33 -2 64.5t-5 58t-12 46.5t-22 29q-21 20 -50 30.5t-61 12.5q-21 2 -39.5 0.5t-38.5 0.5q-24 0 -47.5 -3t-44 -10.5t-36 -18.5t-22.5 -26q-3 -11 -9 -29.5zM204 360q39 9 63 -7t29 -51 q6 -29 3.5 -61.5t-6.5 -64.5q-6 -25 -23 -33q-13 -7 -33 -9.5t-38.5 2t-31.5 17t-12 35.5q2 35 2 66.5t4 63.5q3 16 9 20q13 16 34 22z" glyph-name="ograve" horiz-adv-x="448" unicode=""/><glyph d="M271 719.5q-22 -20.5 -44.5 -44t-44 -46t-38.5 -38.5q7 -2 22.5 -3.5t35 -2.5t40 -0.5t36.5 2.5q4 8 18 21t30 27.5t31 27.5t22 20l1 1l-69 70q-18 -14 -40 -34.5zM36 426.5q-6 -18.5 -7 -29.5q-3 -19 -4 -36.5t-1 -35.5q3 -33 1.5 -73t0.5 -79.5t12 -75.5t37 -60 q35 -35 86 -44q28 0 62 -2.5t66 0t59.5 12.5t44.5 34q10 10 15.5 37t9 61t5 71t2.5 66q-1 33 -2 64.5t-5 58t-12 46.5t-22 29q-21 20 -50 30.5t-61 12.5q-21 2 -39.5 0.5t-38.5 0.5q-24 0 -47.5 -3t-44 -10.5t-36 -18.5t-22.5 -26q-3 -11 -9 -29.5zM204 360q39 9 63 -7 t29 -51q6 -29 3.5 -61.5t-6.5 -64.5q-6 -25 -23 -33q-13 -7 -33 -9.5t-38.5 2t-31.5 17t-12 35.5q2 35 2 66.5t4 63.5q3 16 9 20q13 16 34 22z" glyph-name="oacute" horiz-adv-x="448" unicode=""/><glyph d="M146 678q-42 -38 -76 -84q33 -2 50.5 -3t27 -1.5t15 -0.5t14.5 1q4 1 11 8t15 15.5t15 16t11 9.5q5 -3 12 -11t14.5 -16.5t14.5 -15t10 -6.5q24 -3 44.5 -2t36 3t24.5 3.5t10 0.5l-163 162q-44 -41 -86 -79zM36 426.5q-6 -18.5 -7 -29.5q-3 -19 -4 -36.5t-1 -35.5 q3 -33 1.5 -73t0.5 -79.5t12 -75.5t37 -60q35 -35 86 -44q28 0 62 -2.5t66 0t59.5 12.5t44.5 34q10 10 15.5 37t9 61t5 71t2.5 66q-1 33 -2 64.5t-5 58t-12 46.5t-22 29q-21 20 -50 30.5t-61 12.5q-21 2 -39.5 0.5t-38.5 0.5q-24 0 -47.5 -3t-44 -10.5t-36 -18.5t-22.5 -26 q-3 -11 -9 -29.5zM204 360q39 9 63 -7t29 -51q6 -29 3.5 -61.5t-6.5 -64.5q-6 -25 -23 -33q-13 -7 -33 -9.5t-38.5 2t-31.5 17t-12 35.5q2 35 2 66.5t4 63.5q3 16 9 20q13 16 34 22z" glyph-name="ocircumflex" horiz-adv-x="448" unicode=""/><glyph d="M136 610.5q0 8.5 4 19.5l3 6q8 13 24 17.5t27 4.5q13 -1 21 -7t14 -16q13 -31 42 -42.5t60 -6.5q26 4 45.5 20.5t31.5 39.5t16.5 49.5t1.5 49.5v1q-1 0 -1 1l-1 1q-21 -1 -41.5 -1t-40.5 -2q-3 -9 -9.5 -23.5t-17 -25t-23 -14t-27.5 9.5q-13 8 -22 23t-25 25 q-16 11 -34 14.5t-36 0.5t-35 -12t-30 -22q-10 -11 -19 -28t-17 -36t-14.5 -36.5t-9.5 -28.5q26 1 49 1q20 0 39 -1t29 -3v1q-4 12 -4 20.5zM36 426.5q-6 -18.5 -7 -29.5q-3 -19 -4 -36.5t-1 -35.5q3 -33 1.5 -73t0.5 -79.5t12 -75.5t37 -60q35 -35 86 -44q28 0 62 -2.5 t66 0t59.5 12.5t44.5 34q10 10 15.5 37t9 61t5 71t2.5 66q-1 33 -2 64.5t-5 58t-12 46.5t-22 29q-21 20 -50 30.5t-61 12.5q-21 2 -39.5 0.5t-38.5 0.5q-24 0 -47.5 -3t-44 -10.5t-36 -18.5t-22.5 -26q-3 -11 -9 -29.5zM204 360q39 9 63 -7t29 -51q6 -29 3.5 -61.5 t-6.5 -64.5q-6 -25 -23 -33q-13 -7 -33 -9.5t-38.5 2t-31.5 17t-12 35.5q2 35 2 66.5t4 63.5q3 16 9 20q13 16 34 22z" glyph-name="otilde" horiz-adv-x="448" unicode=""/><glyph d="M59.5 682.5q2.5 -31.5 2.5 -60.5q19 1 41 -0.5t41.5 -2t34 1.5t18.5 8q0 15 -0.5 34.5t-1 38t-1 34t-0.5 21.5l-136 3q-1 -46 1.5 -77.5zM243.5 682.5q2.5 -31.5 2.5 -60.5q19 1 41 -0.5t41.5 -2t34 1.5t18.5 8q0 15 -0.5 34.5t-1 38t-1 34t-0.5 21.5l-136 3 q-1 -46 1.5 -77.5zM36 426.5q-6 -18.5 -7 -29.5q-3 -19 -4 -36.5t-1 -35.5q3 -33 1.5 -73t0.5 -79.5t12 -75.5t37 -60q35 -35 86 -44q28 0 62 -2.5t66 0t59.5 12.5t44.5 34q10 10 15.5 37t9 61t5 71t2.5 66q-1 33 -2 64.5t-5 58t-12 46.5t-22 29q-21 20 -50 30.5t-61 12.5 q-21 2 -39.5 0.5t-38.5 0.5q-24 0 -47.5 -3t-44 -10.5t-36 -18.5t-22.5 -26q-3 -11 -9 -29.5zM204 360q39 9 63 -7t29 -51q6 -29 3.5 -61.5t-6.5 -64.5q-6 -25 -23 -33q-13 -7 -33 -9.5t-38.5 2t-31.5 17t-12 35.5q2 35 2 66.5t4 63.5q3 16 9 20q13 16 34 22z" glyph-name="odieresis" horiz-adv-x="448" unicode=""/><glyph d="M57.5 170.5q31.5 -0.5 77.5 -1.5t98 -1.5t98 -1t77.5 -0.5h35.5h1q-5 29 -3 60t1 61h-42h-80.5h-98.5h-95.5h-72.5h-30q0 -2 -0.5 -17.5t-1 -34.5t-0.5 -37v-27q4 0 35.5 -0.5zM286 0v1v1q0 7 1 26t2 39t2 35.5t1 16.5q-7 3 -23.5 4.5t-35.5 1.5t-37.5 -2t-28.5 -6 q0 -7 -0.5 -22t-1 -32t0 -34t2.5 -28h3l113 -1h2zM286 336v1v1q0 7 1 26t2 39t2 35.5t1 16.5q-7 3 -23.5 4.5t-35.5 1.5t-37.5 -2t-28.5 -6q0 -7 -0.5 -22t-1 -32t0 -34t2.5 -28h3l113 -1h2z" glyph-name="divide" horiz-adv-x="466" unicode=""/><glyph d="M324 377q-4 40 -30 71q-2 12 4.5 24t7.5 26q-6 4 -17.5 5t-25 0.5t-28 -1t-25.5 1.5h-1q-5 0 -4.5 -7t-1.5 -9q-32 4 -67.5 1.5t-61.5 -22.5l-3 -3q-16 -16 -28 -42q-12 -23 -12 -50t-3 -52q-5 -72 -2 -141.5t20 -138.5q0 -1 0.5 -1t0.5 -1l-1 -1q-2 -6 -5.5 -15.5 t-6.5 -19.5t-5 -18t-1 -10h24.5t26.5 -0.5t24.5 0t18.5 2.5h-1l1 1q9 9 9 10h1q17 2 38 2t41 2q38 4 66 28.5t37 62.5q10 54 10.5 107.5t0.5 108.5q3 39 -1 79zM103 214q2 18 3 31q1 4 1.5 8t1.5 9q2 23 3 45t5 45q6 14 20 25t29 13h4h1v-1q-16 -51 -34 -103.5t-32 -97.5 q-4 8 -2 26zM235.5 240.5q1.5 -15.5 2.5 -34t0 -39.5t-7 -45q-6 -18 -27 -28t-36 -13q0 1 -1 1q8 22 16.5 47t17.5 50t17 48.5t16 42.5v-2q0 -12 1.5 -27.5z" glyph-name="oslash" horiz-adv-x="351" unicode=""/><glyph d="M79 683q7 -7 22 -20t31 -27.5t29.5 -27.5t18.5 -21q16 -2 36 -2.5t39.5 0.5t35.5 2.5t23 3.5q-17 16 -38.5 38.5t-44 46t-44.5 44t-40 34.5l-69 -70zM281.5 29q-0.5 -11 1.5 -28q0 -3 8 -3.5t18 0.5t20 2.5t14 1.5q12 1 20 1.5t15 0.5t15 -0.5t20 -1.5q4 132 1.5 255 t-2.5 246q-24 -2 -40 -1t-29 1.5t-25.5 -0.5t-29.5 -6v-4q-5 -33 -4.5 -66t2 -66.5t2.5 -67.5t-1 -68q-2 -27 -14 -40.5t-27 -18t-30.5 -2t-23.5 6.5q-1 1 -2 1t-2 1q-8 6 -12.5 17t-7 25t-3.5 28.5t-2 26.5q-2 27 -2.5 58t0 62t0.5 60t-2 52q-35 0 -62.5 0.5t-62.5 -4.5 q2 -34 1 -79t-2 -93.5t-1.5 -96t1 -87.5t6.5 -68.5t16 -37.5q21 -18 47 -25t53.5 -6t53.5 10t47 24q5 4 12.5 8t12.5 7q1 -14 0.5 -25z" glyph-name="ugrave" horiz-adv-x="450" unicode=""/><glyph d="M270 719.5q-22 -20.5 -44.5 -44t-44 -46t-38.5 -38.5q7 -2 22.5 -3.5t35 -2.5t40 -0.5t36.5 2.5q4 8 18 21t30 27.5t31 27.5t22 20l1 1l-69 70q-18 -14 -40 -34.5zM281.5 29q-0.5 -11 1.5 -28q0 -3 8 -3.5t18 0.5t20 2.5t14 1.5q12 1 20 1.5t15 0.5t15 -0.5t20 -1.5 q4 132 1.5 255t-2.5 246q-24 -2 -40 -1t-29 1.5t-25.5 -0.5t-29.5 -6v-4q-5 -33 -4.5 -66t2 -66.5t2.5 -67.5t-1 -68q-2 -27 -14 -40.5t-27 -18t-30.5 -2t-23.5 6.5q-1 1 -2 1t-2 1q-8 6 -12.5 17t-7 25t-3.5 28.5t-2 26.5q-2 27 -2.5 58t0 62t0.5 60t-2 52q-35 0 -62.5 0.5 t-62.5 -4.5q2 -34 1 -79t-2 -93.5t-1.5 -96t1 -87.5t6.5 -68.5t16 -37.5q21 -18 47 -25t53.5 -6t53.5 10t47 24q5 4 12.5 8t12.5 7q1 -14 0.5 -25z" glyph-name="uacute" horiz-adv-x="449" unicode=""/><glyph d="M145 678q-42 -38 -76 -84q33 -2 50.5 -3t27 -1.5t15 -0.5t14.5 1q4 1 11 8t15 15.5t15 16t11 9.5q5 -3 12 -11t14.5 -16.5t14.5 -15t10 -6.5q24 -3 44.5 -2t36 3t24.5 3.5t10 0.5l-163 162q-44 -41 -86 -79zM281.5 29q-0.5 -11 1.5 -28q0 -3 8 -3.5t18 0.5t20 2.5t14 1.5 q12 1 20 1.5t15 0.5t15 -0.5t20 -1.5q4 132 1.5 255t-2.5 246q-24 -2 -40 -1t-29 1.5t-25.5 -0.5t-29.5 -6v-4q-5 -33 -4.5 -66t2 -66.5t2.5 -67.5t-1 -68q-2 -27 -14 -40.5t-27 -18t-30.5 -2t-23.5 6.5q-1 1 -2 1t-2 1q-8 6 -12.5 17t-7 25t-3.5 28.5t-2 26.5 q-2 27 -2.5 58t0 62t0.5 60t-2 52q-35 0 -62.5 0.5t-62.5 -4.5q2 -34 1 -79t-2 -93.5t-1.5 -96t1 -87.5t6.5 -68.5t16 -37.5q21 -18 47 -25t53.5 -6t53.5 10t47 24q5 4 12.5 8t12.5 7q1 -14 0.5 -25z" glyph-name="ucircumflex" horiz-adv-x="450" unicode=""/><glyph d="M58.5 682.5q2.5 -31.5 2.5 -60.5q19 1 41 -0.5t41.5 -2t34 1.5t18.5 8q0 15 -0.5 34.5t-1 38t-1 34t-0.5 21.5l-136 3q-1 -46 1.5 -77.5zM242.5 682.5q2.5 -31.5 2.5 -60.5q19 1 41 -0.5t41.5 -2t34 1.5t18.5 8q0 15 -0.5 34.5t-1 38t-1 34t-0.5 21.5l-136 3 q-1 -46 1.5 -77.5zM281.5 29q-0.5 -11 1.5 -28q0 -3 8 -3.5t18 0.5t20 2.5t14 1.5q12 1 20 1.5t15 0.5t15 -0.5t20 -1.5q4 132 1.5 255t-2.5 246q-24 -2 -40 -1t-29 1.5t-25.5 -0.5t-29.5 -6v-4q-5 -33 -4.5 -66t2 -66.5t2.5 -67.5t-1 -68q-2 -27 -14 -40.5t-27 -18 t-30.5 -2t-23.5 6.5q-1 1 -2 1t-2 1q-8 6 -12.5 17t-7 25t-3.5 28.5t-2 26.5q-2 27 -2.5 58t0 62t0.5 60t-2 52q-35 0 -62.5 0.5t-62.5 -4.5q2 -34 1 -79t-2 -93.5t-1.5 -96t1 -87.5t6.5 -68.5t16 -37.5q21 -18 47 -25t53.5 -6t53.5 10t47 24q5 4 12.5 8t12.5 7 q1 -14 0.5 -25z" glyph-name="udieresis" horiz-adv-x="449" unicode=""/><glyph d="M253 719.5q-22 -20.5 -44.5 -44t-44 -46t-38.5 -38.5q7 -2 22.5 -3.5t35 -2.5t40 -0.5t36.5 2.5q4 8 18 21t30 27.5t31 27.5t22 20l1 1l-69 70q-18 -14 -40 -34.5zM79 498.5q-40 -2.5 -76 1.5q31 -113 63 -234t53 -242q5 -33 -5.5 -48t-30.5 -19.5t-45.5 -2.5t-49.5 2 q-5 -28 -4.5 -65.5t10.5 -67.5q85 -5 143.5 13t98 52.5t63.5 81.5t39.5 99t26 106t23.5 103q12 52 24.5 106.5t28.5 114.5q-42 3 -77 1t-69 -1q-12 -30 -20 -79t-14.5 -102t-13.5 -102t-18 -79q-11 30 -22 76.5t-21 97.5t-19 100.5t-16 85.5q-32 4 -72 1.5z" glyph-name="yacute" horiz-adv-x="449" unicode=""/><glyph d="M235 13.5q35 -15.5 69 -15.5q39 0 66.5 27t45.5 67t26.5 87t8.5 87q0 50 -13 92t-35.5 72.5t-53.5 48t-66 18.5q-18 0 -34.5 -0.5t-30.5 -5t-25 -14t-18 -26.5q1 88 1.5 159t0.5 113l-136 3q-4 -92 -5 -204.5t-1 -232t-0.5 -238.5t-4.5 -223q7 2 29.5 1t47 -1.5t46 0 t26.5 6.5q-2 27 -2.5 41.5t-0.5 33v50v93.5q24 -23 59 -38.5zM327 272.5q1 -13.5 1 -26.5q0 -45 -23.5 -76.5t-65.5 -31.5q-25 0 -37.5 8.5t-18 24t-6 38t-0.5 50.5q0 35 0.5 55.5t5 31.5t15 14t31.5 3q41 0 64.5 -19.5t28.5 -44.5q4 -13 5 -26.5z" glyph-name="thorn" horiz-adv-x="470" unicode=""/><glyph d="M67.5 682.5q2.5 -31.5 2.5 -60.5q19 1 41 -0.5t41.5 -2t34 1.5t18.5 8q0 15 -0.5 34.5t-1 38t-1 34t-0.5 21.5l-136 3q-1 -46 1.5 -77.5zM251.5 682.5q2.5 -31.5 2.5 -60.5q19 1 41 -0.5t41.5 -2t34 1.5t18.5 8q0 15 -0.5 34.5t-1 38t-1 34t-0.5 21.5l-136 3 q-1 -46 1.5 -77.5zM79 498.5q-40 -2.5 -76 1.5q31 -113 63 -234t53 -242q5 -33 -5.5 -48t-30.5 -19.5t-45.5 -2.5t-49.5 2q-5 -28 -4.5 -65.5t10.5 -67.5q85 -5 143.5 13t98 52.5t63.5 81.5t39.5 99t26 106t23.5 103q12 52 24.5 106.5t28.5 114.5q-42 3 -77 1t-69 -1 q-12 -30 -20 -79t-14.5 -102t-13.5 -102t-18 -79q-11 30 -22 76.5t-21 97.5t-19 100.5t-16 85.5q-32 4 -72 1.5z" glyph-name="ydieresis" horiz-adv-x="449" unicode=""/><glyph d="M103 503q-23 1 -36 2q-5 0 -14.5 1t-13.5 0v-1q-6 -59 -6 -121.5t2 -126.5t2.5 -129t-4.5 -128q7 2 28 1t44.5 -1.5t43.5 0t25 6.5q-7 121 -3.5 247t4.5 247v3h-17q-32 -1 -55 0zM36.5 643.5q2.5 -31.5 2.5 -60.5q19 1 41 -0.5t41.5 -2t34 1.5t18.5 8q0 15 -0.5 34.5 t-1 38t-1 34t-0.5 21.5l-136 3q-1 -46 1.5 -77.5zM331.5 276q-0.5 -48 -0.5 -98v-99t-1 -91q-10 -14 -29 -22t-41 -12.5t-44.5 -5.5t-39.5 0q-2 -14 -4 -31t-3 -35t0.5 -36t6.5 -33q40 -2 83 0.5t81 11.5t67.5 27t42.5 49q8 48 11.5 92.5t4 88t0 88t-0.5 93.5q-2 18 -1 48.5 t1.5 64t0.5 67t-3 57.5q-13 2 -28.5 1t-32.5 -2.5t-34.5 -2.5t-33.5 1v-134q-2 -39 -2.5 -87zM329.5 643.5q2.5 -31.5 2.5 -60.5q19 1 41 -0.5t40.5 -2t32.5 1.5t18 8q0 15 -0.5 34.5t-1 38t-1 34t-0.5 21.5l-133 3q-1 -46 1.5 -77.5z" glyph-name="ij" horiz-adv-x="500" unicode=""/><glyph d="M686 140q-65 0 -130 2h-2q-6 9 -8 30t-1.5 43t2.5 39t5 19h1q17 0 30 0.5t25.5 1t26.5 0t34 -1.5h1v1q0 37 1.5 71t-1.5 69q0 1 -0.5 1.5t-0.5 1.5q-29 4 -61 3t-61 2q-6 12 -6.5 26.5t0 29.5t1.5 30t0 29l1 1q31 5 64.5 5.5t67 0t67 0.5t66.5 7q3 35 3.5 73.5t-0.5 73.5 h-35t-64 -0.5t-86 -1t-100.5 -1t-106.5 0t-105 1.5q-24 -1 -46 1t-43.5 2t-42.5 -3.5t-41 -15.5q-48 -25 -75.5 -72.5t-28.5 -104.5q-1 -49 -4.5 -99t-5 -99.5t0.5 -99t13 -97.5q17 -47 52 -80t92 -39q33 -4 63 -3.5t59.5 3t60.5 5t67 3.5q49 3 94.5 4t90 1t89.5 -0.5 t93 0.5h1q10 29 10.5 64t-1.5 68v2q-61 3 -126 3zM339.5 475q1.5 -12 2.5 -23q2 -49 -1.5 -96.5t-8.5 -97.5q-5 -34 -14.5 -64t-35.5 -53q-19 -14 -42 -18t-40 12q-19 17 -28.5 44.5t-11.5 47.5q-3 23 -3 45.5t1 45.5t1.5 46.5t-2.5 47.5v34t2 38q3 21 11 38.5t22 28.5 q10 7 23.5 10t28 3t28.5 -4t25 -11q18 -12 30 -36q2 -4 3.5 -7.5t3.5 -7.5q4 -11 5.5 -23z" glyph-name="OE" horiz-adv-x="830" unicode=""/><glyph d="M544.5 -4q28.5 2 50.5 7.5t37 13t21 15.5q7 6 11.5 21.5t7.5 37t5 46.5t4 51q-11 3 -28 3.5t-35.5 -0.5t-35.5 -1.5t-27 0.5q2 -41 -12.5 -61.5t-35.5 -24.5t-43 7t-34 34q-11 18 -12.5 37t-2.5 49v18q10 -2 32 -3t49.5 -1t57.5 1t56.5 3t46 4t26.5 4q3 42 -1.5 83 t-18.5 74t-38.5 56t-60.5 29q-20 -1 -46 0t-54 -2t-55 -14.5t-50 -37.5q-9 25 -31 37t-49 15.5t-53.5 2.5t-44.5 -1q-35 -1 -66 -18.5t-53.5 -48.5t-35.5 -73.5t-13 -92.5q0 -40 8.5 -87t26.5 -87t45.5 -67t66.5 -27q18 0 45.5 0.5t56 7.5t54 23t37.5 48q2 0 8 -10t18.5 -23 t34.5 -25.5t55 -17.5l14 -2q33 -5 61.5 -3zM564.5 377q10.5 -18 10.5 -38v-10.5t-5.5 -3t-18.5 0.5t-39 1q-38 0 -57.5 -0.5t-28.5 1t-9.5 6t1.5 15.5q2 13 6.5 25t13.5 21t24 14t39 5q11 0 19 -2.5t16 -7.5q18 -9 28.5 -27zM152 391q19 17 60 17q21 0 34.5 -4t21.5 -15.5 t11.5 -33t3.5 -56.5q0 -28 0.5 -64.5t-7 -68.5t-26 -53t-57.5 -18q-30 2 -45.5 23t-22.5 50t-7.5 60t-0.5 54q0 13 3.5 33.5t7.5 33.5q5 25 24 42z" glyph-name="oe" horiz-adv-x="703" unicode=""/><glyph d="M163 827q-42 38 -76 84q33 2 50.5 3t27 1.5t15 0.5t14.5 -1q4 -1 11 -8t15 -15.5t15 -16t11 -9.5q5 3 12 11t14.5 16.5t14.5 15t10 6.5q24 3 44.5 2t36 -3t24.5 -3.5t10 -0.5l-163 -162q-44 41 -86 79zM404 598q-26 49 -74 74q-24 11 -52.5 18t-58 8.5t-58.5 -2 t-53 -13.5q-48 -20 -81.5 -61t-45.5 -91t1.5 -103t59.5 -97q14 -12 31 -21t37 -13q21 -4 45 -8.5t44.5 -13.5t35.5 -23.5t18 -38.5q6 -35 -13.5 -52t-46 -17.5t-50 15.5t-25.5 48q-34 -1 -76 1.5t-77 -2.5v-3v-3q-3 -48 17 -85.5t54 -63.5t77.5 -40.5t87.5 -15.5 q31 -1 60.5 5.5t55 20.5t45.5 36t32 53q12 26 17.5 54.5t4 56.5t-10.5 54.5t-27 49.5q-29 43 -74.5 71t-98.5 34q-21 3 -39 11t-26 32q-1 7 -1.5 13.5t1.5 13.5q4 28 26.5 38t46.5 5t41 -23t11 -45q35 -10 75 -8.5t75 7.5h1q14 75 -12 124z" glyph-name="Scaron" horiz-adv-x="485" unicode=""/><glyph d="M306 630q42 38 76 84q-33 2 -50.5 3t-27 1.5t-15 0.5t-14.5 -1q-4 -1 -11 -8t-15 -15.5t-15 -16t-11 -9.5q-5 3 -12 11t-14.5 16.5t-14.5 15t-10 6.5q-24 3 -44.5 2t-36 -3t-24.5 -3.5t-10 -0.5l163 -162q44 41 86 79zM379 443.5q-20 43.5 -67 63.5q-26 6 -57 9.5 t-62 3.5t-58.5 -3t-46.5 -8q-49 -13 -75.5 -50t-28 -80.5t24 -84t81.5 -59.5q28 -12 57 -17t52 -11.5t37 -18.5t11 -36q1 -29 -18 -40t-42 -8.5t-43.5 17t-21.5 37.5q-31 0 -73 1.5t-75 -2.5v-2v-3q0 -40 16.5 -72t46 -54t70.5 -33t92 -9q58 -1 107 20t72 70q19 55 14 92.5 t-27 73.5q-23 30 -72 43.5t-105 21.5q-23 8 -35 24t-12 32t11.5 29.5t34.5 17.5q13 1 26.5 -3.5t24 -13.5t16 -21t2.5 -24q34 -7 72.5 -6t70.5 6q0 54 -20 97.5z" glyph-name="scaron" horiz-adv-x="450" unicode=""/><glyph d="M421 691q-18 0 -38.5 -0.5t-40.5 -2t-34 -3.5l-2 -1q-17 -41 -38 -88t-41 -83q-19 38 -33.5 83t-25.5 90q-15 6 -35 7t-40.5 0t-40.5 -3t-36 -2q10 -42 27 -85t35.5 -85.5t35 -86t27.5 -87.5v-2q-34 -87 -69 -175t-61 -169h2q35 -2 75 1t67 0q30 88 69 173t79.5 170 t78.5 171t66 175v1q-9 2 -27 2zM192 758v1v1q0 7 1 23t2 33.5t2 30.5t1 14q-7 3 -21.5 4.5t-31 1.5t-32 -2t-24.5 -5q0 -6 -0.5 -19t-1 -28t0 -29.5t2.5 -24.5h3l97 -1h2zM366 758v1v1q0 7 1 23t2 33.5t2 30.5t1 14q-7 3 -21.5 4.5t-31 1.5t-32 -2t-24.5 -5q0 -6 -0.5 -19 t-1 -28t0 -29.5t2.5 -24.5h3l97 -1h2z" glyph-name="Ydieresis" horiz-adv-x="434" unicode=""/><glyph d="M159 827q-42 38 -76 84q33 2 50.5 3t27 1.5t15 0.5t14.5 -1q4 -1 11 -8t15 -15.5t15 -16t11 -9.5q5 3 12 11t14.5 16.5t14.5 15t10 6.5q24 3 44.5 2t36 -3t24.5 -3.5t10 -0.5l-163 -162q-44 41 -86 79zM438 614q3 41 -2 80q-115 1 -225 3.5t-213 -7.5q2 -2 2 -4v-1 q5 -16 5.5 -35.5t0.5 -38.5t1 -36t7 -27q18 0 49.5 -1.5t66.5 -3t68.5 -3.5t56.5 -5q-29 -41 -62.5 -87t-67 -94t-63.5 -97t-52 -98q2 -21 1.5 -41.5t-0.5 -41t1 -40t7 -37.5q107 6 210.5 5t198.5 -6v2q3 36 5 79t-3 81v3q-43 -2 -72.5 -2.5t-56 -1t-55 -2.5t-68.5 -7l1 1 q63 97 131 191t126 192v1q-1 38 2 79z" glyph-name="Zcaron" horiz-adv-x="474" unicode=""/><glyph d="M334 630q42 38 76 84q-33 2 -50.5 3t-27 1.5t-15 0.5t-14.5 -1q-4 -1 -11 -8t-15 -15.5t-15 -16t-11 -9.5q-5 3 -12 11t-14.5 16.5t-14.5 15t-10 6.5q-24 3 -44.5 2t-36 -3t-24.5 -3.5t-10 -0.5l163 -162q44 41 86 79zM403.5 498.5q-17.5 -0.5 -38.5 -1t-40.5 -1 t-27.5 1.5q-54 0 -125.5 -0.5t-152.5 -0.5q1 -22 0 -38t-1.5 -31.5t-0.5 -34.5t2 -46q22 3 49.5 6t57.5 5t60 3t56 2q-25 -30 -55 -58.5t-61 -57t-60 -58t-53 -60.5q-1 -15 -0.5 -26t1.5 -24t1.5 -31t-0.5 -47q48 0 100 0.5t105 1.5t104.5 2t97.5 2q0 35 -1 71t-1 68 q-54 -8 -110.5 -5t-106.5 -1q51 57 111 112.5t111 110.5q-4 33 -2 64.5t2 69.5q-4 2 -21.5 1.5z" glyph-name="zcaron" horiz-adv-x="456" unicode=""/><glyph d="M150 319h1q-2 -44 -3 -97t-1.5 -100.5t-0.5 -81.5t2 -40q3 0 17 0.5t32 0t36.5 -2t31.5 -4.5v1q2 81 5.5 164t1.5 164q38 2 60.5 3t36 1.5t21 -0.5t13.5 -3h1q2 58 -2.5 92t1.5 41q-36 -1 -58.5 -1t-36 0.5t-21.5 1t-16 0.5q-2 3 -2 10t1 13.5t2.5 12t2.5 7.5q5 0 20 1 t34.5 2t41.5 2.5t41 2.5t32 1.5t16 1.5q-2 42 -3.5 70.5t-2.5 46.5l-1.5 27t-0.5 11h-133.5t-94 -1t-57.5 -2.5t-25 -5.5q4 -51 5.5 -102t-0.5 -102q-38 -1 -62 -1h-38h-19.5t-7.5 -1q0 -36 -0.5 -58.5t-1 -36t-1 -19.5t0.5 -9q0 -2 1 -3q15 -6 30 -7.5t30.5 -0.5t31.5 1.5 t31 -0.5h3h5z" glyph-name="florin" horiz-adv-x="478" unicode=""/><glyph d="M87 612q-42 -38 -76 -84q33 -2 50.5 -3t27 -1.5t15 -0.5t14.5 1q4 1 11 8t15 15.5t15 16t11 9.5q5 -3 12 -11t14.5 -16.5t14.5 -15t10 -6.5q24 -3 44.5 -2t36 3t24.5 3.5t10 0.5l-163 162q-44 -41 -86 -79z" glyph-name="circumflex" horiz-adv-x="347" unicode=""/><glyph d="M130.5 519.5q-0.5 8.5 3.5 16.5q5 11 17 19q19 10 32 10q16 1 24.5 -6t16.5 -17q8 -17 21.5 -28t30 -16.5t34.5 -5t36 6.5q13 5 21.5 12t16.5 18q10 12 18.5 27.5t14 31.5t7.5 33t-2 32q0 2 -2 2q-22 -1 -41.5 -1t-40.5 -2q-3 -9 -10 -23t-17 -24.5t-23 -13.5t-26 10 q-14 9 -23.5 22.5t-25.5 24.5q-15 11 -33.5 14.5t-37 0.5t-35.5 -12t-30 -22q-9 -11 -18.5 -28t-17.5 -36t-14.5 -36.5t-9.5 -28.5q26 1 49 1q20 0 39 -0.5t29 -2.5q-3 13 -3.5 21.5z" glyph-name="tilde" horiz-adv-x="449" unicode=""/><glyph d="M71 165q29 -1 69.5 -1.5t86.5 -1.5t86.5 -2t69 -1h34.5h1q-1 44 -1.5 72.5t-0.5 49.5t-0.5 37.5t-0.5 37.5h-43.5h-73h-86.5h-83h-63h-26q0 -3 -0.5 -29t-1 -57.5t-1 -61.5t-0.5 -42q5 0 34 -1z" glyph-name="endash" horiz-adv-x="455" unicode=""/><glyph d="M70 159.5q28 -0.5 70.5 -1t96.5 -1.5t109.5 -1.5t109.5 -1t96.5 -1t70.5 -0.5h32h1q-3 20 -4 46.5t-0.5 54.5t1 54.5t0.5 47.5h-97h-35.5h-64h-82.5h-91h-89.5h-77h-54h-21.5q0 -2 -0.5 -15.5t-1 -32.5t-0.5 -41.5t-0.5 -43.5t-0.5 -38v-25q4 0 32 -0.5z" glyph-name="emdash" horiz-adv-x="692" unicode=""/><glyph d="M128 466q12 35 19 60t14 50.5t14.5 56t19.5 75.5v1h-29t-38 -0.5t-32.5 -0.5h-13.5q-1 -5 -5.5 -22t-11 -40.5t-13.5 -51t-13.5 -53.5t-12 -47t-8.5 -32q1 -5 16.5 -5t34.5 1.5t36 3.5t21 2h1z" glyph-name="quoteleft" horiz-adv-x="207" unicode=""/><glyph d="M128 466q12 35 19 60t14 50.5t14.5 56t19.5 75.5v1h-29t-38 -0.5t-32.5 -0.5h-13.5q-1 -5 -5.5 -22t-11 -40.5t-13.5 -51t-13.5 -53.5t-12 -47t-8.5 -32q1 -5 16.5 -5t34.5 1.5t36 3.5t21 2h1z" glyph-name="quoteright" horiz-adv-x="207" unicode=""/><glyph d="M106 -90q12 35 19 60t14 50.5t14.5 56t19.5 75.5v1h-29t-38 -0.5t-32.5 -0.5h-13.5q-1 -5 -5.5 -22t-11 -40.5t-13.5 -51t-13.5 -53.5t-12 -47t-8.5 -32q1 -5 16.5 -5t34.5 1.5t36 3.5t21 2h1z" glyph-name="quotesinglbase" horiz-adv-x="196" unicode=""/><glyph d="M84 700q-12 -35 -19 -60t-14 -50.5t-14.5 -56t-19.5 -75.5v-1h29t38 0.5t32.5 0.5h13.5q2 7 10.5 40t19 73.5t20.5 78t14 54.5q-1 4 -16.5 4.5t-34.5 -1t-36 -3.5t-21 -2h-1zM244 700q-12 -35 -19 -60t-14 -50.5t-14.5 -56t-19.5 -75.5v-1h29t38 0.5t32.5 0.5h13.5 q2 7 10.5 40t19 73.5t20.5 78t14 54.5q-1 4 -16.5 4.5t-34.5 -1t-36 -3.5t-21 -2h-1z" glyph-name="quotedblleft" horiz-adv-x="367" unicode=""/><glyph d="M288 466q12 35 19 60t14 50.5t14.5 56t19.5 75.5v1h-29t-38 -0.5t-32.5 -0.5h-13.5q-1 -5 -5.5 -22t-11 -40.5t-13.5 -51t-13.5 -53.5t-12 -47t-8.5 -32q1 -5 16.5 -5t34.5 1.5t36 3.5t21 2h1zM128 466q12 35 19 60t14 50.5t14.5 56t19.5 75.5v1h-29t-38 -0.5t-32.5 -0.5 h-13.5q-1 -5 -5.5 -22t-11 -40.5t-13.5 -51t-13.5 -53.5t-12 -47t-8.5 -32q1 -5 16.5 -5t34.5 1.5t36 3.5t21 2h1z" glyph-name="quotedblright" horiz-adv-x="367" unicode=""/><glyph d="M61 144q-12 -35 -19 -60t-14 -50.5t-14.5 -56t-19.5 -75.5v-1h29t38 0.5t32.5 0.5h13.5q2 7 10.5 40t19 73.5t20.5 78t14 54.5q-1 4 -16.5 4.5t-34.5 -1t-36 -3.5t-21 -2h-1zM221 144q-12 -35 -19 -60t-14 -50.5t-14.5 -56t-19.5 -75.5v-1h29t38 0.5t32.5 0.5h13.5 q2 7 10.5 40t19 73.5t20.5 78t14 54.5q-1 4 -16.5 4.5t-34.5 -1t-36 -3.5t-21 -2h-1z" glyph-name="quotedblbase" horiz-adv-x="353" unicode=""/><glyph d="M169.5 368q0.5 70 -1.5 136h1q21 -1 45 1t38 1v1q-2 17 -2 38.5t1 38.5q-20 3 -40 2t-41 -2v2q2 31 0 56t1 53q-16 4 -34.5 2.5t-30.5 -5.5q-2 -24 -3 -51.5t-1 -54.5q-17 -5 -40 -3.5t-43 -1.5q1 -14 0 -38t1 -38q9 -5 20 -5.5t22 0t21.5 1t18.5 -0.5q1 -27 1 -63 t-0.5 -72.5t0 -70t3.5 -55.5q14 2 33.5 2t32.5 1v1q-3 55 -2.5 125z" glyph-name="dagger" horiz-adv-x="271" unicode=""/><glyph d="M27.5 408.5q-0.5 -10.5 -0.5 -21.5v-21t2 -16q9 -3 19.5 -3.5t21.5 0t21 0.5t18 -2q-1 -11 -0.5 -26l1 -30t0.5 -28v-19h1h34t34 3q-2 30 -1 57.5t-1 46.5h2q23 0 45 1.5t36 2.5v1q-2 16 -1.5 38t-0.5 39q-14 2 -38 1.5t-41 -2.5q-2 16 -3 37.5t1 38.5h1q21 -2 45 1.5 t36 1.5q-1 16 -1 38.5v39.5q-19 3 -39 2t-41 -2q1 30 -0.5 55.5t-0.5 53.5q-16 4 -34.5 2.5t-30.5 -5.5v-1q-1 -26 -2.5 -52t-0.5 -53q-18 -2 -39.5 -1.5t-42.5 -2.5q1 -7 0.5 -17.5t-1 -21.5t0 -21.5t3.5 -16.5q18 -6 41 -3.5t38 0.5v-1q2 -22 1.5 -37.5t-1.5 -35.5 q-19 -1 -39.5 -0.5t-42.5 -2.5q1 -7 0.5 -17.5z" glyph-name="daggerdbl" horiz-adv-x="286" unicode=""/><glyph d="M83 182.5q13 -7.5 27 -5.5h1q15 2 29 2t28 1q9 1 18.5 2t17.5 5q14 6 21 18t10 26l4 44t-1 44q-2 17 -16 29t-31 17q-8 3 -17 3h-18q-12 0 -24 0.5t-23 -0.5q-2 0 -4.5 -0.5t-4.5 -0.5q-10 -2 -15 -4q-7 -3 -14 -8t-12 -16q-2 -2 -2 -4t-1 -4q-2 -12 -3 -25.5t-1 -26.5 q-2 -30 3 -60q2 -10 7 -18q8 -11 21 -18.5z" glyph-name="bullet" horiz-adv-x="289" unicode=""/><glyph d="M152 0v1v1q0 7 1 26t2 39t2 35.5t1 16.5q-7 3 -23.5 4.5t-35.5 1.5t-37.5 -2t-28.5 -6q0 -7 -0.5 -22t-1 -32t0 -34t2.5 -28h3l113 -1h2zM317 0v1v1q0 7 1 26t2 39t2 35.5t1 16.5q-7 3 -23.5 4.5t-35.5 1.5t-37.5 -2t-28.5 -6q0 -8 -0.5 -22.5t-1 -31.5t0 -33.5 t2.5 -28.5h3l113 -1h2zM483 0v1v1q0 7 1 26t2 39t2 35.5t1 16.5q-7 3 -23.5 4.5t-35.5 1.5t-37.5 -2t-28.5 -6q0 -7 -0.5 -22t-1 -32t0 -34t2.5 -28h3l113 -1h2z" glyph-name="ellipsis" horiz-adv-x="520" unicode=""/><glyph d="M308.5 181q5.5 15 10.5 30q20 54 37.5 108t36.5 109q9 27 19 54.5t20 55.5q20 66 30 98.5t14 46.5q2 6 3 9.5t3 8.5q-12 6 -29 7t-35 0t-36 -1.5t-32 2.5q-7 -28 -15 -55t-15.5 -48.5t-12.5 -35.5t-6 -16q-10 -29 -18.5 -58t-19.5 -58q-30 -81 -48 -129t-27.5 -75 t-13 -38t-5.5 -18q-10 -22 -17.5 -44t-14.5 -44q-1 -4 -7 -18.5t-11.5 -30.5t-8.5 -29t1 -13h1q34 1 55.5 1h35t21 0.5t13.5 1.5q1 1 3 5l57 144q6 15 11.5 30zM20 487q2 -14 4 -28.5t4 -30.5q5 -24 15.5 -41t33.5 -32q23 -12 48 -13q34 -2 57.5 15.5t37.5 44t19.5 58.5 t4.5 61q1 14 -0.5 28t-3.5 30q-4 20 -12.5 39t-22.5 34t-33.5 23.5t-44.5 7.5q-23 -1 -41.5 -11t-32.5 -27q-20 -22 -24 -50.5t-8 -56.5l-2 -25l1 -25v-1zM98 553q-1 11 0 21t6 18q7 10 16 13q10 5 17.5 2t12.5 -10q1 -2 1.5 -2.5t1.5 -2.5q8 -29 9.5 -59.5t-0.5 -59.5 q0 -3 -0.5 -5.5t-0.5 -5.5q-2 -12 -5.5 -23.5t-18.5 -16.5q-11 -4 -21.5 1.5t-10.5 17.5q-1 10 -1 19t-1 19l-5 73v1zM363 148q2 -14 4 -28.5t4 -30.5q5 -24 15.5 -41t33.5 -32q23 -12 48 -13q34 -2 57.5 15.5t37.5 44t19.5 58.5t4.5 61q1 14 -0.5 28t-3.5 30 q-4 20 -12.5 39t-22.5 34t-33.5 23.5t-44.5 7.5q-23 -1 -41.5 -11t-32.5 -27q-20 -22 -24 -50.5t-8 -56.5l-2 -25l1 -25v-1zM441 214q-1 11 0 21t6 18q7 10 16 13q10 5 17.5 2t12.5 -10q1 -2 1.5 -2.5t1.5 -2.5q8 -29 9.5 -59.5t-0.5 -59.5q0 -3 -0.5 -5.5t-0.5 -5.5 q-2 -12 -5.5 -23.5t-18.5 -16.5q-11 -4 -21.5 1.5t-10.5 17.5q-1 10 -1 19t-1 19l-5 73v1zM611 148q2 -14 4 -28.5t4 -30.5q5 -24 15.5 -41t33.5 -32q23 -12 48 -13q34 -2 57.5 15.5t37.5 44t19.5 58.5t4.5 61q1 14 -0.5 28t-3.5 30q-4 20 -12.5 39t-22.5 34t-33.5 23.5 t-44.5 7.5q-23 -1 -41.5 -11t-32.5 -27q-20 -22 -24 -50.5t-8 -56.5l-2 -25l1 -25v-1zM689 214q-1 11 0 21t6 18q7 10 16 13q10 5 17.5 2t12.5 -10q1 -2 1.5 -2.5t1.5 -2.5q8 -29 9.5 -59.5t-0.5 -59.5q0 -3 -0.5 -5.5t-0.5 -5.5q-2 -12 -5.5 -23.5t-18.5 -16.5 q-11 -4 -21.5 1.5t-10.5 17.5q-1 10 -1 19t-1 19l-5 73v1z" glyph-name="perthousand" horiz-adv-x="853" unicode=""/><glyph d="M316 59q-2 -2 -4.5 -5t-8 -8t-14.5 -13.5t-24 -21.5l-1 1q-30 31 -62.5 59.5t-64.5 58.5t-63.5 62t-60.5 70q19 24 42 48.5t48 50l50 51t48 49.5q15 16 29 30.5t28 28.5q9 -5 18.5 -14.5t19 -19.5t19.5 -19.5t19 -15.5q-15 -19 -37 -42t-46.5 -48.5t-48.5 -51.5t-44 -50 q47 -41 92 -88t93 -86l-11 -10z" glyph-name="guilsinglleft" horiz-adv-x="362" unicode=""/><glyph d="M46 59q2 -2 4.5 -5t8 -8t14.5 -13.5t24 -21.5l1 1q30 31 62.5 59.5t64.5 58.5t63.5 62t60.5 70q-19 24 -42 48.5t-48 50l-50 51t-48 49.5q-15 16 -29 30.5t-28 28.5q-9 -5 -18.5 -14.5t-19 -19.5t-19.5 -19.5t-19 -15.5q15 -19 37 -42t46.5 -48.5t48.5 -51.5t44 -50 q-47 -41 -92 -88t-93 -86l11 -10z" glyph-name="guilsinglright" horiz-adv-x="362" unicode=""/><glyph d="M352 -1.5q50 -0.5 107 8.5q8 38 4 78t-2 76v1q-34 6 -75.5 6t-79.5 5.5t-67 22.5t-37 58q34 2 60.5 1.5t55.5 4.5q3 20 3.5 48.5t-4.5 50.5q-35 2 -62.5 2h-62.5q-2 9 -2.5 16t-0.5 17h1q14 1 31 0.5t34 0t33 1.5t29 5v1q2 21 2.5 47.5t-2.5 51.5v1q-17 5 -40 5h-45h-4 q16 27 42.5 39t57.5 15t63.5 1t62.5 -4q1 1 1 3q4 34 3 74.5t-5 72.5v1h-1q-50 -2 -105 -0.5t-106.5 -5t-95.5 -25t-72 -59.5q-23 -37 -31.5 -73.5t-10.5 -74.5q-1 -55 -2 -111.5t4.5 -109.5t19 -99.5t42.5 -80.5q15 -19 37 -32t44 -21.5t50 -13.5l18 -2q58 -2 108 -2.5z" glyph-name="Euro" horiz-adv-x="490" unicode=""/><glyph d="M149.5 647h-109.5l1 -1q-1 -12 -1 -26v-25.5t1 -20t2 -10.5q3 -1 10.5 -1h17t19 -1t15.5 -4l1 -1q3 -72 3.5 -123.5t0.5 -85t-0.5 -50t-0.5 -18.5q19 3 42.5 2t43.5 2v1q-1 85 -2 137.5t-1.5 81.5t-0.5 40.5t1 15.5l1 1h1q24 2 39 2t25 -2q2 19 2.5 41.5t-0.5 39.5 q-54 5 -110.5 5zM523 545q-2 48 0 98q-17 1 -38 -0.5t-39 -1.5q-10 -12 -18 -25.5t-18 -24.5q-2 0 -3 1q-8 12 -13.5 24.5t-15.5 23.5h-1q-17 -1 -37 0.5t-34 -2.5q-1 -106 -1 -173.5v-106.5t0.5 -55.5t1.5 -19.5l1 -2q17 0 36.5 -0.5t36.5 2.5q-3 48 -2.5 88.5t1.5 89.5 q7 1 12 -3t9 -10t7.5 -12t8.5 -8q7 8 13.5 18t14.5 19q5 -45 5 -92t2 -92q13 0 33 1t36 -1l1 166q3 50 1 98z" glyph-name="trademark" horiz-adv-x="564" unicode=""/><glyph d="M338.5 350q58.5 177 118.5 354v1q-5 4 -18 4.5t-27.5 -0.5t-27.5 -1.5t-19 1.5q-24 -89 -53 -176.5t-61 -175t-64 -176.5t-62 -180q4 1 17 0.5t27 -1t26.5 -0.5t16.5 1l2 4q1 2 2 3q64 165 122.5 342zM169 329.5v17.5q0 57 2.5 112.5t2.5 112.5v41t-2 42q-13 1 -26 1.5 t-26 0.5q-11 0 -22.5 -0.5t-22.5 -0.5q-2 -2 -11 -16t-19.5 -32.5t-19.5 -36t-10 -26.5q0 -2 8.5 -5t19 -6t20.5 -5t12 -2q4 0 7 4.5t5.5 10t4.5 9.5t4 4q1 -4 1 -10q0 -48 -3 -95t-3 -95v-48v-1q11 0 23.5 -1.5t24.5 -1.5q10 0 20.5 2t10.5 7q-1 9 -1 17.5zM559 294.5 q-4 13.5 -10 23.5t-12.5 16.5t-10.5 8.5q-19 10 -38 11.5t-39 0.5q-18 -1 -31.5 -10.5t-22.5 -24t-14 -33t-5 -36.5q0 -43 23 -71q-14 -15 -20 -35.5t-6 -40.5q0 -45 24 -73.5t72 -28.5t70.5 29t22.5 70q0 21 -8 41.5t-24 34.5q15 14 24 33t9 40v14q0 17 -4 30.5z M453.5 292.5q8.5 2.5 13.5 2.5q17 0 25 -12t8 -26q0 -15 -8 -26t-22 -11q-18 1 -25 12.5t-7 26.5q0 8 1 12l1 5q5 14 13.5 16.5zM447 139q7 5 15 5q17 0 25.5 -12t8.5 -27q0 -14 -7.5 -25.5t-21.5 -11.5q-15 0 -23 13.5t-8 29.5q0 9 1 14q3 9 10 14z" glyph-name="oneeighth" horiz-adv-x="588" unicode=""/><glyph d="M380.5 350q58.5 177 118.5 354v1q-5 4 -18 4.5t-27.5 -0.5t-27.5 -1.5t-19 1.5q-24 -89 -53 -176.5t-61 -175t-64 -176.5t-62 -180q4 1 17 0.5t27 -1t26.5 -0.5t16.5 1l2 4q1 2 2 3q64 165 122.5 342zM601 294.5q-4 13.5 -10 23.5t-12.5 16.5t-10.5 8.5q-19 10 -38 11.5 t-39 0.5q-18 -1 -31.5 -10.5t-22.5 -24t-14 -33t-5 -36.5q0 -43 23 -71q-14 -15 -20 -35.5t-6 -40.5q0 -45 24 -73.5t72 -28.5t70.5 29t22.5 70q0 21 -8 41.5t-24 34.5q15 14 24 33t9 40v14q0 17 -4 30.5zM495.5 292.5q8.5 2.5 13.5 2.5q17 0 25 -12t8 -26q0 -15 -8 -26 t-22 -11q-18 1 -25 12.5t-7 26.5q0 8 1 12l1 5q5 14 13.5 16.5zM489 139q7 5 15 5q17 0 25.5 -12t8.5 -27q0 -14 -7.5 -25.5t-21.5 -11.5q-15 0 -23 13.5t-8 29.5q0 9 1 14q3 9 10 14zM48.5 318.5q5.5 -4.5 16.5 -7.5q7 -2 13.5 -4t13.5 -3q20 -2 41.5 -1.5t40.5 5.5 q36 12 50 46q6 14 6.5 29t1.5 29q2 41 2 82.5t-1 83.5q1 9 -0.5 18.5t-6.5 17.5q-13 22 -43 33t-62.5 9t-61 -17.5t-37.5 -45.5q-4 -11 -3 -23.5t1 -22.5v-1h10h20t21.5 0.5t14.5 0.5q4 10 15.5 18.5t24 10.5t22.5 -3.5t10 -22.5q1 -16 -6.5 -22t-18.5 -7.5t-23 -1.5t-21 -3 q1 -14 -1.5 -35t3.5 -34q13 2 28.5 1.5t26.5 -8.5t12.5 -20.5t-4.5 -22.5q-8 -11 -18 -12.5t-19.5 2.5t-18 12t-11.5 17h-1q-18 1 -34 -2t-31 -2q-1 0 -1 -1q2 -15 2.5 -27.5t2.5 -23.5q2 -20 16 -36q2 -1 7.5 -5.5z" glyph-name="threeeighths" horiz-adv-x="624" unicode=""/><glyph d="M381.5 350q58.5 177 118.5 354v1q-5 4 -18 4.5t-27.5 -0.5t-27.5 -1.5t-19 1.5q-24 -89 -53 -176.5t-61 -175t-64 -176.5t-62 -180q4 1 17 0.5t27 -1t26.5 -0.5t16.5 1l2 4q1 2 2 3q64 165 122.5 342zM602 294.5q-4 13.5 -10 23.5t-12.5 16.5t-10.5 8.5q-19 10 -38 11.5 t-39 0.5q-18 -1 -31.5 -10.5t-22.5 -24t-14 -33t-5 -36.5q0 -43 23 -71q-14 -15 -20 -35.5t-6 -40.5q0 -45 24 -73.5t72 -28.5t70.5 29t22.5 70q0 21 -8 41.5t-24 34.5q15 14 24 33t9 40v14q0 17 -4 30.5zM496.5 292.5q8.5 2.5 13.5 2.5q17 0 25 -12t8 -26q0 -15 -8 -26 t-22 -11q-18 1 -25 12.5t-7 26.5q0 8 1 12l1 5q5 14 13.5 16.5zM490 139q7 5 15 5q17 0 25.5 -12t8.5 -27q0 -14 -7.5 -25.5t-21.5 -11.5q-15 0 -23 13.5t-8 29.5q0 9 1 14q3 9 10 14zM28 413q-1 -8 -1.5 -14.5t-0.5 -13.5q-1 -28 13.5 -46t36.5 -27t48.5 -9t50.5 8t42 24 t23 39q4 29 2.5 60t-10.5 57t-27.5 44.5t-48.5 23.5q-24 3 -51 -1h-1v1h-1q-2 3 -2 7.5t-1 8.5q0 1 -0.5 1t-0.5 1v2h1h24t43 0.5t43 1t25 1.5l0.5 11.5t1 25t0.5 25v11.5q-3 1 -19.5 1h-39.5t-49 -0.5t-48.5 -1t-38 -1t-16.5 -0.5h-1q1 -47 1 -85v-87q0 -1 1 -1q21 -1 51 2 t56 -2q15 -4 22.5 -18t7.5 -30t-8.5 -29.5t-25.5 -16.5q-11 -2 -20 4t-11 24v3l-71 -3v-1z" glyph-name="fiveeighths" horiz-adv-x="625" unicode=""/><glyph d="M372.5 350q58.5 177 118.5 354v1q-5 4 -18 4.5t-27.5 -0.5t-27.5 -1.5t-19 1.5q-24 -89 -53 -176.5t-61 -175t-64 -176.5t-62 -180q4 1 17 0.5t27 -1t26.5 -0.5t16.5 1l2 4q1 2 2 3q64 165 122.5 342zM593 294.5q-4 13.5 -10 23.5t-12.5 16.5t-10.5 8.5q-19 10 -38 11.5 t-39 0.5q-18 -1 -31.5 -10.5t-22.5 -24t-14 -33t-5 -36.5q0 -43 23 -71q-14 -15 -20 -35.5t-6 -40.5q0 -45 24 -73.5t72 -28.5t70.5 29t22.5 70q0 21 -8 41.5t-24 34.5q15 14 24 33t9 40v14q0 17 -4 30.5zM487.5 292.5q8.5 2.5 13.5 2.5q17 0 25 -12t8 -26q0 -15 -8 -26 t-22 -11q-18 1 -25 12.5t-7 26.5q0 8 1 12l1 5q5 14 13.5 16.5zM481 139q7 5 15 5q17 0 25.5 -12t8.5 -27q0 -14 -7.5 -25.5t-21.5 -11.5q-15 0 -23 13.5t-8 29.5q0 9 1 14q3 9 10 14zM81 564q34 -2 61 -3q-27 -63 -58.5 -126.5t-63.5 -131.5q14 -4 35.5 -2t35.5 2 q33 66 71 130.5t66 129.5q0 18 -0.5 32.5t0.5 32.5q-46 5 -100 4t-103 -3q0 -14 -0.5 -31.5t-2.5 -32.5h2q23 1 57 -1z" glyph-name="seveneighths" horiz-adv-x="616" unicode=""/><glyph d="M520.5 148.5q0.5 9.5 2.5 18.5q5 39 9 79t0.5 77t-17.5 68.5t-45 54.5l-6 4l-6 4q-20 13 -41 20.5t-42 11.5q-40 8 -81 6.5t-82 -3.5q-35 -5 -67 -20.5t-54 -43.5q-33 -39 -37 -86q-4 -51 -3.5 -100.5t8.5 -98.5q5 -42 31.5 -71t70.5 -49q26 -8 53 -11t55 -3 q26 2 53.5 3.5t54.5 6t51 15t44 30.5q31 30 45 69q3 9 3.5 18.5z" glyph-name="uni25CF" horiz-adv-x="579" unicode=""/><glyph d="M230 544.5q6 20.5 30 24.5q15 3 32.5 5.5t35.5 4.5t35 3t29 0q2 15 4.5 33.5t3 37.5t-1 38t-6.5 34q-50 2 -102.5 -1.5t-95.5 -18.5q-36 -11 -58.5 -35t-34.5 -53t-15.5 -60t-0.5 -57q-17 1 -35 1h-41l3 -129q22 1 40 1h35q0 -16 -0.5 -46t-1 -67t-0.5 -77.5t0.5 -77 t1 -65t2.5 -41.5q13 -2 29.5 -1t34.5 2.5t36.5 2.5t36.5 -1v372q12 0 39.5 -0.5t63.5 -1t75.5 -1t74.5 -1.5q1 -27 2.5 -59t3 -75t2.5 -100.5t1 -136.5q13 -2 29.5 -1t34.5 2.5t36 2.5t36 -1v372q32 -1 70 -0.5t89 -2.5v25t0.5 33t0.5 33.5t-1 27.5h-155q-3 13 -3 26.5 t3.5 24.5t11 18.5t19.5 9.5q14 3 31.5 5.5t35.5 4.5t35 3t29 0q3 15 5 33.5t3 37.5t-1 38t-7 34q-49 2 -101.5 -1.5t-96.5 -18.5q-35 -11 -57 -35t-34 -53t-16 -60.5t-2 -57.5l-253 -1q-6 26 0 46.5z" glyph-name="f_f" horiz-adv-x="789" unicode=""/><glyph d="M381 183.5q0 -92.5 -7 -183.5q7 3 29 2t46.5 -2t45.5 0t27 7q-4 63 -4.5 128t0.5 130.5t3 130.5t2 128v3h-18q-33 -1 -57 0t-38 2q-5 0 -15 1t-14 0v-1q-1 -8 -0.5 -20.5t0.5 -20.5h-154q-3 13 -3 26t3 24t10.5 19t19.5 10q15 2 32.5 4.5t35.5 4.5t34.5 3t28.5 0 q2 15 4.5 33t3 37t-1 37.5t-6.5 34.5q-49 2 -101 -1.5t-96 -18.5q-35 -12 -57.5 -36.5t-34.5 -54.5t-15 -62t-1 -58q-17 1 -35 1h-40l3 -120q21 1 39 1h35q0 -15 -0.5 -45t-0.5 -66.5t-0.5 -77t0 -76.5t1.5 -64.5t3 -41.5q13 -2 29.5 -1t34 3t36 3t35.5 -1v368 q31 -1 69 -0.5t89 -2.5v-186.5z" glyph-name="fi" horiz-adv-x="555" unicode=""/><glyph d="M386.5 187q0.5 -94 -6.5 -186q7 2 29.5 1t47.5 -2t46 0t27 7q-3 42 -3.5 100t-0.5 124t1 135t2 135t2 123.5t1 100.5v4h-18q-34 -1 -58.5 0t-38.5 2q-5 0 -14 0.5t-14 0.5q-49 2 -101 -2t-94 -18q-36 -12 -58.5 -37t-34.5 -55.5t-15.5 -63t-0.5 -58.5q-17 1 -35.5 1 h-41.5l3 -122q22 1 40.5 1h35.5q0 -16 -0.5 -46t-1 -67.5t-0.5 -78v-77t1 -65.5t3 -42q14 -2 30.5 -1t34.5 2.5t36 2.5t36 -1v374q32 -1 70.5 -0.5t89.5 -2.5q0 -95 0.5 -189zM227 524q0 15 3.5 28.5t11 23t19.5 11.5q27 4 63 3t62 -2v-92h-156q-3 13 -3 28z" glyph-name="fl" horiz-adv-x="562" unicode=""/><glyph d="M228.5 543.5q5.5 20.5 29.5 24.5q15 3 32.5 5.5t35.5 4.5t35 3t29 0q2 15 4 33t3 37t-0.5 37.5t-6.5 34.5q-49 2 -101.5 -1.5t-96.5 -18.5q-35 -12 -57.5 -35.5t-34.5 -52.5t-15 -59.5t-1 -56.5q-17 1 -35 1h-40l3 -128q21 1 39 1h35q0 -15 -0.5 -45t-1 -67t-0.5 -77 t0.5 -76.5t1.5 -65t2 -41.5q14 -2 30.5 -1t34 3t36 3t35.5 -1v369q12 0 39.5 -0.5t63 -1t75 -1t74.5 -1.5q1 -27 2.5 -58.5t3 -74t2.5 -100t1 -136.5q14 -2 30.5 -1t34 3t35.5 3t36 -1v369q32 -1 69.5 -0.5t88.5 -2.5v-187t-6 -184q7 3 29 2t46.5 -2t45.5 0t27 7 q-7 127 -3.5 259t4.5 259v4h-18q-33 -1 -57.5 0t-37.5 2q-5 0 -15.5 1t-14.5 0v-1q-1 -8 -0.5 -20.5t0.5 -20.5h-154q-5 26 0.5 50t29.5 28q15 3 32.5 5.5t35.5 4.5t35 3t29 0q2 15 4 33t3 37t-0.5 37.5t-6.5 34.5q-50 2 -102 -1.5t-96 -18.5q-35 -11 -56.5 -35t-34 -53 t-16.5 -60t-2 -57l-252 -1q-5 26 0.5 46.5z" glyph-name="f_f_i" horiz-adv-x="954" unicode=""/><glyph d="M230 544.5q6 20.5 30 24.5q15 3 32.5 5.5t35.5 4.5t35 3t29 0q2 15 4.5 33.5t3 37.5t-1 38t-6.5 34q-50 2 -102.5 -1.5t-95.5 -18.5q-36 -11 -58.5 -35t-34.5 -53t-15.5 -60t-0.5 -57q-17 1 -35 1h-41l3 -129q22 1 40 1h35q0 -16 -0.5 -46t-1 -67t-0.5 -77.5t0.5 -77 t1 -65t2.5 -41.5q13 -2 29.5 -1t34.5 2.5t36.5 2.5t36.5 -1v372q12 0 39.5 -0.5t63.5 -1t75.5 -1t74.5 -1.5q1 -27 2.5 -59t3 -75t2.5 -100.5t1 -136.5q13 -2 29.5 -1t34.5 2.5t36 2.5t36 -1v372q32 -1 70 -0.5t89 -2.5v25t0.5 33t0.5 33.5t-1 27.5h-155q-3 13 -3 26.5 t3.5 24.5t11 18.5t19.5 9.5q14 3 31.5 5.5t35.5 4.5t35 3t29 0q3 15 5 33.5t3 37.5t-1 38t-7 34q-49 2 -101.5 -1.5t-96.5 -18.5q-35 -11 -57 -35t-34 -53t-16 -60.5t-2 -57.5l-253 -1q-6 26 0 46.5zM823.5 539.5q1.5 -89.5 5.5 -178t6.5 -178t-4.5 -185.5q7 2 29.5 1t47 -2 t45.5 0t27 7q-3 42 -4 100t-2 123.5t-1 134.5t0.5 134.5t1 124t0.5 101.5l-144 3q-9 -96 -7.5 -185.5z" glyph-name="f_f_l" horiz-adv-x="1010" unicode=""/></font>
</defs>
</svg>
