<svg xmlns="http://www.w3.org/2000/svg" xmlns:xlink="http://www.w3.org/1999/xlink" version="1.1"><metadata>Created by FontForge 20170731 at Wed Mar 29 16:48:50 2017 By Aleksey,,, Copyright 2017 The Vollkorn Project Authors (https://github.com/FAlthausen/Vollkorn-Typeface)</metadata><defs><font id="Vollkorn-Black" horiz-adv-x="550"><font-face x-height="460" ascent="800" bbox="-786 -478 3056 1103" cap-height="679" descent="-200" font-family="Vollkorn Black" font-stretch="normal" font-weight="900" panose-1="0 0 10 0 0 0 0 0 0 0" underline-position="-425" underline-thickness="70" unicode-range="U+000D-1D550" units-per-em="1000"/><glyph d="M689.5 631q-8.5 -10 -12.5 -38t-4 -82v-63h117q0 -62 -10 -83q-30 0 -54.5 -3t-52.5 -12v-153q0 -65 23 -91.5t86 -30.5q9 -25 9 -78q-57 3 -180 3q-133 0 -202 -3q0 51 7 78q29 2 42.5 11t19 31.5t5.5 69.5v169q-44 12 -84 12q-48 0 -107 -18v-153q0 -52 6 -76 t19.5 -33.5t43.5 -12.5q9 -25 9 -78q-57 3 -160 3q-113 0 -182 -3q0 51 7 78q29 2 42.5 11t19 31.5t5.5 69.5v170q-40 12 -75 12q0 55 14 79h61v29q0 108 79.5 164t212.5 56q47 0 96 -8t77 -20q65 48 167 48q42 0 85.5 -9.5t65.5 -23.5q-7 -36 -7 -93q0 -19 2 -45 q-18 -8 -53.5 -11.5t-65.5 -1.5q0 50 -13.5 79t-34.5 29q-15 0 -23.5 -10zM483 477q0 51 13 89q-34 56 -112 56q-35 0 -54.5 -9t-28.5 -33.5t-9 -71.5v-60h191v29z" glyph-name="f_f" horiz-adv-x="821" unicode="ff"/><glyph d="M1150 -3q-48 3 -169 3q-129 0 -169 -3q0 42 8 78q28 2 41.5 9t19 24t5.5 51v126q0 29 -7 45.5t-27.5 25.5t-61.5 10q-36 0 -69 -3.5t-48 -8.5v-157q0 -49 5.5 -73t20 -34.5t44.5 -14.5q5 -13 6 -34.5t1 -43.5q-61 3 -161 3q-126 0 -180 -3q0 51 7 78q28 2 42 10.5 t19.5 30.5t5.5 67v178q-44 12 -84 12q-48 0 -107 -18v-158q0 -52 6 -76t19.5 -33.5t43.5 -12.5q9 -25 9 -78q-57 3 -160 3q-113 0 -182 -3q0 51 7 78q29 2 42.5 11t19 31.5t5.5 69.5v170q-40 12 -75 12q0 55 14 79h61v29q0 108 79.5 164t212.5 56q48 0 98.5 -9.5t88.5 -26.5 q90 56 238 56q87 0 138.5 -10.5t88.5 -26.5q-12 -50 -12 -136q-63 -27 -166 -27q-5 50 -13 75.5t-25.5 37t-51.5 11.5q-57 0 -81 -33t-24 -97v-63h157q50 1 110.5 6t101.5 13q14 -6 24 -20t10 -36v-249q0 -35 6.5 -53.5t20 -25t38.5 -8.5q9 -22 9 -78zM483 480q0 45 15 82 q-32 60 -114 60q-35 0 -54.5 -9t-28.5 -33.5t-9 -71.5v-60h191v32z" glyph-name="f_f_i" horiz-adv-x="1180" unicode="ffi"/><glyph d="M1167 -3q-37 3 -169 3q-133 0 -169 -3q0 54 9 78q27 2 40.5 9.5t19 25t5.5 52.5v384q0 47 -31 71t-73 24q-61 0 -93.5 -29.5t-32.5 -100.5v-63h117q0 -62 -10 -83q-30 0 -54.5 -3t-52.5 -12v-153q0 -46 6 -70.5t22.5 -36.5t50.5 -15q9 -25 9 -78q-57 3 -170 3t-182 -3 q0 51 7 78q29 2 42.5 11t19 31.5t5.5 69.5v169q-44 12 -84 12q-48 0 -107 -18v-153q0 -52 6 -76t19.5 -33.5t43.5 -12.5q9 -25 9 -78q-57 3 -160 3q-113 0 -182 -3q0 51 7 78q29 2 42.5 11t19 31.5t5.5 69.5v170q-40 12 -75 12q0 55 14 79h61v29q0 108 79.5 164t212.5 56 q48 0 98 -9.5t89 -26.5q86 56 225 56q38 0 78.5 -8.5t68.5 -20.5q65 8 105 29q35 -16 35 -64v-491q0 -34 5.5 -52t19.5 -25.5t41 -9.5q8 -25 8 -78zM483 477q0 46 15 85q-17 32 -45 47t-63 15q-52 0 -75 -26t-23 -90v-60h191v29z" glyph-name="f_f_l" horiz-adv-x="1187" unicode="ffl"/><glyph d="M1212 25q-22 -15 -63 -24.5t-85 -9.5q-82 0 -121.5 42t-39.5 141v183q-28 12 -75 12q0 47 14 79h61v78q0 47 -31 71t-73 24q-61 0 -93.5 -29.5t-32.5 -100.5v-43h117q0 -62 -10 -83q-30 0 -54.5 -3t-52.5 -12v-153q0 -65 23 -91.5t86 -30.5q9 -25 9 -78q-57 3 -180 3 q-133 0 -202 -3q0 51 7 78q29 2 42.5 11t19 31.5t5.5 69.5v174q-44 12 -84 12q-48 0 -107 -18v-158q0 -52 6 -76t19.5 -33.5t43.5 -12.5q9 -25 9 -78q-57 3 -160 3q-113 0 -182 -3q0 51 7 78q29 2 42.5 11t19 31.5t5.5 69.5v170q-40 12 -75 12q0 55 14 79h61v19 q0 108 79.5 164t212.5 56q50 0 100.5 -10.5t92.5 -31.5q85 52 219 52q39 0 82 -9.5t79 -25.5q60 10 91 25q35 -16 35 -64v-175h117q0 -43 -10 -80q-60 0 -107 -18v-164q0 -46 4.5 -69t14 -31t28.5 -8q13 0 29 3t28 8q15 -22 15 -64zM483 457q0 50 17 90q-30 65 -116 65 q-35 0 -54.5 -9t-28.5 -33.5t-9 -71.5v-50h191v9z" glyph-name="f_f_t.liga" horiz-adv-x="1222" unicode="fft"/><glyph d="M35 75q28 2 42 10.5t19.5 30.5t5.5 67v168q-44 18 -75 18q0 52 15 79h60v32q0 71 38 124.5t113.5 83t184.5 29.5q87 0 138.5 -10.5t88.5 -26.5q-12 -50 -12 -136q-63 -27 -166 -27q-5 50 -13 75.5t-25.5 37t-51.5 11.5q-57 0 -81 -33t-24 -97v-63h167q49 1 104.5 6 t97.5 13q14 -6 24 -20t10 -36v-249q0 -35 6.5 -53.5t20 -25t38.5 -8.5q9 -22 9 -78q-48 3 -169 3q-129 0 -169 -3q0 42 8 78q28 2 41.5 9t19 24t5.5 51v126q0 30 -7.5 47.5t-27.5 25.5t-59 8q-30 0 -67.5 -4t-51.5 -8v-157q0 -49 5.5 -73t20 -34.5t44.5 -14.5q5 -13 6 -34.5 t1 -43.5q-61 3 -161 3q-126 0 -180 -3q0 51 7 78z" glyph-name="f_i.liga" horiz-adv-x="799" unicode="fi"/><glyph d="M685 447q10 -14 10 -36v-328q0 -81 -36 -148t-88 -112.5t-105 -71.5q-19 10 -31.5 30t-15.5 44q49 49 67.5 95t18.5 117v248q0 29 -6.5 45.5t-25 25.5t-54.5 10q-37 0 -74.5 -3.5t-52.5 -8.5v-157q0 -49 5.5 -73t20 -34.5t44.5 -14.5q5 -13 6 -34.5t1 -43.5q-61 3 -161 3 q-126 0 -180 -3q0 51 7 78q28 2 42 10.5t19.5 30.5t5.5 67v168q-44 18 -75 18q0 52 15 79h60v32q0 71 38 124.5t113.5 83t184.5 29.5q87 0 138.5 -10.5t88.5 -26.5q-12 -50 -12 -136q-63 -27 -166 -27q-5 50 -13 75.5t-25.5 37t-51.5 11.5q-57 0 -81 -33t-24 -97v-63h167 q49 1 104.5 6t97.5 13q14 -6 24 -20z" glyph-name="f_j.liga" horiz-adv-x="735" unicode="fj"/><glyph d="M786 -3q-37 3 -169 3q-133 0 -169 -3q0 54 9 78q27 2 40.5 9.5t19 25t5.5 52.5v384q0 47 -31 71t-73 24q-61 0 -93.5 -29.5t-32.5 -100.5v-63h117q0 -62 -10 -83q-30 0 -54.5 -3t-52.5 -12v-153q0 -46 6 -70.5t22.5 -36.5t50.5 -15q9 -25 9 -78q-57 3 -170 3t-182 -3 q0 51 7 78q29 2 42.5 11t19 31.5t5.5 69.5v170q-40 12 -75 12q0 55 14 79h61v29q0 116 88.5 178t234.5 62q37 0 76.5 -8t68.5 -20q31 5 61 12.5t46 15.5q35 -16 35 -64v-491q0 -34 5.5 -52t19.5 -25.5t41 -9.5q8 -25 8 -78z" glyph-name="f_l.liga" horiz-adv-x="806" unicode="fl"/><glyph d="M831 25q-22 -15 -63 -24.5t-85 -9.5q-82 0 -121.5 42t-39.5 141v183q-28 12 -75 12q0 47 14 79h61v78q0 47 -31 71t-73 24q-61 0 -93.5 -29.5t-32.5 -100.5v-43h117q0 -62 -10 -83q-30 0 -54.5 -3t-52.5 -12v-153q0 -65 23 -91.5t86 -30.5q9 -25 9 -78q-57 3 -180 3 q-133 0 -202 -3q0 51 7 78q29 2 42.5 11t19 31.5t5.5 69.5v170q-40 12 -75 12q0 55 14 79h61v9q0 116 88.5 178t234.5 62q39 0 82 -9.5t79 -25.5q60 10 91 25q35 -16 35 -64v-175h117q0 -43 -10 -80q-60 0 -107 -18v-164q0 -46 4.5 -69t14 -31t28.5 -8q13 0 29 3t28 8 q15 -22 15 -64z" glyph-name="f_t.liga" horiz-adv-x="841" unicode="ft"/><glyph d="M809 25q-22 -15 -63 -24.5t-85 -9.5q-82 0 -121.5 42t-39.5 141v183q-28 12 -75 12q0 47 14 79h61v78q0 50 -23.5 72.5t-72.5 22.5q-54 0 -83 -29.5t-29 -100.5v-294q0 -65 23 -91.5t86 -30.5q9 -25 9 -78q-57 3 -180 3q-133 0 -202 -3q0 51 7 78q29 2 42.5 11t19 31.5 t5.5 69.5v170q-40 12 -75 12q0 55 14 79h61v9q0 116 84 178t221 62q49 0 84 -8.5t73 -26.5q59 10 91 25q35 -16 35 -64v-175h117q0 -43 -10 -80q-61 0 -107 -18v-164q0 -46 4.5 -69t14 -31t28.5 -8q13 0 29 3t28 8q15 -22 15 -64z" glyph-name="longs_t.liga" horiz-adv-x="819" unicode="ſt"/><glyph d="M1054 -3q-90 3 -139 3q-118 0 -163 -3q0 51 10 78q48 0 48 98v69q0 56 -14.5 79.5t-47.5 23.5q-37 0 -60.5 -43.5t-23.5 -111.5v-28q0 -50 11.5 -68.5t35.5 -18.5q7 -17 9 -34.5t2 -43.5q-45 3 -153 3q-124 0 -169 -3q0 52 10 78q38 0 51 18t13 69v384q0 48 -26.5 71.5 t-68.5 23.5q-44 0 -65.5 -29t-21.5 -101v-314q0 -45 5.5 -70t20 -37t43.5 -15q9 -25 9 -78q-57 3 -160 3q-113 0 -182 -3q0 51 7 78q29 2 42.5 11t19 31.5t5.5 69.5v170q-40 12 -75 12q0 55 14 79h61v29q0 77 37 131t100 81.5t140 27.5q82 0 143 -28q32 5 62 12.5t45 15.5 q35 -16 35 -64v-250q0 -22 -12 -61q10 25 18.5 40t20.5 27q25 25 59.5 39t75.5 14q74 0 124 -40.5t50 -122.5v-137q0 -50 9 -68.5t34 -18.5q11 -27 11 -78z" glyph-name="longs_h.liga" horiz-adv-x="1084" unicode="ſh"/><glyph d="M27 369q0 52 15 79h60v32q0 71 38 124.5t113.5 83t184.5 29.5q87 0 138.5 -10.5t88.5 -26.5q-12 -50 -12 -136q-63 -27 -166 -27q-5 50 -13 75.5t-25.5 37t-51.5 11.5q-57 0 -81 -33t-24 -97v-314q0 -49 5.5 -73t20 -34.5t44.5 -14.5q5 -13 6 -34.5t1 -43.5q-61 3 -161 3 q-126 0 -180 -3q0 51 7 78q28 2 42 10.5t19.5 30.5t5.5 67v168q-44 18 -75 18zM686.5 110q5.5 -18 19.5 -25.5t41 -9.5q8 -25 8 -78q-37 3 -169 3q-133 0 -169 -3q0 54 9 78q27 2 40.5 9.5t19 25t5.5 52.5v127q0 36 -15 51t-59 19q0 50 13 75q70 0 130 10t86 23 q35 -16 35 -64v-241q0 -34 5.5 -52z" glyph-name="longs_i.liga" horiz-adv-x="785" unicode="ſi"/><glyph d="M653 197q0 -65 23 -91.5t86 -30.5q9 -25 9 -78q-57 3 -180 3q-136 0 -197 -3q0 51 7 78q26 2 38.5 11t18 31.5t5.5 69.5v170q-40 12 -75 12q0 55 14 79h61v29q0 60 18 105q-43 41 -106 41q-43 0 -63 -24t-20 -91v-311q0 -51 5.5 -75.5t18.5 -34t40 -12.5q9 -25 9 -78 q-57 3 -155 3q-113 0 -182 -3q0 51 7 78q29 2 42.5 11t19 31.5t5.5 69.5v170q-40 12 -75 12q0 55 14 79h61v29q0 108 78.5 164t207.5 56q51 0 91.5 -8.5t64.5 -21.5q65 50 170 50q42 0 85.5 -9.5t65.5 -23.5q-7 -36 -7 -93q0 -19 2 -45q-18 -8 -53.5 -11.5t-65.5 -1.5 q0 50 -13.5 79t-34.5 29q-15 0 -23.5 -10t-12.5 -38t-4 -82v-314z" glyph-name="longs_longs.liga" horiz-adv-x="781" unicode="ſſ"/><glyph d="M9.5 732q-26.5 22 -26.5 54q0 36 23 60.5t69 24.5q48 0 71.5 -23t23.5 -61q0 -32 -26.5 -54.5t-65.5 -22.5q-42 0 -68.5 22zM228.5 733q-25.5 23 -25.5 62q0 36 25.5 56t68.5 20q41 0 68 -22t27 -54q0 -37 -22 -61t-68 -24q-48 0 -73.5 23zM451.5 732q-26.5 22 -26.5 54 q0 36 23 60.5t69 24.5q48 0 71.5 -23t23.5 -61q0 -32 -26.5 -54.5t-65.5 -22.5q-42 0 -68.5 22zM670.5 733q-25.5 23 -25.5 62q0 36 25.5 56t68.5 20q41 0 68 -22t27 -54q0 -37 -22 -61t-68 -24q-48 0 -73.5 23zM99.5 559q-4.5 21 -17.5 29.5t-43 12.5q-9 36 -9 78 q50 -3 179 -3q109 0 169 3q0 -26 -1.5 -43.5t-7.5 -34.5q-29 -3 -42 -11.5t-18 -30t-5 -68.5v-304q0 -47 5.5 -69.5t19 -31.5t41.5 -11q8 -29 8 -78q-45 3 -159 3q-118 0 -189 -3q0 17 3 40t7 38q28 2 41 11t18 31t5 70v304q0 47 -4.5 68zM507.5 559q-4.5 21 -17.5 29.5 t-43 12.5q-9 36 -9 78q49 -3 179 -3q109 0 169 3q0 -26 -1.5 -43.5t-7.5 -34.5q-29 -3 -42 -11.5t-18 -30t-5 -68.5v-304q0 -47 5.5 -69.5t19 -31.5t41.5 -11q8 -29 8 -78q-45 3 -159 3q-119 0 -189 -3q0 17 3 40t7 38q28 2 41 11t18 31t5 70v304q0 47 -4.5 68z" glyph-name="uni04070407.rlig" horiz-adv-x="816" unicode="ЇЇ"/><glyph d="M-28 529q-27 23 -27 57q0 38 23.5 64t70.5 26q49 0 73 -24t24 -64q0 -35 -27 -58.5t-67 -23.5q-43 0 -70 23zM194 530.5q-26 24.5 -26 65.5q0 38 26 59t70 21q42 0 69.5 -23t27.5 -57q0 -39 -22.5 -64.5t-69.5 -25.5q-49 0 -75 24.5zM432 529q-27 23 -27 57q0 38 23.5 64 t70.5 26q49 0 73 -24t24 -64q0 -35 -27 -58.5t-67 -23.5q-43 0 -70 23zM654 530.5q-26 24.5 -26 65.5q0 38 26 59t70 21q42 0 69.5 -23t27.5 -57q0 -39 -22.5 -64.5t-69.5 -25.5q-49 0 -75 24.5zM41 75q27 2 40.5 9.5t19 25t5.5 52.5v127q0 36 -15 51t-59 19q0 50 13 75 q70 0 130 10t86 23q35 -16 35 -64v-241q0 -34 5.5 -52t19.5 -25.5t41 -9.5q8 -25 8 -78q-37 3 -169 3q-133 0 -169 -3q0 54 9 78zM431 75q27 2 40.5 9.5t19 25t5.5 52.5v127q0 36 -15 51t-59 19q0 50 13 75q70 0 130 10t86 23q35 -16 35 -64v-241q0 -34 5.5 -52t19.5 -25.5 t41 -9.5q8 -25 8 -78q-37 3 -169 3q-133 0 -169 -3q0 54 9 78z" glyph-name="uni04570457.rlig" horiz-adv-x="780" unicode="її"/><glyph d="M51 677h352v-677h-352v677zM362 319v270h-270v-270h270zM102 579h70v-70h-70v70zM282 349h20v10h-10v10h-10v-20h-10v10h-20v20h-10v10h-10v-20h-10v10h-10v-10h-20v10h10v10h-10v10h10v20h-20v20h10v30h10v-40h10v20h10v10h-10v20h-20v10h-10v50h20v20h-20v20h10v-10h10 v10h30v-20h-10v10h-10v-20h10v-10h-10v-10h-20v-30h10v20h10v-30h10v50h10v20h10v-10h10v-10h-10v-10h-10v-50h-10v-10h10v-30h-10v-20h10v-20h20v-10h10v10h-10v50h10v10h-20v10h10v20h10v-10h10v-50h-10v-10h30v20h-10v20h10v10h20v20h10v-10h10v-10h-10v-10h-20v-40h10 v-20h10v-10h-10v-10h10v-10h20v-10h10v-10h-20v10h-20v-20h-30v10zM282 579h70v-70h-70v70zM162 519v50h-50v-50h50zM342 519v50h-50v-50h50zM122 559h30v-30h-30v30zM252 559h10v-10h-10v10zM302 559h30v-30h-30v30zM262 549h10v-10h-10v10zM282 489h-20v40h10v-30h40v-10 h-10v-10h-20v10zM242 519h10v-10h-10v10zM102 499h30v-10h20v10h20v-10h-10v-10h20v-10h-30v10h-40v-10h10v-10h-20v40zM342 479h-10v20h20v-30h-10v10zM232 479h10v-10h-10v10zM132 469h10v-10h-10v10zM132 449h20v10h30v-20h-10v10h-10v-10h-20v-10h-10v20zM342 439h-10 v10h10v10h10v-30h-10v10zM102 439h10v10h10v-20h-20v10zM162 439h10v-10h-10v10zM312 439h20v-10h-20v10zM142 429h20v-10h20v-10h-40v20zM102 419h30v-10h-30v10zM332 419h10v-10h-10v10zM182 409h10v-10h-10v10zM302 379v30h-30v-30h30zM322 409h10v-10h-10v10zM342 409 h10v-20h-10v20zM102 399h70v-70h-70v70zM282 399h10v-10h-10v10zM162 339v50h-50v-50h50zM182 389h10v-10h-10v10zM332 389h10v-10h-10v10zM122 379h30v-30h-30v30zM182 359h10v-20h10v20h10v10h10v-20h-10v-10h10v10h10v-20h-50v30zM242 359h10v-20h-10v20zM262 349h10v-20 h-10v20zM312 339h10v-10h-10v10zM342 339h10v-10h-10v10zM187 227v3q-4 0 -4 6v32q0 3 -2 3q-4 -2 -10 -2v-3q5 0 5 -4v-26q0 -3 -1 -4.5t-4 -1.5v-3h16zM206 227v3q-4 0 -4 6v32q0 3 -2 3q-4 -2 -10 -2v-3q5 0 5 -4v-26q0 -6 -4 -6v-3h15zM226 227v3q-4 0 -4 6v5l11 -14h9 v3q-3 0 -7.5 6t-6.5 8q9 9 13 9v3h-14v-3q3 0 3 -1q0 -2 -8 -9v25q0 3 -2 3q-4 -2 -10 -2v-3q5 0 5 -4v-26q0 -6 -4 -6v-3h15zM122 227l9 21q1 1 2 3.5t3 2.5v3h-12v-3q6 0 3 -6l-5 -13l-4 10q-2 6 -1.5 7.5t3.5 1.5v3h-16v-3q3 0 5 -6l9 -21h4zM164 231q4 4 4 11t-4 11 t-11 4t-11 -4t-4 -11t4 -11t11 -4t11 4zM270 231q4 4 4 11t-4 11t-11 4t-11 -4t-4 -11t4 -11t11 -4t11 4zM296 227v3q-4 0 -5 1t-1 5v5q0 4 1.5 7t3.5 3q3 0 3 -4h4v9q-1 1 -4 1q-5 0 -8 -7v3q0 3 -2 4q-4 -2 -10 -2v-3q5 0 5 -5v-11q0 -3 -1 -4.5t-4 -1.5v-3h18zM321 227v3 q-4 0 -4 6v6q0 11 7 11q5 0 5 -8v-9q0 -6 -4 -6v-3h15v3q-4 0 -4 6v10q0 11 -9 11q-8 0 -10 -7v3q0 3 -2 4q-4 -2 -9 -2v-3q4 0 4 -5v-11q0 -6 -4 -6v-3h15zM146 242q0 11 7 11t7 -11t-7 -11t-7 11zM252 242q0 11 7 11t7 -11t-7 -11t-7 11zM363 240v6h-18v-6h18zM246 163v3 q-4 0 -5 1t-1 5v17h7v3h-7q0 11 4 11q5 0 5 -6h4v8q-2 2 -6 2q-6 0 -10 -3.5t-4 -10.5v-1h-5v-3h5v-17q0 -6 -4 -6v-3h17zM124 165l-1 3l-4 -1q-3 0 -3 6v16h7v3h-7v7q0 3 -2 3l-5 -3v-7h-5v-3h5v-18q0 -8 8 -8q5 0 7 2zM179 148v3q-4 0 -5 1t-1 5v6h5q7 0 11.5 4.5 t4.5 11.5q0 14 -11 14q-7 0 -10 -6v3q0 2 -1 3q-4 -2 -11 -2v-3q5 0 5 -5v-26q0 -3 -1 -4.5t-4 -1.5v-3h18zM224 167l-2 3q-3 -3 -8 -3q-3 0 -5.5 3t-2.5 7h17l1 3q0 5 -3.5 9t-8.5 4q-6 0 -10 -4.5t-4 -10.5q0 -15 15 -15q7 0 11 4zM269 168q0 -5 2 -5l7 2v3q-2 0 -2.5 1.5 t-0.5 3.5v7q0 13 -11 13q-6 0 -11 -3l1 -7h4q0 6 5 6q3 0 4 -2.5t1 -6.5q-17 -3 -17 -11q0 -6 8 -6t10 5zM306 167l-2 3q-3 -3 -7 -3t-6 3t-2 8q0 11 6 11q5 0 6 -7h4v8q-3 3 -9 3t-10 -4.5t-4 -10.5q0 -15 14 -15q6 0 10 4zM336 167l-2 3q-3 -3 -8 -3q-3 0 -5.5 3t-2.5 7 h17l1 3q0 5 -3.5 9t-8.5 4q-6 0 -10 -4.5t-4 -10.5q0 -15 15 -15q7 0 11 4zM144 161l9 22q3 6 5 6v3h-12v-3q6 0 3 -7l-4 -11l-5 12q-3 6 3 6v3h-17v-3q4 0 6 -6l9 -21q0 -1 -2 -4.5t-6 -3.5l-5 1v-5q2 -2 5 -2q6 0 11 13zM211 189q6 0 6 -8h-11q0 8 5 8zM323 189q6 0 6 -8 h-11q0 8 5 8zM173 167v9q0 12 7 12q6 0 6 -10q0 -11 -8 -11h-5zM259 171q0 4 9 6q0 -10 -6 -10q-3 0 -3 4zM148 103l-2 3q-3 -3 -7 -3t-6 3t-2 8q0 11 6 11q5 0 6 -7h4v8q-3 3 -9 3t-10 -4.5t-4 -10.5q0 -15 14 -15q6 0 10 4zM178 103q4 4 4 11t-4 11t-11 4t-11 -4t-4 -11 t4 -11t11 -4t11 4zM222 125q5 0 5 -8v-9q0 -6 -4 -6v-3h15v3q-4 0 -4 6v10q0 11 -9 11q-8 0 -10 -6q-2 6 -9 6q-8 0 -10 -7v3q0 3 -2 4q-4 -2 -9 -2v-3q4 0 4 -5v-11q0 -6 -4 -6v-3h15v3q-4 0 -4 6v6q0 11 7 11q5 0 5 -8v-9q0 -6 -4 -6v-3h15v3q-4 0 -4 6v6q0 11 7 11z M160 114q0 11 7 11t7 -11t-7 -11t-7 11zM117 104q0 5 -5 5t-5 -5t5 -5t5 5z" glyph-name=".notdef" horiz-adv-x="454"/><glyph glyph-name=".null" horiz-adv-x="0"/><glyph glyph-name="nonmarkingreturn" horiz-adv-x="200"/><glyph glyph-name="NULL" horiz-adv-x="0"/><glyph glyph-name="space" horiz-adv-x="200"/><glyph d="M259 258q-40 -13 -103 -13q-21 229 -55 430q38 3 85.5 15t83.5 27q16 -4 23.5 -15.5t7.5 -32.5q0 -14 -3 -34q-19 -141 -39 -377zM282 22.5q-28 -30.5 -76 -30.5t-75.5 27t-27.5 74q0 46 30.5 72.5t78.5 26.5q43 0 70.5 -28t27.5 -66q0 -45 -28 -75.5z" glyph-name="exclam" horiz-adv-x="411" unicode="!"/><glyph d="M191 650q-11 -65 -26 -198q-2 -26 -4 -40q-19 0 -41.5 3.5t-30.5 9.5q-7 162 -29 263q32 4 55 10.5t49 18.5q13 -3 21 -16t8 -26q0 -15 -2 -25zM350 649q-9 -51 -17 -154l-7 -84q-27 0 -43.5 2.5t-31.5 8.5l-3 42q-6 88 -9.5 132.5t-12.5 91.5q56 8 95 29q15 -3 23 -15.5 t8 -30.5q0 -8 -2 -22z" glyph-name="quotedbl" horiz-adv-x="412" unicode="&quot;"/><glyph d="M484 432l-29 -159h115q0 -50 -15 -89h-94h-22l-35 -193q-26 0 -49.5 6.5t-34.5 16.5l31 170h-140l-35 -193q-22 0 -46.5 7.5t-36.5 19.5l30 165l-103 -3q0 30 3 52t12 41h105l29 158q-46 0 -104 -2q0 28 3.5 48.5t12.5 44.5h104l36 195q26 0 50.5 -7.5t32.5 -17.5 l-31 -170h140l36 195q24 0 50 -7.5t33 -15.5l-31 -172h103q0 -54 -14 -90h-85h-21zM397 432h-141l-29 -159h141z" glyph-name="numbersign" horiz-adv-x="624" unicode="#"/><glyph d="M486 56q-58 -54 -167 -63l2 -76q-23 0 -51 4.5t-40 11.5v60q-108 7 -202 55q14 63 14 169q46 13 123 13q5 -65 15 -98t30 -46t59 -13q48 0 72 19.5t24 47.5t-26.5 46.5t-84.5 45.5q-64 29 -106.5 56t-73.5 74t-31 116q0 94 55 144.5t144 60.5v70q55 0 91 -16l-1 -54 q49 -5 93.5 -16t67.5 -26q0 -108 7 -151q-19 -12 -51.5 -17.5t-63.5 -5.5q-12 77 -39.5 107.5t-72.5 30.5q-33 0 -54.5 -14.5t-21.5 -43.5q0 -33 31.5 -55.5t96.5 -50.5q68 -30 112 -57t75.5 -73t31.5 -113q0 -88 -58 -142z" glyph-name="dollar" horiz-adv-x="564" unicode="$"/><glyph d="M155.5 2.5q-19.5 10.5 -30.5 27.5l543 656q23 0 46 -7.5t36 -21.5l-549 -664q-26 -1 -45.5 9.5zM157.5 380.5q-36.5 21.5 -55 57t-18.5 74.5q0 44 19.5 82t58.5 60.5t94 22.5q48 0 82.5 -22t52.5 -57t18 -72q0 -46 -19 -84t-56 -60.5t-88 -22.5q-52 0 -88.5 21.5z M279 455.5q13 21.5 13 58.5q0 40 -13.5 65t-33.5 25q-18 0 -30.5 -23t-12.5 -57q0 -40 13.5 -65t35.5 -25q15 0 28 21.5zM527.5 13.5q-36.5 21.5 -55 57t-18.5 74.5q0 44 19.5 82t58.5 60.5t94 22.5q48 0 82.5 -22t52.5 -57t18 -72q0 -46 -19 -84t-56 -60.5t-88 -22.5 q-52 0 -88.5 21.5zM649 88.5q13 21.5 13 58.5q0 40 -13.5 65t-33.5 25q-18 0 -30.5 -23t-12.5 -57q0 -40 13.5 -65t35.5 -25q15 0 28 21.5z" glyph-name="percent" horiz-adv-x="863" unicode="%"/><glyph d="M691.5 115.5q22.5 -10.5 58.5 -12.5q0 -22 -4 -48.5t-10 -44.5q-40 0 -95 -5.5t-101 -13.5l-48 62q-38 -33 -83.5 -48t-109.5 -15q-123 0 -184.5 52.5t-61.5 150.5q0 78 40.5 130t120.5 87q-28 45 -39 79.5t-11 68.5q0 77 55.5 118t190.5 41q57 0 104 -8.5t94 -27.5 q-10 -37 -10 -96q0 -18 2 -58q-51 -12 -114 -12q-5 62 -24.5 93.5t-57.5 31.5q-25 0 -38 -14t-13 -47q0 -36 20 -76t74 -112q33 -44 105 -134q18 38 25 66q3 15 3 25q0 20 -13 30.5t-43 16.5q-10 30 -10 66q32 -3 122 -3q71 0 104 3q0 -39 -8 -66q-25 -7 -38.5 -16t-20 -21 t-16.5 -38q-29 -76 -53 -124q4 -5 33 -37q32 -33 54.5 -43.5zM404.5 81q20.5 10 40.5 31l-50 61q-69 83 -108 134l-18 24q-25 -32 -25 -98q0 -83 32.5 -122.5t82.5 -39.5q25 0 45.5 10z" glyph-name="ampersand" horiz-adv-x="804" unicode="&amp;"/><glyph d="M191 651q-8 -42 -13 -95.5t-12 -144.5q-44 0 -77 15q-5 138 -29 261q31 3 57.5 11.5t43.5 18.5q15 -4 23.5 -16.5t8.5 -31.5q0 -4 -2 -18z" glyph-name="quotesingle" horiz-adv-x="253" unicode="'"/><glyph d="M212 519.5q-27 -100.5 -27 -253.5q0 -163 33 -295.5t88 -226.5q-25 -15 -66 -15q-87 92 -146 227t-59 284q0 154 51.5 274t148.5 227q37 0 65 -22q-61 -99 -88 -199.5z" glyph-name="parenleft" horiz-adv-x="353" unicode="("/><glyph d="M266 519.5q52 -115.5 52 -249.5q0 -169 -58.5 -308.5t-146.5 -232.5q-40 0 -66 15q66 111 93.5 222t27.5 278q0 157 -27.5 267.5t-87.5 207.5q28 22 65 22q96 -106 148 -221.5z" glyph-name="parenright" horiz-adv-x="353" unicode=")"/><glyph d="M359 648q29 11 70 30q18 -46 18 -98q0 -24 -3 -50q-48 14 -80 21t-74 14q54 -62 105 -115q-30 -25 -66 -41t-73 -19q-5 93 -16 154q-45 -65 -83 -129q-33 23 -54.5 48.5t-33.5 58.5q77 32 135 64q-33 12 -63 19.5t-81 17.5q10 34 28 65t42 53q28 -34 49 -57.5t53 -53.5 q0 71 -9 152q37 0 73.5 -7.5t64.5 -22.5q-43 -64 -75 -129q44 14 73 25z" glyph-name="asterisk" horiz-adv-x="507" unicode="*"/><glyph d="M510 250q-2 -19 -11 -38q-75 1 -178 1v-199q-20 -13 -92 -13q2 65 2 212l-157 -1q-12 -1 -37 -1q0 31 2 49t11 40h181q0 109 -1 191q20 8 38.5 10.5t52.5 2.5v-204h191q0 -31 -2 -50z" glyph-name="plus" unicode="+"/><glyph d="M226 -73q-30 -65 -82 -114q-24 1 -45.5 9t-34.5 18q67 76 67 125q0 19 -18.5 31t-52.5 17q0 36 3 59.5t13 55.5q83 3 126 32q30 -9 42 -30.5t12 -74.5q0 -63 -30 -128z" glyph-name="comma" horiz-adv-x="316" unicode=","/><glyph d="M346 209q-184 0 -286 -8q0 24 4.5 53t12.5 52h282q0 -57 -13 -97z" glyph-name="hyphen" horiz-adv-x="419" unicode="-"/><glyph d="M87.5 19q-27.5 27 -27.5 74q0 46 30.5 72.5t78.5 26.5q43 0 70.5 -28t27.5 -66q0 -45 -28 -75.5t-76 -30.5t-75.5 27z" glyph-name="period" horiz-adv-x="327" unicode="."/><glyph d="M29 8l265 709q44 0 83 -22l-261 -704q-59 0 -87 17z" glyph-name="slash" horiz-adv-x="401" unicode="/"/><glyph d="M562 113.5q-37 -59.5 -100.5 -91t-143.5 -31.5q-83 0 -148 31t-102.5 91t-37.5 142q0 81 39 138t104.5 85t144.5 28q129 0 205 -66t76 -185q0 -82 -37 -141.5zM231 187q14 -50 40 -82.5t60 -32.5q37 0 57.5 44t20.5 108q0 47 -13.5 95t-38 80t-57.5 32q-36 0 -59.5 -44 t-23.5 -102q0 -48 14 -98z" glyph-name="zero" horiz-adv-x="629" unicode="0"/><glyph d="M307 115q5 -23 19 -31t45 -9q8 -27 8 -78q-58 3 -172 3q-118 0 -172 -3q0 48 8 78q32 5 45.5 13.5t18.5 29.5t5 69v131q0 46 -5.5 68t-19.5 29.5t-44 9.5q-8 32 -8 78q48 -3 172 -3t172 3q0 -46 -8 -78q-30 -2 -44 -9.5t-19.5 -29t-5.5 -68.5v-129q0 -51 5 -74z" glyph-name="one" horiz-adv-x="414" unicode="1"/><glyph d="M479 41q-7 -21 -23 -32t-39 -11q-80 2 -187 2q-99 0 -175 -2q-25 38 -25 99q24 24 59.5 54.5t78.5 65.5q44 37 66 61.5t30.5 44t8.5 43.5q0 28 -15.5 45t-45.5 17q-31 0 -45.5 -26t-21.5 -95q-31 0 -52.5 3.5t-45.5 11.5q3 24 3 61q0 45 -6 75q47 25 99.5 36.5 t130.5 11.5q97 0 144 -31t47 -87q0 -33 -14 -59.5t-45 -52.5t-89 -62q-44 -28 -83 -54h57q39 0 55.5 3.5t23.5 13.5t11 34q63 0 87 -9q0 -110 11 -161z" glyph-name="two" horiz-adv-x="504" unicode="2"/><glyph d="M464 422q-86 -110 -162 -214q89 -4 132.5 -45t43.5 -118q0 -103 -73 -159.5t-208 -56.5q-117 0 -172 48q5 41 35 70q24 -18 47.5 -27t55.5 -9q59 0 91 29.5t32 80.5q0 39 -19 60.5t-58 21.5q-15 0 -31 -4q-13 13 -19.5 33.5t-4.5 40.5q87 104 132 167h-73q-30 0 -46 -5.5 t-27 -21.5t-23 -50q-60 0 -86 20q8 50 10 95.5t2 125.5q90 -4 206 -4q117 0 193 4q25 -39 22 -82z" glyph-name="three" horiz-adv-x="508" unicode="3"/><glyph d="M570.5 68.5q-4.5 -24.5 -4.5 -68.5h-86v-142q-48 0 -86 -7t-78 -22q-14 11 -20 25t-6 39v107h-29q-112 0 -201 -7q-35 68 -35 135l314 378q12 1 36 1q57 0 105 -7v-339h51q22 0 35 -6.5t24 -24.5q-15 -37 -19.5 -61.5zM310 141v209l-162 -210z" glyph-name="four" horiz-adv-x="605" unicode="4"/><glyph d="M308 500q23 0 35.5 14.5t12.5 40.5q24 8 86 8q-7 -66 -7 -190q-11 -30 -51 -30q-186 0 -239 -4l-11 -53q122 -18 192.5 -49.5t100 -78t29.5 -113.5q0 -72 -41 -121t-107 -72t-142 -23q-96 0 -136 23q0 45 20 70q24 -12 83 -12t95 28t36 75q0 45 -41 74.5t-152 50.5 q-26 29 -32 68l62 299q85 -5 207 -5z" glyph-name="five" horiz-adv-x="481" unicode="5"/><glyph d="M503.5 345.5q54.5 -49.5 54.5 -133.5q0 -81 -39 -130.5t-98 -70t-124 -20.5q-127 0 -194.5 58.5t-67.5 190.5q0 138 67 226t162 128t187 44q9 -10 13.5 -30t2.5 -43q-97 -20 -151 -67.5t-75 -123.5q54 21 111 21q97 0 151.5 -49.5zM350 104q17 29 17 81q0 58 -26 93.5 t-65 35.5q-23 0 -48 -9q-3 -31 -3 -64q0 -79 21 -122.5t56 -43.5q31 0 48 29z" glyph-name="six" horiz-adv-x="588" unicode="6"/><glyph d="M107 -97q0 72 26 141t65 130.5t113 165.5h-78q-37 0 -57.5 -6t-33 -21.5t-21.5 -46.5q-61 -3 -101 17q8 35 12.5 95.5t4.5 123.5q46 -2 188 -2q116 0 204 2q11 -13 17 -36t6 -45q-41 -59 -75.5 -118t-43.5 -90q-14 -43 -20.5 -74.5t-11 -89.5t-4.5 -156q-40 -9 -82 -27.5 t-74 -41.5q-34 6 -34 79z" glyph-name="seven" horiz-adv-x="472" unicode="7"/><glyph d="M505 283.5q29 -43.5 29 -107.5q0 -185 -242 -185q-120 0 -183.5 43.5t-63.5 125.5q0 49 24.5 90.5t77.5 70.5q-87 59 -87 145q0 78 62 124.5t177 46.5q100 0 160 -36t60 -103q0 -45 -26.5 -80.5t-74.5 -54.5q58 -36 87 -79.5zM251.5 556.5q-13.5 -15.5 -13.5 -41.5 q0 -35 21 -55.5t71 -46.5q19 33 19 75q0 39 -16.5 61.5t-44.5 22.5q-23 0 -36.5 -15.5zM340.5 83q13.5 18 13.5 48q0 46 -30.5 79t-83.5 61q-15 -27 -15 -79q0 -59 20.5 -93t55.5 -34q26 0 39.5 18z" glyph-name="eight" horiz-adv-x="579" unicode="8"/><glyph d="M485.5 447.5q67.5 -58.5 67.5 -191.5q0 -139 -73 -233.5t-177.5 -141t-198.5 -50.5q-9 10 -13.5 30t-2.5 43q104 22 167 75t89 132q-51 -19 -108 -19q-64 0 -110.5 24.5t-71 68t-24.5 98.5q0 121 78 172t183 51q127 0 194.5 -58.5zM360 182q3 27 3 56q0 91 -21 137.5 t-56 46.5q-31 0 -48 -29t-17 -81q0 -59 26.5 -99t64.5 -40q23 0 48 9z" glyph-name="nine" horiz-adv-x="583" unicode="9"/><glyph d="M87.5 294q-27.5 27 -27.5 74q0 46 30.5 72.5t78.5 26.5q43 0 70.5 -28t27.5 -66q0 -45 -28 -75.5t-76 -30.5t-75.5 27zM87.5 19q-27.5 27 -27.5 74q0 46 30.5 72.5t78.5 26.5q43 0 70.5 -28t27.5 -66q0 -45 -28 -75.5t-76 -30.5t-75.5 27z" glyph-name="colon" horiz-adv-x="327" unicode=":"/><glyph d="M87.5 294q-27.5 27 -27.5 74q0 46 30.5 72.5t78.5 26.5q43 0 70.5 -28t27.5 -66q0 -45 -28 -75.5t-76 -30.5t-75.5 27zM233 -73q-30 -65 -82 -114q-24 1 -45.5 9t-34.5 18q67 76 67 125q0 19 -18.5 31t-52.5 17q0 36 3 59.5t13 55.5q83 3 126 32q30 -9 42 -30.5t12 -74.5 q0 -63 -30 -128z" glyph-name="semicolon" horiz-adv-x="327" unicode=";"/><glyph d="M54 213q-2 16 -2 23q0 37 19 71l338 196q49 -10 87 -55l-335 -188l303 -158q3 -16 3 -36q0 -52 -17 -73q-214 129 -396 220z" glyph-name="less" unicode="&lt;"/><glyph d="M60 392h444q0 -29 -2.5 -48.5t-11.5 -39.5q-81 1 -209 1q-143 0 -235 -2q0 53 14 89zM59 206h446q0 -50 -14 -88q-81 1 -210 1q-144 0 -236 -2q0 57 14 89z" glyph-name="equal" unicode="="/><glyph d="M488 265q0 -30 -18 -59q-83 -44 -161 -90.5t-183 -114.5q-38 34 -37 90l293 169l-306 186q9 21 28.5 39.5t43.5 26.5l336 -218q4 -20 4 -29z" glyph-name="greater" unicode="&gt;"/><glyph d="M455.5 685q46.5 -32 46.5 -90q0 -50 -22 -81t-64 -66q-39 -33 -58 -58.5t-19 -64.5q0 -38 15 -83q-16 -9 -41.5 -14t-48.5 -5q-25 15 -42.5 52t-17.5 76q0 44 15 70.5t44 56.5q26 28 37.5 47t11.5 49q0 34 -12.5 50t-32.5 16q-21 0 -35 -28.5t-22 -105.5q-33 0 -56.5 5.5 t-45.5 17.5q3 38 3 78q0 35 -3 65q96 45 207 45q94 0 140.5 -32zM227.5 19q-27.5 27 -27.5 74q0 46 30.5 72.5t78.5 26.5q43 0 70.5 -28t27.5 -66q0 -45 -28 -75.5t-76 -30.5t-75.5 27z" glyph-name="question" horiz-adv-x="537" unicode="?"/><glyph d="M861 -68q-47 -63 -139.5 -98.5t-202.5 -35.5q-148 0 -246.5 54.5t-145.5 151t-47 224.5q0 121 54.5 219.5t159 155.5t246.5 57q126 0 211.5 -42t127.5 -114t42 -165q0 -105 -32 -184t-91.5 -121.5t-140.5 -42.5q-41 0 -68 26.5t-27 71.5v4q-58 -102 -164 -102 q-148 0 -148 214q0 75 29.5 135t77.5 93.5t103 33.5q60 0 117 -12q102 0 141 12q18 -10 23.5 -27.5t5.5 -68.5v-143q0 -54 3 -80.5t9 -35t17 -8.5q13 0 26.5 21t22.5 66.5t9 116.5q0 123 -75 200.5t-235 77.5q-113 0 -191.5 -46.5t-118 -126t-39.5 -179.5q0 -99 37.5 -180 t117.5 -129.5t202 -48.5q85 0 157 26t123 78q29 -11 49 -48zM564 286l2 83q-28 21 -60 21q-26 0 -40 -10.5t-20 -42t-6 -94.5q0 -144 44 -144q59 0 80 187z" glyph-name="at" horiz-adv-x="1001" unicode="@"/><glyph d="M707 -3q-40 3 -157 3q-138 0 -176 -3q0 46 8 78q22 5 32 14t10 23t-11 39l-7 15q-131 0 -227 -10l-2 -4q-5 -13 -5 -26q0 -19 10.5 -33t32.5 -18q8 -34 8 -78q-34 3 -117 3q-66 0 -96 -3q0 47 10 78q24 5 39.5 24.5t40.5 76.5l212 500q18 4 36.5 5t39.5 1l222 -487 q24 -52 38 -76.5t24.5 -33t26.5 -10.5q8 -27 8 -78zM378 231l-38 85q-33 73 -51 138q-18 -65 -48 -138l-33 -85h170z" glyph-name="A" horiz-adv-x="717" unicode="A"/><glyph d="M637 319q46 -45 46 -125q0 -194 -316 -194q-182 0 -337 -3q0 48 8 78q28 2 41.5 11t19 31.5t5.5 69.5v304q0 46 -5 67.5t-18.5 30t-43.5 12.5q-7 28 -7 78q37 -3 108 -3q67 0 110 1l119 1q105 0 166.5 -17.5t87.5 -51t26 -86.5q0 -59 -41.5 -100.5t-117.5 -52.5 q103 -6 149 -51zM420.5 572.5q-26.5 28.5 -69.5 28.5q-26 0 -47 -9v-208h36q50 0 78.5 29t28.5 83q0 48 -26.5 76.5zM437 103q26 29 26 80q0 69 -32.5 97.5t-101.5 28.5h-25v-131q0 -61 18 -82.5t51 -21.5q38 0 64 29z" glyph-name="B" horiz-adv-x="713" unicode="B"/><glyph d="M199 35q-78 44 -121 123.5t-43 182.5q0 109 47.5 187t126 117.5t170.5 39.5q54 0 111 -13.5t109 -38.5q-11 -63 -11 -155q-12 -7 -42 -10.5t-57 -3.5q-1 144 -106 144q-75 0 -109 -68t-34 -173q0 -128 49 -205t149 -77q73 0 148 42q21 -18 28 -55q-40 -35 -100 -58 t-135 -23q-102 0 -180 44z" glyph-name="C" horiz-adv-x="634" unicode="C"/><glyph d="M532 652q78 -26 125 -97t47 -200q0 -147 -64.5 -226t-146 -104t-154.5 -25q-71 0 -161 -1t-148 -2q0 48 8 78q28 2 41.5 11t19 31.5t5.5 69.5v304q0 46 -5 67.5t-18.5 30t-43.5 12.5q-7 28 -7 78q71 -3 209 -3q26 0 41 1l64 1q110 0 188 -26zM462.5 128q39.5 53 39.5 209 q0 266 -158 266q-22 0 -40 -8v-403q0 -47 7 -72t23.5 -35t47.5 -10q41 0 80.5 53z" glyph-name="D" horiz-adv-x="739" unicode="D"/><glyph d="M590 198.5q28 -9.5 41 -21.5q-23 -69 -31 -179q-118 2 -261 2q-71 0 -161 -1t-148 -2q0 48 8 78q28 2 41.5 11t19 31.5t5.5 69.5v304q0 46 -5 67.5t-18.5 30t-43.5 12.5q-7 28 -7 78q93 -3 271 -3q186 0 270 3q1 -43 6.5 -94t14.5 -84q-47 -18 -101 -18q-11 60 -40 89 t-98 29h-49v-227h1q47 0 63.5 15.5t17.5 55.5q31 12 88 12q-4 -64 -4 -117q0 -61 4 -119q-57 0 -86 10q-4 41 -21 54.5t-62 13.5h-1v-107q0 -47 7 -72t23.5 -35t47.5 -10h17q51 0 80.5 31.5t49.5 104.5q33 -3 61 -12.5z" glyph-name="E" horiz-adv-x="646" unicode="E"/><glyph d="M504 422q-4 -64 -4 -117q0 -61 4 -119q-57 0 -86 10q-4 41 -21 54.5t-62 13.5h-31v-67q0 -65 23 -91.5t86 -30.5q9 -25 9 -78q-57 3 -190 3t-202 -3q0 51 7 78q29 2 42.5 11t19 31.5t5.5 69.5v304q0 47 -4.5 68t-17.5 29.5t-43 12.5q-9 36 -9 78q93 -3 271 -3 q196 0 280 3q1 -43 6.5 -94t14.5 -84q-47 -18 -101 -18q-11 60 -40 89t-98 29h-59v-262h31q47 0 63.5 15.5t17.5 55.5q31 12 88 12z" glyph-name="F" horiz-adv-x="617" unicode="F"/><glyph d="M199.5 32.5q-79.5 41.5 -122 120.5t-42.5 190q0 108 43 184.5t123.5 117t191.5 40.5q62 0 124 -15t111 -37q-11 -63 -11 -155q-19 -9 -42.5 -11.5t-56.5 -2.5q-4 76 -36.5 109.5t-93.5 33.5q-76 0 -112.5 -69t-36.5 -171q0 -86 20 -153.5t57 -105t86 -37.5q24 0 35 4 q16 6 24 21t8 51v34q0 30 -5.5 45.5t-20.5 21.5t-45 8q-7 29 -7 77q40 -3 139 -3q102 0 144 2q0 -47 -6 -76q-25 -2 -31.5 -13t-6.5 -46v-24q0 -38 3.5 -58t13.5 -46q-49 -35 -116.5 -56.5t-141.5 -21.5q-110 0 -189.5 41.5z" glyph-name="G" horiz-adv-x="699" unicode="G"/><glyph d="M703.5 117.5q5.5 -22.5 19 -31.5t41.5 -11q8 -29 8 -78q-45 3 -159 3q-118 0 -189 -3q0 17 3 40t7 38q28 2 41 11t18 31t5 70v123q-133 0 -194 -9v-114q0 -47 5.5 -69.5t19 -31.5t41.5 -11q8 -29 8 -78q-45 3 -159 3q-118 0 -189 -3q0 17 3 40t7 38q28 2 41 11t18 31 t5 70v304q0 47 -4.5 68t-17.5 29.5t-43 12.5q-9 36 -9 78q50 -3 179 -3q109 0 169 3q0 -26 -1.5 -43.5t-7.5 -34.5q-29 -3 -42 -11.5t-18 -30t-5 -68.5v-102h194v102q0 47 -4.5 68t-17.5 29.5t-43 12.5q-9 36 -9 78q50 -3 179 -3q109 0 169 3q0 -26 -1.5 -43.5t-7.5 -34.5 q-29 -3 -42 -11.5t-18 -30t-5 -68.5v-304q0 -47 5.5 -69.5z" glyph-name="H" horiz-adv-x="802" unicode="H"/><glyph d="M99.5 559q-4.5 21 -17.5 29.5t-43 12.5q-9 36 -9 78q50 -3 179 -3q109 0 169 3q0 -26 -1.5 -43.5t-7.5 -34.5q-29 -3 -42 -11.5t-18 -30t-5 -68.5v-304q0 -47 5.5 -69.5t19 -31.5t41.5 -11q8 -29 8 -78q-45 3 -159 3q-118 0 -189 -3q0 17 3 40t7 38q28 2 41 11t18 31 t5 70v304q0 47 -4.5 68z" glyph-name="I" horiz-adv-x="408" unicode="I"/><glyph d="M268.5 -34.5q-20.5 -68.5 -78.5 -121.5t-168 -93q-32 24 -37 74q39 26 61 54t32.5 71t10.5 112v426q0 49 -5 71t-18 30.5t-42 11.5q-9 30 -9 78q42 -3 174 -3q129 0 174 3q0 -50 -9 -78q-30 -2 -43.5 -13t-17.5 -32.5t-4 -67.5v-353q0 -101 -20.5 -169.5z" glyph-name="J" horiz-adv-x="393" unicode="J"/><glyph d="M688 102q30 -22 69 -27q0 -51 -12 -75q-57 0 -138.5 -2t-114.5 -7q-45 93 -89 167.5t-99 140.5v-112q0 -47 5.5 -69.5t19 -31.5t41.5 -11q8 -29 8 -78q-45 3 -159 3q-118 0 -189 -3q0 17 3 40t7 38q28 2 41 11t18 31t5 70v304q0 47 -4.5 68t-17.5 29.5t-43 12.5 q-9 36 -9 78q50 -3 179 -3q109 0 169 3q0 -26 -1.5 -43.5t-7.5 -34.5q-29 -3 -42 -11.5t-18 -30t-5 -68.5v-116l135 134q47 47 47 72q0 18 -26 20q-9 28 -9 78q38 -3 113 -3q117 0 153 3q0 -19 -3 -42t-8 -36q-37 -2 -71.5 -20.5t-69.5 -54.5l-107 -111q89 -110 168 -239 q32 -52 62 -74z" glyph-name="K" horiz-adv-x="767" unicode="K"/><glyph d="M479.5 106.5q29.5 31.5 49.5 104.5q33 -3 61 -12.5t41 -21.5q-23 -69 -31 -179q-118 2 -261 2q-71 0 -161 -1t-148 -2q0 48 8 78q28 2 41.5 11t19 31.5t5.5 69.5v304q0 46 -5 67t-18.5 30t-43.5 13q-7 28 -7 78q95 -3 174 -3q114 0 174 3q0 -28 -1.5 -46t-7.5 -32 q-29 -3 -42 -11.5t-18 -30t-5 -68.5v-299q0 -47 7 -72t23.5 -35t47.5 -10h17q51 0 80.5 31.5z" glyph-name="L" horiz-adv-x="641" unicode="L"/><glyph d="M988 -3q-39 3 -195 3q-82 0 -154 -3q0 35 9 78q36 4 48.5 16t12.5 47q0 27 -4 62l-29 275l-187 -476q-23 -8 -75 -8l-211 481l-24 -226q-5 -50 -5 -76q0 -54 15 -73.5t49 -21.5q8 -31 8 -78q-30 3 -110 3q-66 0 -126 -3q0 47 8 78q27 2 43 17t26.5 50.5t16.5 99.5l22 244 q3 26 3 45q0 42 -14 56t-51 14q-8 27 -8 78q45 -3 140 -3q106 0 136 3l181 -432l156 432q54 -3 144 -3t135 3q0 -51 -8 -78q-37 0 -52 -16t-15 -56q0 -18 3 -44l28 -274q6 -61 13.5 -87.5t21 -35.5t42.5 -12q7 -32 7 -79z" glyph-name="M" horiz-adv-x="998" unicode="M"/><glyph d="M681 679q0 -20 -1 -40.5t-6 -37.5q-27 -4 -40 -15t-18 -39.5t-5 -88.5v-458q-19 -6 -39 -7.5t-52 -1.5l-341 462v-235q0 -59 6.5 -87.5t22.5 -40t50 -15.5q7 -26 7 -78q-42 3 -121 3q-93 0 -129 -3q0 53 8 78q33 4 49.5 16t24 41t7.5 86v336l-14 19q-8 14 -21.5 19.5 t-45.5 8.5q-8 29 -8 78q39 -3 133 -3q86 0 113 3l275 -379v158q0 59 -6.5 87t-23.5 40t-55 16q-7 27 -7 78q42 -3 131 -3q70 0 106 3z" glyph-name="N" horiz-adv-x="711" unicode="N"/><glyph d="M196 34.5q-78 43.5 -119.5 123t-41.5 183.5q0 105 44 182.5t122 119.5t179 42q104 0 182 -41t121 -116t43 -174q0 -107 -42.5 -189.5t-121 -128t-182.5 -45.5q-106 0 -184 43.5zM487 140q34 71 34 193q0 77 -18.5 140t-53.5 100t-82 37q-61 0 -94 -63.5t-33 -181.5 q0 -129 38.5 -212.5t113.5 -83.5q61 0 95 71z" glyph-name="O" horiz-adv-x="761" unicode="O"/><glyph d="M428 330.5q25 35.5 25 108.5q0 74 -27.5 117t-82.5 43q-21 0 -39 -7v-395q0 -65 23 -91.5t86 -30.5q9 -25 9 -78q-57 3 -193 3q-130 0 -199 -3q0 51 7 78q29 2 42.5 11t19 31.5t5.5 69.5v304q0 47 -4.5 68t-17.5 29.5t-43 12.5q-9 36 -9 78q95 -3 163 -3l129 1q30 1 68 1 q148 0 208 -54.5t60 -154.5q0 -116 -67 -185t-186 -69q-42 0 -68 10q-2 16 -2 24q0 28 11 48q8 -2 22 -2q35 0 60 35.5z" glyph-name="P" horiz-adv-x="693" unicode="P"/><glyph d="M784 -130.5q-3 -23.5 -8 -39.5q-48 -4 -96.5 -17t-88.5 -32q-32 14 -50.5 37.5t-44.5 67.5q-27 48 -50.5 73.5t-64.5 31.5h-1q-106 0 -184 43.5t-119.5 123t-41.5 183.5q0 105 44 182.5t122 119.5t179 42q104 0 182 -41t121 -116t43 -174q0 -120 -53 -208.5t-148 -127.5 q44 -16 96 -52q42 -29 76 -42t89 -10q1 -21 -2 -44.5zM278.5 152.5q38.5 -83.5 113.5 -83.5q61 0 95 71t34 193q0 77 -18.5 140t-53.5 100t-82 37q-61 0 -94 -63.5t-33 -181.5q0 -129 38.5 -212.5z" glyph-name="Q" horiz-adv-x="761" unicode="Q"/><glyph d="M664.5 92.5q14.5 -12.5 43.5 -14.5q0 -40 -11 -78q-164 0 -224 -9q-10 23 -47 118l-13 35q-19 51 -34 75.5t-38 39.5q-24 0 -37 1v-63q0 -54 4.5 -79.5t14.5 -33.5t30 -9q7 -20 7 -78q-57 3 -175 3q-86 0 -155 -3q0 48 8 78q28 2 41.5 11t19 31.5t5.5 69.5v306 q0 46 -5 67.5t-18.5 30t-43.5 12.5q-3 13 -5 37.5t-2 39.5q80 -4 172 -4l64 2q123 3 143 3q83 0 139 -25t83 -67.5t27 -95.5q0 -84 -38 -137t-102 -70q24 -9 39.5 -23t31 -40t41.5 -79q20 -39 34.5 -51.5zM415 371.5q34 34.5 34 97.5q0 64 -28 100t-75 36q-22 0 -42 -7v-257 q20 -4 30 -4q47 0 81 34.5z" glyph-name="R" horiz-adv-x="718" unicode="R"/><glyph d="M28 48q14 63 14 169q46 13 123 13q5 -65 15 -98t30 -46t59 -13q48 0 72 19.5t24 47.5t-26.5 46.5t-84.5 45.5q-64 29 -106.5 56t-73.5 74t-31 116q0 106 68.5 156.5t175.5 50.5q57 0 117 -12.5t89 -31.5q0 -108 7 -151q-19 -12 -51.5 -17.5t-63.5 -5.5 q-12 77 -39.5 107.5t-72.5 30.5q-33 0 -54.5 -14.5t-21.5 -43.5q0 -33 31.5 -55.5t96.5 -50.5q68 -30 112 -57t75.5 -73t31.5 -113q0 -98 -70 -152.5t-200 -54.5q-133 0 -246 57z" glyph-name="S" horiz-adv-x="564" unicode="S"/><glyph d="M457 601v-414q0 -48 7.5 -70t27.5 -31t63 -11q10 -26 10 -78q-56 3 -195 3q-165 0 -231 -3q0 17 3.5 40t8.5 38q44 2 66 11t31 31.5t9 69.5v414h-2q-53 0 -81.5 -30t-45.5 -98q-71 0 -103 15q11 41 18 95.5t7 95.5q84 -3 313 -3q182 0 307 3q0 -42 6.5 -93.5t17.5 -96.5 q-39 -16 -104 -16q-14 69 -38.5 98.5t-74.5 29.5h-20z" glyph-name="T" horiz-adv-x="719" unicode="T"/><glyph d="M583 131.5q-13 -54.5 -47 -87.5q-57 -53 -177 -53q-100 0 -158 25.5t-82.5 79t-24.5 143.5v247q0 47 -5.5 69.5t-18.5 31.5t-42 14q-8 34 -8 78q41 -3 136 -3q160 0 208 3q0 -50 -6 -78q-29 -5 -41.5 -14t-17.5 -31t-5 -70v-230q0 -93 28 -138.5t84 -45.5q25 0 48 10.5 t38 32.5q14 21 21 60t7 112v180q0 50 -6 77t-20 39.5t-40 17.5q-6 41 -6 78q41 -3 112 -3q70 0 107 3q0 -49 -8 -78q-26 -4 -39.5 -15.5t-18.5 -36.5t-5 -73v-199q0 -91 -13 -145.5z" glyph-name="U" horiz-adv-x="697" unicode="U"/><glyph d="M697 679q0 -36 -10 -78q-26 -5 -43 -26t-39 -75q-102 -261 -206 -500q-15 -6 -37.5 -7.5t-54.5 -1.5q-108 285 -202 491q-23 50 -36 73t-24.5 33t-26.5 13q-10 27 -8 78q51 -3 163 -3q106 0 170 3q-1 -51 -8 -78q-23 -4 -33 -11.5t-10 -22.5q0 -19 20 -65 q38 -94 58.5 -149.5t40.5 -127.5q67 157 117 300q6 17 6 31q0 39 -42 45q-9 27 -8 78q35 -3 114 -3q69 0 99 3z" glyph-name="V" horiz-adv-x="707" unicode="V"/><glyph d="M975 679q0 -27 -1.5 -44t-7.5 -34q-19 -7 -31.5 -20.5t-24 -41.5t-27.5 -81l-135 -458q-15 -4 -47 -6.5t-61 -2.5q-69 190 -154 400l-139 -393q-30 -7 -104 -7q-80 269 -147 476q-22 63 -32 88t-19.5 33t-27.5 10q-5 16 -6 37.5t-1 43.5q48 -3 168 -3q125 0 172 3 q0 -46 -8 -78q-30 -5 -43 -14t-13 -30q0 -23 18 -73q37 -116 61 -202l140 394q29 8 84 8q83 -204 161 -416l57 190q14 45 14 76t-15.5 46.5t-49.5 20.5q-10 26 -10 78q42 -3 120 -3q68 0 109 3z" glyph-name="W" horiz-adv-x="985" unicode="W"/><glyph d="M710 -3q-43 3 -187 3q-117 0 -177 -2q0 46 7 77q17 2 24.5 6t7.5 14q0 12 -13.5 39.5t-45.5 82.5l-18 30l-34 -50q-25 -38 -36.5 -60t-11.5 -35q0 -12 9 -18t28 -9q8 -29 8 -78q-51 3 -127 3q-84 0 -124 -3q0 57 9 80q45 12 79.5 38.5t74.5 83.5l82 117q-73 117 -112 175 q-31 46 -48.5 67.5t-31 29.5t-33.5 12q-9 29 -9 79q53 -3 207 -3q85 0 147 2q0 -41 -7 -77q-18 -3 -26.5 -8t-8.5 -16q0 -20 34 -71l48 -73l36 57q36 56 36 82q0 13 -8 20t-25 9q-7 26 -7 78q50 -3 124 -3q75 0 113 3q0 -50 -7 -78q-33 -8 -51.5 -18t-35.5 -30t-44 -61 l-86 -130q53 -83 74 -121q45 -74 69.5 -107t42 -44t45.5 -15q9 -26 9 -78z" glyph-name="X" horiz-adv-x="730" unicode="X"/><glyph d="M624 678q0 -43 -9 -77q-19 -4 -34 -21t-36 -63l-122 -269v-50q0 -52 7 -76t27.5 -34t64.5 -13q6 -20 8 -36t2 -42q-58 3 -214 3q-60 0 -160 -2l-53 -1q2 53 12 78q51 4 72 12.5t27.5 32t6.5 79.5v52l-139 291q-26 54 -66 59q-8 29 -8 77q48 -2 168 -2q127 0 168 2 q0 -38 -7 -77q-33 -4 -33 -32q0 -14 14 -51l11 -28q37 -91 59 -152q39 100 76 186q9 21 9 38q0 36 -38 39q-9 33 -9 77q36 -2 103 -2q61 0 93 2z" glyph-name="Y" horiz-adv-x="634" unicode="Y"/><glyph d="M556 183q-9 -38 -18 -93.5t-10 -92.5q-78 3 -258 3q-128 0 -220 -3q-20 28 -20 71q99 175 161 289t126 244h-53q-32 0 -52 -12t-34.5 -42.5t-28.5 -90.5q-74 0 -106 14q13 45 19 101.5t6 106.5q50 -2 234 -2q161 0 222 2q18 -30 21 -70q-73 -152 -137 -274t-144 -259h36 q45 0 71.5 11t44 40t32.5 86q65 -5 108 -29z" glyph-name="Z" horiz-adv-x="586" unicode="Z"/><glyph d="M131 741q76 0 121 1q8 -17 10 -35t2 -48q-45 -4 -66 -11t-28.5 -23t-7.5 -50v-671q0 -36 6.5 -53.5t25.5 -25t59 -9.5q7 -21 9 -38.5t2 -46.5q-18 0 -26 1l-83 1l-91 -1q-9 -1 -29 -1v1011q36 -1 96 -1z" glyph-name="bracketleft" horiz-adv-x="311" unicode="["/><glyph d="M110 717l266 -717q-30 -9 -85 -9l-267 718q29 8 76 8h10z" glyph-name="backslash" horiz-adv-x="405" unicode="\"/><glyph d="M247 -268l-91 1l-83 -1q-8 -1 -26 -1q0 29 2 46.5t9 38.5q40 2 59 9.5t25.5 25t6.5 53.5v671q0 34 -7.5 50t-28.5 23t-66 11q0 30 2 48t10 35q45 -1 121 -1q60 0 96 1v-1011q-20 0 -29 1z" glyph-name="bracketright" horiz-adv-x="311" unicode="]"/><glyph d="M86 368q-19 12 -34.5 32.5t-16.5 37.5l203 260q24 10 72 10q40 -64 99.5 -151.5t105.5 -151.5q-15 -12 -36.5 -17.5t-44.5 -3.5l-158 224q-114 -131 -190 -240z" glyph-name="asciicircum" unicode="^"/><glyph d="M30 -72h504q0 -54 -14 -80q-77 1 -136.5 1h-121.5l-164 -1l-82 -1q0 50 14 81z" glyph-name="underscore" unicode="_"/><glyph d="M102 614.5q-28 33.5 -69 70.5q77 32 164 32q11 -37 30 -82.5t39 -83.5q-37 -18 -102 -18q-34 48 -62 81.5z" glyph-name="grave" horiz-adv-x="300" unicode="`"/><glyph d="M576 78q0 -30 -13 -53q-97 -2 -180 -34q-21 8 -29.5 22t-8.5 35q0 25 7 50q-21 -46 -49 -68q-46 -37 -125 -37q-72 0 -112.5 30t-40.5 87q0 59 42.5 95.5t107 54t153.5 29.5q0 31 -5 52.5t-18 35.5q-20 21 -51 21q-33 0 -49.5 -28.5t-22.5 -80.5q-40 0 -63.5 2.5 t-45.5 10.5q2 26 2 41q0 39 -9 88q44 17 105.5 27t120.5 10q129 0 180 -51q21 -21 33.5 -58t12.5 -103v-66q0 -38 4 -55t15.5 -23.5t36.5 -7.5q2 -9 2 -26zM328 225q-66 -13 -92 -32.5t-26 -49.5q0 -21 10.5 -31t26.5 -10q31 0 56 28.5t25 77.5v17z" glyph-name="a" horiz-adv-x="589" unicode="a"/><glyph d="M561.5 417q56.5 -50 56.5 -152q0 -82 -36.5 -144t-102.5 -96t-154 -34q-87 0 -168 20.5t-112 53.5q24 28 24 96v378q0 36 -15 51t-59 19q0 50 13 75q70 0 130 10t86 23q35 -16 35 -64v-173q0 -50 -7 -86q13 18 33 34q21 16 55.5 27.5t72.5 11.5q92 0 148.5 -50z M396.5 100q30.5 38 30.5 136q0 57 -17.5 95t-60.5 38q-38 0 -64 -37t-26 -115v-121q14 -18 28.5 -26t34.5 -8q44 0 74.5 38z" glyph-name="b" horiz-adv-x="648" unicode="b"/><glyph d="M99.5 49.5q-69.5 58.5 -69.5 177.5q0 62 28.5 117t86 89t138.5 34q59 0 101.5 -9.5t79.5 -29.5q-13 -53 -13 -132q-38 -17 -105 -17q0 56 -15.5 86t-42.5 30q-34 0 -52.5 -43.5t-18.5 -110.5q0 -65 32 -111.5t97 -46.5q61 0 100 23q23 -25 23 -64q-26 -24 -72 -37.5 t-102 -13.5q-126 0 -195.5 58.5z" glyph-name="c" horiz-adv-x="484" unicode="c"/><glyph d="M637 78q0 -30 -13 -53q-97 -2 -180 -34q-21 8 -29.5 22t-8.5 35q0 11 4 37q-23 -37 -47 -55q-21 -16 -55.5 -27.5t-72.5 -11.5q-92 0 -148.5 50t-56.5 152q0 82 37 144t103.5 96t154.5 34q32 0 64 -7v79q0 36 -15 51t-59 19q0 50 13 75q70 0 130 10t86 23q35 -16 35 -64 v-457q0 -41 4 -59.5t15.5 -25t36.5 -7.5q2 -9 2 -26zM363 125.5q26 36.5 26 114.5v122q-14 18 -28.5 26t-34.5 8q-44 0 -74.5 -37.5t-30.5 -136.5q0 -57 17.5 -95t60.5 -38q38 0 64 36.5z" glyph-name="d" horiz-adv-x="650" unicode="d"/><glyph d="M501 94q8 -20 8 -42q-43 -30 -94.5 -45.5t-117.5 -15.5q-137 0 -202 63t-65 170q0 114 68.5 178.5t185.5 64.5q113 0 170.5 -58t59.5 -161q-9 -37 -33 -59q-152 0 -256 -6q24 -100 127 -100q36 0 72 10.5t58 27.5q11 -7 19 -27zM236.5 357.5q-17.5 -35.5 -18.5 -98.5h131 q0 134 -62 134q-33 0 -50.5 -35.5z" glyph-name="e" horiz-adv-x="545" unicode="e"/><glyph d="M308.5 631q-8.5 -10 -12.5 -38t-4 -82v-63h117q0 -62 -10 -83q-30 0 -54.5 -3t-52.5 -12v-153q0 -65 23 -91.5t86 -30.5q9 -25 9 -78q-57 3 -180 3q-133 0 -202 -3q0 51 7 78q29 2 42.5 11t19 31.5t5.5 69.5v170q-40 12 -75 12q0 55 14 79h61v29q0 118 68.5 179t182.5 61 q42 0 85.5 -9.5t65.5 -23.5q-7 -36 -7 -93q0 -19 2 -45q-18 -8 -53.5 -11.5t-65.5 -1.5q0 50 -13.5 79t-34.5 29q-15 0 -23.5 -10z" glyph-name="f" horiz-adv-x="440" unicode="f"/><glyph d="M462.5 83.5q41.5 -9.5 67.5 -37.5t26 -81q0 -65 -39.5 -113t-114 -74.5t-175.5 -26.5q-207 0 -207 113q0 34 18 59.5t53 38.5q-39 31 -39 87q0 41 18 68.5t48 49.5q-85 39 -85 136q0 81 58.5 122.5t165.5 41.5q51 0 92 -9h207q13 -30 13 -90q-50 20 -91 21q39 -43 39 -99 q0 -67 -63 -108t-185 -41q-33 0 -63 3q-13 -9 -13 -20q0 -19 29 -24t95 -6h44q60 -1 101.5 -10.5zM220 317q0 -52 16.5 -79t46.5 -27q53 0 53 89q0 52 -16.5 79t-46.5 27q-53 0 -53 -89zM360 -154q34 17 34 46q0 11 -7 16.5t-24.5 7.5t-54.5 3q-91 2 -133 10q-6 -9 -8.5 -16 t-2.5 -16q0 -36 23 -52t78 -16q61 0 95 17z" glyph-name="g" horiz-adv-x="584" unicode="g"/><glyph d="M674 -3q-90 3 -139 3q-118 0 -163 -3q0 51 10 78q48 0 48 98v69q0 56 -14.5 79.5t-47.5 23.5q-37 0 -60.5 -43.5t-23.5 -111.5v-28q0 -50 11.5 -68.5t35.5 -18.5q7 -17 9 -34.5t2 -43.5q-45 3 -153 3q-124 0 -169 -3q0 52 10 78q38 0 51 18t13 69v377q0 36 -15 51t-59 19 q0 50 13 75q70 0 130 10t86 23q35 -16 35 -64v-250q0 -22 -12 -61q10 25 18.5 40t20.5 27q25 25 59.5 39t75.5 14q74 0 124 -40.5t50 -122.5v-137q0 -50 9 -68.5t34 -18.5q11 -27 11 -78z" glyph-name="h" horiz-adv-x="704" unicode="h"/><glyph d="M110.5 537q-27.5 22 -27.5 59q0 43 30 66t79 23q53 0 80.5 -22t27.5 -65q0 -37 -31 -60t-84 -23q-47 0 -74.5 22zM41 75q27 2 40.5 9.5t19 25t5.5 52.5v127q0 36 -15 51t-59 19q0 50 13 75q70 0 130 10t86 23q35 -16 35 -64v-241q0 -34 5.5 -52t19.5 -25.5t41 -9.5 q8 -25 8 -78q-37 3 -169 3q-133 0 -169 -3q0 54 9 78z" glyph-name="i" horiz-adv-x="400" unicode="i"/><glyph d="M105.5 537q-27.5 22 -27.5 59q0 43 30 66t79 23q53 0 80.5 -22t27.5 -65q0 -37 -31 -60t-84 -23q-47 0 -74.5 22zM30.5 -219q-12.5 20 -15.5 44q49 49 67.5 95t18.5 117v252q0 36 -15 51t-59 19q0 50 13 75q70 0 130 10t86 23q35 -16 35 -64v-320q0 -81 -36 -148 t-88 -112.5t-105 -71.5q-19 10 -31.5 30z" glyph-name="j" horiz-adv-x="335" unicode="j"/><glyph d="M610.5 86q13.5 -9 36.5 -11q0 -44 -14 -75q-132 0 -189 -9q-22 35 -66 93t-94 118v-40q0 -48 9 -66t36 -21q8 -22 8 -78q-37 3 -154 3q-127 0 -163 -3q0 54 9 78q27 2 40.5 9.5t19 25t5.5 52.5v377q0 36 -15 51t-59 19q0 50 13 75q70 0 130 10t86 23q35 -16 35 -64v-389 l66 58q22 19 29 28t7 16q0 8 -5.5 12t-20.5 5q-13 35 -13 77q48 -2 170 -2q42 0 94 2q0 -44 -12 -77q-45 -4 -70.5 -15.5t-60.5 -44.5l-37 -34q81 -73 148 -169q18 -25 31.5 -34z" glyph-name="k" horiz-adv-x="662" unicode="k"/><glyph d="M29 75q27 2 40.5 9.5t19 25t5.5 52.5v387q0 29 -16.5 42.5t-57.5 17.5q0 50 13 75q70 0 130 10t86 23q35 -16 35 -64v-491q0 -34 5.5 -52t19.5 -25.5t41 -9.5q8 -25 8 -78q-37 3 -169 3q-133 0 -169 -3q0 54 9 78z" glyph-name="l" horiz-adv-x="378" unicode="l"/><glyph d="M1012 -3q-36 3 -140 3q-107 0 -161 -3q0 45 8 78q18 1 28.5 11t15.5 36.5t5 77.5v45q0 56 -13 78t-39 22q-43 0 -66 -41.5t-23 -113.5v-22q0 -52 10 -71.5t40 -21.5q10 -27 10 -78q-31 3 -152 3t-157 -3q0 49 10 78q22 2 32.5 11t14.5 36.5t4 87.5v46q0 49 -14 69t-45 20 q-37 0 -60.5 -45t-23.5 -110v-22q0 -38 3.5 -57t13.5 -26.5t31 -9.5q10 -26 10 -78q-31 3 -165 3q-129 0 -157 -3q0 50 10 77q28 2 41 10t18 25.5t5 52.5v93q0 45 -4 64t-19 27.5t-49 12.5q0 43 14 75q63 0 123.5 9t90.5 24q15 -5 24.5 -21.5t9.5 -42.5q0 -12 -3.5 -27 t-8.5 -35q21 50 39 68q26 26 61 41t74 15q50 0 88.5 -20t59.5 -56q13 -22 16 -40q20 45 42 64q48 46 121 46q88 0 130.5 -42t42.5 -134v-73q0 -66 2.5 -91t11 -33.5t30.5 -10.5q10 -29 10 -78z" glyph-name="m" horiz-adv-x="1042" unicode="m"/><glyph d="M686 -3q-90 3 -139 3q-118 0 -163 -3q0 51 10 78q48 0 48 98v69q0 56 -14.5 79.5t-47.5 23.5q-37 0 -60.5 -43.5t-23.5 -111.5v-28q0 -50 11.5 -68.5t35.5 -18.5q7 -17 9 -34.5t2 -43.5q-45 3 -153 3q-124 0 -169 -3q0 52 10 78q38 0 51 18t13 69v108q0 36 -4.5 52.5 t-19 25t-47.5 11.5q0 50 13 75q70 0 129 10t85 23q34 -15 34 -64q0 -22 -12 -61q10 25 18.5 40t20.5 27q25 25 59.5 39t75.5 14q74 0 124 -40.5t50 -122.5v-137q0 -50 9 -68.5t34 -18.5q11 -27 11 -78z" glyph-name="n" horiz-adv-x="716" unicode="n"/><glyph d="M98 51.5q-68 60.5 -68 168.5q0 82 36.5 137.5t99 82.5t141.5 27q133 0 202 -63t69 -167q0 -117 -74.5 -181.5t-205.5 -64.5q-132 0 -200 60.5zM369 106.5q19 38.5 19 97.5q0 62 -13.5 105t-35.5 64.5t-47 21.5q-35 0 -53.5 -38.5t-18.5 -98.5q0 -82 25 -136t72 -54 q33 0 52 38.5z" glyph-name="o" horiz-adv-x="608" unicode="o"/><glyph d="M296 -2v-43q0 -65 23 -91.5t86 -30.5q9 -25 9 -78q-57 3 -180 3q-133 0 -202 -3q0 51 7 78q29 2 42.5 11t19 31.5t5.5 69.5v325q0 36 -4.5 52.5t-19 25t-47.5 11.5q0 50 13 75q70 0 129 10t85 23q34 -15 34 -64q14 16 26 25q21 16 55.5 27.5t72.5 11.5q92 0 148.5 -50 t56.5 -152q0 -82 -37 -144t-103.5 -96t-154.5 -34q-32 0 -64 7zM322 332.5q-26 -36.5 -26 -114.5v-122q14 -18 28.5 -26t34.5 -8q44 0 74.5 37.5t30.5 136.5q0 57 -17.5 95t-60.5 38q-38 0 -64 -36.5z" glyph-name="p" horiz-adv-x="685" unicode="p"/><glyph d="M647 -245q-43 3 -185 3q-160 0 -196 -3q0 50 9 77q48 3 71.5 14t32.5 36.5t9 76.5v21q0 64 11 106q-18 -32 -40 -49q-22 -19 -57 -29t-76 -10q-90 0 -143 54t-53 148q0 82 37 142t104 92.5t154 32.5t158 -19.5t117 -54.5q-13 -34 -17.5 -67t-4.5 -101v-260q0 -58 4 -83.5 t16.5 -35.5t40.5 -14q8 -29 8 -77zM362 123q26 37 26 114v123q-8 16 -24 25.5t-39 9.5q-46 0 -75 -42.5t-29 -133.5q0 -73 19 -103t59 -30q37 0 63 37z" glyph-name="q" horiz-adv-x="647" unicode="q"/><glyph d="M296 197q0 -65 23 -91.5t86 -30.5q9 -25 9 -78q-57 3 -180 3q-133 0 -202 -3q0 51 7 78q29 2 42.5 11t19 31.5t5.5 69.5v83q0 36 -4.5 52.5t-19 25t-47.5 11.5q0 50 13 75q70 0 129 10t85 23q34 -15 34 -64q0 -14 -5 -38.5t-13 -56.5q22 62 29 73q23 36 57 58.5t73 22.5 q40 0 74 -24q-11 -66 -11 -135q0 -24 1 -35q-31 -14 -106 -14q-1 33 -10 48.5t-29 15.5q-13 0 -27.5 -16t-23.5 -41t-9 -52v-12z" glyph-name="r" horiz-adv-x="526" unicode="r"/><glyph d="M382 313.5q-27 -6.5 -55 -6.5q-12 83 -82 83q-16 0 -25.5 -9t-9.5 -23q0 -13 6.5 -23t28 -23t65.5 -31q59 -24 92 -45.5t47 -45.5t14 -56q0 -71 -60 -107t-173 -36q-62 0 -106 8t-88 25q4 29 4 69q0 25 -2 55q17 10 46 16t55 6q4 -48 26 -73.5t54 -25.5q21 0 34.5 9.5 t13.5 26.5q0 22 -17.5 36.5t-68.5 34.5q-70 26 -105.5 59.5t-35.5 96.5q0 67 54 100t151 33q59 0 99.5 -7t76.5 -22q-1 -9 -1 -28q0 -41 6 -80q-17 -10 -44 -16.5z" glyph-name="s" horiz-adv-x="493" unicode="s"/><glyph d="M119.5 33q-39.5 42 -39.5 141v183q-28 12 -75 12q0 47 14 79h61v115q44 4 88 20t70 37q18 -8 25 -22.5t7 -47.5v-102h117q0 -43 -10 -80q-61 0 -107 -18v-164q0 -46 4.5 -69t14 -31t28.5 -8q13 0 29 3t28 8q15 -22 15 -64q-22 -15 -63 -24.5t-85 -9.5q-82 0 -121.5 42z" glyph-name="t" horiz-adv-x="399" unicode="t"/><glyph d="M640 78q0 -30 -13 -53q-97 -2 -180 -34q-21 8 -29.5 22t-8.5 35q0 22 7 50q-14 -41 -38 -62q-21 -19 -58.5 -31t-84.5 -12q-80 0 -119 43t-39 145v89q0 35 -4 52t-17 25.5t-41 11.5q0 50 13 75q69 0 123.5 10t81.5 23q34 -15 34 -64v-196q0 -64 10.5 -87.5t32.5 -23.5 q34 0 58 38.5t24 111.5v29q0 34 -5.5 52t-20.5 26t-45 11q0 50 13 75q73 0 131 8t83 20q34 -15 34 -64v-207q0 -41 4 -59.5t15.5 -25t36.5 -7.5q2 -9 2 -26z" glyph-name="u" horiz-adv-x="653" unicode="u"/><glyph d="M573 461q0 -22 -3.5 -44t-9.5 -34q-27 -6 -41 -19t-27 -45l-139 -313q-15 -8 -37.5 -12.5t-46.5 -4.5q-11 0 -29 2q-69 160 -158 334q-17 30 -29 41.5t-32 16.5q-5 15 -8 37t-3 41q46 -3 156 -3q120 0 168 3q0 -36 -11 -78q-21 -3 -30 -8.5t-9 -16.5q0 -14 13 -40 q36 -83 54 -136q18 44 48 112q6 16 10 24q10 23 10 36t-10 19.5t-31 9.5q-11 42 -11 78q39 -3 101 -3t105 3z" glyph-name="v" horiz-adv-x="583" unicode="v"/><glyph d="M787 461q0 -18 -3 -41t-9 -36q-25 -5 -37 -19t-22 -46l-102 -319q-25 -9 -112 -9q-41 90 -59.5 136t-31.5 94l-104 -221q-25 -9 -115 -9q-24 79 -58.5 181.5t-51.5 152.5q-11 29 -25 43t-35 15q-12 36 -12 78q76 -3 146 -3q94 0 169 3q0 -39 -12 -77q-18 -2 -25 -6 t-7 -15t10 -51q15 -57 23 -107l103 250q25 9 82 9q59 -139 105 -270l32 118q6 20 6 33q0 17 -9.5 25.5t-30.5 13.5q-11 33 -11 77q39 -3 96 -3t100 3z" glyph-name="w" horiz-adv-x="797" unicode="w"/><glyph d="M582 0q-10 1 -30 1l-78 -1q-182 0 -218 -2q0 49 9 77q18 3 18 18q0 16 -24 56l-14 23l-9 -14q-35 -53 -35 -71q0 -9 11 -12q5 -16 6.5 -31.5t1.5 -45.5q-27 2 -102 2q-72 0 -93 -2q0 47 12 77q16 1 27.5 8t28 28t47.5 68l38 57q-37 63 -77 114q-12 16 -26 23.5t-37 9.5 q-11 35 -11 77q41 -2 157 -2q123 0 167 2q0 -21 -2 -43.5t-6 -33.5q-22 -2 -22 -14q0 -11 23 -48l22 -34l24 36q23 35 23 46t-17 14q-11 28 -11 77q35 -2 102 -2q57 0 88 2q0 -45 -11 -77q-22 -2 -34 -12t-35 -44l-63 -94q19 -28 43 -66q33 -54 51 -71t45 -19q11 -30 11 -77 z" glyph-name="x" horiz-adv-x="607" unicode="x"/><glyph d="M569 462q0 -20 -3.5 -41.5t-9.5 -37.5q-23 -6 -36.5 -20t-29.5 -50l-147 -350q-37 -89 -68 -134.5t-60 -61.5t-67 -16q-33 0 -65.5 15.5t-48.5 38.5q-1 6 -1 23q0 49 14 85q20 -8 50.5 -13.5t65.5 -5.5q36 0 54.5 9t34.5 34l5 9q-79 188 -170 373q-17 35 -31.5 47.5 t-35.5 16.5q-10 29 -10 78q57 -3 153 -3q110 0 171 3q0 -20 -3.5 -43t-8.5 -35q-23 -4 -32.5 -9.5t-9.5 -16.5q0 -14 19 -50q31 -61 57 -131l48 122q15 36 15 54q0 14 -8.5 21t-26.5 10q-11 28 -11 78q47 -3 101 -3q55 0 95 4z" glyph-name="y" horiz-adv-x="579" unicode="y"/><glyph d="M498 22q-11 -24 -47 -24q-55 0 -90 1l-111 1q-117 0 -189 -2q-9 14 -15 34.5t-6 39.5q127 162 221 311h-38q-24 0 -37.5 -8t-21.5 -28.5t-14 -60.5q-31 -2 -60 2t-47 14q12 61 12 159q62 -3 213 -3q130 0 196 3q16 -24 16 -63q-89 -152 -215 -323h48q31 0 46.5 11 t22.5 35t10 70q53 3 98 -11q0 -110 8 -158z" glyph-name="z" horiz-adv-x="518" unicode="z"/><glyph d="M178.5 -203.5q-47.5 59.5 -47.5 144.5q0 33 3 63q2 40 2 59q0 57 -21 94.5t-80 55.5q0 50 5 62q56 18 77 52.5t21 84.5q0 21 -4 65q-4 46 -4 70q0 52 15.5 89.5t62.5 68.5t137 49q21 -17 21 -69q-46 -15 -65 -45t-19 -72q0 -29 12 -95q1 -6 6 -37.5t5 -57.5 q0 -54 -30.5 -88t-108.5 -44q79 -11 109.5 -47.5t30.5 -93.5q0 -31 -10 -97q-10 -64 -10 -93q0 -45 19 -75t67 -43q4 -11 4 -27q0 -29 -18 -53q-132 20 -179.5 79.5z" glyph-name="braceleft" horiz-adv-x="423" unicode="{"/><glyph d="M60 701q10 6 37 10.5t52 4.5l-1 -191q-2 -180 -2 -291q0 -106 2 -284l1 -188q-27 -11 -89 -11v950z" glyph-name="bar" horiz-adv-x="209" unicode="|"/><glyph d="M47 -230q0 16 4 27q48 13 67 43t19 75q0 29 -10 93q-10 66 -10 97q0 57 30.5 93.5t109.5 47.5q-78 10 -108.5 44t-30.5 88q0 31 12 95q1 8 6 39t5 56q0 42 -19 72t-65 45q0 52 21 69q90 -18 137 -48.5t62.5 -68.5t15.5 -89q0 -24 -4 -70t-4 -66q0 -50 21 -84.5t77 -52.5 q5 -12 5 -62q-59 -18 -80 -55t-21 -94q0 -20 2 -60q3 -32 3 -63q0 -85 -47.5 -144.5t-179.5 -79.5q-18 24 -18 53z" glyph-name="braceright" horiz-adv-x="423" unicode="}"/><glyph d="M58 183.5q-13 10.5 -20 27.5q72 138 154 138q23 0 45 -9.5t54 -28.5q28 -17 48 -26t40 -9q21 0 39.5 14t41.5 49q14 -5 29.5 -18.5t22.5 -25.5q-38 -74 -73 -101t-68 -27q-24 0 -45.5 10t-53.5 30q-27 18 -46.5 27.5t-39.5 9.5q-56 0 -96 -79q-19 8 -32 18.5z" glyph-name="asciitilde" unicode="~"/><glyph glyph-name="uni00A0" horiz-adv-x="200"/><glyph d="M129 436.5q28 30.5 76 30.5t75.5 -27t27.5 -74q0 -46 -30.5 -72.5t-78.5 -26.5q-43 0 -70.5 28t-27.5 66q0 45 28 75.5zM152 201q40 13 103 13q21 -229 55 -430q-38 -3 -85.5 -15t-83.5 -27q-16 4 -23.5 15.5t-7.5 32.5q0 14 3 34q19 141 39 377z" glyph-name="exclamdown" horiz-adv-x="411" unicode="¡"/><glyph d="M412 9.5q-36 -12.5 -80 -16.5l2 -132q-61 0 -89 11v122q-103 11 -159 69t-56 164q0 57 24.5 108.5t73 86.5t117.5 43v141q25 0 52 -4.5t37 -10.5l-2 -126q76 -7 132 -37q-13 -53 -13 -132q-38 -17 -105 -17q0 56 -15.5 86t-42.5 30q-34 0 -52.5 -43.5t-18.5 -110.5 q0 -65 32 -111.5t97 -46.5q61 0 100 23q23 -25 23 -64q-21 -20 -57 -32.5z" glyph-name="cent" horiz-adv-x="484" unicode="¢"/><glyph d="M548.5 213.5q24.5 -13.5 34.5 -28.5q-62 -88 -88 -194q-39 0 -68 4.5t-58 15.5q-86 32 -148 32q-87 0 -146 -51q-16 10 -28 27.5t-17 37.5q56 36 79 79.5t23 101.5q0 27 -5 52l-88 -2q0 53 16 85h41q-16 33 -24.5 62.5t-8.5 71.5q0 82 71.5 130t204.5 48q51 0 108.5 -8 t87.5 -24q-7 -54 -7 -109q0 -25 1 -37q-25 -12 -55.5 -15.5t-71.5 -3.5q-8 66 -24.5 92t-54.5 26q-26 0 -40.5 -17.5t-14.5 -48.5q0 -26 9 -45.5t26 -44.5q16 -25 24 -40.5t13 -36.5h108q0 -27 -3 -46.5t-12 -37.5l-98 2q-23 -62 -99 -142q98 65 153 65q17 0 26 -2.5 t22 -7.5q2 -1 7.5 -3.5t13.5 -2.5q14 0 23 7t19 26q24 -4 48.5 -17.5z" glyph-name="sterling" horiz-adv-x="598" unicode="£"/><glyph d="M520 78q-20 -26 -64 -32l-66 64q-23 -15 -48.5 -22.5t-49.5 -7.5q-51 0 -95 26l-62 -63q-40 1 -65 28l76 80q-37 48 -37 111q0 50 26 92l-75 75q13 14 27.5 21.5t34.5 9.5l60 -58q48 34 110 34q56 0 100 -29l55 57q22 -5 35 -12t25 -22l-68 -68q31 -44 31 -100 q0 -61 -31 -105zM204 209.5q14 -28.5 38.5 -46.5t53.5 -18q42 0 68 30.5t26 79.5q0 29 -14 56.5t-38.5 45t-53.5 17.5q-42 0 -68 -29.5t-26 -77.5q0 -29 14 -57.5z" glyph-name="currency" horiz-adv-x="580" unicode="¤"/><glyph d="M624 678q0 -43 -9 -77q-19 -4 -34 -21t-36 -63l-58 -129h72q0 -43 -11 -77l-96 1l-27 -59h132q0 -36 -12 -77h-122q2 -41 10 -61t28 -28.5t61 -11.5q6 -20 8 -36t2 -42q-58 3 -214 3q-60 0 -160 -2l-53 -1q2 53 12 78q48 3 68.5 10.5t28.5 27t9 63.5h-135q0 26 2 43.5 t10 33.5h122l-28 59l-109 -1q0 51 11 77h62l-74 154q-26 54 -66 59q-8 29 -8 77q48 -2 168 -2q127 0 168 2q0 -38 -7 -77q-33 -4 -33 -32q0 -14 14 -51l11 -28q37 -91 59 -152q39 100 76 186q9 21 9 38q0 36 -38 39q-9 33 -9 77q36 -2 103 -2q61 0 93 2z" glyph-name="yen" horiz-adv-x="634" unicode="¥"/><glyph d="M60 701q36 16 87 16q-2 -68 -2 -203q0 -130 2 -194q-35 -16 -87 -16v397zM60 167q20 9 39.5 12.5t47.5 3.5q-2 -69 -2 -205q0 -141 2 -211q-12 -8 -38.5 -12t-48.5 -4v416z" glyph-name="brokenbar" horiz-adv-x="207" unicode="¦"/><glyph d="M520.5 145q-35.5 -40 -94.5 -62q37 -35 53 -74.5t16 -91.5q0 -46 -26 -82t-72.5 -56.5t-106.5 -20.5q-59 0 -98 5.5t-67 19.5q3 28 3 67q0 38 -3 67q36 12 81 12q8 -48 32 -71t53 -23q32 0 49.5 11t17.5 33q0 18 -10.5 33.5t-45 37.5t-104.5 55q-89 42 -128.5 94 t-39.5 121q0 67 35.5 107t94.5 62q-37 35 -53 74.5t-16 91.5q0 46 26 82t72.5 56.5t107.5 20.5q58 0 97 -5.5t67 -19.5q-3 -28 -3 -67q0 -38 3 -67q-36 -12 -81 -12q-8 48 -32 71t-53 23q-32 0 -49.5 -11t-17.5 -33q0 -18 10.5 -33t45 -37t105.5 -56q89 -43 128 -95t39 -120 q0 -67 -35.5 -107zM352 137q46 19 46 54q0 21 -8.5 36t-37 36t-91.5 56l-27 16q-46 -19 -46 -54q0 -21 8.5 -36t37 -36t91.5 -56z" glyph-name="section" horiz-adv-x="609" unicode="§"/><glyph d="M-46 529q-27 23 -27 57q0 38 23.5 64t70.5 26q49 0 73 -24t24 -64q0 -35 -27 -58.5t-67 -23.5q-43 0 -70 23zM206 530.5q-26 24.5 -26 65.5q0 38 26 59t70 21q42 0 69.5 -23t27.5 -57q0 -39 -22.5 -64.5t-69.5 -25.5q-49 0 -75 24.5z" glyph-name="dieresis" horiz-adv-x="300" unicode="¨"/><glyph d="M581.5 531q79.5 -46 126 -125.5t46.5 -175.5q0 -95 -46.5 -175t-126 -126t-174.5 -46q-97 0 -176.5 46t-125 125t-45.5 176q0 96 46 175.5t125.5 125.5t175.5 46q95 0 174.5 -46zM265.5 473q-64.5 -37 -101.5 -101t-37 -142t37 -142t101 -100.5t142 -36.5t142 37t101 101 t37 141q0 78 -37 142t-101 101t-142 37q-77 0 -141.5 -37zM494 444q33 -9 66 -27q-7 -42 -7 -120q-29 -15 -69 -15q-9 102 -71 102q-30 0 -43 -32t-13 -102q0 -74 21 -120t69 -46q47 0 87 37q12 -8 20 -23.5t8 -32.5q-66 -60 -163 -60q-54 0 -98.5 26t-71 76.5t-26.5 120.5 q0 102 58.5 163.5t160.5 61.5q39 0 72 -9z" glyph-name="copyright" horiz-adv-x="814" unicode="©"/><glyph d="M405 423q0 -21 -10 -37q-68 -2 -134 -27q-32 9 -32 38q0 10 4 28q-4 -10 -12 -21.5t-15 -17.5q-29 -26 -73 -26q-103 0 -103 91q0 61 50 90t143 45q0 28 -2 41.5t-8 22.5q-11 17 -32 17q-15 0 -23 -18.5t-13 -62.5q-56 0 -83 9q1 7 1 22q0 33 -6 61q27 17 63.5 28.5 t75.5 11.5q57 0 86.5 -9.5t49.5 -31.5q16 -18 22.5 -43.5t6.5 -71.5v-55q0 -28 3 -40.5t11.5 -17.5t27.5 -6q2 -14 2 -20zM223 538q-35 -7 -48 -20t-13 -44q0 -34 18 -34q17 0 30 22.5t13 61.5v14z" glyph-name="ordfeminine" horiz-adv-x="440" unicode="ª"/><glyph d="M234 326.5q-21 -27.5 -40 -58.5q38 -88 87 -155q-11 -16 -30 -32t-39 -26l-29 32q-42 47 -67.5 73.5t-55.5 52.5q0 45 17 82q66 53 132 121q47 0 79 -24q-33 -38 -54 -65.5zM409 250q41 -75 78 -119q-6 -15 -29 -35.5t-49 -33.5q-33 42 -61.5 73t-69.5 70q0 46 13 90 q63 52 113 112q56 -7 83 -29q-56 -87 -78 -128z" glyph-name="guillemotleft" horiz-adv-x="504" unicode="«"/><glyph d="M502 367v-232q-21 -11 -36 -15.5t-39 -4.5v168q-199 0 -379 -4q0 46 11 88h443z" glyph-name="logicalnot" unicode="¬"/><glyph d="M346 209q-184 0 -286 -8q0 24 4.5 53t12.5 52h282q0 -57 -13 -97z" glyph-name="uni00AD" horiz-adv-x="419" unicode="­"/><glyph d="M400.5 780q51.5 -30 81 -81.5t29.5 -114.5t-29.5 -114.5t-81 -81t-113.5 -29.5q-63 0 -115 29.5t-82 81t-30 114.5t30 114.5t81.5 81.5t114.5 30t114.5 -30zM371.5 439q38.5 22 60 60.5t21.5 84.5q0 47 -22 85.5t-60 60.5t-85 22t-85.5 -22t-60.5 -60.5t-22 -85.5 q0 -46 22 -84.5t60.5 -60.5t85.5 -22t85.5 22zM385 489q-26 -7 -48 -7l-17 1q-9 35 -28 60h-26v-59q-15 -3 -29 -3t-27 3v198q35 10 76 10q45 0 66.5 -16.5t21.5 -51.5q0 -48 -40 -65q26 -19 51 -70zM314 616q0 39 -27 39q-10 0 -21 -4v-68q15 -5 23 -5q25 0 25 38z" glyph-name="registered" horiz-adv-x="571" unicode="®"/><glyph d="M-33 631h375q0 -32 -9 -58q-202 0 -375 -10q0 44 9 68z" glyph-name="macron" horiz-adv-x="300" unicode="¯"/><glyph d="M332 456q-44 -41 -116 -41q-73 0 -114.5 39.5t-41.5 103.5q0 40 20 72t55.5 50.5t80.5 18.5q75 0 117.5 -39t42.5 -101t-44 -103zM187 503.5q17 -28.5 41 -28.5q17 0 27.5 18.5t10.5 54.5q0 43 -14.5 68t-40.5 25q-18 0 -29.5 -19t-11.5 -45q0 -45 17 -73.5z" glyph-name="degree" horiz-adv-x="436" unicode="°"/><glyph d="M233 289l-110 -1q-12 -1 -37 -1q0 20 2.5 46.5t6.5 37.5h138q0 79 -2 132q17 6 37.5 8t51.5 2v-142h144q0 -29 -2 -48t-8 -34h-47h-87v-126q-10 -4 -39 -7t-51 -3zM493 120q0 -28 -2 -46t-8 -33l-199 1q-142 0 -227 -3q0 21 2.5 46t6.5 35h427z" glyph-name="plusminus" unicode="±"/><glyph d="M38 431.5q-3 11.5 -3 28.5q17 18 58 55l15 14q50 45 68.5 71.5t18.5 54.5q0 21 -8 34t-24 13q-15 0 -24.5 -18.5t-14.5 -68.5q-50 0 -79 10q3 24 3 56q0 40 -4 64q58 22 139 22q73 0 116.5 -22t43.5 -72q0 -31 -16.5 -56t-40.5 -40q-51 -33 -83 -59h30q24 0 34.5 3 t14 10.5t4.5 24.5q48 0 73 -8v-47t6 -73q-6 -11 -15 -15.5t-30 -4.5q-14 0 -27 1l-109 1q-57 0 -135 -2q-8 12 -11 23.5z" glyph-name="uni00B2" horiz-adv-x="387" unicode="²"/><glyph d="M80 295.5q-28 7.5 -47 19.5q2 16 10 34t18 29q13 -6 36.5 -10.5t49.5 -4.5q38 0 61 18.5t23 56.5q0 26 -15 44.5t-38 18.5q-12 0 -22 -3q-9 7 -18.5 23t-12.5 30q49 57 73 97h-40q-20 0 -32 -8.5t-21 -30.5q-17 0 -33.5 3.5t-23.5 7.5q7 29 10 68.5t3 70.5q23 -1 143 -1 q100 0 118 1q12 -21 12 -48q-46 -55 -103 -144q62 0 97.5 -30.5t35.5 -93.5q0 -43 -24.5 -78t-74.5 -56t-123 -21q-34 0 -62 7.5z" glyph-name="uni00B3" horiz-adv-x="407" unicode="³"/><glyph d="M79.5 536q-27.5 6 -43.5 14q24 46 38 81.5t23 74.5q38 13 102 13q40 0 64 -4q-84 -100 -130 -185q-26 0 -53.5 6z" glyph-name="acute" horiz-adv-x="300" unicode="´"/><glyph d="M603.5 136q4.5 -18 17.5 -25t44 -10q0 -46 -13 -75q-57 -1 -98.5 -9.5t-83.5 -25.5q-37 25 -37 75q0 12 4 28q-15 -36 -43 -58q-53 -42 -132 -43v-33q0 -43 4.5 -84.5t11.5 -67.5q-45 -7 -81.5 -20.5t-75.5 -37.5q-15 6 -23.5 17t-14.5 29q8 20 9.5 43.5t1.5 107.5v323 q0 35 -4 52t-17 25.5t-41 11.5q0 50 13 75q69 0 123.5 10t81.5 23q34 -15 34 -64v-199q0 -49 5 -74.5t15 -34.5t27 -9q19 0 37 18t29.5 54t11.5 88v29q0 34 -5.5 52t-20.5 26t-45 11q0 50 13 75q73 0 131 8t83 20q34 -15 34 -64v-207q0 -42 4.5 -60z" glyph-name="uni00B5" horiz-adv-x="678" unicode="µ"/><glyph d="M603 681q0 -47 -8 -79q-30 -2 -44 -11.5t-18.5 -31.5t-4.5 -68v-722q-17 -10 -36 -13.5t-44 -3.5v847q-14 3 -42 7l1 -837q-27 -17 -80 -17v536q-9 -1 -29 -1q-135 0 -198 43.5t-63 150.5q0 94 72.5 147.5t231.5 53.5q44 0 84 -3q46 -2 65 -2q82 0 113 4zM261 398.5 q28 -32.5 66 -35.5v242q-51 -6 -72.5 -33t-21.5 -81q0 -60 28 -92.5z" glyph-name="paragraph" horiz-adv-x="630" unicode="¶"/><glyph d="M87.5 187q-27.5 27 -27.5 74q0 46 30.5 72.5t78.5 26.5q43 0 70.5 -28t27.5 -66q0 -45 -28 -75.5t-76 -30.5t-75.5 27z" glyph-name="periodcentered" horiz-adv-x="327" unicode="·"/><glyph d="M57 -191q33 0 55.5 11.5t22.5 32.5q0 16 -16.5 26.5t-41.5 10.5q-18 21 -18 47l65 79h74l-45 -59q42 -7 65.5 -33.5t23.5 -61.5q0 -50 -45.5 -77t-130.5 -27q-9 18 -9 51z" glyph-name="cedilla" horiz-adv-x="300" unicode="¸"/><glyph d="M57 481q30 3 39.5 16.5t9.5 52.5v60q0 39 -10.5 56t-39.5 20q-6 29 -6 75q33 -3 129 -3q85 0 124 3q0 -45 -6 -75q-29 -3 -39.5 -20t-10.5 -56v-60q0 -39 9.5 -52.5t39.5 -16.5q7 -29 7 -74q-46 3 -124 3q-81 0 -129 -3q0 45 7 74z" glyph-name="uni00B9" horiz-adv-x="353" unicode="¹"/><glyph d="M370.5 669.5q48.5 -47.5 48.5 -126.5q0 -89 -52.5 -137.5t-146.5 -48.5q-95 0 -142.5 45t-47.5 127q0 93 55 140.5t142 47.5q95 0 143.5 -47.5zM263 445.5q11 28.5 11 70.5q0 70 -17.5 107t-40.5 37q-20 0 -31 -28.5t-11 -72.5q0 -61 15 -101.5t45 -40.5q18 0 29 28.5z" glyph-name="ordmasculine" horiz-adv-x="453" unicode="º"/><glyph d="M310 234q-46 90 -89 154q13 10 35 17t44 7q38 -37 65 -61.5t64 -55.5q17 -33 17 -80q-93 -90 -157 -162q-44 22 -63 60q46 58 84 121zM62 182q15 24 30 55q-25 57 -75 138q12 9 36.5 18.5t48.5 13.5q32 -36 51.5 -56t58.5 -55q9 -21 11.5 -41t2.5 -48q-63 -67 -129 -145 q-23 11 -43.5 29.5t-30.5 35.5q24 31 39 55z" glyph-name="guillemotright" horiz-adv-x="506" unicode="»"/><glyph d="M275.5 716q6.5 -10 6.5 -36v-257q0 -38 5 -53.5t18.5 -20.5t50.5 -10q6 -27 6 -60q-84 2 -163 2q-66 0 -152 -2q0 40 6 60q40 4 55 9t21 20.5t6 54.5v138q0 32 -5.5 44.5t-23.5 16.5t-64 4q0 42 7 68q65 1 111.5 9.5t92.5 26.5q16 -4 22.5 -14zM240 -1q-26 8 -35 19 l514 699q22 0 46 -8.5t38 -20.5l-512 -697q-25 0 -51 8zM856.5 73q10.5 -6 41.5 -7q6 -24 6 -68q-38 2 -139 2q-94 0 -130 -2q0 18 1 36.5t6 31.5q40 1 54.5 7.5t14.5 28.5v7q-104 -2 -145 -4q-29 37 -28 92q105 126 200 254q16 2 28 2q21 0 44 -3t36 -7v-237h28q18 0 27 -5 t16 -18q-10 -15 -18 -73h-53v-8q0 -23 10.5 -29zM711 206v117l-84 -117h84z" glyph-name="onequarter" horiz-adv-x="939" unicode="¼"/><glyph d="M275.5 716q6.5 -10 6.5 -36v-257q0 -38 5 -53.5t18.5 -20.5t50.5 -10q6 -27 6 -60q-84 2 -163 2q-66 0 -152 -2q0 40 6 60q40 4 55 9t21 20.5t6 54.5v138q0 32 -5.5 44.5t-23.5 16.5t-64 4q0 42 7 68q65 1 111.5 9.5t92.5 26.5q16 -4 22.5 -14zM240 -1q-26 8 -35 19 l514 699q22 0 46 -8.5t38 -20.5l-512 -697q-25 0 -51 8zM1015 99.5q2 -41.5 8 -65.5q-10 -21 -24 -28.5t-46 -7.5q-22 0 -40 1l-96 1l-143 -2q-25 38 -25 98q35 39 97 93q44 38 62 66t18 67q0 55 -32 55q-43 0 -43 -111q-54 -3 -106 16q6 28 9 66.5t2 74.5q31 12 78.5 19 t99.5 7q80 0 123.5 -22.5t43.5 -82.5q0 -47 -28 -83.5t-82 -67.5q-51 -29 -74 -48h35q32 0 46.5 3t21 11.5t10.5 28.5q22 1 46 -1.5t38 -6.5q-1 -39 1 -80.5z" glyph-name="onehalf" horiz-adv-x="1045" unicode="½"/><glyph d="M321 499.5q31 -26.5 31 -77.5q0 -69 -54 -108.5t-148 -39.5q-88 0 -125 34q1 15 6.5 29.5t14.5 24.5q34 -23 76 -23q39 0 59 16.5t20 43.5q0 21 -12 35t-38 14q-12 0 -23 -4q-21 22 -21 59q61 65 83 93h-36q-25 0 -38 -9t-24 -37q-45 0 -64 13q11 65 11 164q90 -3 149 -3 t134 3q7 -11 11.5 -27t3.5 -32q-74 -91 -110 -137q63 -5 94 -31.5zM201 -1q-26 8 -35 19l514 699q22 0 46 -8.5t38 -20.5l-512 -697q-25 0 -51 8zM817.5 73q10.5 -6 41.5 -7q6 -24 6 -68q-38 2 -139 2q-94 0 -130 -2q0 18 1 36.5t6 31.5q40 1 54.5 7.5t14.5 28.5v7 q-104 -2 -145 -4q-29 37 -28 92q105 126 200 254q16 2 28 2q21 0 44 -3t36 -7v-237h28q18 0 27 -5t16 -18q-10 -15 -18 -73h-53v-8q0 -23 10.5 -29zM672 206v117l-84 -117h84z" glyph-name="threequarters" horiz-adv-x="900" unicode="¾"/><glyph d="M309.5 439q27.5 -27 27.5 -74q0 -46 -30.5 -72.5t-78.5 -26.5q-43 0 -70.5 28t-27.5 66q0 45 28 75.5t76 30.5t75.5 -27zM81.5 -227q-46.5 32 -46.5 90q0 50 22 81t64 66q39 33 58 58.5t19 64.5q0 38 -15 83q16 9 41.5 14t48.5 5q25 -15 42.5 -52t17.5 -76 q0 -44 -15 -70.5t-44 -56.5q-26 -28 -37.5 -47t-11.5 -49q0 -34 12.5 -50t32.5 -16q21 0 35 28.5t22 105.5q33 0 56.5 -5.5t45.5 -17.5q-3 -38 -3 -78q0 -35 3 -65q-96 -45 -207 -45q-94 0 -140.5 32z" glyph-name="questiondown" horiz-adv-x="537" unicode="¿"/><glyph d="M707 -3q-40 3 -157 3q-138 0 -176 -3q0 46 8 78q22 5 32 14t10 23t-11 39l-7 15q-131 0 -227 -10l-2 -4q-5 -13 -5 -26q0 -19 10.5 -33t32.5 -18q8 -34 8 -78q-34 3 -117 3q-66 0 -96 -3q0 47 10 78q24 5 39.5 24.5t40.5 76.5l212 500q18 4 36.5 5t39.5 1l222 -487 q24 -52 38 -76.5t24.5 -33t26.5 -10.5q8 -27 8 -78zM378 231l-38 85q-33 73 -51 138q-18 -65 -48 -138l-33 -85h170zM210 856q27 13 66 19.5t78 6.5q11 -29 30 -65.5t39 -63.5q-49 -18 -102 -18q-61 73 -111 121z" glyph-name="Agrave" horiz-adv-x="717" unicode="À"/><glyph d="M707 -3q-40 3 -157 3q-138 0 -176 -3q0 46 8 78q22 5 32 14t10 23t-11 39l-7 15q-131 0 -227 -10l-2 -4q-5 -13 -5 -26q0 -19 10.5 -33t32.5 -18q8 -34 8 -78q-34 3 -117 3q-66 0 -96 -3q0 47 10 78q24 5 39.5 24.5t40.5 76.5l212 500q18 4 36.5 5t39.5 1l222 -487 q24 -52 38 -76.5t24.5 -33t26.5 -10.5q8 -27 8 -78zM378 231l-38 85q-33 73 -51 138q-18 -65 -48 -138l-33 -85h170zM277 753q35 55 61 119q43 10 94 10q40 0 68 -6q-66 -69 -121 -141q-53 0 -102 18z" glyph-name="Aacute" horiz-adv-x="717" unicode="Á"/><glyph d="M707 -3q-40 3 -157 3q-138 0 -176 -3q0 46 8 78q22 5 32 14t10 23t-11 39l-7 15q-131 0 -227 -10l-2 -4q-5 -13 -5 -26q0 -19 10.5 -33t32.5 -18q8 -34 8 -78q-34 3 -117 3q-66 0 -96 -3q0 47 10 78q24 5 39.5 24.5t40.5 76.5l212 500q18 4 36.5 5t39.5 1l222 -487 q24 -52 38 -76.5t24.5 -33t26.5 -10.5q8 -27 8 -78zM378 231l-38 85q-33 73 -51 138q-18 -65 -48 -138l-33 -85h170zM182 746.5q-18 15.5 -25 34.5q104 62 151 102q34 11 90 11q53 -53 144 -113q-18 -22 -40 -36t-54 -20q-39 24 -116 57q-8 -4 -15.5 -7.5t-14.5 -6.5 q-50 -22 -78 -40q-24 3 -42 18.5z" glyph-name="Acircumflex" horiz-adv-x="717" unicode="Â"/><glyph d="M707 -3q-40 3 -157 3q-138 0 -176 -3q0 46 8 78q22 5 32 14t10 23t-11 39l-7 15q-131 0 -227 -10l-2 -4q-5 -13 -5 -26q0 -19 10.5 -33t32.5 -18q8 -34 8 -78q-34 3 -117 3q-66 0 -96 -3q0 47 10 78q24 5 39.5 24.5t40.5 76.5l212 500q18 4 36.5 5t39.5 1l222 -487 q24 -52 38 -76.5t24.5 -33t26.5 -10.5q8 -27 8 -78zM378 231l-38 85q-33 73 -51 138q-18 -65 -48 -138l-33 -85h170zM354 742q-18 7 -40 21q-16 11 -28.5 16t-28.5 5q-42 0 -78 -47q-18 18 -27 35t-10 41q27 38 67 56.5t78 18.5q24 0 42 -6.5t44 -19.5q19 -10 32 -15t27 -5 q37 0 61 40q40 -8 65 -34q-27 -54 -68 -83.5t-92 -29.5q-26 0 -44 7z" glyph-name="Atilde" horiz-adv-x="717" unicode="Ã"/><glyph d="M707 -3q-40 3 -157 3q-138 0 -176 -3q0 46 8 78q22 5 32 14t10 23t-11 39l-7 15q-131 0 -227 -10l-2 -4q-5 -13 -5 -26q0 -19 10.5 -33t32.5 -18q8 -34 8 -78q-34 3 -117 3q-66 0 -96 -3q0 47 10 78q24 5 39.5 24.5t40.5 76.5l212 500q18 4 36.5 5t39.5 1l222 -487 q24 -52 38 -76.5t24.5 -33t26.5 -10.5q8 -27 8 -78zM378 231l-38 85q-33 73 -51 138q-18 -65 -48 -138l-33 -85h170zM154 742q-27 23 -27 57q0 38 23.5 64t70.5 26q49 0 73 -24t24 -64q0 -35 -27 -58.5t-67 -23.5q-43 0 -70 23zM406 743.5q-26 24.5 -26 65.5q0 38 26 59 t70 21q42 0 69.5 -23t27.5 -57q0 -39 -22.5 -64.5t-69.5 -25.5q-49 0 -75 24.5z" glyph-name="Adieresis" horiz-adv-x="717" unicode="Ä"/><glyph d="M707 -3q-40 3 -157 3q-138 0 -176 -3q0 46 8 78q22 5 32 14t10 23t-11 39l-7 15q-131 0 -227 -10l-2 -4q-5 -13 -5 -26q0 -19 10.5 -33t32.5 -18q8 -34 8 -78q-34 3 -117 3q-66 0 -96 -3q0 47 10 78q24 5 39.5 24.5t40.5 76.5l212 500q18 4 36.5 5t39.5 1l222 -487 q24 -52 38 -76.5t24.5 -33t26.5 -10.5q8 -27 8 -78zM378 231l-38 85q-33 73 -51 138q-18 -65 -48 -138l-33 -85h170zM254 736.5q-35 23.5 -35 65.5q0 45 37.5 70t98.5 25q57 0 91.5 -22t34.5 -66t-37.5 -70t-99.5 -26q-55 0 -90 23.5zM377 770.5q10 11.5 10 31.5t-10.5 37 t-30.5 17q-15 0 -23.5 -12.5t-8.5 -35.5q0 -22 10 -35.5t28 -13.5q15 0 25 11.5z" glyph-name="Aring" horiz-adv-x="717" unicode="Å"/><glyph d="M966.5 94q-8.5 -48 -11.5 -96q-98 2 -283 2q-230 0 -287 -3q0 49 8 78q28 2 41.5 11t19 31.5t5.5 69.5v95q-128 -5 -183 -13l-55 -99q-17 -32 -17 -53q0 -34 46 -42q10 -24 10 -78q-46 3 -118 3q-102 0 -132 -3q0 22 2.5 44t7.5 34q35 5 54 19.5t44 57.5l213 367 q18 32 18 49q0 28 -47 33q-4 9 -8.5 35t-4.5 42q104 -2 208 -2h136q199 0 293 3q0 -45 6 -93t15 -85q-10 -8 -43 -13t-58 -5q-11 60 -40 89t-98 29h-49v-249h11q31 0 45 5t20 21t7 50q16 6 41 9.5t46 3.5q-3 -48 -3 -119q0 -76 3 -120q-66 0 -86 9q-2 34 -8 49t-20.5 20.5 t-44.5 5.5h-11v-94q0 -48 7 -73t23.5 -34.5t47.5 -9.5h17q34 0 55.5 11.5t38.5 40t38 84.5q32 -5 60 -14t40 -20q-11 -35 -19.5 -83zM459 352v188q0 24 3 54q-11 -23 -26 -48l-112 -194h135z" glyph-name="AE" horiz-adv-x="1001" unicode="Æ"/><glyph d="M448.5 -76.5q23.5 -26.5 23.5 -61.5q0 -50 -45.5 -77t-130.5 -27q-9 18 -9 51q33 0 55.5 11.5t22.5 32.5q0 16 -16.5 26.5t-41.5 10.5q-18 21 -18 47l46 56q-90 9 -158 55.5t-105 122t-37 170.5q0 109 47.5 187t126 117.5t170.5 39.5q54 0 111 -13.5t109 -38.5 q-11 -63 -11 -155q-12 -7 -42 -10.5t-57 -3.5q-1 144 -106 144q-75 0 -109 -68t-34 -173q0 -128 49 -205t149 -77q73 0 148 42q21 -18 28 -55q-35 -31 -87 -53t-117 -27l-27 -35q42 -7 65.5 -33.5z" glyph-name="Ccedilla" horiz-adv-x="634" unicode="Ç"/><glyph d="M590 198.5q28 -9.5 41 -21.5q-23 -69 -31 -179q-118 2 -261 2q-71 0 -161 -1t-148 -2q0 48 8 78q28 2 41.5 11t19 31.5t5.5 69.5v304q0 46 -5 67.5t-18.5 30t-43.5 12.5q-7 28 -7 78q93 -3 271 -3q186 0 270 3q1 -43 6.5 -94t14.5 -84q-47 -18 -101 -18q-11 60 -40 89 t-98 29h-49v-227h1q47 0 63.5 15.5t17.5 55.5q31 12 88 12q-4 -64 -4 -117q0 -61 4 -119q-57 0 -86 10q-4 41 -21 54.5t-62 13.5h-1v-107q0 -47 7 -72t23.5 -35t47.5 -10h17q51 0 80.5 31.5t49.5 104.5q33 -3 61 -12.5zM174 856q27 13 66 19.5t78 6.5q11 -29 30 -65.5 t39 -63.5q-49 -18 -102 -18q-61 73 -111 121z" glyph-name="Egrave" horiz-adv-x="646" unicode="È"/><glyph d="M590 198.5q28 -9.5 41 -21.5q-23 -69 -31 -179q-118 2 -261 2q-71 0 -161 -1t-148 -2q0 48 8 78q28 2 41.5 11t19 31.5t5.5 69.5v304q0 46 -5 67.5t-18.5 30t-43.5 12.5q-7 28 -7 78q93 -3 271 -3q186 0 270 3q1 -43 6.5 -94t14.5 -84q-47 -18 -101 -18q-11 60 -40 89 t-98 29h-49v-227h1q47 0 63.5 15.5t17.5 55.5q31 12 88 12q-4 -64 -4 -117q0 -61 4 -119q-57 0 -86 10q-4 41 -21 54.5t-62 13.5h-1v-107q0 -47 7 -72t23.5 -35t47.5 -10h17q51 0 80.5 31.5t49.5 104.5q33 -3 61 -12.5zM241 753q35 55 61 119q43 10 94 10q40 0 68 -6 q-66 -69 -121 -141q-53 0 -102 18z" glyph-name="Eacute" horiz-adv-x="646" unicode="É"/><glyph d="M590 198.5q28 -9.5 41 -21.5q-23 -69 -31 -179q-118 2 -261 2q-71 0 -161 -1t-148 -2q0 48 8 78q28 2 41.5 11t19 31.5t5.5 69.5v304q0 46 -5 67.5t-18.5 30t-43.5 12.5q-7 28 -7 78q93 -3 271 -3q186 0 270 3q1 -43 6.5 -94t14.5 -84q-47 -18 -101 -18q-11 60 -40 89 t-98 29h-49v-227h1q47 0 63.5 15.5t17.5 55.5q31 12 88 12q-4 -64 -4 -117q0 -61 4 -119q-57 0 -86 10q-4 41 -21 54.5t-62 13.5h-1v-107q0 -47 7 -72t23.5 -35t47.5 -10h17q51 0 80.5 31.5t49.5 104.5q33 -3 61 -12.5zM146 746.5q-18 15.5 -25 34.5q104 62 151 102 q34 11 90 11q53 -53 144 -113q-18 -22 -40 -36t-54 -20q-39 24 -116 57q-8 -4 -15.5 -7.5t-14.5 -6.5q-50 -22 -78 -40q-24 3 -42 18.5z" glyph-name="Ecircumflex" horiz-adv-x="646" unicode="Ê"/><glyph d="M590 198.5q28 -9.5 41 -21.5q-23 -69 -31 -179q-118 2 -261 2q-71 0 -161 -1t-148 -2q0 48 8 78q28 2 41.5 11t19 31.5t5.5 69.5v304q0 46 -5 67.5t-18.5 30t-43.5 12.5q-7 28 -7 78q93 -3 271 -3q186 0 270 3q1 -43 6.5 -94t14.5 -84q-47 -18 -101 -18q-11 60 -40 89 t-98 29h-49v-227h1q47 0 63.5 15.5t17.5 55.5q31 12 88 12q-4 -64 -4 -117q0 -61 4 -119q-57 0 -86 10q-4 41 -21 54.5t-62 13.5h-1v-107q0 -47 7 -72t23.5 -35t47.5 -10h17q51 0 80.5 31.5t49.5 104.5q33 -3 61 -12.5zM118 742q-27 23 -27 57q0 38 23.5 64t70.5 26 q49 0 73 -24t24 -64q0 -35 -27 -58.5t-67 -23.5q-43 0 -70 23zM370 743.5q-26 24.5 -26 65.5q0 38 26 59t70 21q42 0 69.5 -23t27.5 -57q0 -39 -22.5 -64.5t-69.5 -25.5q-49 0 -75 24.5z" glyph-name="Edieresis" horiz-adv-x="646" unicode="Ë"/><glyph d="M99.5 559q-4.5 21 -17.5 29.5t-43 12.5q-9 36 -9 78q50 -3 179 -3q109 0 169 3q0 -26 -1.5 -43.5t-7.5 -34.5q-29 -3 -42 -11.5t-18 -30t-5 -68.5v-304q0 -47 5.5 -69.5t19 -31.5t41.5 -11q8 -29 8 -78q-45 3 -159 3q-118 0 -189 -3q0 17 3 40t7 38q28 2 41 11t18 31 t5 70v304q0 47 -4.5 68zM64 856q27 13 66 19.5t78 6.5q11 -29 30 -65.5t39 -63.5q-49 -18 -102 -18q-61 73 -111 121z" glyph-name="Igrave" horiz-adv-x="408" unicode="Ì"/><glyph d="M99.5 559q-4.5 21 -17.5 29.5t-43 12.5q-9 36 -9 78q50 -3 179 -3q109 0 169 3q0 -26 -1.5 -43.5t-7.5 -34.5q-29 -3 -42 -11.5t-18 -30t-5 -68.5v-304q0 -47 5.5 -69.5t19 -31.5t41.5 -11q8 -29 8 -78q-45 3 -159 3q-118 0 -189 -3q0 17 3 40t7 38q28 2 41 11t18 31 t5 70v304q0 47 -4.5 68zM131 753q35 55 61 119q43 10 94 10q40 0 68 -6q-66 -69 -121 -141q-53 0 -102 18z" glyph-name="Iacute" horiz-adv-x="408" unicode="Í"/><glyph d="M61.5 727.5q-18.5 12.5 -30.5 32.5q23 18 61 51q54 47 69 58q20 6 46.5 10t44.5 4q47 -54 125 -125q-18 -20 -47 -34t-57 -17q-22 17 -75 45l-18 10q-44 -23 -74 -54q-26 7 -44.5 19.5zM99.5 559q-4.5 21 -17.5 29.5t-43 12.5q-9 36 -9 78q50 -3 179 -3q109 0 169 3 q0 -26 -1.5 -43.5t-7.5 -34.5q-29 -3 -42 -11.5t-18 -30t-5 -68.5v-304q0 -47 5.5 -69.5t19 -31.5t41.5 -11q8 -29 8 -78q-45 3 -159 3q-118 0 -189 -3q0 17 3 40t7 38q28 2 41 11t18 31t5 70v304q0 47 -4.5 68z" glyph-name="Icircumflex" horiz-adv-x="408" unicode="Î"/><glyph d="M25.5 732q-26.5 22 -26.5 54q0 36 23 60.5t69 24.5q48 0 71.5 -23t23.5 -61q0 -32 -26.5 -54.5t-65.5 -22.5q-42 0 -68.5 22zM244.5 733q-25.5 23 -25.5 62q0 36 25.5 56t68.5 20q41 0 68 -22t27 -54q0 -37 -22 -61t-68 -24q-48 0 -73.5 23zM99.5 559q-4.5 21 -17.5 29.5 t-43 12.5q-9 36 -9 78q50 -3 179 -3q109 0 169 3q0 -26 -1.5 -43.5t-7.5 -34.5q-29 -3 -42 -11.5t-18 -30t-5 -68.5v-304q0 -47 5.5 -69.5t19 -31.5t41.5 -11q8 -29 8 -78q-45 3 -159 3q-118 0 -189 -3q0 17 3 40t7 38q28 2 41 11t18 31t5 70v304q0 47 -4.5 68z" glyph-name="Idieresis" horiz-adv-x="408" unicode="Ï"/><glyph d="M532 652q78 -26 125 -97t47 -200q0 -147 -64.5 -226t-146 -104t-154.5 -25q-71 0 -161 -1t-148 -2q0 48 8 78q28 2 41.5 11t19 31.5t5.5 69.5v108l-71 -1q0 56 11 91h60v106q0 46 -5 67.5t-18.5 30t-43.5 12.5q-7 28 -7 78q71 -3 209 -3q26 0 41 1l64 1q110 0 188 -26z M462.5 128q39.5 53 39.5 209q0 266 -158 266q-22 0 -40 -8v-210h92q0 -55 -11 -89q-35 1 -81 1v-105q0 -47 7 -72t23.5 -35t47.5 -10q41 0 80.5 53z" glyph-name="Eth" horiz-adv-x="739" unicode="Ð"/><glyph d="M681 679q0 -20 -1 -40.5t-6 -37.5q-27 -4 -40 -15t-18 -39.5t-5 -88.5v-458q-19 -6 -39 -7.5t-52 -1.5l-341 462v-235q0 -59 6.5 -87.5t22.5 -40t50 -15.5q7 -26 7 -78q-42 3 -121 3q-93 0 -129 -3q0 53 8 78q33 4 49.5 16t24 41t7.5 86v336l-14 19q-8 14 -21.5 19.5 t-45.5 8.5q-8 29 -8 78q39 -3 133 -3q86 0 113 3l275 -379v158q0 59 -6.5 87t-23.5 40t-55 16q-7 27 -7 78q42 -3 131 -3q70 0 106 3zM364 742q-18 7 -40 21q-16 11 -28.5 16t-28.5 5q-42 0 -78 -47q-18 18 -27 35t-10 41q27 38 67 56.5t78 18.5q24 0 42 -6.5t44 -19.5 q19 -10 32 -15t27 -5q37 0 61 40q40 -8 65 -34q-27 -54 -68 -83.5t-92 -29.5q-26 0 -44 7z" glyph-name="Ntilde" horiz-adv-x="711" unicode="Ñ"/><glyph d="M196 34.5q-78 43.5 -119.5 123t-41.5 183.5q0 105 44 182.5t122 119.5t179 42q104 0 182 -41t121 -116t43 -174q0 -107 -42.5 -189.5t-121 -128t-182.5 -45.5q-106 0 -184 43.5zM487 140q34 71 34 193q0 77 -18.5 140t-53.5 100t-82 37q-61 0 -94 -63.5t-33 -181.5 q0 -129 38.5 -212.5t113.5 -83.5q61 0 95 71zM241 856q27 13 66 19.5t78 6.5q11 -29 30 -65.5t39 -63.5q-49 -18 -102 -18q-61 73 -111 121z" glyph-name="Ograve" horiz-adv-x="761" unicode="Ò"/><glyph d="M196 34.5q-78 43.5 -119.5 123t-41.5 183.5q0 105 44 182.5t122 119.5t179 42q104 0 182 -41t121 -116t43 -174q0 -107 -42.5 -189.5t-121 -128t-182.5 -45.5q-106 0 -184 43.5zM487 140q34 71 34 193q0 77 -18.5 140t-53.5 100t-82 37q-61 0 -94 -63.5t-33 -181.5 q0 -129 38.5 -212.5t113.5 -83.5q61 0 95 71zM308 753q35 55 61 119q43 10 94 10q40 0 68 -6q-66 -69 -121 -141q-53 0 -102 18z" glyph-name="Oacute" horiz-adv-x="761" unicode="Ó"/><glyph d="M196 34.5q-78 43.5 -119.5 123t-41.5 183.5q0 105 44 182.5t122 119.5t179 42q104 0 182 -41t121 -116t43 -174q0 -107 -42.5 -189.5t-121 -128t-182.5 -45.5q-106 0 -184 43.5zM487 140q34 71 34 193q0 77 -18.5 140t-53.5 100t-82 37q-61 0 -94 -63.5t-33 -181.5 q0 -129 38.5 -212.5t113.5 -83.5q61 0 95 71zM213 746.5q-18 15.5 -25 34.5q104 62 151 102q34 11 90 11q53 -53 144 -113q-18 -22 -40 -36t-54 -20q-39 24 -116 57q-8 -4 -15.5 -7.5t-14.5 -6.5q-50 -22 -78 -40q-24 3 -42 18.5z" glyph-name="Ocircumflex" horiz-adv-x="761" unicode="Ô"/><glyph d="M196 34.5q-78 43.5 -119.5 123t-41.5 183.5q0 105 44 182.5t122 119.5t179 42q104 0 182 -41t121 -116t43 -174q0 -107 -42.5 -189.5t-121 -128t-182.5 -45.5q-106 0 -184 43.5zM487 140q34 71 34 193q0 77 -18.5 140t-53.5 100t-82 37q-61 0 -94 -63.5t-33 -181.5 q0 -129 38.5 -212.5t113.5 -83.5q61 0 95 71zM385 742q-18 7 -40 21q-16 11 -28.5 16t-28.5 5q-42 0 -78 -47q-18 18 -27 35t-10 41q27 38 67 56.5t78 18.5q24 0 42 -6.5t44 -19.5q19 -10 32 -15t27 -5q37 0 61 40q40 -8 65 -34q-27 -54 -68 -83.5t-92 -29.5q-26 0 -44 7z" glyph-name="Otilde" horiz-adv-x="761" unicode="Õ"/><glyph d="M196 34.5q-78 43.5 -119.5 123t-41.5 183.5q0 105 44 182.5t122 119.5t179 42q104 0 182 -41t121 -116t43 -174q0 -107 -42.5 -189.5t-121 -128t-182.5 -45.5q-106 0 -184 43.5zM487 140q34 71 34 193q0 77 -18.5 140t-53.5 100t-82 37q-61 0 -94 -63.5t-33 -181.5 q0 -129 38.5 -212.5t113.5 -83.5q61 0 95 71zM185 742q-27 23 -27 57q0 38 23.5 64t70.5 26q49 0 73 -24t24 -64q0 -35 -27 -58.5t-67 -23.5q-43 0 -70 23zM437 743.5q-26 24.5 -26 65.5q0 38 26 59t70 21q42 0 69.5 -23t27.5 -57q0 -39 -22.5 -64.5t-69.5 -25.5 q-49 0 -75 24.5z" glyph-name="Odieresis" horiz-adv-x="761" unicode="Ö"/><glyph d="M328 260l187 -204q-13 -16 -36 -27t-45 -11q-69 79 -161 180q-68 -77 -154 -180q-25 -1 -51.5 7.5t-36.5 22.5l186 210q-100 109 -184 198q17 16 39.5 26.5t41.5 10.5l158 -173l154 174q26 0 55 -8t37 -18q-56 -58 -190 -208z" glyph-name="multiply" unicode="×"/><glyph d="M649 576q37 -43 57 -99t20 -123q0 -107 -42.5 -189.5t-121 -128t-182.5 -45.5q-100 0 -174 38l-46 -55q-33 0 -60.5 6t-43.5 16l74 88q-46 46 -70.5 111.5t-24.5 145.5q0 105 44 182.5t122 119.5t179 42q111 0 195 -48l51 63q30 0 59 -6.5t45 -17.5zM273 546.5 q-33 -63.5 -33 -181.5q0 -75 13 -133l228 295q-20 39 -49 61t-65 22q-61 0 -94 -63.5zM487 140q34 71 34 193q0 42 -6 81l-223 -286q38 -59 100 -59q61 0 95 71z" glyph-name="Oslash" horiz-adv-x="761" unicode="Ø"/><glyph d="M583 131.5q-13 -54.5 -47 -87.5q-57 -53 -177 -53q-100 0 -158 25.5t-82.5 79t-24.5 143.5v247q0 47 -5.5 69.5t-18.5 31.5t-42 14q-8 34 -8 78q41 -3 136 -3q160 0 208 3q0 -50 -6 -78q-29 -5 -41.5 -14t-17.5 -31t-5 -70v-230q0 -93 28 -138.5t84 -45.5q25 0 48 10.5 t38 32.5q14 21 21 60t7 112v180q0 50 -6 77t-20 39.5t-40 17.5q-6 41 -6 78q41 -3 112 -3q70 0 107 3q0 -49 -8 -78q-26 -4 -39.5 -15.5t-18.5 -36.5t-5 -73v-199q0 -91 -13 -145.5zM266 856q27 13 66 19.5t78 6.5q11 -29 30 -65.5t39 -63.5q-49 -18 -102 -18 q-61 73 -111 121z" glyph-name="Ugrave" horiz-adv-x="697" unicode="Ù"/><glyph d="M583 131.5q-13 -54.5 -47 -87.5q-57 -53 -177 -53q-100 0 -158 25.5t-82.5 79t-24.5 143.5v247q0 47 -5.5 69.5t-18.5 31.5t-42 14q-8 34 -8 78q41 -3 136 -3q160 0 208 3q0 -50 -6 -78q-29 -5 -41.5 -14t-17.5 -31t-5 -70v-230q0 -93 28 -138.5t84 -45.5q25 0 48 10.5 t38 32.5q14 21 21 60t7 112v180q0 50 -6 77t-20 39.5t-40 17.5q-6 41 -6 78q41 -3 112 -3q70 0 107 3q0 -49 -8 -78q-26 -4 -39.5 -15.5t-18.5 -36.5t-5 -73v-199q0 -91 -13 -145.5zM333 753q35 55 61 119q43 10 94 10q40 0 68 -6q-66 -69 -121 -141q-53 0 -102 18z" glyph-name="Uacute" horiz-adv-x="697" unicode="Ú"/><glyph d="M583 131.5q-13 -54.5 -47 -87.5q-57 -53 -177 -53q-100 0 -158 25.5t-82.5 79t-24.5 143.5v247q0 47 -5.5 69.5t-18.5 31.5t-42 14q-8 34 -8 78q41 -3 136 -3q160 0 208 3q0 -50 -6 -78q-29 -5 -41.5 -14t-17.5 -31t-5 -70v-230q0 -93 28 -138.5t84 -45.5q25 0 48 10.5 t38 32.5q14 21 21 60t7 112v180q0 50 -6 77t-20 39.5t-40 17.5q-6 41 -6 78q41 -3 112 -3q70 0 107 3q0 -49 -8 -78q-26 -4 -39.5 -15.5t-18.5 -36.5t-5 -73v-199q0 -91 -13 -145.5zM238 746.5q-18 15.5 -25 34.5q104 62 151 102q34 11 90 11q53 -53 144 -113 q-18 -22 -40 -36t-54 -20q-39 24 -116 57q-8 -4 -15.5 -7.5t-14.5 -6.5q-50 -22 -78 -40q-24 3 -42 18.5z" glyph-name="Ucircumflex" horiz-adv-x="697" unicode="Û"/><glyph d="M583 131.5q-13 -54.5 -47 -87.5q-57 -53 -177 -53q-100 0 -158 25.5t-82.5 79t-24.5 143.5v247q0 47 -5.5 69.5t-18.5 31.5t-42 14q-8 34 -8 78q41 -3 136 -3q160 0 208 3q0 -50 -6 -78q-29 -5 -41.5 -14t-17.5 -31t-5 -70v-230q0 -93 28 -138.5t84 -45.5q25 0 48 10.5 t38 32.5q14 21 21 60t7 112v180q0 50 -6 77t-20 39.5t-40 17.5q-6 41 -6 78q41 -3 112 -3q70 0 107 3q0 -49 -8 -78q-26 -4 -39.5 -15.5t-18.5 -36.5t-5 -73v-199q0 -91 -13 -145.5zM210 742q-27 23 -27 57q0 38 23.5 64t70.5 26q49 0 73 -24t24 -64q0 -35 -27 -58.5 t-67 -23.5q-43 0 -70 23zM462 743.5q-26 24.5 -26 65.5q0 38 26 59t70 21q42 0 69.5 -23t27.5 -57q0 -39 -22.5 -64.5t-69.5 -25.5q-49 0 -75 24.5z" glyph-name="Udieresis" horiz-adv-x="697" unicode="Ü"/><glyph d="M624 678q0 -43 -9 -77q-19 -4 -34 -21t-36 -63l-122 -269v-50q0 -52 7 -76t27.5 -34t64.5 -13q6 -20 8 -36t2 -42q-58 3 -214 3q-60 0 -160 -2l-53 -1q2 53 12 78q51 4 72 12.5t27.5 32t6.5 79.5v52l-139 291q-26 54 -66 59q-8 29 -8 77q48 -2 168 -2q127 0 168 2 q0 -38 -7 -77q-33 -4 -33 -32q0 -14 14 -51l11 -28q37 -91 59 -152q39 100 76 186q9 21 9 38q0 36 -38 39q-9 33 -9 77q36 -2 103 -2q61 0 93 2zM307 753q35 55 61 119q43 10 94 10q40 0 68 -6q-66 -69 -121 -141q-53 0 -102 18z" glyph-name="Yacute" horiz-adv-x="634" unicode="Ý"/><glyph d="M435 258q25 29 25 88q0 53 -27.5 86.5t-78.5 33.5q-32 0 -50 -8v-261q0 -65 23 -91.5t86 -30.5q9 -25 9 -78q-57 3 -193 3q-125 0 -199 -3q0 17 3 40t7 38q28 2 41 11t18 31t5 70v304q0 47 -4.5 68t-17.5 29.5t-43 12.5q-9 36 -9 78q50 -3 179 -3q109 0 169 3 q0 -26 -1.5 -43.5t-7.5 -34.5q-33 -4 -46 -15t-17 -42l121 1q116 0 169.5 -52t53.5 -134q0 -62 -29 -109.5t-82.5 -74t-125.5 -26.5q-45 0 -69 8q-2 18 -2 25q0 27 11 47q6 -1 12.5 -0.5t9.5 0.5q35 0 60 29z" glyph-name="Thorn" horiz-adv-x="685" unicode="Þ"/><glyph d="M69 364.5q-23 3.5 -42 3.5q0 26 2 43.5t10 36.5h65v29q0 120 71.5 180t206.5 60q84 0 139.5 -18t82 -47.5t26.5 -65.5q0 -40 -21 -62.5t-59 -46.5q-23 -14 -32.5 -22.5t-9.5 -19.5q0 -18 18 -31t56 -32q46 -22 76.5 -42.5t53 -55.5t22.5 -86q0 -64 -36 -108.5t-94 -66.5 t-123 -22q-109 0 -155 26q6 33 6 113q0 26 -1 35q16 6 45 9.5t51 3.5q6 -58 20.5 -82.5t46.5 -24.5q17 0 30 11.5t13 30.5q0 31 -22.5 52t-68.5 47q-38 23 -61.5 40.5t-40 44t-16.5 62.5q0 39 17 59.5t51 41.5q33 21 49.5 40.5t16.5 57.5q0 36 -27 61t-73 25q-26 0 -40 -9 t-21 -35.5t-7 -80.5v-520q-39 1 -110 1q-98 0 -154 -3q0 50 9 78q28 2 41.5 10t18.5 29t5 64v178q-12 5 -35 8.5z" glyph-name="germandbls" horiz-adv-x="764" unicode="ß"/><glyph d="M576 78q0 -30 -13 -53q-97 -2 -180 -34q-21 8 -29.5 22t-8.5 35q0 25 7 50q-21 -46 -49 -68q-46 -37 -125 -37q-72 0 -112.5 30t-40.5 87q0 59 42.5 95.5t107 54t153.5 29.5q0 31 -5 52.5t-18 35.5q-20 21 -51 21q-33 0 -49.5 -28.5t-22.5 -80.5q-40 0 -63.5 2.5 t-45.5 10.5q2 26 2 41q0 39 -9 88q44 17 105.5 27t120.5 10q129 0 180 -51q21 -21 33.5 -58t12.5 -103v-66q0 -38 4 -55t15.5 -23.5t36.5 -7.5q2 -9 2 -26zM328 225q-66 -13 -92 -32.5t-26 -49.5q0 -21 10.5 -31t26.5 -10q31 0 56 28.5t25 77.5v17zM182 614.5 q-28 33.5 -69 70.5q77 32 164 32q11 -37 30 -82.5t39 -83.5q-38 -18 -102 -18q-34 48 -62 81.5z" glyph-name="agrave" horiz-adv-x="589" unicode="à"/><glyph d="M576 78q0 -30 -13 -53q-97 -2 -180 -34q-21 8 -29.5 22t-8.5 35q0 25 7 50q-21 -46 -49 -68q-46 -37 -125 -37q-72 0 -112.5 30t-40.5 87q0 59 42.5 95.5t107 54t153.5 29.5q0 31 -5 52.5t-18 35.5q-20 21 -51 21q-33 0 -49.5 -28.5t-22.5 -80.5q-40 0 -63.5 2.5 t-45.5 10.5q2 26 2 41q0 39 -9 88q44 17 105.5 27t120.5 10q129 0 180 -51q21 -21 33.5 -58t12.5 -103v-66q0 -38 4 -55t15.5 -23.5t36.5 -7.5q2 -9 2 -26zM328 225q-66 -13 -92 -32.5t-26 -49.5q0 -21 10.5 -31t26.5 -10q31 0 56 28.5t25 77.5v17zM260.5 536 q-27.5 6 -43.5 14q24 46 38 81.5t23 74.5q38 13 102 13q40 0 64 -4q-84 -100 -130 -185q-26 0 -53.5 6z" glyph-name="aacute" horiz-adv-x="589" unicode="á"/><glyph d="M576 78q0 -30 -13 -53q-97 -2 -180 -34q-21 8 -29.5 22t-8.5 35q0 25 7 50q-21 -46 -49 -68q-46 -37 -125 -37q-72 0 -112.5 30t-40.5 87q0 59 42.5 95.5t107 54t153.5 29.5q0 31 -5 52.5t-18 35.5q-20 21 -51 21q-33 0 -49.5 -28.5t-22.5 -80.5q-40 0 -63.5 2.5 t-45.5 10.5q2 26 2 41q0 39 -9 88q44 17 105.5 27t120.5 10q129 0 180 -51q21 -21 33.5 -58t12.5 -103v-66q0 -38 4 -55t15.5 -23.5t36.5 -7.5q2 -9 2 -26zM328 225q-66 -13 -92 -32.5t-26 -49.5q0 -21 10.5 -31t26.5 -10q31 0 56 28.5t25 77.5v17zM95 537q-17 17 -23 35 q104 70 168 136q40 15 87 15q65 -78 160 -157q-17 -20 -38.5 -32.5t-51.5 -18.5q-64 47 -134 83q-28 -15 -66.5 -39.5t-62.5 -43.5q-22 5 -39 22z" glyph-name="acircumflex" horiz-adv-x="589" unicode="â"/><glyph d="M576 78q0 -30 -13 -53q-97 -2 -180 -34q-21 8 -29.5 22t-8.5 35q0 25 7 50q-21 -46 -49 -68q-46 -37 -125 -37q-72 0 -112.5 30t-40.5 87q0 59 42.5 95.5t107 54t153.5 29.5q0 31 -5 52.5t-18 35.5q-20 21 -51 21q-33 0 -49.5 -28.5t-22.5 -80.5q-40 0 -63.5 2.5 t-45.5 10.5q2 26 2 41q0 39 -9 88q44 17 105.5 27t120.5 10q129 0 180 -51q21 -21 33.5 -58t12.5 -103v-66q0 -38 4 -55t15.5 -23.5t36.5 -7.5q2 -9 2 -26zM328 225q-66 -13 -92 -32.5t-26 -49.5q0 -21 10.5 -31t26.5 -10q31 0 56 28.5t25 77.5v17zM290 544.5 q-18 7.5 -40 21.5q-19 13 -33.5 19t-32.5 6q-48 0 -90 -51q-17 16 -26 33t-10 40q72 84 149 84q24 0 41 -7t42 -21q20 -12 33 -17.5t29 -5.5q42 0 72 43q40 -6 64 -32q-35 -61 -72 -90.5t-83 -29.5q-25 0 -43 7.5z" glyph-name="atilde" horiz-adv-x="589" unicode="ã"/><glyph d="M576 78q0 -30 -13 -53q-97 -2 -180 -34q-21 8 -29.5 22t-8.5 35q0 25 7 50q-21 -46 -49 -68q-46 -37 -125 -37q-72 0 -112.5 30t-40.5 87q0 59 42.5 95.5t107 54t153.5 29.5q0 31 -5 52.5t-18 35.5q-20 21 -51 21q-33 0 -49.5 -28.5t-22.5 -80.5q-40 0 -63.5 2.5 t-45.5 10.5q2 26 2 41q0 39 -9 88q44 17 105.5 27t120.5 10q129 0 180 -51q21 -21 33.5 -58t12.5 -103v-66q0 -38 4 -55t15.5 -23.5t36.5 -7.5q2 -9 2 -26zM328 225q-66 -13 -92 -32.5t-26 -49.5q0 -21 10.5 -31t26.5 -10q31 0 56 28.5t25 77.5v17zM77 529q-27 23 -27 57 q0 38 23.5 64t70.5 26q49 0 73 -24t24 -64q0 -35 -27 -58.5t-67 -23.5q-43 0 -70 23zM329 530.5q-26 24.5 -26 65.5q0 38 26 59t70 21q42 0 69.5 -23t27.5 -57q0 -39 -22.5 -64.5t-69.5 -25.5q-49 0 -75 24.5z" glyph-name="adieresis" horiz-adv-x="589" unicode="ä"/><glyph d="M576 78q0 -30 -13 -53q-97 -2 -180 -34q-21 8 -29.5 22t-8.5 35q0 25 7 50q-21 -46 -49 -68q-46 -37 -125 -37q-72 0 -112.5 30t-40.5 87q0 59 42.5 95.5t107 54t153.5 29.5q0 31 -5 52.5t-18 35.5q-20 21 -51 21q-33 0 -49.5 -28.5t-22.5 -80.5q-40 0 -63.5 2.5 t-45.5 10.5q2 26 2 41q0 39 -9 88q44 17 105.5 27t120.5 10q129 0 180 -51q21 -21 33.5 -58t12.5 -103v-66q0 -38 4 -55t15.5 -23.5t36.5 -7.5q2 -9 2 -26zM328 225q-66 -13 -92 -32.5t-26 -49.5q0 -21 10.5 -31t26.5 -10q31 0 56 28.5t25 77.5v17zM173 543.5 q-37 27.5 -37 75.5q0 50 39.5 80t102.5 30q59 0 95.5 -25.5t36.5 -76.5q0 -50 -39.5 -80.5t-103.5 -30.5q-57 0 -94 27.5zM298 587.5q9 11.5 9 31.5q0 21 -9.5 38t-27.5 17q-14 0 -22 -13t-8 -36q0 -22 9.5 -35.5t26.5 -13.5q13 0 22 11.5z" glyph-name="aring" horiz-adv-x="589" unicode="å"/><glyph d="M702.5 87q8.5 -21 7.5 -41q-29 -24 -79.5 -38t-114.5 -14t-111 21.5t-76 58.5q-19 -35 -66 -57.5t-107 -22.5q-64 0 -97.5 30t-33.5 86q0 81 69 118.5t189 46.5v25q0 91 -51 91q-26 0 -38 -23.5t-18 -79.5q-30 0 -61 4t-51 14q2 22 2 40q0 51 -7 90q47 17 91 24t96 7 q48 0 81 -11.5t56 -36.5q27 24 65.5 36t76.5 12q75 0 118.5 -34.5t60.5 -82.5t17 -94q-14 -35 -38 -58q-119 0 -216 -4q5 -48 31.5 -77.5t74.5 -29.5q62 0 110 31q11 -10 19.5 -31zM466 276v-12q70 2 102 2q0 61 -12 93t-40 32q-50 0 -50 -115zM261.5 115q19.5 24 22.5 75 q-1 6 -1 16q-56 -6 -78.5 -21.5t-22.5 -46.5q0 -23 10.5 -35t27.5 -12q22 0 41.5 24z" glyph-name="ae" horiz-adv-x="752" unicode="æ"/><glyph d="M366.5 -76.5q23.5 -26.5 23.5 -61.5q0 -50 -45.5 -77t-130.5 -27q-9 18 -9 51q33 0 55.5 11.5t22.5 32.5q0 16 -16.5 26.5t-41.5 10.5q-18 21 -18 47l46 56q-107 9 -165 67.5t-58 166.5q0 62 28.5 117t86 89t138.5 34q59 0 101.5 -9.5t79.5 -29.5q-13 -53 -13 -132 q-38 -17 -105 -17q0 56 -15.5 86t-42.5 30q-34 0 -52.5 -43.5t-18.5 -110.5q0 -65 32 -111.5t97 -46.5q61 0 100 23q23 -25 23 -64q-22 -20 -59 -33t-82 -17l-27 -35q42 -7 65.5 -33.5z" glyph-name="ccedilla" horiz-adv-x="484" unicode="ç"/><glyph d="M501 94q8 -20 8 -42q-43 -30 -94.5 -45.5t-117.5 -15.5q-137 0 -202 63t-65 170q0 114 68.5 178.5t185.5 64.5q113 0 170.5 -58t59.5 -161q-9 -37 -33 -59q-152 0 -256 -6q24 -100 127 -100q36 0 72 10.5t58 27.5q11 -7 19 -27zM236.5 357.5q-17.5 -35.5 -18.5 -98.5h131 q0 134 -62 134q-33 0 -50.5 -35.5zM195 614.5q-28 33.5 -69 70.5q77 32 164 32q11 -37 30 -82.5t39 -83.5q-38 -18 -102 -18q-34 48 -62 81.5z" glyph-name="egrave" horiz-adv-x="545" unicode="è"/><glyph d="M501 94q8 -20 8 -42q-43 -30 -94.5 -45.5t-117.5 -15.5q-137 0 -202 63t-65 170q0 114 68.5 178.5t185.5 64.5q113 0 170.5 -58t59.5 -161q-9 -37 -33 -59q-152 0 -256 -6q24 -100 127 -100q36 0 72 10.5t58 27.5q11 -7 19 -27zM236.5 357.5q-17.5 -35.5 -18.5 -98.5h131 q0 134 -62 134q-33 0 -50.5 -35.5zM273.5 536q-27.5 6 -43.5 14q24 46 38 81.5t23 74.5q38 13 102 13q40 0 64 -4q-84 -100 -130 -185q-26 0 -53.5 6z" glyph-name="eacute" horiz-adv-x="545" unicode="é"/><glyph d="M501 94q8 -20 8 -42q-43 -30 -94.5 -45.5t-117.5 -15.5q-137 0 -202 63t-65 170q0 114 68.5 178.5t185.5 64.5q113 0 170.5 -58t59.5 -161q-9 -37 -33 -59q-152 0 -256 -6q24 -100 127 -100q36 0 72 10.5t58 27.5q11 -7 19 -27zM236.5 357.5q-17.5 -35.5 -18.5 -98.5h131 q0 134 -62 134q-33 0 -50.5 -35.5zM108 537q-17 17 -23 35q104 70 168 136q40 15 87 15q65 -78 160 -157q-17 -20 -38.5 -32.5t-51.5 -18.5q-64 47 -134 83q-28 -15 -66.5 -39.5t-62.5 -43.5q-22 5 -39 22z" glyph-name="ecircumflex" horiz-adv-x="545" unicode="ê"/><glyph d="M501 94q8 -20 8 -42q-43 -30 -94.5 -45.5t-117.5 -15.5q-137 0 -202 63t-65 170q0 114 68.5 178.5t185.5 64.5q113 0 170.5 -58t59.5 -161q-9 -37 -33 -59q-152 0 -256 -6q24 -100 127 -100q36 0 72 10.5t58 27.5q11 -7 19 -27zM236.5 357.5q-17.5 -35.5 -18.5 -98.5h131 q0 134 -62 134q-33 0 -50.5 -35.5zM90 529q-27 23 -27 57q0 38 23.5 64t70.5 26q49 0 73 -24t24 -64q0 -35 -27 -58.5t-67 -23.5q-43 0 -70 23zM342 530.5q-26 24.5 -26 65.5q0 38 26 59t70 21q42 0 69.5 -23t27.5 -57q0 -39 -22.5 -64.5t-69.5 -25.5q-49 0 -75 24.5z" glyph-name="edieresis" horiz-adv-x="545" unicode="ë"/><glyph d="M41 75q27 2 40.5 9.5t19 25t5.5 52.5v127q0 36 -15 51t-59 19q0 50 13 75q70 0 130 10t86 23q35 -16 35 -64v-241q0 -34 5.5 -52t19.5 -25.5t41 -9.5q8 -25 8 -78q-37 3 -169 3q-133 0 -169 -3q0 54 9 78zM101 614.5q-28 33.5 -69 70.5q77 32 164 32q11 -37 30 -82.5 t39 -83.5q-37 -18 -102 -18q-34 48 -62 81.5z" glyph-name="igrave" horiz-adv-x="400" unicode="ì"/><glyph d="M41 75q27 2 40.5 9.5t19 25t5.5 52.5v127q0 36 -15 51t-59 19q0 50 13 75q70 0 130 10t86 23q35 -16 35 -64v-241q0 -34 5.5 -52t19.5 -25.5t41 -9.5q8 -25 8 -78q-37 3 -169 3q-133 0 -169 -3q0 54 9 78zM179.5 536q-27.5 6 -43.5 14q24 46 38 81.5t23 74.5 q38 13 102 13q40 0 64 -4q-84 -100 -130 -185q-26 0 -53.5 6z" glyph-name="iacute" horiz-adv-x="400" unicode="í"/><glyph d="M19 570q15 14 73 77q38 42 57 61q19 6 45.5 9.5t45.5 3.5q48 -67 125 -158q-18 -18 -47 -31t-57 -16q-47 47 -93 78q-45 -40 -74 -79q-51 15 -75 55zM41 75q27 2 40.5 9.5t19 25t5.5 52.5v127q0 36 -15 51t-59 19q0 50 13 75q70 0 130 10t86 23q35 -16 35 -64v-241 q0 -34 5.5 -52t19.5 -25.5t41 -9.5q8 -25 8 -78q-37 3 -169 3q-133 0 -169 -3q0 54 9 78z" glyph-name="icircumflex" horiz-adv-x="400" unicode="î"/><glyph d="M11 529q-27 23 -27 57q0 38 23.5 64t70.5 26q49 0 73 -24t24 -64q0 -35 -27 -58.5t-67 -23.5q-43 0 -70 23zM233 530.5q-26 24.5 -26 65.5q0 38 26 59t70 21q42 0 69.5 -23t27.5 -57q0 -39 -22.5 -64.5t-69.5 -25.5q-49 0 -75 24.5zM41 75q27 2 40.5 9.5t19 25t5.5 52.5 v127q0 36 -15 51t-59 19q0 50 13 75q70 0 130 10t86 23q35 -16 35 -64v-241q0 -34 5.5 -52t19.5 -25.5t41 -9.5q8 -25 8 -78q-37 3 -169 3q-133 0 -169 -3q0 54 9 78z" glyph-name="idieresis" horiz-adv-x="400" unicode="ï"/><glyph d="M573 286q0 -148 -71 -221t-215 -73q-128 0 -192.5 56t-64.5 167q0 115 65 179t177 64q28 0 46.5 -4.5t35.5 -14.5q-18 47 -49 79q-66 -30 -113 -56q-10 16 -15.5 39.5t-4.5 41.5l64 28q-46 24 -101 38q0 50 13 75q35 0 77 9.5t79 23.5q60 -32 106 -71l94 41 q9 -16 13.5 -39t4.5 -43l-52 -18q103 -123 103 -301zM363 115.5q19 44.5 19 138.5q0 59 -8 110q-18 10 -38 15t-36 5q-41 0 -60 -35.5t-19 -112.5q0 -83 21 -124t61 -41q41 0 60 44.5z" glyph-name="eth" horiz-adv-x="603" unicode="ð"/><glyph d="M686 -3q-90 3 -139 3q-118 0 -163 -3q0 51 10 78q48 0 48 98v69q0 56 -14.5 79.5t-47.5 23.5q-37 0 -60.5 -43.5t-23.5 -111.5v-28q0 -50 11.5 -68.5t35.5 -18.5q7 -17 9 -34.5t2 -43.5q-45 3 -153 3q-124 0 -169 -3q0 52 10 78q38 0 51 18t13 69v108q0 36 -4.5 52.5 t-19 25t-47.5 11.5q0 50 13 75q70 0 129 10t85 23q34 -15 34 -64q0 -22 -12 -61q10 25 18.5 40t20.5 27q25 25 59.5 39t75.5 14q74 0 124 -40.5t50 -122.5v-137q0 -50 9 -68.5t34 -18.5q11 -27 11 -78zM380 544.5q-18 7.5 -40 21.5q-19 13 -33.5 19t-32.5 6q-48 0 -90 -51 q-17 16 -26 33t-10 40q72 84 149 84q24 0 41 -7t42 -21q20 -12 33 -17.5t29 -5.5q42 0 72 43q40 -6 64 -32q-35 -61 -72 -90.5t-83 -29.5q-25 0 -43 7.5z" glyph-name="ntilde" horiz-adv-x="716" unicode="ñ"/><glyph d="M98 51.5q-68 60.5 -68 168.5q0 82 36.5 137.5t99 82.5t141.5 27q133 0 202 -63t69 -167q0 -117 -74.5 -181.5t-205.5 -64.5q-132 0 -200 60.5zM369 106.5q19 38.5 19 97.5q0 62 -13.5 105t-35.5 64.5t-47 21.5q-35 0 -53.5 -38.5t-18.5 -98.5q0 -82 25 -136t72 -54 q33 0 52 38.5zM209 614.5q-28 33.5 -69 70.5q77 32 164 32q11 -37 30 -82.5t39 -83.5q-38 -18 -102 -18q-34 48 -62 81.5z" glyph-name="ograve" horiz-adv-x="608" unicode="ò"/><glyph d="M98 51.5q-68 60.5 -68 168.5q0 82 36.5 137.5t99 82.5t141.5 27q133 0 202 -63t69 -167q0 -117 -74.5 -181.5t-205.5 -64.5q-132 0 -200 60.5zM369 106.5q19 38.5 19 97.5q0 62 -13.5 105t-35.5 64.5t-47 21.5q-35 0 -53.5 -38.5t-18.5 -98.5q0 -82 25 -136t72 -54 q33 0 52 38.5zM287.5 536q-27.5 6 -43.5 14q24 46 38 81.5t23 74.5q38 13 102 13q40 0 64 -4q-84 -100 -130 -185q-26 0 -53.5 6z" glyph-name="oacute" horiz-adv-x="608" unicode="ó"/><glyph d="M98 51.5q-68 60.5 -68 168.5q0 82 36.5 137.5t99 82.5t141.5 27q133 0 202 -63t69 -167q0 -117 -74.5 -181.5t-205.5 -64.5q-132 0 -200 60.5zM369 106.5q19 38.5 19 97.5q0 62 -13.5 105t-35.5 64.5t-47 21.5q-35 0 -53.5 -38.5t-18.5 -98.5q0 -82 25 -136t72 -54 q33 0 52 38.5zM122 537q-17 17 -23 35q104 70 168 136q40 15 87 15q65 -78 160 -157q-17 -20 -38.5 -32.5t-51.5 -18.5q-64 47 -134 83q-28 -15 -66.5 -39.5t-62.5 -43.5q-22 5 -39 22z" glyph-name="ocircumflex" horiz-adv-x="608" unicode="ô"/><glyph d="M98 51.5q-68 60.5 -68 168.5q0 82 36.5 137.5t99 82.5t141.5 27q133 0 202 -63t69 -167q0 -117 -74.5 -181.5t-205.5 -64.5q-132 0 -200 60.5zM369 106.5q19 38.5 19 97.5q0 62 -13.5 105t-35.5 64.5t-47 21.5q-35 0 -53.5 -38.5t-18.5 -98.5q0 -82 25 -136t72 -54 q33 0 52 38.5zM317 544.5q-18 7.5 -40 21.5q-19 13 -33.5 19t-32.5 6q-48 0 -90 -51q-17 16 -26 33t-10 40q72 84 149 84q24 0 41 -7t42 -21q20 -12 33 -17.5t29 -5.5q42 0 72 43q40 -6 64 -32q-35 -61 -72 -90.5t-83 -29.5q-25 0 -43 7.5z" glyph-name="otilde" horiz-adv-x="608" unicode="õ"/><glyph d="M98 51.5q-68 60.5 -68 168.5q0 82 36.5 137.5t99 82.5t141.5 27q133 0 202 -63t69 -167q0 -117 -74.5 -181.5t-205.5 -64.5q-132 0 -200 60.5zM369 106.5q19 38.5 19 97.5q0 62 -13.5 105t-35.5 64.5t-47 21.5q-35 0 -53.5 -38.5t-18.5 -98.5q0 -82 25 -136t72 -54 q33 0 52 38.5zM104 529q-27 23 -27 57q0 38 23.5 64t70.5 26q49 0 73 -24t24 -64q0 -35 -27 -58.5t-67 -23.5q-43 0 -70 23zM356 530.5q-26 24.5 -26 65.5q0 38 26 59t70 21q42 0 69.5 -23t27.5 -57q0 -39 -22.5 -64.5t-69.5 -25.5q-49 0 -75 24.5z" glyph-name="odieresis" horiz-adv-x="608" unicode="ö"/><glyph d="M212.5 380.5q-22.5 21.5 -22.5 61.5t25.5 62t61.5 22q35 0 59 -20t24 -53q0 -40 -22 -67t-57 -27q-46 0 -68.5 21.5zM39 307h484q0 -54 -12 -86q-113 3 -226 3q-50 0 -150 -2q-68 -2 -108 -2q0 47 12 87zM216 21.5q-24 23.5 -24 58.5q0 37 20 60t62 23q43 0 64 -22 t21 -61q0 -37 -24 -59.5t-59 -22.5q-36 0 -60 23.5z" glyph-name="divide" unicode="÷"/><glyph d="M578 237q0 -117 -74.5 -181.5t-205.5 -64.5q-77 0 -135 22l-37 -44q-75 0 -105 15l67 77q-58 58 -58 159q0 82 36.5 137.5t99 82.5t141.5 27q75 0 133 -22l40 45q27 0 56.5 -6.5t44.5 -15.5l-64 -72q61 -60 61 -159zM238.5 356.5q-18.5 -38.5 -18.5 -98.5q0 -17 2 -47 l130 147q-25 37 -60 37t-53.5 -38.5zM369 106.5q19 38.5 19 97.5q0 28 -3 50l-131 -147q23 -39 63 -39q33 0 52 38.5z" glyph-name="oslash" horiz-adv-x="608" unicode="ø"/><glyph d="M640 78q0 -30 -13 -53q-97 -2 -180 -34q-21 8 -29.5 22t-8.5 35q0 22 7 50q-14 -41 -38 -62q-21 -19 -58.5 -31t-84.5 -12q-80 0 -119 43t-39 145v89q0 35 -4 52t-17 25.5t-41 11.5q0 50 13 75q69 0 123.5 10t81.5 23q34 -15 34 -64v-196q0 -64 10.5 -87.5t32.5 -23.5 q34 0 58 38.5t24 111.5v29q0 34 -5.5 52t-20.5 26t-45 11q0 50 13 75q73 0 131 8t83 20q34 -15 34 -64v-207q0 -41 4 -59.5t15.5 -25t36.5 -7.5q2 -9 2 -26zM241 614.5q-28 33.5 -69 70.5q77 32 164 32q11 -37 30 -82.5t39 -83.5q-38 -18 -102 -18q-34 48 -62 81.5z" glyph-name="ugrave" horiz-adv-x="653" unicode="ù"/><glyph d="M640 78q0 -30 -13 -53q-97 -2 -180 -34q-21 8 -29.5 22t-8.5 35q0 22 7 50q-14 -41 -38 -62q-21 -19 -58.5 -31t-84.5 -12q-80 0 -119 43t-39 145v89q0 35 -4 52t-17 25.5t-41 11.5q0 50 13 75q69 0 123.5 10t81.5 23q34 -15 34 -64v-196q0 -64 10.5 -87.5t32.5 -23.5 q34 0 58 38.5t24 111.5v29q0 34 -5.5 52t-20.5 26t-45 11q0 50 13 75q73 0 131 8t83 20q34 -15 34 -64v-207q0 -41 4 -59.5t15.5 -25t36.5 -7.5q2 -9 2 -26zM319.5 536q-27.5 6 -43.5 14q24 46 38 81.5t23 74.5q38 13 102 13q40 0 64 -4q-84 -100 -130 -185q-26 0 -53.5 6z" glyph-name="uacute" horiz-adv-x="653" unicode="ú"/><glyph d="M640 78q0 -30 -13 -53q-97 -2 -180 -34q-21 8 -29.5 22t-8.5 35q0 22 7 50q-14 -41 -38 -62q-21 -19 -58.5 -31t-84.5 -12q-80 0 -119 43t-39 145v89q0 35 -4 52t-17 25.5t-41 11.5q0 50 13 75q69 0 123.5 10t81.5 23q34 -15 34 -64v-196q0 -64 10.5 -87.5t32.5 -23.5 q34 0 58 38.5t24 111.5v29q0 34 -5.5 52t-20.5 26t-45 11q0 50 13 75q73 0 131 8t83 20q34 -15 34 -64v-207q0 -41 4 -59.5t15.5 -25t36.5 -7.5q2 -9 2 -26zM154 537q-17 17 -23 35q104 70 168 136q40 15 87 15q65 -78 160 -157q-17 -20 -38.5 -32.5t-51.5 -18.5 q-64 47 -134 83q-28 -15 -66.5 -39.5t-62.5 -43.5q-22 5 -39 22z" glyph-name="ucircumflex" horiz-adv-x="653" unicode="û"/><glyph d="M640 78q0 -30 -13 -53q-97 -2 -180 -34q-21 8 -29.5 22t-8.5 35q0 22 7 50q-14 -41 -38 -62q-21 -19 -58.5 -31t-84.5 -12q-80 0 -119 43t-39 145v89q0 35 -4 52t-17 25.5t-41 11.5q0 50 13 75q69 0 123.5 10t81.5 23q34 -15 34 -64v-196q0 -64 10.5 -87.5t32.5 -23.5 q34 0 58 38.5t24 111.5v29q0 34 -5.5 52t-20.5 26t-45 11q0 50 13 75q73 0 131 8t83 20q34 -15 34 -64v-207q0 -41 4 -59.5t15.5 -25t36.5 -7.5q2 -9 2 -26zM136 529q-27 23 -27 57q0 38 23.5 64t70.5 26q49 0 73 -24t24 -64q0 -35 -27 -58.5t-67 -23.5q-43 0 -70 23z M388 530.5q-26 24.5 -26 65.5q0 38 26 59t70 21q42 0 69.5 -23t27.5 -57q0 -39 -22.5 -64.5t-69.5 -25.5q-49 0 -75 24.5z" glyph-name="udieresis" horiz-adv-x="653" unicode="ü"/><glyph d="M569 462q0 -20 -3.5 -41.5t-9.5 -37.5q-23 -6 -36.5 -20t-29.5 -50l-147 -350q-37 -89 -68 -134.5t-60 -61.5t-67 -16q-33 0 -65.5 15.5t-48.5 38.5q-1 6 -1 23q0 49 14 85q20 -8 50.5 -13.5t65.5 -5.5q36 0 54.5 9t34.5 34l5 9q-79 188 -170 373q-17 35 -31.5 47.5 t-35.5 16.5q-10 29 -10 78q57 -3 153 -3q110 0 171 3q0 -20 -3.5 -43t-8.5 -35q-23 -4 -32.5 -9.5t-9.5 -16.5q0 -14 19 -50q31 -61 57 -131l48 122q15 36 15 54q0 14 -8.5 21t-26.5 10q-11 28 -11 78q47 -3 101 -3q55 0 95 4zM341.5 536q-27.5 6 -43.5 14q24 46 38 81.5 t23 74.5q38 13 102 13q40 0 64 -4q-84 -100 -130 -185q-26 0 -53.5 6z" glyph-name="yacute" horiz-adv-x="579" unicode="ý"/><glyph d="M284 -2v-43q0 -65 23 -91.5t86 -30.5q9 -25 9 -78q-57 3 -180 3q-133 0 -202 -3q0 51 7 78q29 2 42.5 11t19 31.5t5.5 69.5v594q0 36 -15 51t-59 19q0 50 13 75q70 0 130 10t86 23q35 -16 35 -64v-173q0 -50 -7 -86q13 18 33 34q21 16 55.5 27.5t72.5 11.5 q92 0 148.5 -50t56.5 -152q0 -82 -37 -144t-103.5 -96t-154.5 -34q-32 0 -64 7zM310 332.5q-26 -36.5 -26 -114.5v-122q14 -18 28.5 -26t34.5 -8q44 0 74.5 37.5t30.5 136.5q0 57 -17.5 95t-60.5 38q-38 0 -64 -36.5z" glyph-name="thorn" horiz-adv-x="673" unicode="þ"/><glyph d="M569 462q0 -20 -3.5 -41.5t-9.5 -37.5q-23 -6 -36.5 -20t-29.5 -50l-147 -350q-37 -89 -68 -134.5t-60 -61.5t-67 -16q-33 0 -65.5 15.5t-48.5 38.5q-1 6 -1 23q0 49 14 85q20 -8 50.5 -13.5t65.5 -5.5q36 0 54.5 9t34.5 34l5 9q-79 188 -170 373q-17 35 -31.5 47.5 t-35.5 16.5q-10 29 -10 78q57 -3 153 -3q110 0 171 3q0 -20 -3.5 -43t-8.5 -35q-23 -4 -32.5 -9.5t-9.5 -16.5q0 -14 19 -50q31 -61 57 -131l48 122q15 36 15 54q0 14 -8.5 21t-26.5 10q-11 28 -11 78q47 -3 101 -3q55 0 95 4zM158 529q-27 23 -27 57q0 38 23.5 64t70.5 26 q49 0 73 -24t24 -64q0 -35 -27 -58.5t-67 -23.5q-43 0 -70 23zM410 530.5q-26 24.5 -26 65.5q0 38 26 59t70 21q42 0 69.5 -23t27.5 -57q0 -39 -22.5 -64.5t-69.5 -25.5q-49 0 -75 24.5z" glyph-name="ydieresis" horiz-adv-x="579" unicode="ÿ"/><glyph d="M707 -3q-40 3 -157 3q-138 0 -176 -3q0 46 8 78q22 5 32 14t10 23t-11 39l-7 15q-131 0 -227 -10l-2 -4q-5 -13 -5 -26q0 -19 10.5 -33t32.5 -18q8 -34 8 -78q-34 3 -117 3q-66 0 -96 -3q0 47 10 78q24 5 39.5 24.5t40.5 76.5l212 500q18 4 36.5 5t39.5 1l222 -487 q24 -52 38 -76.5t24.5 -33t26.5 -10.5q8 -27 8 -78zM378 231l-38 85q-33 73 -51 138q-18 -65 -48 -138l-33 -85h170zM537 763q-224 0 -384 -13q0 50 9 78h384q0 -35 -9 -65z" glyph-name="Amacron" horiz-adv-x="717" unicode="Ā"/><glyph d="M576 78q0 -30 -13 -53q-97 -2 -180 -34q-21 8 -29.5 22t-8.5 35q0 25 7 50q-21 -46 -49 -68q-46 -37 -125 -37q-72 0 -112.5 30t-40.5 87q0 59 42.5 95.5t107 54t153.5 29.5q0 31 -5 52.5t-18 35.5q-20 21 -51 21q-33 0 -49.5 -28.5t-22.5 -80.5q-40 0 -63.5 2.5 t-45.5 10.5q2 26 2 41q0 39 -9 88q44 17 105.5 27t120.5 10q129 0 180 -51q21 -21 33.5 -58t12.5 -103v-66q0 -38 4 -55t15.5 -23.5t36.5 -7.5q2 -9 2 -26zM328 225q-66 -13 -92 -32.5t-26 -49.5q0 -21 10.5 -31t26.5 -10q31 0 56 28.5t25 77.5v17zM90 631h375q0 -32 -9 -58 q-203 0 -375 -10q0 44 9 68z" glyph-name="amacron" horiz-adv-x="589" unicode="ā"/><glyph d="M707 -3q-40 3 -157 3q-138 0 -176 -3q0 46 8 78q22 5 32 14t10 23t-11 39l-7 15q-131 0 -227 -10l-2 -4q-5 -13 -5 -26q0 -19 10.5 -33t32.5 -18q8 -34 8 -78q-34 3 -117 3q-66 0 -96 -3q0 47 10 78q24 5 39.5 24.5t40.5 76.5l212 500q18 4 36.5 5t39.5 1l222 -487 q24 -52 38 -76.5t24.5 -33t26.5 -10.5q8 -27 8 -78zM378 231l-38 85q-33 73 -51 138q-18 -65 -48 -138l-33 -85h170zM348 721q-180 0 -180 144q33 13 72 13q15 0 32 -3q9 -50 89 -50q38 0 59 12.5t22 37.5q22 4 34 4q28 0 56 -10q0 -148 -184 -148z" glyph-name="Abreve" horiz-adv-x="717" unicode="Ă"/><glyph d="M576 78q0 -30 -13 -53q-97 -2 -180 -34q-21 8 -29.5 22t-8.5 35q0 25 7 50q-21 -46 -49 -68q-46 -37 -125 -37q-72 0 -112.5 30t-40.5 87q0 59 42.5 95.5t107 54t153.5 29.5q0 31 -5 52.5t-18 35.5q-20 21 -51 21q-33 0 -49.5 -28.5t-22.5 -80.5q-40 0 -63.5 2.5 t-45.5 10.5q2 26 2 41q0 39 -9 88q44 17 105.5 27t120.5 10q129 0 180 -51q21 -21 33.5 -58t12.5 -103v-66q0 -38 4 -55t15.5 -23.5t36.5 -7.5q2 -9 2 -26zM328 225q-66 -13 -92 -32.5t-26 -49.5q0 -21 10.5 -31t26.5 -10q31 0 56 28.5t25 77.5v17zM427 565 q-53 -48 -156 -48q-101 0 -153 46.5t-52 137.5q33 14 77 14q9 0 29 -2q6 -36 35.5 -55.5t77.5 -19.5q47 0 74.5 19.5t29.5 55.5q17 3 32 3q31 0 59 -10q0 -93 -53 -141z" glyph-name="abreve" horiz-adv-x="589" unicode="ă"/><glyph d="M638 -124q7 -9 12.5 -31.5t5.5 -41.5q0 -9 -1 -13q-37 -5 -73 -15.5t-61 -22.5q-10 -1 -23 -1q-30 0 -60.5 12.5t-51.5 38t-21 62.5q0 91 128 136q-83 0 -119 -3q0 46 8 78q22 5 32 14t10 23t-11 39l-7 15q-131 0 -227 -10l-2 -4q-5 -13 -5 -26q0 -19 10.5 -33t32.5 -18 q8 -34 8 -78q-34 3 -117 3q-66 0 -96 -3q0 47 10 78q24 5 39.5 24.5t40.5 76.5l212 500q18 4 36.5 5t39.5 1l222 -487q24 -52 38 -76.5t24.5 -33t26.5 -10.5q8 -27 8 -78q-28 2 -53 2l-29 1q-51 -14 -74 -37t-23 -46q0 -22 20 -33t56 -11q19 0 34 3zM378 231l-38 85 q-33 73 -51 138q-18 -65 -48 -138l-33 -85h170z" glyph-name="Aogonek" horiz-adv-x="717" unicode="Ą"/><glyph d="M555 -124q7 -9 12.5 -31.5t5.5 -41.5q0 -9 -1 -13q-37 -5 -73 -15.5t-61 -22.5q-10 -1 -23 -1q-30 0 -61 13t-51.5 40.5t-20.5 69.5q0 33 19.5 63t76.5 56q-33 15 -33 55q0 25 7 50q-21 -46 -49 -68q-46 -37 -125 -37q-72 0 -112.5 30t-40.5 87q0 59 42.5 95.5t107 54 t153.5 29.5q0 31 -5 52.5t-18 35.5q-20 21 -51 21q-33 0 -49.5 -28.5t-22.5 -80.5q-40 0 -63.5 2.5t-45.5 10.5q2 26 2 41q0 39 -9 88q44 17 105.5 27t120.5 10q129 0 180 -51q21 -21 33.5 -58t12.5 -103v-66q0 -38 4 -55t15.5 -23.5t36.5 -7.5q2 -9 2 -26q0 -30 -13 -53 q-61 -10 -89.5 -40t-28.5 -62q0 -50 76 -50q19 0 34 3zM328 225q-66 -13 -92 -32.5t-26 -49.5q0 -21 10.5 -31t26.5 -10q31 0 56 28.5t25 77.5v17z" glyph-name="aogonek" horiz-adv-x="589" unicode="ą"/><glyph d="M199 35q-78 44 -121 123.5t-43 182.5q0 109 47.5 187t126 117.5t170.5 39.5q54 0 111 -13.5t109 -38.5q-11 -63 -11 -155q-12 -7 -42 -10.5t-57 -3.5q-1 144 -106 144q-75 0 -109 -68t-34 -173q0 -128 49 -205t149 -77q73 0 148 42q21 -18 28 -55q-40 -35 -100 -58 t-135 -23q-102 0 -180 44zM304 753q35 55 61 119q43 10 94 10q40 0 68 -6q-66 -69 -121 -141q-53 0 -102 18z" glyph-name="Cacute" horiz-adv-x="634" unicode="Ć"/><glyph d="M99.5 49.5q-69.5 58.5 -69.5 177.5q0 62 28.5 117t86 89t138.5 34q59 0 101.5 -9.5t79.5 -29.5q-13 -53 -13 -132q-38 -17 -105 -17q0 56 -15.5 86t-42.5 30q-34 0 -52.5 -43.5t-18.5 -110.5q0 -65 32 -111.5t97 -46.5q61 0 100 23q23 -25 23 -64q-26 -24 -72 -37.5 t-102 -13.5q-126 0 -195.5 58.5zM269.5 536q-27.5 6 -43.5 14q24 46 38 81.5t23 74.5q38 13 102 13q40 0 64 -4q-84 -100 -130 -185q-26 0 -53.5 6z" glyph-name="cacute" horiz-adv-x="484" unicode="ć"/><glyph d="M199 35q-78 44 -121 123.5t-43 182.5q0 109 47.5 187t126 117.5t170.5 39.5q54 0 111 -13.5t109 -38.5q-11 -63 -11 -155q-12 -7 -42 -10.5t-57 -3.5q-1 144 -106 144q-75 0 -109 -68t-34 -173q0 -128 49 -205t149 -77q73 0 148 42q21 -18 28 -55q-40 -35 -100 -58 t-135 -23q-102 0 -180 44zM209 746.5q-18 15.5 -25 34.5q104 62 151 102q34 11 90 11q53 -53 144 -113q-18 -22 -40 -36t-54 -20q-39 24 -116 57q-8 -4 -15.5 -7.5t-14.5 -6.5q-50 -22 -78 -40q-24 3 -42 18.5z" glyph-name="Ccircumflex" horiz-adv-x="634" unicode="Ĉ"/><glyph d="M99.5 49.5q-69.5 58.5 -69.5 177.5q0 62 28.5 117t86 89t138.5 34q59 0 101.5 -9.5t79.5 -29.5q-13 -53 -13 -132q-38 -17 -105 -17q0 56 -15.5 86t-42.5 30q-34 0 -52.5 -43.5t-18.5 -110.5q0 -65 32 -111.5t97 -46.5q61 0 100 23q23 -25 23 -64q-26 -24 -72 -37.5 t-102 -13.5q-126 0 -195.5 58.5zM104 537q-17 17 -23 35q104 70 168 136q40 15 87 15q65 -78 160 -157q-17 -20 -38.5 -32.5t-51.5 -18.5q-64 47 -134 83q-28 -15 -66.5 -39.5t-62.5 -43.5q-22 5 -39 22z" glyph-name="ccircumflex" horiz-adv-x="484" unicode="ĉ"/><glyph d="M199 35q-78 44 -121 123.5t-43 182.5q0 109 47.5 187t126 117.5t170.5 39.5q54 0 111 -13.5t109 -38.5q-11 -63 -11 -155q-12 -7 -42 -10.5t-57 -3.5q-1 144 -106 144q-75 0 -109 -68t-34 -173q0 -128 49 -205t149 -77q73 0 148 42q21 -18 28 -55q-40 -35 -100 -58 t-135 -23q-102 0 -180 44zM295.5 736q-27.5 22 -27.5 59q0 43 30 66t79 23q53 0 80.5 -22t27.5 -65q0 -37 -31 -60t-84 -23q-47 0 -74.5 22z" glyph-name="Cdotaccent" horiz-adv-x="634" unicode="Ċ"/><glyph d="M99.5 49.5q-69.5 58.5 -69.5 177.5q0 62 28.5 117t86 89t138.5 34q59 0 101.5 -9.5t79.5 -29.5q-13 -53 -13 -132q-38 -17 -105 -17q0 56 -15.5 86t-42.5 30q-34 0 -52.5 -43.5t-18.5 -110.5q0 -65 32 -111.5t97 -46.5q61 0 100 23q23 -25 23 -64q-26 -24 -72 -37.5 t-102 -13.5q-126 0 -195.5 58.5zM200.5 536q-27.5 22 -27.5 59q0 43 30 66t79 23q53 0 80.5 -22t27.5 -65q0 -37 -31 -60t-84 -23q-47 0 -74.5 22z" glyph-name="cdotaccent" horiz-adv-x="484" unicode="ċ"/><glyph d="M199 35q-78 44 -121 123.5t-43 182.5q0 109 47.5 187t126 117.5t170.5 39.5q54 0 111 -13.5t109 -38.5q-11 -63 -11 -155q-12 -7 -42 -10.5t-57 -3.5q-1 144 -106 144q-75 0 -109 -68t-34 -173q0 -128 49 -205t149 -77q73 0 148 42q21 -18 28 -55q-40 -35 -100 -58 t-135 -23q-102 0 -180 44zM169 838q18 22 40 36t54 20q38 -24 116 -57q8 4 15.5 7.5t14.5 6.5q50 22 78 40q24 -3 42 -18.5t25 -34.5q-104 -62 -151 -102q-34 -11 -90 -11q-53 53 -144 113z" glyph-name="Ccaron" horiz-adv-x="634" unicode="Č"/><glyph d="M99.5 49.5q-69.5 58.5 -69.5 177.5q0 62 28.5 117t86 89t138.5 34q59 0 101.5 -9.5t79.5 -29.5q-13 -53 -13 -132q-38 -17 -105 -17q0 56 -15.5 86t-42.5 30q-34 0 -52.5 -43.5t-18.5 -110.5q0 -65 32 -111.5t97 -46.5q61 0 100 23q23 -25 23 -64q-26 -24 -72 -37.5 t-102 -13.5q-126 0 -195.5 58.5zM83 666q7 20 25 33.5t47 23.5q62 -47 133 -79q32 13 68 35t62 44q22 -5 39 -22t23 -35q-97 -73 -156 -139q-35 -13 -90 -11q-62 70 -151 150z" glyph-name="ccaron" horiz-adv-x="484" unicode="č"/><glyph d="M532 652q78 -26 125 -97t47 -200q0 -147 -64.5 -226t-146 -104t-154.5 -25q-71 0 -161 -1t-148 -2q0 48 8 78q28 2 41.5 11t19 31.5t5.5 69.5v304q0 46 -5 67.5t-18.5 30t-43.5 12.5q-7 28 -7 78q71 -3 209 -3q26 0 41 1l64 1q110 0 188 -26zM462.5 128q39.5 53 39.5 209 q0 266 -158 266q-22 0 -40 -8v-403q0 -47 7 -72t23.5 -35t47.5 -10q41 0 80.5 53zM142 838q18 22 40 36t54 20q38 -24 116 -57q8 4 15.5 7.5t14.5 6.5q50 22 78 40q24 -3 42 -18.5t25 -34.5q-104 -62 -151 -102q-34 -11 -90 -11q-53 53 -144 113z" glyph-name="Dcaron" horiz-adv-x="739" unicode="Ď"/><glyph d="M794 701.5q12 -21.5 12 -71.5q0 -58 -27.5 -116.5t-76.5 -102.5q-45 0 -76 20q31 31 43 55.5t12 51.5q0 21 -17 31.5t-54 14.5q0 36 3 59.5t13 55.5q83 3 126 32q30 -8 42 -29.5zM583 136.5q4 -18.5 15.5 -25t36.5 -7.5q2 -9 2 -26q0 -30 -13 -53q-97 -2 -180 -34 q-21 8 -29.5 22t-8.5 35q0 11 4 37q-23 -37 -47 -55q-21 -16 -55.5 -27.5t-72.5 -11.5q-92 0 -148.5 50t-56.5 152q0 82 37 144t103.5 96t154.5 34q32 0 64 -7v79q0 36 -15 51t-59 19q0 50 13 75q70 0 130 10t86 23q35 -16 35 -64v-457q0 -41 4 -59.5zM363 125.5 q26 36.5 26 114.5v122q-14 18 -28.5 26t-34.5 8q-44 0 -74.5 -37.5t-30.5 -136.5q0 -57 17.5 -95t60.5 -38q38 0 64 36.5z" glyph-name="dcaron" horiz-adv-x="826" unicode="ď"/><glyph d="M532 652q78 -26 125 -97t47 -200q0 -147 -64.5 -226t-146 -104t-154.5 -25q-71 0 -161 -1t-148 -2q0 48 8 78q28 2 41.5 11t19 31.5t5.5 69.5v108l-71 -1q0 56 11 91h60v106q0 46 -5 67.5t-18.5 30t-43.5 12.5q-7 28 -7 78q71 -3 209 -3q26 0 41 1l64 1q110 0 188 -26z M462.5 128q39.5 53 39.5 209q0 266 -158 266q-22 0 -40 -8v-210h92q0 -55 -11 -89q-35 1 -81 1v-105q0 -47 7 -72t23.5 -35t47.5 -10q41 0 80.5 53z" glyph-name="Dcroat" horiz-adv-x="739" unicode="Đ"/><glyph d="M579 503v-307q0 -41 4 -59.5t15.5 -25t36.5 -7.5q2 -9 2 -26q0 -30 -13 -53q-97 -2 -180 -34q-21 8 -29.5 22t-8.5 35q0 11 4 37q-23 -37 -47 -55q-21 -16 -55.5 -27.5t-72.5 -11.5q-92 0 -148.5 50t-56.5 152q0 82 37 144t103.5 96t154.5 34q32 0 64 -7v40 q-58 -2 -92 -4q0 41 9 65h81q-3 23 -19 33.5t-53 14.5q0 50 13 75q70 0 130 10t86 23q35 -16 35 -64v-92h92q0 -32 -9 -58h-83zM363 125.5q26 36.5 26 114.5v122q-14 18 -28.5 26t-34.5 8q-44 0 -74.5 -37.5t-30.5 -136.5q0 -57 17.5 -95t60.5 -38q38 0 64 36.5z" glyph-name="dcroat" horiz-adv-x="650" unicode="đ"/><glyph d="M590 198.5q28 -9.5 41 -21.5q-23 -69 -31 -179q-118 2 -261 2q-71 0 -161 -1t-148 -2q0 48 8 78q28 2 41.5 11t19 31.5t5.5 69.5v304q0 46 -5 67.5t-18.5 30t-43.5 12.5q-7 28 -7 78q93 -3 271 -3q186 0 270 3q1 -43 6.5 -94t14.5 -84q-47 -18 -101 -18q-11 60 -40 89 t-98 29h-49v-227h1q47 0 63.5 15.5t17.5 55.5q31 12 88 12q-4 -64 -4 -117q0 -61 4 -119q-57 0 -86 10q-4 41 -21 54.5t-62 13.5h-1v-107q0 -47 7 -72t23.5 -35t47.5 -10h17q51 0 80.5 31.5t49.5 104.5q33 -3 61 -12.5zM501 763q-224 0 -384 -13q0 50 9 78h384q0 -35 -9 -65 z" glyph-name="Emacron" horiz-adv-x="646" unicode="Ē"/><glyph d="M501 94q8 -20 8 -42q-43 -30 -94.5 -45.5t-117.5 -15.5q-137 0 -202 63t-65 170q0 114 68.5 178.5t185.5 64.5q113 0 170.5 -58t59.5 -161q-9 -37 -33 -59q-152 0 -256 -6q24 -100 127 -100q36 0 72 10.5t58 27.5q11 -7 19 -27zM236.5 357.5q-17.5 -35.5 -18.5 -98.5h131 q0 134 -62 134q-33 0 -50.5 -35.5zM103 631h375q0 -32 -9 -58q-203 0 -375 -10q0 44 9 68z" glyph-name="emacron" horiz-adv-x="545" unicode="ē"/><glyph d="M590 198.5q28 -9.5 41 -21.5q-23 -69 -31 -179q-118 2 -261 2q-71 0 -161 -1t-148 -2q0 48 8 78q28 2 41.5 11t19 31.5t5.5 69.5v304q0 46 -5 67.5t-18.5 30t-43.5 12.5q-7 28 -7 78q93 -3 271 -3q186 0 270 3q1 -43 6.5 -94t14.5 -84q-47 -18 -101 -18q-11 60 -40 89 t-98 29h-49v-227h1q47 0 63.5 15.5t17.5 55.5q31 12 88 12q-4 -64 -4 -117q0 -61 4 -119q-57 0 -86 10q-4 41 -21 54.5t-62 13.5h-1v-107q0 -47 7 -72t23.5 -35t47.5 -10h17q51 0 80.5 31.5t49.5 104.5q33 -3 61 -12.5zM312 721q-180 0 -180 144q33 13 72 13q15 0 32 -3 q9 -50 89 -50q38 0 59 12.5t22 37.5q22 4 34 4q28 0 56 -10q0 -148 -184 -148z" glyph-name="Ebreve" horiz-adv-x="646" unicode="Ĕ"/><glyph d="M501 94q8 -20 8 -42q-43 -30 -94.5 -45.5t-117.5 -15.5q-137 0 -202 63t-65 170q0 114 68.5 178.5t185.5 64.5q113 0 170.5 -58t59.5 -161q-9 -37 -33 -59q-152 0 -256 -6q24 -100 127 -100q36 0 72 10.5t58 27.5q11 -7 19 -27zM236.5 357.5q-17.5 -35.5 -18.5 -98.5h131 q0 134 -62 134q-33 0 -50.5 -35.5zM440 565q-53 -48 -156 -48q-101 0 -153 46.5t-52 137.5q33 14 77 14q9 0 29 -2q6 -36 35.5 -55.5t77.5 -19.5q47 0 74.5 19.5t29.5 55.5q17 3 32 3q31 0 59 -10q0 -93 -53 -141z" glyph-name="ebreve" horiz-adv-x="545" unicode="ĕ"/><glyph d="M590 198.5q28 -9.5 41 -21.5q-23 -69 -31 -179q-118 2 -261 2q-71 0 -161 -1t-148 -2q0 48 8 78q28 2 41.5 11t19 31.5t5.5 69.5v304q0 46 -5 67.5t-18.5 30t-43.5 12.5q-7 28 -7 78q93 -3 271 -3q186 0 270 3q1 -43 6.5 -94t14.5 -84q-47 -18 -101 -18q-11 60 -40 89 t-98 29h-49v-227h1q47 0 63.5 15.5t17.5 55.5q31 12 88 12q-4 -64 -4 -117q0 -61 4 -119q-57 0 -86 10q-4 41 -21 54.5t-62 13.5h-1v-107q0 -47 7 -72t23.5 -35t47.5 -10h17q51 0 80.5 31.5t49.5 104.5q33 -3 61 -12.5zM232.5 736q-27.5 22 -27.5 59q0 43 30 66t79 23 q53 0 80.5 -22t27.5 -65q0 -37 -31 -60t-84 -23q-47 0 -74.5 22z" glyph-name="Edotaccent" horiz-adv-x="646" unicode="Ė"/><glyph d="M501 94q8 -20 8 -42q-43 -30 -94.5 -45.5t-117.5 -15.5q-137 0 -202 63t-65 170q0 114 68.5 178.5t185.5 64.5q113 0 170.5 -58t59.5 -161q-9 -37 -33 -59q-152 0 -256 -6q24 -100 127 -100q36 0 72 10.5t58 27.5q11 -7 19 -27zM236.5 357.5q-17.5 -35.5 -18.5 -98.5h131 q0 134 -62 134q-33 0 -50.5 -35.5zM204.5 536q-27.5 22 -27.5 59q0 43 30 66t79 23q53 0 80.5 -22t27.5 -65q0 -37 -31 -60t-84 -23q-47 0 -74.5 22z" glyph-name="edotaccent" horiz-adv-x="545" unicode="ė"/><glyph d="M474 -38q-22 -23 -22 -45t20 -33t56 -11q19 0 34 3q7 -9 12.5 -31.5t5.5 -41.5q0 -9 -1 -13q-37 -5 -73 -15.5t-61 -22.5q-10 -1 -23 -1q-30 0 -60.5 12.5t-51.5 38t-21 62.5q0 91 127 136h-77q-71 0 -161 -1t-148 -2q0 48 8 78q28 2 41.5 11t19 31.5t5.5 69.5v304 q0 46 -5 67.5t-18.5 30t-43.5 12.5q-7 28 -7 78q93 -3 271 -3q186 0 270 3q1 -43 6.5 -94t14.5 -84q-47 -18 -101 -18q-11 60 -40 89t-98 29h-49v-227h1q47 0 63.5 15.5t17.5 55.5q31 12 88 12q-4 -64 -4 -117q0 -61 4 -119q-57 0 -86 10q-4 41 -21 54.5t-62 13.5h-1v-107 q0 -47 7 -72t23.5 -35t47.5 -10h17q51 0 80.5 31.5t49.5 104.5q33 -3 61 -12.5t41 -21.5q-23 -69 -31 -179l-55 1q-49 -14 -71 -37z" glyph-name="Eogonek" horiz-adv-x="646" unicode="Ę"/><glyph d="M378 -76q0 -51 76 -51q19 0 34 3q7 -9 12.5 -31.5t5.5 -41.5q0 -9 -1 -13q-37 -5 -73 -15.5t-61 -22.5q-10 -1 -23 -1q-30 0 -61 13t-51.5 40.5t-20.5 69.5q0 31 22.5 60t86.5 58q-9 -1 -27 -1q-137 0 -202 63t-65 170q0 114 68.5 178.5t185.5 64.5q113 0 170.5 -58 t59.5 -161q-9 -37 -33 -59q-152 0 -256 -6q24 -100 127 -100q36 0 72 10.5t58 27.5q11 -7 19 -27t8 -42q-28 -18 -43 -25q-88 -50 -88 -103zM236.5 357.5q-17.5 -35.5 -18.5 -98.5h131q0 134 -62 134q-33 0 -50.5 -35.5z" glyph-name="eogonek" horiz-adv-x="545" unicode="ę"/><glyph d="M590 198.5q28 -9.5 41 -21.5q-23 -69 -31 -179q-118 2 -261 2q-71 0 -161 -1t-148 -2q0 48 8 78q28 2 41.5 11t19 31.5t5.5 69.5v304q0 46 -5 67.5t-18.5 30t-43.5 12.5q-7 28 -7 78q93 -3 271 -3q186 0 270 3q1 -43 6.5 -94t14.5 -84q-47 -18 -101 -18q-11 60 -40 89 t-98 29h-49v-227h1q47 0 63.5 15.5t17.5 55.5q31 12 88 12q-4 -64 -4 -117q0 -61 4 -119q-57 0 -86 10q-4 41 -21 54.5t-62 13.5h-1v-107q0 -47 7 -72t23.5 -35t47.5 -10h17q51 0 80.5 31.5t49.5 104.5q33 -3 61 -12.5zM106 838q18 22 40 36t54 20q38 -24 116 -57 q8 4 15.5 7.5t14.5 6.5q50 22 78 40q24 -3 42 -18.5t25 -34.5q-104 -62 -151 -102q-34 -11 -90 -11q-53 53 -144 113z" glyph-name="Ecaron" horiz-adv-x="646" unicode="Ě"/><glyph d="M501 94q8 -20 8 -42q-43 -30 -94.5 -45.5t-117.5 -15.5q-137 0 -202 63t-65 170q0 114 68.5 178.5t185.5 64.5q113 0 170.5 -58t59.5 -161q-9 -37 -33 -59q-152 0 -256 -6q24 -100 127 -100q36 0 72 10.5t58 27.5q11 -7 19 -27zM236.5 357.5q-17.5 -35.5 -18.5 -98.5h131 q0 134 -62 134q-33 0 -50.5 -35.5zM87 666q7 20 25 33.5t47 23.5q62 -47 133 -79q32 13 68 35t62 44q22 -5 39 -22t23 -35q-97 -73 -156 -139q-35 -13 -90 -11q-62 70 -151 150z" glyph-name="ecaron" horiz-adv-x="545" unicode="ě"/><glyph d="M199.5 32.5q-79.5 41.5 -122 120.5t-42.5 190q0 108 43 184.5t123.5 117t191.5 40.5q62 0 124 -15t111 -37q-11 -63 -11 -155q-19 -9 -42.5 -11.5t-56.5 -2.5q-4 76 -36.5 109.5t-93.5 33.5q-76 0 -112.5 -69t-36.5 -171q0 -86 20 -153.5t57 -105t86 -37.5q24 0 35 4 q16 6 24 21t8 51v34q0 30 -5.5 45.5t-20.5 21.5t-45 8q-7 29 -7 77q40 -3 139 -3q102 0 144 2q0 -47 -6 -76q-25 -2 -31.5 -13t-6.5 -46v-24q0 -38 3.5 -58t13.5 -46q-49 -35 -116.5 -56.5t-141.5 -21.5q-110 0 -189.5 41.5zM219 746.5q-18 15.5 -25 34.5q104 62 151 102 q34 11 90 11q53 -53 144 -113q-18 -22 -40 -36t-54 -20q-39 24 -116 57q-8 -4 -15.5 -7.5t-14.5 -6.5q-50 -22 -78 -40q-24 3 -42 18.5z" glyph-name="Gcircumflex" horiz-adv-x="699" unicode="Ĝ"/><glyph d="M462.5 83.5q41.5 -9.5 67.5 -37.5t26 -81q0 -65 -39.5 -113t-114 -74.5t-175.5 -26.5q-207 0 -207 113q0 34 18 59.5t53 38.5q-39 31 -39 87q0 41 18 68.5t48 49.5q-85 39 -85 136q0 81 58.5 122.5t165.5 41.5q51 0 92 -9h207q13 -30 13 -90q-50 20 -91 21q39 -43 39 -99 q0 -67 -63 -108t-185 -41q-33 0 -63 3q-13 -9 -13 -20q0 -19 29 -24t95 -6h44q60 -1 101.5 -10.5zM220 317q0 -52 16.5 -79t46.5 -27q53 0 53 89q0 52 -16.5 79t-46.5 27q-53 0 -53 -89zM360 -154q34 17 34 46q0 11 -7 16.5t-24.5 7.5t-54.5 3q-91 2 -133 10q-6 -9 -8.5 -16 t-2.5 -16q0 -36 23 -52t78 -16q61 0 95 17zM94 537q-17 17 -23 35q104 70 168 136q40 15 87 15q65 -78 160 -157q-17 -20 -38.5 -32.5t-51.5 -18.5q-64 47 -134 83q-28 -15 -66.5 -39.5t-62.5 -43.5q-22 5 -39 22z" glyph-name="gcircumflex" horiz-adv-x="584" unicode="ĝ"/><glyph d="M199.5 32.5q-79.5 41.5 -122 120.5t-42.5 190q0 108 43 184.5t123.5 117t191.5 40.5q62 0 124 -15t111 -37q-11 -63 -11 -155q-19 -9 -42.5 -11.5t-56.5 -2.5q-4 76 -36.5 109.5t-93.5 33.5q-76 0 -112.5 -69t-36.5 -171q0 -86 20 -153.5t57 -105t86 -37.5q24 0 35 4 q16 6 24 21t8 51v34q0 30 -5.5 45.5t-20.5 21.5t-45 8q-7 29 -7 77q40 -3 139 -3q102 0 144 2q0 -47 -6 -76q-25 -2 -31.5 -13t-6.5 -46v-24q0 -38 3.5 -58t13.5 -46q-49 -35 -116.5 -56.5t-141.5 -21.5q-110 0 -189.5 41.5zM385 721q-180 0 -180 144q33 13 72 13 q15 0 32 -3q9 -50 89 -50q38 0 59 12.5t22 37.5q22 4 34 4q28 0 56 -10q0 -148 -184 -148z" glyph-name="Gbreve" horiz-adv-x="699" unicode="Ğ"/><glyph d="M462.5 83.5q41.5 -9.5 67.5 -37.5t26 -81q0 -65 -39.5 -113t-114 -74.5t-175.5 -26.5q-207 0 -207 113q0 34 18 59.5t53 38.5q-39 31 -39 87q0 41 18 68.5t48 49.5q-85 39 -85 136q0 81 58.5 122.5t165.5 41.5q51 0 92 -9h207q13 -30 13 -90q-50 20 -91 21q39 -43 39 -99 q0 -67 -63 -108t-185 -41q-33 0 -63 3q-13 -9 -13 -20q0 -19 29 -24t95 -6h44q60 -1 101.5 -10.5zM220 317q0 -52 16.5 -79t46.5 -27q53 0 53 89q0 52 -16.5 79t-46.5 27q-53 0 -53 -89zM360 -154q34 17 34 46q0 11 -7 16.5t-24.5 7.5t-54.5 3q-91 2 -133 10q-6 -9 -8.5 -16 t-2.5 -16q0 -36 23 -52t78 -16q61 0 95 17zM426 565q-53 -48 -156 -48q-101 0 -153 46.5t-52 137.5q33 14 77 14q9 0 29 -2q6 -36 35.5 -55.5t77.5 -19.5q47 0 74.5 19.5t29.5 55.5q17 3 32 3q31 0 59 -10q0 -93 -53 -141z" glyph-name="gbreve" horiz-adv-x="584" unicode="ğ"/><glyph d="M199.5 32.5q-79.5 41.5 -122 120.5t-42.5 190q0 108 43 184.5t123.5 117t191.5 40.5q62 0 124 -15t111 -37q-11 -63 -11 -155q-19 -9 -42.5 -11.5t-56.5 -2.5q-4 76 -36.5 109.5t-93.5 33.5q-76 0 -112.5 -69t-36.5 -171q0 -86 20 -153.5t57 -105t86 -37.5q24 0 35 4 q16 6 24 21t8 51v34q0 30 -5.5 45.5t-20.5 21.5t-45 8q-7 29 -7 77q40 -3 139 -3q102 0 144 2q0 -47 -6 -76q-25 -2 -31.5 -13t-6.5 -46v-24q0 -38 3.5 -58t13.5 -46q-49 -35 -116.5 -56.5t-141.5 -21.5q-110 0 -189.5 41.5zM305.5 736q-27.5 22 -27.5 59q0 43 30 66t79 23 q53 0 80.5 -22t27.5 -65q0 -37 -31 -60t-84 -23q-47 0 -74.5 22z" glyph-name="Gdotaccent" horiz-adv-x="699" unicode="Ġ"/><glyph d="M462.5 83.5q41.5 -9.5 67.5 -37.5t26 -81q0 -65 -39.5 -113t-114 -74.5t-175.5 -26.5q-207 0 -207 113q0 34 18 59.5t53 38.5q-39 31 -39 87q0 41 18 68.5t48 49.5q-85 39 -85 136q0 81 58.5 122.5t165.5 41.5q51 0 92 -9h207q13 -30 13 -90q-50 20 -91 21q39 -43 39 -99 q0 -67 -63 -108t-185 -41q-33 0 -63 3q-13 -9 -13 -20q0 -19 29 -24t95 -6h44q60 -1 101.5 -10.5zM220 317q0 -52 16.5 -79t46.5 -27q53 0 53 89q0 52 -16.5 79t-46.5 27q-53 0 -53 -89zM360 -154q34 17 34 46q0 11 -7 16.5t-24.5 7.5t-54.5 3q-91 2 -133 10q-6 -9 -8.5 -16 t-2.5 -16q0 -36 23 -52t78 -16q61 0 95 17zM190.5 536q-27.5 22 -27.5 59q0 43 30 66t79 23q53 0 80.5 -22t27.5 -65q0 -37 -31 -60t-84 -23q-47 0 -74.5 22z" glyph-name="gdotaccent" horiz-adv-x="584" unicode="ġ"/><glyph d="M199.5 32.5q-79.5 41.5 -122 120.5t-42.5 190q0 108 43 184.5t123.5 117t191.5 40.5q62 0 124 -15t111 -37q-11 -63 -11 -155q-19 -9 -42.5 -11.5t-56.5 -2.5q-4 76 -36.5 109.5t-93.5 33.5q-76 0 -112.5 -69t-36.5 -171q0 -86 20 -153.5t57 -105t86 -37.5q24 0 35 4 q16 6 24 21t8 51v34q0 30 -5.5 45.5t-20.5 21.5t-45 8q-7 29 -7 77q40 -3 139 -3q102 0 144 2q0 -47 -6 -76q-25 -2 -31.5 -13t-6.5 -46v-24q0 -38 3.5 -58t13.5 -46q-49 -35 -116.5 -56.5t-141.5 -21.5q-110 0 -189.5 41.5zM473.5 -64q12.5 -19 12.5 -57q0 -119 -113 -194 q-22 -1 -42.5 5.5t-33.5 20.5q30 20 44.5 41.5t14.5 40.5t-16 29t-50 14q-1 6 -1 19q0 38 17 77q82 2 126 31q29 -8 41.5 -27z" glyph-name="Gcommaaccent" horiz-adv-x="699" unicode="Ģ"/><glyph d="M462.5 83.5q41.5 -9.5 67.5 -37.5t26 -81q0 -65 -39.5 -113t-114 -74.5t-175.5 -26.5q-207 0 -207 113q0 34 18 59.5t53 38.5q-39 31 -39 87q0 41 18 68.5t48 49.5q-85 39 -85 136q0 81 58.5 122.5t165.5 41.5q51 0 92 -9h207q13 -30 13 -90q-50 20 -91 21q39 -43 39 -99 q0 -67 -63 -108t-185 -41q-33 0 -63 3q-13 -9 -13 -20q0 -19 29 -24t95 -6h44q60 -1 101.5 -10.5zM220 317q0 -52 16.5 -79t46.5 -27q53 0 53 89q0 52 -16.5 79t-46.5 27q-53 0 -53 -89zM360 -154q34 17 34 46q0 11 -7 16.5t-24.5 7.5t-54.5 3q-91 2 -133 10q-6 -9 -8.5 -16 t-2.5 -16q0 -36 23 -52t78 -16q61 0 95 17zM172 577q0 85 89 153q26 1 47 -6t33 -20q-39 -33 -39 -56q0 -13 14.5 -18t51.5 -8q1 -7 1 -20q0 -34 -17 -74q-79 -1 -126 -28q-54 12 -54 77z" glyph-name="gcommaaccent" horiz-adv-x="584" unicode="ģ"/><glyph d="M703.5 117.5q5.5 -22.5 19 -31.5t41.5 -11q8 -29 8 -78q-45 3 -159 3q-118 0 -189 -3q0 17 3 40t7 38q28 2 41 11t18 31t5 70v123q-133 0 -194 -9v-114q0 -47 5.5 -69.5t19 -31.5t41.5 -11q8 -29 8 -78q-45 3 -159 3q-118 0 -189 -3q0 17 3 40t7 38q28 2 41 11t18 31 t5 70v304q0 47 -4.5 68t-17.5 29.5t-43 12.5q-9 36 -9 78q50 -3 179 -3q109 0 169 3q0 -26 -1.5 -43.5t-7.5 -34.5q-29 -3 -42 -11.5t-18 -30t-5 -68.5v-102h194v102q0 47 -4.5 68t-17.5 29.5t-43 12.5q-9 36 -9 78q50 -3 179 -3q109 0 169 3q0 -26 -1.5 -43.5t-7.5 -34.5 q-29 -3 -42 -11.5t-18 -30t-5 -68.5v-304q0 -47 5.5 -69.5zM233 746.5q-18 15.5 -25 34.5q104 62 151 102q34 11 90 11q53 -53 144 -113q-18 -22 -40 -36t-54 -20q-39 24 -116 57q-8 -4 -15.5 -7.5t-14.5 -6.5q-50 -22 -78 -40q-24 3 -42 18.5z" glyph-name="Hcircumflex" horiz-adv-x="802" unicode="Ĥ"/><glyph d="M674 -3q-90 3 -139 3q-118 0 -163 -3q0 51 10 78q48 0 48 98v69q0 56 -14.5 79.5t-47.5 23.5q-37 0 -60.5 -43.5t-23.5 -111.5v-28q0 -50 11.5 -68.5t35.5 -18.5q7 -17 9 -34.5t2 -43.5q-45 3 -153 3q-124 0 -169 -3q0 52 10 78q38 0 51 18t13 69v377q0 36 -15 51t-59 19 q0 50 13 75q70 0 130 10t86 23q35 -16 35 -64v-250q0 -22 -12 -61q10 25 18.5 40t20.5 27q25 25 59.5 39t75.5 14q74 0 124 -40.5t50 -122.5v-137q0 -50 9 -68.5t34 -18.5q11 -27 11 -78zM122 778.5q-18 15.5 -25 34.5q104 62 151 102q34 11 90 11q53 -53 144 -113 q-18 -22 -40 -36t-54 -20q-39 24 -116 57q-8 -4 -15.5 -7.5t-14.5 -6.5q-50 -22 -78 -40q-24 3 -42 18.5z" glyph-name="hcircumflex" horiz-adv-x="704" unicode="ĥ"/><glyph d="M703.5 117.5q5.5 -22.5 19 -31.5t41.5 -11q8 -29 8 -78q-45 3 -159 3q-118 0 -189 -3q0 17 3 40t7 38q28 2 41 11t18 31t5 70v123q-133 0 -194 -9v-114q0 -47 5.5 -69.5t19 -31.5t41.5 -11q8 -29 8 -78q-45 3 -159 3q-118 0 -189 -3q0 17 3 40t7 38q28 2 41 11t18 31 t5 70v253l-71 -1q0 45 15 81h56q-2 32 -7.5 48t-18.5 22.5t-39 10.5q-9 36 -9 78q50 -3 179 -3q109 0 169 3q0 -26 -1.5 -43.5t-7.5 -34.5q-25 -3 -38 -9.5t-19 -23t-8 -48.5h194q-2 32 -7.5 48t-18.5 22.5t-39 10.5q-9 36 -9 78q50 -3 179 -3q109 0 169 3q0 -26 -1.5 -43.5 t-7.5 -34.5q-25 -3 -38 -9.5t-19 -23t-8 -48.5h71q0 -38 -15 -76h-56v-257q0 -47 5.5 -69.5zM498 389v55l-194 -1v-54h194z" glyph-name="Hbar" horiz-adv-x="802" unicode="Ħ"/><glyph d="M674 -3q-90 3 -139 3q-118 0 -163 -3q0 51 10 78q48 0 48 98v69q0 56 -14.5 79.5t-47.5 23.5q-37 0 -60.5 -43.5t-23.5 -111.5v-28q0 -50 11.5 -68.5t35.5 -18.5q7 -17 9 -34.5t2 -43.5q-45 3 -153 3q-124 0 -169 -3q0 52 10 78q38 0 51 18t13 69v309l-102 -6q0 43 11 83 h91q-2 30 -17.5 43.5t-56.5 17.5q0 50 13 75q70 0 130 10t86 23q35 -16 35 -64v-105h102q0 -39 -11 -73h-91v-72q0 -22 -12 -61q10 25 18.5 40t20.5 27q25 25 59.5 39t75.5 14q74 0 124 -40.5t50 -122.5v-137q0 -50 9 -68.5t34 -18.5q11 -27 11 -78z" glyph-name="hbar" horiz-adv-x="704" unicode="ħ"/><glyph d="M214.5 731.5q-15.5 5.5 -33.5 16.5q-13 8 -24 12.5t-26 4.5q-38 0 -75 -37q-16 14 -24.5 28t-11.5 32q31 51 63 72t69 21q22 0 36.5 -5.5t31.5 -16.5q12 -9 22 -13t23 -4q19 0 36 9.5t29 26.5q42 -19 57 -55q-25 -49 -56.5 -73t-76.5 -24q-24 0 -39.5 5.5zM99.5 559 q-4.5 21 -17.5 29.5t-43 12.5q-9 36 -9 78q50 -3 179 -3q109 0 169 3q0 -26 -1.5 -43.5t-7.5 -34.5q-29 -3 -42 -11.5t-18 -30t-5 -68.5v-304q0 -47 5.5 -69.5t19 -31.5t41.5 -11q8 -29 8 -78q-45 3 -159 3q-118 0 -189 -3q0 17 3 40t7 38q28 2 41 11t18 31t5 70v304 q0 47 -4.5 68z" glyph-name="Itilde" horiz-adv-x="408" unicode="Ĩ"/><glyph d="M218.5 504q-15.5 6 -33.5 18q-18 11 -29.5 15.5t-28.5 4.5q-47 0 -92 -42q-19 14 -29 28.5t-14 33.5q45 68 80.5 94t73.5 26q21 0 37 -5.5t33 -16.5q16 -10 28.5 -14.5t27.5 -4.5q21 0 39.5 9.5t31.5 26.5q38 -19 49 -50q-27 -67 -57.5 -98t-77.5 -31q-23 0 -38.5 6z M41 75q27 2 40.5 9.5t19 25t5.5 52.5v127q0 36 -15 51t-59 19q0 50 13 75q70 0 130 10t86 23q35 -16 35 -64v-241q0 -34 5.5 -52t19.5 -25.5t41 -9.5q8 -25 8 -78q-37 3 -169 3q-133 0 -169 -3q0 54 9 78z" glyph-name="itilde" horiz-adv-x="400" unicode="ĩ"/><glyph d="M51 828h316q0 -34 -10 -70q-148 0 -317 -13q0 57 11 83zM99.5 559q-4.5 21 -17.5 29.5t-43 12.5q-9 36 -9 78q50 -3 179 -3q109 0 169 3q0 -26 -1.5 -43.5t-7.5 -34.5q-29 -3 -42 -11.5t-18 -30t-5 -68.5v-304q0 -47 5.5 -69.5t19 -31.5t41.5 -11q8 -29 8 -78 q-45 3 -159 3q-118 0 -189 -3q0 17 3 40t7 38q28 2 41 11t18 31t5 70v304q0 47 -4.5 68z" glyph-name="Imacron" horiz-adv-x="408" unicode="Ī"/><glyph d="M59 631h275q0 -35 -9 -71q-153 0 -275 -10q0 57 9 81zM41 75q27 2 40.5 9.5t19 25t5.5 52.5v127q0 36 -15 51t-59 19q0 50 13 75q70 0 130 10t86 23q35 -16 35 -64v-241q0 -34 5.5 -52t19.5 -25.5t41 -9.5q8 -25 8 -78q-37 3 -169 3q-133 0 -169 -3q0 54 9 78z" glyph-name="imacron" horiz-adv-x="400" unicode="ī"/><glyph d="M33 863q27 11 59 11q8 0 26 -2q12 -59 96 -59q40 0 63 15t25 44q15 3 29 3q25 0 43 -8q0 -157 -172 -157q-169 0 -169 153zM99.5 559q-4.5 21 -17.5 29.5t-43 12.5q-9 36 -9 78q50 -3 179 -3q109 0 169 3q0 -26 -1.5 -43.5t-7.5 -34.5q-29 -3 -42 -11.5t-18 -30t-5 -68.5 v-304q0 -47 5.5 -69.5t19 -31.5t41.5 -11q8 -29 8 -78q-45 3 -159 3q-118 0 -189 -3q0 17 3 40t7 38q28 2 41 11t18 31t5 70v304q0 47 -4.5 68z" glyph-name="Ibreve" horiz-adv-x="408" unicode="Ĭ"/><glyph d="M5 701q33 14 77 14q9 0 29 -2q6 -36 29.5 -55.5t63.5 -19.5q39 0 60.5 19.5t23.5 55.5q17 3 32 3q31 0 59 -10q0 -189 -189 -189q-185 0 -185 184zM41 75q27 2 40.5 9.5t19 25t5.5 52.5v127q0 36 -15 51t-59 19q0 50 13 75q70 0 130 10t86 23q35 -16 35 -64v-241 q0 -34 5.5 -52t19.5 -25.5t41 -9.5q8 -25 8 -78q-37 3 -169 3q-133 0 -169 -3q0 54 9 78z" glyph-name="ibreve" horiz-adv-x="400" unicode="ĭ"/><glyph d="M232 -32.5q-24 -21.5 -24 -48.5q0 -46 76 -46q19 0 34 3q7 -9 12.5 -31.5t5.5 -41.5q0 -9 -1 -13q-37 -5 -73 -15.5t-61 -22.5q-10 -1 -23 -1q-30 0 -60.5 12t-51.5 38t-21 65q0 44 29.5 78t89.5 56l-134 -3q0 17 3 40t7 38q28 2 41 11t18 31t5 70v304q0 47 -4.5 68 t-17.5 29.5t-43 12.5q-9 36 -9 78q50 -3 179 -3q109 0 169 3q0 -26 -1.5 -43.5t-7.5 -34.5q-29 -3 -42 -11.5t-18 -30t-5 -68.5v-304q0 -47 5.5 -69.5t19 -31.5t41.5 -11q8 -29 8 -78l-84 3q-38 -11 -62 -32.5z" glyph-name="Iogonek" horiz-adv-x="408" unicode="Į"/><glyph d="M110.5 537q-27.5 22 -27.5 59q0 43 30 66t79 23q53 0 80.5 -22t27.5 -65q0 -37 -31 -60t-84 -23q-47 0 -74.5 22zM318 -124q7 -9 12.5 -31.5t5.5 -41.5q0 -9 -1 -13q-37 -5 -73 -15.5t-61 -22.5q-10 -1 -23 -1q-30 0 -60.5 12t-51.5 38t-21 65q0 90 120 134 q-103 0 -133 -3q0 54 9 78q27 2 40.5 9.5t19 25t5.5 52.5v127q0 36 -15 51t-59 19q0 50 13 75q70 0 130 10t86 23q35 -16 35 -64v-241q0 -34 5.5 -52t19.5 -25.5t41 -9.5q8 -25 8 -78q-28 2 -76 2q-38 -10 -62 -32t-24 -48q0 -46 76 -46q19 0 34 3z" glyph-name="iogonek" horiz-adv-x="400" unicode="į"/><glyph d="M99.5 559q-4.5 21 -17.5 29.5t-43 12.5q-9 36 -9 78q50 -3 179 -3q109 0 169 3q0 -26 -1.5 -43.5t-7.5 -34.5q-29 -3 -42 -11.5t-18 -30t-5 -68.5v-304q0 -47 5.5 -69.5t19 -31.5t41.5 -11q8 -29 8 -78q-45 3 -159 3q-118 0 -189 -3q0 17 3 40t7 38q28 2 41 11t18 31 t5 70v304q0 47 -4.5 68zM122.5 736q-27.5 22 -27.5 59q0 43 30 66t79 23q53 0 80.5 -22t27.5 -65q0 -37 -31 -60t-84 -23q-47 0 -74.5 22z" glyph-name="Idotaccent" horiz-adv-x="408" unicode="İ"/><glyph d="M41 75q27 2 40.5 9.5t19 25t5.5 52.5v127q0 36 -15 51t-59 19q0 50 13 75q70 0 130 10t86 23q35 -16 35 -64v-241q0 -34 5.5 -52t19.5 -25.5t41 -9.5q8 -25 8 -78q-37 3 -169 3q-133 0 -169 -3q0 54 9 78z" glyph-name="dotlessi" horiz-adv-x="400" unicode="ı"/><glyph d="M99.5 559q-4.5 21 -17.5 29.5t-43 12.5q-9 36 -9 78q50 -3 179 -3q109 0 169 3q0 -26 -1.5 -43.5t-7.5 -34.5q-29 -3 -42 -11.5t-18 -30t-5 -68.5v-304q0 -47 5.5 -69.5t19 -31.5t41.5 -11q8 -29 8 -78q-45 3 -159 3q-118 0 -189 -3q0 17 3 40t7 38q28 2 41 11t18 31 t5 70v304q0 47 -4.5 68zM646.5 -34.5q-20.5 -68.5 -78.5 -121.5t-168 -93q-32 24 -37 74q39 26 61 54t32.5 71t10.5 112v426q0 49 -5 71t-18 30.5t-42 11.5q-9 30 -9 78q42 -3 174 -3q129 0 174 3q0 -50 -9 -78q-30 -2 -43.5 -13t-17.5 -32.5t-4 -67.5v-353 q0 -101 -20.5 -169.5z" glyph-name="IJ" horiz-adv-x="771" unicode="Ĳ"/><glyph d="M110.5 537q-27.5 22 -27.5 59q0 43 30 66t79 23q53 0 80.5 -22t27.5 -65q0 -37 -31 -60t-84 -23q-47 0 -74.5 22zM425.5 537q-27.5 22 -27.5 59q0 43 30 66t79 23q53 0 80.5 -22t27.5 -65q0 -37 -31 -60t-84 -23q-47 0 -74.5 22zM41 75q27 2 40.5 9.5t19 25t5.5 52.5v127 q0 36 -15 51t-59 19q0 50 13 75q70 0 130 10t86 23q35 -16 35 -64v-241q0 -34 5.5 -52t19.5 -25.5t41 -9.5q8 -25 8 -78q-37 3 -169 3q-133 0 -169 -3q0 54 9 78zM350.5 -219q-12.5 20 -15.5 44q49 49 67.5 95t18.5 117v252q0 36 -15 51t-59 19q0 50 13 75q70 0 130 10 t86 23q35 -16 35 -64v-320q0 -81 -36 -148t-88 -112.5t-105 -71.5q-19 10 -31.5 30z" glyph-name="ij" horiz-adv-x="655" unicode="ĳ"/><glyph d="M46.5 727.5q-18.5 12.5 -30.5 32.5q23 18 61 51q54 47 69 58q20 6 46.5 10t44.5 4q47 -54 125 -125q-18 -20 -47 -34t-57 -17q-22 17 -75 45l-18 10q-44 -23 -74 -54q-26 7 -44.5 19.5zM268.5 -34.5q-20.5 -68.5 -78.5 -121.5t-168 -93q-32 24 -37 74q39 26 61 54 t32.5 71t10.5 112v426q0 49 -5 71t-18 30.5t-42 11.5q-9 30 -9 78q42 -3 174 -3q129 0 174 3q0 -50 -9 -78q-30 -2 -43.5 -13t-17.5 -32.5t-4 -67.5v-353q0 -101 -20.5 -169.5z" glyph-name="Jcircumflex" horiz-adv-x="393" unicode="Ĵ"/><glyph d="M14 570q15 14 73 77q38 42 57 61q19 6 45.5 9.5t45.5 3.5q48 -67 125 -158q-18 -18 -47 -31t-57 -16q-47 47 -93 78q-45 -40 -74 -79q-51 15 -75 55zM30.5 -219q-12.5 20 -15.5 44q49 49 67.5 95t18.5 117v252q0 36 -15 51t-59 19q0 50 13 75q70 0 130 10t86 23 q35 -16 35 -64v-320q0 -81 -36 -148t-88 -112.5t-105 -71.5q-19 10 -31.5 30z" glyph-name="jcircumflex" horiz-adv-x="335" unicode="ĵ"/><glyph d="M688 102q30 -22 69 -27q0 -51 -12 -75q-57 0 -138.5 -2t-114.5 -7q-45 93 -89 167.5t-99 140.5v-112q0 -47 5.5 -69.5t19 -31.5t41.5 -11q8 -29 8 -78q-45 3 -159 3q-118 0 -189 -3q0 17 3 40t7 38q28 2 41 11t18 31t5 70v304q0 47 -4.5 68t-17.5 29.5t-43 12.5 q-9 36 -9 78q50 -3 179 -3q109 0 169 3q0 -26 -1.5 -43.5t-7.5 -34.5q-29 -3 -42 -11.5t-18 -30t-5 -68.5v-116l135 134q47 47 47 72q0 18 -26 20q-9 28 -9 78q38 -3 113 -3q117 0 153 3q0 -19 -3 -42t-8 -36q-37 -2 -71.5 -20.5t-69.5 -54.5l-107 -111q89 -110 168 -239 q32 -52 62 -74zM467.5 -64q12.5 -19 12.5 -57q0 -119 -113 -194q-22 -1 -42.5 5.5t-33.5 20.5q30 20 44.5 41.5t14.5 40.5t-16 29t-50 14q-1 6 -1 19q0 38 17 77q82 2 126 31q29 -8 41.5 -27z" glyph-name="Kcommaaccent" horiz-adv-x="767" unicode="Ķ"/><glyph d="M610.5 86q13.5 -9 36.5 -11q0 -44 -14 -75q-132 0 -189 -9q-22 35 -66 93t-94 118v-40q0 -48 9 -66t36 -21q8 -22 8 -78q-37 3 -154 3q-127 0 -163 -3q0 54 9 78q27 2 40.5 9.5t19 25t5.5 52.5v377q0 36 -15 51t-59 19q0 50 13 75q70 0 130 10t86 23q35 -16 35 -64v-389 l66 58q22 19 29 28t7 16q0 8 -5.5 12t-20.5 5q-13 35 -13 77q48 -2 170 -2q42 0 94 2q0 -44 -12 -77q-45 -4 -70.5 -15.5t-60.5 -44.5l-37 -34q81 -73 148 -169q18 -25 31.5 -34zM414.5 -64q12.5 -19 12.5 -57q0 -119 -113 -194q-22 -1 -42.5 5.5t-33.5 20.5 q30 20 44.5 41.5t14.5 40.5t-16 29t-50 14q-1 6 -1 19q0 38 17 77q82 2 126 31q29 -8 41.5 -27z" glyph-name="kcommaaccent" horiz-adv-x="662" unicode="ķ"/><glyph d="M622 84.5q10 -6.5 37 -9.5q0 -44 -14 -75q-132 0 -189 -9q-22 35 -66 93t-94 118v-40q0 -48 9 -66t36 -21q8 -22 8 -78q-37 3 -154 3q-127 0 -163 -3q0 54 9 78q27 2 40.5 9.5t19 25t5.5 52.5v127q0 36 -15 51t-59 19q0 50 13 75q70 0 130 10t86 23q35 -16 35 -64v-139 l66 58q22 19 29 28t7 16q0 8 -5.5 12t-20.5 5q-13 35 -13 77q48 -2 170 -2q42 0 94 2q0 -44 -12 -77q-45 -4 -70.5 -15.5t-60.5 -44.5l-37 -34q81 -73 148 -169q21 -29 31 -35.5z" glyph-name="kgreenlandic" horiz-adv-x="674" unicode="ĸ"/><glyph d="M479.5 106.5q29.5 31.5 49.5 104.5q33 -3 61 -12.5t41 -21.5q-23 -69 -31 -179q-118 2 -261 2q-71 0 -161 -1t-148 -2q0 48 8 78q28 2 41.5 11t19 31.5t5.5 69.5v304q0 46 -5 67t-18.5 30t-43.5 13q-7 28 -7 78q95 -3 174 -3q114 0 174 3q0 -28 -1.5 -46t-7.5 -32 q-29 -3 -42 -11.5t-18 -30t-5 -68.5v-299q0 -47 7 -72t23.5 -35t47.5 -10h17q51 0 80.5 31.5zM131 753q35 55 61 119q43 10 94 10q40 0 68 -6q-66 -69 -121 -141q-53 0 -102 18z" glyph-name="Lacute" horiz-adv-x="641" unicode="Ĺ"/><glyph d="M29 75q27 2 40.5 9.5t19 25t5.5 52.5v387q0 29 -16.5 42.5t-57.5 17.5q0 50 13 75q70 0 130 10t86 23q35 -16 35 -64v-491q0 -34 5.5 -52t19.5 -25.5t41 -9.5q8 -25 8 -78q-37 3 -169 3q-133 0 -169 -3q0 54 9 78zM116 785q35 55 61 119q43 10 94 10q40 0 68 -6 q-66 -69 -121 -141q-53 0 -102 18z" glyph-name="lacute" horiz-adv-x="378" unicode="ĺ"/><glyph d="M479.5 106.5q29.5 31.5 49.5 104.5q33 -3 61 -12.5t41 -21.5q-23 -69 -31 -179q-118 2 -261 2q-71 0 -161 -1t-148 -2q0 48 8 78q28 2 41.5 11t19 31.5t5.5 69.5v304q0 46 -5 67t-18.5 30t-43.5 13q-7 28 -7 78q95 -3 174 -3q114 0 174 3q0 -28 -1.5 -46t-7.5 -32 q-29 -3 -42 -11.5t-18 -30t-5 -68.5v-299q0 -47 7 -72t23.5 -35t47.5 -10h17q51 0 80.5 31.5zM404.5 -64q12.5 -19 12.5 -57q0 -119 -113 -194q-22 -1 -42.5 5.5t-33.5 20.5q30 20 44.5 41.5t14.5 40.5t-16 29t-50 14q-1 6 -1 19q0 38 17 77q82 2 126 31q29 -8 41.5 -27z" glyph-name="Lcommaaccent" horiz-adv-x="641" unicode="Ļ"/><glyph d="M29 75q27 2 40.5 9.5t19 25t5.5 52.5v387q0 29 -16.5 42.5t-57.5 17.5q0 50 13 75q70 0 130 10t86 23q35 -16 35 -64v-491q0 -34 5.5 -52t19.5 -25.5t41 -9.5q8 -25 8 -78q-37 3 -169 3q-133 0 -169 -3q0 54 9 78zM272.5 -64q12.5 -19 12.5 -57q0 -119 -113 -194 q-22 -1 -42.5 5.5t-33.5 20.5q30 20 44.5 41.5t14.5 40.5t-16 29t-50 14q-1 6 -1 19q0 38 17 77q82 2 126 31q29 -8 41.5 -27z" glyph-name="lcommaaccent" horiz-adv-x="378" unicode="ļ"/><glyph d="M479.5 106.5q29.5 31.5 49.5 104.5q33 -3 61 -12.5t41 -21.5q-23 -69 -31 -179q-118 2 -261 2q-71 0 -161 -1t-148 -2q0 48 8 78q28 2 41.5 11t19 31.5t5.5 69.5v304q0 46 -5 67t-18.5 30t-43.5 13q-7 28 -7 78q95 -3 174 -3q114 0 174 3q0 -28 -1.5 -46t-7.5 -32 q-29 -3 -42 -11.5t-18 -30t-5 -68.5v-299q0 -47 7 -72t23.5 -35t47.5 -10h17q51 0 80.5 31.5zM599.5 513.5q-27.5 -58.5 -76.5 -102.5q-45 0 -76 20q31 31 43 55.5t12 51.5q0 21 -17 31.5t-54 14.5q0 36 3 59.5t13 55.5q83 3 126 32q30 -8 42 -29.5t12 -71.5 q0 -58 -27.5 -116.5z" glyph-name="Lcaron" horiz-adv-x="641" unicode="Ľ"/><glyph d="M29 75q27 2 40.5 9.5t19 25t5.5 52.5v387q0 29 -16.5 42.5t-57.5 17.5q0 50 13 75q70 0 130 10t86 23q35 -16 35 -64v-491q0 -34 5.5 -52t19.5 -25.5t41 -9.5q8 -25 8 -78q-37 3 -169 3q-133 0 -169 -3q0 54 9 78zM505.5 513.5q-27.5 -58.5 -76.5 -102.5q-45 0 -76 20 q31 31 43 55.5t12 51.5q0 21 -17 31.5t-54 14.5q0 36 3 59.5t13 55.5q83 3 126 32q30 -8 42 -29.5t12 -71.5q0 -58 -27.5 -116.5z" glyph-name="lcaron" horiz-adv-x="548" unicode="ľ"/><glyph d="M479.5 106.5q29.5 31.5 49.5 104.5q33 -3 61 -12.5t41 -21.5q-23 -69 -31 -179q-118 2 -261 2q-71 0 -161 -1t-148 -2q0 48 8 78q28 2 41.5 11t19 31.5t5.5 69.5v304q0 46 -5 67t-18.5 30t-43.5 13q-7 28 -7 78q95 -3 174 -3q114 0 174 3q0 -28 -1.5 -46t-7.5 -32 q-29 -3 -42 -11.5t-18 -30t-5 -68.5v-299q0 -47 7 -72t23.5 -35t47.5 -10h17q51 0 80.5 31.5zM472.5 312q-19.5 19 -19.5 51t21.5 50.5t54.5 18.5q30 0 49.5 -19.5t19.5 -46.5q0 -31 -19.5 -52t-53.5 -21q-33 0 -52.5 19z" glyph-name="Ldot" horiz-adv-x="641" unicode="Ŀ"/><glyph d="M29 75q27 2 40.5 9.5t19 25t5.5 52.5v387q0 29 -16.5 42.5t-57.5 17.5q0 50 13 75q70 0 130 10t86 23q35 -16 35 -64v-491q0 -34 5.5 -52t19.5 -25.5t41 -9.5q8 -25 8 -78q-37 3 -169 3q-133 0 -169 -3q0 54 9 78zM331.5 302.5q-19.5 19.5 -19.5 51.5t21.5 50.5 t54.5 18.5q30 0 49.5 -19.5t19.5 -45.5q0 -32 -19.5 -53.5t-53.5 -21.5q-33 0 -52.5 19.5z" glyph-name="ldot" horiz-adv-x="378" unicode="ŀ"/><glyph d="M590 198.5q28 -9.5 41 -21.5q-23 -69 -31 -179q-118 2 -261 2q-71 0 -161 -1t-148 -2q0 48 8 78q28 2 41.5 11t19 31.5t5.5 69.5v39l-64 -40q-13 21 -22.5 45.5t-11.5 41.5l98 59v159q0 46 -5 67t-18.5 30t-43.5 13q-7 28 -7 78q95 -3 174 -3q114 0 174 3q0 -28 -1.5 -46 t-7.5 -32q-29 -3 -42 -11.5t-18 -30t-5 -68.5v-62l73 43q13 -21 20.5 -42.5t9.5 -38.5l-103 -63v-136q0 -47 7 -72t23.5 -35t47.5 -10h17q51 0 80.5 31.5t49.5 104.5q33 -3 61 -12.5z" glyph-name="Lslash" horiz-adv-x="641" unicode="Ł"/><glyph d="M289.5 110q5.5 -18 19.5 -25.5t41 -9.5q8 -25 8 -78q-37 3 -169 3q-133 0 -169 -3q0 54 9 78q27 2 40.5 9.5t19 25t5.5 52.5v69l-69 -43q-13 21 -22.5 45.5t-11.5 41.5l103 62v212q0 29 -16.5 42.5t-57.5 17.5q0 50 13 75q70 0 130 10t86 23q35 -16 35 -64v-225l78 46 q13 -21 20.5 -42.5t9.5 -38.5l-108 -66v-165q0 -34 5.5 -52z" glyph-name="lslash" horiz-adv-x="378" unicode="ł"/><glyph d="M681 679q0 -20 -1 -40.5t-6 -37.5q-27 -4 -40 -15t-18 -39.5t-5 -88.5v-458q-19 -6 -39 -7.5t-52 -1.5l-341 462v-235q0 -59 6.5 -87.5t22.5 -40t50 -15.5q7 -26 7 -78q-42 3 -121 3q-93 0 -129 -3q0 53 8 78q33 4 49.5 16t24 41t7.5 86v336l-14 19q-8 14 -21.5 19.5 t-45.5 8.5q-8 29 -8 78q39 -3 133 -3q86 0 113 3l275 -379v158q0 59 -6.5 87t-23.5 40t-55 16q-7 27 -7 78q42 -3 131 -3q70 0 106 3zM287 753q35 55 61 119q43 10 94 10q40 0 68 -6q-66 -69 -121 -141q-53 0 -102 18z" glyph-name="Nacute" horiz-adv-x="711" unicode="Ń"/><glyph d="M686 -3q-90 3 -139 3q-118 0 -163 -3q0 51 10 78q48 0 48 98v69q0 56 -14.5 79.5t-47.5 23.5q-37 0 -60.5 -43.5t-23.5 -111.5v-28q0 -50 11.5 -68.5t35.5 -18.5q7 -17 9 -34.5t2 -43.5q-45 3 -153 3q-124 0 -169 -3q0 52 10 78q38 0 51 18t13 69v108q0 36 -4.5 52.5 t-19 25t-47.5 11.5q0 50 13 75q70 0 129 10t85 23q34 -15 34 -64q0 -22 -12 -61q10 25 18.5 40t20.5 27q25 25 59.5 39t75.5 14q74 0 124 -40.5t50 -122.5v-137q0 -50 9 -68.5t34 -18.5q11 -27 11 -78zM350.5 536q-27.5 6 -43.5 14q24 46 38 81.5t23 74.5q38 13 102 13 q40 0 64 -4q-84 -100 -130 -185q-26 0 -53.5 6z" glyph-name="nacute" horiz-adv-x="716" unicode="ń"/><glyph d="M681 679q0 -20 -1 -40.5t-6 -37.5q-27 -4 -40 -15t-18 -39.5t-5 -88.5v-458q-19 -6 -39 -7.5t-52 -1.5l-341 462v-235q0 -59 6.5 -87.5t22.5 -40t50 -15.5q7 -26 7 -78q-42 3 -121 3q-93 0 -129 -3q0 53 8 78q33 4 49.5 16t24 41t7.5 86v336l-14 19q-8 14 -21.5 19.5 t-45.5 8.5q-8 29 -8 78q39 -3 133 -3q86 0 113 3l275 -379v158q0 59 -6.5 87t-23.5 40t-55 16q-7 27 -7 78q42 -3 131 -3q70 0 106 3zM472.5 -64q12.5 -19 12.5 -57q0 -119 -113 -194q-22 -1 -42.5 5.5t-33.5 20.5q30 20 44.5 41.5t14.5 40.5t-16 29t-50 14q-1 6 -1 19 q0 38 17 77q82 2 126 31q29 -8 41.5 -27z" glyph-name="Ncommaaccent" horiz-adv-x="711" unicode="Ņ"/><glyph d="M686 -3q-90 3 -139 3q-118 0 -163 -3q0 51 10 78q48 0 48 98v69q0 56 -14.5 79.5t-47.5 23.5q-37 0 -60.5 -43.5t-23.5 -111.5v-28q0 -50 11.5 -68.5t35.5 -18.5q7 -17 9 -34.5t2 -43.5q-45 3 -153 3q-124 0 -169 -3q0 52 10 78q38 0 51 18t13 69v108q0 36 -4.5 52.5 t-19 25t-47.5 11.5q0 50 13 75q70 0 129 10t85 23q34 -15 34 -64q0 -22 -12 -61q10 25 18.5 40t20.5 27q25 25 59.5 39t75.5 14q74 0 124 -40.5t50 -122.5v-137q0 -50 9 -68.5t34 -18.5q11 -27 11 -78zM446.5 -64q12.5 -19 12.5 -57q0 -119 -113 -194q-22 -1 -42.5 5.5 t-33.5 20.5q30 20 44.5 41.5t14.5 40.5t-16 29t-50 14q-1 6 -1 19q0 38 17 77q82 2 126 31q29 -8 41.5 -27z" glyph-name="ncommaaccent" horiz-adv-x="716" unicode="ņ"/><glyph d="M681 679q0 -20 -1 -40.5t-6 -37.5q-27 -4 -40 -15t-18 -39.5t-5 -88.5v-458q-19 -6 -39 -7.5t-52 -1.5l-341 462v-235q0 -59 6.5 -87.5t22.5 -40t50 -15.5q7 -26 7 -78q-42 3 -121 3q-93 0 -129 -3q0 53 8 78q33 4 49.5 16t24 41t7.5 86v336l-14 19q-8 14 -21.5 19.5 t-45.5 8.5q-8 29 -8 78q39 -3 133 -3q86 0 113 3l275 -379v158q0 59 -6.5 87t-23.5 40t-55 16q-7 27 -7 78q42 -3 131 -3q70 0 106 3zM152 838q18 22 40 36t54 20q38 -24 116 -57q8 4 15.5 7.5t14.5 6.5q50 22 78 40q24 -3 42 -18.5t25 -34.5q-104 -62 -151 -102 q-34 -11 -90 -11q-53 53 -144 113z" glyph-name="Ncaron" horiz-adv-x="711" unicode="Ň"/><glyph d="M686 -3q-90 3 -139 3q-118 0 -163 -3q0 51 10 78q48 0 48 98v69q0 56 -14.5 79.5t-47.5 23.5q-37 0 -60.5 -43.5t-23.5 -111.5v-28q0 -50 11.5 -68.5t35.5 -18.5q7 -17 9 -34.5t2 -43.5q-45 3 -153 3q-124 0 -169 -3q0 52 10 78q38 0 51 18t13 69v108q0 36 -4.5 52.5 t-19 25t-47.5 11.5q0 50 13 75q70 0 129 10t85 23q34 -15 34 -64q0 -22 -12 -61q10 25 18.5 40t20.5 27q25 25 59.5 39t75.5 14q74 0 124 -40.5t50 -122.5v-137q0 -50 9 -68.5t34 -18.5q11 -27 11 -78zM164 666q7 20 25 33.5t47 23.5q62 -47 133 -79q32 13 68 35t62 44 q22 -5 39 -22t23 -35q-97 -73 -156 -139q-35 -13 -90 -11q-62 70 -151 150z" glyph-name="ncaron" horiz-adv-x="716" unicode="ň"/><glyph d="M226 495q-30 -65 -82 -114q-24 1 -45.5 9t-34.5 18q67 76 67 125q0 19 -18.5 31t-52.5 17q0 36 3 59.5t13 55.5q83 3 126 32q30 -9 42 -30.5t12 -74.5q0 -63 -30 -128zM906 -3q-90 3 -139 3q-118 0 -163 -3q0 51 10 78q48 0 48 98v69q0 56 -14.5 79.5t-47.5 23.5 q-37 0 -60.5 -43.5t-23.5 -111.5v-28q0 -50 11.5 -68.5t35.5 -18.5q7 -17 9 -34.5t2 -43.5q-45 3 -153 3q-124 0 -169 -3q0 52 10 78q38 0 51 18t13 69v108q0 36 -4.5 52.5t-19 25t-47.5 11.5q0 50 13 75q70 0 129 10t85 23q34 -15 34 -64q0 -22 -12 -61q10 25 18.5 40 t20.5 27q25 25 59.5 39t75.5 14q74 0 124 -40.5t50 -122.5v-137q0 -50 9 -68.5t34 -18.5q11 -27 11 -78z" glyph-name="napostrophe" horiz-adv-x="936" unicode="ŉ"/><glyph d="M680 638.5q-1 -21.5 -6 -37.5q-27 -4 -40 -15t-18 -39.5t-5 -88.5v-323q0 -101 -20.5 -169.5t-78.5 -121.5t-168 -93q-32 24 -37 74q56 36 86 62t49 66.5t19 103.5v14l-282 382v-235q0 -59 6.5 -87.5t22.5 -40t50 -15.5q7 -26 7 -78q-42 3 -121 3l-92 1q-29 0 -37 -1 q0 27 1.5 43.5t6.5 31.5q33 4 49.5 16t24 41t7.5 86v336l-14 19q-8 14 -21.5 19.5t-45.5 8.5q-8 29 -8 78q39 -3 133 -3q86 0 113 3l275 -379v158q0 59 -6.5 87t-23.5 40t-55 16q-7 27 -7 78q42 -3 131 -3q70 0 106 3q0 -19 -1 -40.5z" glyph-name="Eng" horiz-adv-x="711" unicode="Ŋ"/><glyph d="M582 421.5q50 -40.5 50 -122.5v-166q0 -107 -39.5 -195t-102 -137.5t-129.5 -49.5q-33 0 -65.5 15.5t-48.5 38.5q-1 6 -1 23q0 49 14 85q20 -8 50.5 -13.5t65.5 -5.5q30 0 44 15.5t18 44.5t4 83v205q0 56 -14.5 79.5t-47.5 23.5q-37 0 -60.5 -43.5t-23.5 -111.5v-28 q0 -50 11.5 -68.5t35.5 -18.5q7 -17 9 -34.5t2 -43.5q-45 3 -153 3q-124 0 -169 -3q0 52 10 78q38 0 51 18t13 69v108q0 36 -4.5 52.5t-19 25t-47.5 11.5q0 50 13 75q70 0 129 10t85 23q34 -15 34 -64q0 -22 -12 -61q10 25 18.5 40t20.5 27q25 25 59.5 39t75.5 14 q74 0 124 -40.5z" glyph-name="eng" horiz-adv-x="676" unicode="ŋ"/><glyph d="M196 34.5q-78 43.5 -119.5 123t-41.5 183.5q0 105 44 182.5t122 119.5t179 42q104 0 182 -41t121 -116t43 -174q0 -107 -42.5 -189.5t-121 -128t-182.5 -45.5q-106 0 -184 43.5zM487 140q34 71 34 193q0 77 -18.5 140t-53.5 100t-82 37q-61 0 -94 -63.5t-33 -181.5 q0 -129 38.5 -212.5t113.5 -83.5q61 0 95 71zM568 763q-224 0 -384 -13q0 50 9 78h384q0 -35 -9 -65z" glyph-name="Omacron" horiz-adv-x="761" unicode="Ō"/><glyph d="M98 51.5q-68 60.5 -68 168.5q0 82 36.5 137.5t99 82.5t141.5 27q133 0 202 -63t69 -167q0 -117 -74.5 -181.5t-205.5 -64.5q-132 0 -200 60.5zM369 106.5q19 38.5 19 97.5q0 62 -13.5 105t-35.5 64.5t-47 21.5q-35 0 -53.5 -38.5t-18.5 -98.5q0 -82 25 -136t72 -54 q33 0 52 38.5zM117 631h375q0 -32 -9 -58q-203 0 -375 -10q0 44 9 68z" glyph-name="omacron" horiz-adv-x="608" unicode="ō"/><glyph d="M196 34.5q-78 43.5 -119.5 123t-41.5 183.5q0 105 44 182.5t122 119.5t179 42q104 0 182 -41t121 -116t43 -174q0 -107 -42.5 -189.5t-121 -128t-182.5 -45.5q-106 0 -184 43.5zM487 140q34 71 34 193q0 77 -18.5 140t-53.5 100t-82 37q-61 0 -94 -63.5t-33 -181.5 q0 -129 38.5 -212.5t113.5 -83.5q61 0 95 71zM379 721q-180 0 -180 144q33 13 72 13q15 0 32 -3q9 -50 89 -50q38 0 59 12.5t22 37.5q22 4 34 4q28 0 56 -10q0 -148 -184 -148z" glyph-name="Obreve" horiz-adv-x="761" unicode="Ŏ"/><glyph d="M98 51.5q-68 60.5 -68 168.5q0 82 36.5 137.5t99 82.5t141.5 27q133 0 202 -63t69 -167q0 -117 -74.5 -181.5t-205.5 -64.5q-132 0 -200 60.5zM369 106.5q19 38.5 19 97.5q0 62 -13.5 105t-35.5 64.5t-47 21.5q-35 0 -53.5 -38.5t-18.5 -98.5q0 -82 25 -136t72 -54 q33 0 52 38.5zM454 565q-53 -48 -156 -48q-101 0 -153 46.5t-52 137.5q33 14 77 14q9 0 29 -2q6 -36 35.5 -55.5t77.5 -19.5q47 0 74.5 19.5t29.5 55.5q17 3 32 3q31 0 59 -10q0 -93 -53 -141z" glyph-name="obreve" horiz-adv-x="608" unicode="ŏ"/><glyph d="M196 34.5q-78 43.5 -119.5 123t-41.5 183.5q0 105 44 182.5t122 119.5t179 42q104 0 182 -41t121 -116t43 -174q0 -107 -42.5 -189.5t-121 -128t-182.5 -45.5q-106 0 -184 43.5zM487 140q34 71 34 193q0 77 -18.5 140t-53.5 100t-82 37q-61 0 -94 -63.5t-33 -181.5 q0 -129 38.5 -212.5t113.5 -83.5q61 0 95 71zM260.5 743.5q-27.5 6.5 -43.5 15.5q24 50 42 109q39 15 102 15q41 0 61 -6q-55 -62 -108 -141q-26 1 -53.5 7.5zM460.5 743.5q-27.5 6.5 -43.5 15.5q24 50 42 109q39 15 102 15q41 0 61 -6q-55 -62 -108 -141q-26 1 -53.5 7.5z" glyph-name="Ohungarumlaut" horiz-adv-x="761" unicode="Ő"/><glyph d="M98 51.5q-68 60.5 -68 168.5q0 82 36.5 137.5t99 82.5t141.5 27q133 0 202 -63t69 -167q0 -117 -74.5 -181.5t-205.5 -64.5q-132 0 -200 60.5zM369 106.5q19 38.5 19 97.5q0 62 -13.5 105t-35.5 64.5t-47 21.5q-35 0 -53.5 -38.5t-18.5 -98.5q0 -82 25 -136t72 -54 q33 0 52 38.5zM178.5 536q-27.5 6 -43.5 14q24 46 38 81.5t23 74.5q38 13 102 13q40 0 64 -4q-84 -100 -130 -185q-26 0 -53.5 6zM378.5 536q-27.5 6 -43.5 14q24 46 38 81.5t23 74.5q38 13 102 13q40 0 64 -4q-84 -100 -130 -185q-26 0 -53.5 6z" glyph-name="ohungarumlaut" horiz-adv-x="608" unicode="ő"/><glyph d="M506 681q133 -5 189 -5q182 0 267 3q1 -43 6.5 -94t14.5 -84q-47 -18 -101 -18q-11 61 -40 90.5t-98 29.5h-134q88 -81 93 -235h9q43 0 58.5 15.5t16.5 55.5q31 12 88 12q-4 -64 -4 -117q0 -61 4 -119q-57 0 -86 10q-4 41 -20.5 54.5t-58.5 13.5h-10q-17 -139 -101 -219 h181q50 0 80 32t50 105q33 -3 61 -12.5t41 -21.5q-23 -69 -31 -179q-118 2 -291 2q-89 0 -172 -5q-92 -4 -146 -4q-106 0 -182 43.5t-115.5 122.5t-39.5 184t42 183t118 119.5t177 41.5q44 0 134 -4zM268 547q-31 -63 -31 -182q0 -130 36 -213t111 -83q61 0 92.5 70 t31.5 194q0 78 -17.5 141t-51 99.5t-80.5 36.5q-60 0 -91 -63z" glyph-name="OE" horiz-adv-x="1027" unicode="Œ"/><glyph d="M805 186q-162 0 -241 -7q13 -45 45 -70.5t78 -25.5q27 0 62.5 11t56.5 27q11 -7 19 -27t8 -42q-40 -28 -91.5 -44.5t-108.5 -16.5q-104 0 -170 49q-66 -49 -172 -49q-79 0 -138 28t-91 79.5t-32 121.5q0 75 33 131t94 86t143 30q103 0 167 -47q64 47 159 47 q70 0 118.5 -32t72 -83t21.5 -107q-8 -35 -33 -59zM354.5 104.5q16.5 36.5 16.5 99.5q0 88 -23 139.5t-63 51.5q-30 0 -47.5 -37t-17.5 -100q0 -88 24.5 -139t65.5 -51q28 0 44.5 36.5zM675 256q0 61 -15.5 99t-41.5 38q-28 0 -45 -36.5t-18 -100.5h120z" glyph-name="oe" horiz-adv-x="869" unicode="œ"/><glyph d="M664.5 92.5q14.5 -12.5 43.5 -14.5q0 -40 -11 -78q-164 0 -224 -9q-10 23 -47 118l-13 35q-19 51 -34 75.5t-38 39.5q-24 0 -37 1v-63q0 -54 4.5 -79.5t14.5 -33.5t30 -9q7 -20 7 -78q-57 3 -175 3q-86 0 -155 -3q0 48 8 78q28 2 41.5 11t19 31.5t5.5 69.5v306 q0 46 -5 67.5t-18.5 30t-43.5 12.5q-3 13 -5 37.5t-2 39.5q80 -4 172 -4l64 2q123 3 143 3q83 0 139 -25t83 -67.5t27 -95.5q0 -84 -38 -137t-102 -70q24 -9 39.5 -23t31 -40t41.5 -79q20 -39 34.5 -51.5zM415 371.5q34 34.5 34 97.5q0 64 -28 100t-75 36q-22 0 -42 -7v-257 q20 -4 30 -4q47 0 81 34.5zM266 753q35 55 61 119q43 10 94 10q40 0 68 -6q-66 -69 -121 -141q-53 0 -102 18z" glyph-name="Racute" horiz-adv-x="718" unicode="Ŕ"/><glyph d="M296 197q0 -65 23 -91.5t86 -30.5q9 -25 9 -78q-57 3 -180 3q-133 0 -202 -3q0 51 7 78q29 2 42.5 11t19 31.5t5.5 69.5v83q0 36 -4.5 52.5t-19 25t-47.5 11.5q0 50 13 75q70 0 129 10t85 23q34 -15 34 -64q0 -14 -5 -38.5t-13 -56.5q22 62 29 73q23 36 57 58.5t73 22.5 q40 0 74 -24q-11 -66 -11 -135q0 -24 1 -35q-31 -14 -106 -14q-1 33 -10 48.5t-29 15.5q-13 0 -27.5 -16t-23.5 -41t-9 -52v-12zM263.5 536q-27.5 6 -43.5 14q24 46 38 81.5t23 74.5q38 13 102 13q40 0 64 -4q-84 -100 -130 -185q-26 0 -53.5 6z" glyph-name="racute" horiz-adv-x="526" unicode="ŕ"/><glyph d="M664.5 92.5q14.5 -12.5 43.5 -14.5q0 -40 -11 -78q-164 0 -224 -9q-10 23 -47 118l-13 35q-19 51 -34 75.5t-38 39.5q-24 0 -37 1v-63q0 -54 4.5 -79.5t14.5 -33.5t30 -9q7 -20 7 -78q-57 3 -175 3q-86 0 -155 -3q0 48 8 78q28 2 41.5 11t19 31.5t5.5 69.5v306 q0 46 -5 67.5t-18.5 30t-43.5 12.5q-3 13 -5 37.5t-2 39.5q80 -4 172 -4l64 2q123 3 143 3q83 0 139 -25t83 -67.5t27 -95.5q0 -84 -38 -137t-102 -70q24 -9 39.5 -23t31 -40t41.5 -79q20 -39 34.5 -51.5zM415 371.5q34 34.5 34 97.5q0 64 -28 100t-75 36q-22 0 -42 -7v-257 q20 -4 30 -4q47 0 81 34.5zM482.5 -64q12.5 -19 12.5 -57q0 -119 -113 -194q-22 -1 -42.5 5.5t-33.5 20.5q30 20 44.5 41.5t14.5 40.5t-16 29t-50 14q-1 6 -1 19q0 38 17 77q82 2 126 31q29 -8 41.5 -27z" glyph-name="Rcommaaccent" horiz-adv-x="718" unicode="Ŗ"/><glyph d="M296 197q0 -65 23 -91.5t86 -30.5q9 -25 9 -78q-57 3 -180 3q-133 0 -202 -3q0 51 7 78q29 2 42.5 11t19 31.5t5.5 69.5v83q0 36 -4.5 52.5t-19 25t-47.5 11.5q0 50 13 75q70 0 129 10t85 23q34 -15 34 -64q0 -14 -5 -38.5t-13 -56.5q22 62 29 73q23 36 57 58.5t73 22.5 q40 0 74 -24q-11 -66 -11 -135q0 -24 1 -35q-31 -14 -106 -14q-1 33 -10 48.5t-29 15.5q-13 0 -27.5 -16t-23.5 -41t-9 -52v-12zM306.5 -64q12.5 -19 12.5 -57q0 -119 -113 -194q-22 -1 -42.5 5.5t-33.5 20.5q30 20 44.5 41.5t14.5 40.5t-16 29t-50 14q-1 6 -1 19 q0 38 17 77q82 2 126 31q29 -8 41.5 -27z" glyph-name="rcommaaccent" horiz-adv-x="526" unicode="ŗ"/><glyph d="M664.5 92.5q14.5 -12.5 43.5 -14.5q0 -40 -11 -78q-164 0 -224 -9q-10 23 -47 118l-13 35q-19 51 -34 75.5t-38 39.5q-24 0 -37 1v-63q0 -54 4.5 -79.5t14.5 -33.5t30 -9q7 -20 7 -78q-57 3 -175 3q-86 0 -155 -3q0 48 8 78q28 2 41.5 11t19 31.5t5.5 69.5v306 q0 46 -5 67.5t-18.5 30t-43.5 12.5q-3 13 -5 37.5t-2 39.5q80 -4 172 -4l64 2q123 3 143 3q83 0 139 -25t83 -67.5t27 -95.5q0 -84 -38 -137t-102 -70q24 -9 39.5 -23t31 -40t41.5 -79q20 -39 34.5 -51.5zM415 371.5q34 34.5 34 97.5q0 64 -28 100t-75 36q-22 0 -42 -7v-257 q20 -4 30 -4q47 0 81 34.5zM131 838q18 22 40 36t54 20q38 -24 116 -57q8 4 15.5 7.5t14.5 6.5q50 22 78 40q24 -3 42 -18.5t25 -34.5q-104 -62 -151 -102q-34 -11 -90 -11q-53 53 -144 113z" glyph-name="Rcaron" horiz-adv-x="718" unicode="Ř"/><glyph d="M296 197q0 -65 23 -91.5t86 -30.5q9 -25 9 -78q-57 3 -180 3q-133 0 -202 -3q0 51 7 78q29 2 42.5 11t19 31.5t5.5 69.5v83q0 36 -4.5 52.5t-19 25t-47.5 11.5q0 50 13 75q70 0 129 10t85 23q34 -15 34 -64q0 -14 -5 -38.5t-13 -56.5q22 62 29 73q23 36 57 58.5t73 22.5 q40 0 74 -24q-11 -66 -11 -135q0 -24 1 -35q-31 -14 -106 -14q-1 33 -10 48.5t-29 15.5q-13 0 -27.5 -16t-23.5 -41t-9 -52v-12zM77 666q7 20 25 33.5t47 23.5q62 -47 133 -79q32 13 68 35t62 44q22 -5 39 -22t23 -35q-97 -73 -156 -139q-35 -13 -90 -11q-62 70 -151 150z" glyph-name="rcaron" horiz-adv-x="526" unicode="ř"/><glyph d="M28 48q14 63 14 169q46 13 123 13q5 -65 15 -98t30 -46t59 -13q48 0 72 19.5t24 47.5t-26.5 46.5t-84.5 45.5q-64 29 -106.5 56t-73.5 74t-31 116q0 106 68.5 156.5t175.5 50.5q57 0 117 -12.5t89 -31.5q0 -108 7 -151q-19 -12 -51.5 -17.5t-63.5 -5.5 q-12 77 -39.5 107.5t-72.5 30.5q-33 0 -54.5 -14.5t-21.5 -43.5q0 -33 31.5 -55.5t96.5 -50.5q68 -30 112 -57t75.5 -73t31.5 -113q0 -98 -70 -152.5t-200 -54.5q-133 0 -246 57zM217 753q35 55 61 119q43 10 94 10q40 0 68 -6q-66 -69 -121 -141q-53 0 -102 18z" glyph-name="Sacute" horiz-adv-x="564" unicode="Ś"/><glyph d="M382 313.5q-27 -6.5 -55 -6.5q-12 83 -82 83q-16 0 -25.5 -9t-9.5 -23q0 -13 6.5 -23t28 -23t65.5 -31q59 -24 92 -45.5t47 -45.5t14 -56q0 -71 -60 -107t-173 -36q-62 0 -106 8t-88 25q4 29 4 69q0 25 -2 55q17 10 46 16t55 6q4 -48 26 -73.5t54 -25.5q21 0 34.5 9.5 t13.5 26.5q0 22 -17.5 36.5t-68.5 34.5q-70 26 -105.5 59.5t-35.5 96.5q0 67 54 100t151 33q59 0 99.5 -7t76.5 -22q-1 -9 -1 -28q0 -41 6 -80q-17 -10 -44 -16.5zM232.5 536q-27.5 6 -43.5 14q24 46 38 81.5t23 74.5q38 13 102 13q40 0 64 -4q-84 -100 -130 -185 q-26 0 -53.5 6z" glyph-name="sacute" horiz-adv-x="493" unicode="ś"/><glyph d="M28 48q14 63 14 169q46 13 123 13q5 -65 15 -98t30 -46t59 -13q48 0 72 19.5t24 47.5t-26.5 46.5t-84.5 45.5q-64 29 -106.5 56t-73.5 74t-31 116q0 106 68.5 156.5t175.5 50.5q57 0 117 -12.5t89 -31.5q0 -108 7 -151q-19 -12 -51.5 -17.5t-63.5 -5.5 q-12 77 -39.5 107.5t-72.5 30.5q-33 0 -54.5 -14.5t-21.5 -43.5q0 -33 31.5 -55.5t96.5 -50.5q68 -30 112 -57t75.5 -73t31.5 -113q0 -98 -70 -152.5t-200 -54.5q-133 0 -246 57zM122 746.5q-18 15.5 -25 34.5q104 62 151 102q34 11 90 11q53 -53 144 -113q-18 -22 -40 -36 t-54 -20q-39 24 -116 57q-8 -4 -15.5 -7.5t-14.5 -6.5q-50 -22 -78 -40q-24 3 -42 18.5z" glyph-name="Scircumflex" horiz-adv-x="564" unicode="Ŝ"/><glyph d="M382 313.5q-27 -6.5 -55 -6.5q-12 83 -82 83q-16 0 -25.5 -9t-9.5 -23q0 -13 6.5 -23t28 -23t65.5 -31q59 -24 92 -45.5t47 -45.5t14 -56q0 -71 -60 -107t-173 -36q-62 0 -106 8t-88 25q4 29 4 69q0 25 -2 55q17 10 46 16t55 6q4 -48 26 -73.5t54 -25.5q21 0 34.5 9.5 t13.5 26.5q0 22 -17.5 36.5t-68.5 34.5q-70 26 -105.5 59.5t-35.5 96.5q0 67 54 100t151 33q59 0 99.5 -7t76.5 -22q-1 -9 -1 -28q0 -41 6 -80q-17 -10 -44 -16.5zM67 537q-17 17 -23 35q104 70 168 136q40 15 87 15q65 -78 160 -157q-17 -20 -38.5 -32.5t-51.5 -18.5 q-64 47 -134 83q-28 -15 -66.5 -39.5t-62.5 -43.5q-22 5 -39 22z" glyph-name="scircumflex" horiz-adv-x="493" unicode="ŝ"/><glyph d="M485 55q-59 -54 -169 -62l-27 -36q42 -7 65.5 -33.5t23.5 -61.5q0 -50 -45.5 -77t-130.5 -27q-9 18 -9 51q33 0 55.5 11.5t22.5 32.5q0 16 -16.5 26.5t-41.5 10.5q-18 21 -18 47l45 55q-113 6 -212 56q14 63 14 169q46 13 123 13q5 -65 15 -98t30 -46t59 -13 q48 0 72 19.5t24 47.5t-26.5 46.5t-84.5 45.5q-64 29 -106.5 56t-73.5 74t-31 116q0 106 68.5 156.5t175.5 50.5q57 0 117 -12.5t89 -31.5q0 -108 7 -151q-19 -12 -51.5 -17.5t-63.5 -5.5q-12 77 -39.5 107.5t-72.5 30.5q-33 0 -54.5 -14.5t-21.5 -43.5q0 -33 31.5 -55.5 t96.5 -50.5q68 -30 112 -57t75.5 -73t31.5 -113q0 -89 -59 -143z" glyph-name="Scedilla" horiz-adv-x="564" unicode="Ş"/><glyph d="M414 34.5q-49 -35.5 -142 -42.5l-27 -35q42 -7 65.5 -33.5t23.5 -61.5q0 -50 -45.5 -77t-130.5 -27q-9 18 -9 51q33 0 55.5 11.5t22.5 32.5q0 16 -16.5 26.5t-41.5 10.5q-18 21 -18 47l45 55q-48 1 -85 9t-75 23q4 29 4 69q0 25 -2 55q17 10 46 16t55 6q4 -48 26 -73.5 t54 -25.5q21 0 34.5 9.5t13.5 26.5q0 22 -17.5 36.5t-68.5 34.5q-70 26 -105.5 59.5t-35.5 96.5q0 67 54 100t151 33q59 0 99.5 -7t76.5 -22q-1 -9 -1 -28q0 -41 6 -80q-17 -10 -44 -16.5t-55 -6.5q-12 83 -82 83q-16 0 -25.5 -9t-9.5 -23q0 -13 6.5 -23t28 -23t65.5 -31 q59 -24 92 -45.5t47 -45.5t14 -56q0 -64 -49 -99.5z" glyph-name="scedilla" horiz-adv-x="493" unicode="ş"/><glyph d="M28 48q14 63 14 169q46 13 123 13q5 -65 15 -98t30 -46t59 -13q48 0 72 19.5t24 47.5t-26.5 46.5t-84.5 45.5q-64 29 -106.5 56t-73.5 74t-31 116q0 106 68.5 156.5t175.5 50.5q57 0 117 -12.5t89 -31.5q0 -108 7 -151q-19 -12 -51.5 -17.5t-63.5 -5.5 q-12 77 -39.5 107.5t-72.5 30.5q-33 0 -54.5 -14.5t-21.5 -43.5q0 -33 31.5 -55.5t96.5 -50.5q68 -30 112 -57t75.5 -73t31.5 -113q0 -98 -70 -152.5t-200 -54.5q-133 0 -246 57zM82 838q18 22 40 36t54 20q38 -24 116 -57q8 4 15.5 7.5t14.5 6.5q50 22 78 40 q24 -3 42 -18.5t25 -34.5q-104 -62 -151 -102q-34 -11 -90 -11q-53 53 -144 113z" glyph-name="Scaron" horiz-adv-x="564" unicode="Š"/><glyph d="M382 313.5q-27 -6.5 -55 -6.5q-12 83 -82 83q-16 0 -25.5 -9t-9.5 -23q0 -13 6.5 -23t28 -23t65.5 -31q59 -24 92 -45.5t47 -45.5t14 -56q0 -71 -60 -107t-173 -36q-62 0 -106 8t-88 25q4 29 4 69q0 25 -2 55q17 10 46 16t55 6q4 -48 26 -73.5t54 -25.5q21 0 34.5 9.5 t13.5 26.5q0 22 -17.5 36.5t-68.5 34.5q-70 26 -105.5 59.5t-35.5 96.5q0 67 54 100t151 33q59 0 99.5 -7t76.5 -22q-1 -9 -1 -28q0 -41 6 -80q-17 -10 -44 -16.5zM46 666q7 20 25 33.5t47 23.5q62 -47 133 -79q32 13 68 35t62 44q22 -5 39 -22t23 -35q-97 -73 -156 -139 q-35 -13 -90 -11q-62 70 -151 150z" glyph-name="scaron" horiz-adv-x="493" unicode="š"/><glyph d="M457 601v-414q0 -48 7.5 -70t27.5 -31t63 -11q10 -26 10 -78q-51 3 -177 3l-33 -43q42 -7 65.5 -33.5t23.5 -61.5q0 -50 -45.5 -77t-130.5 -27q-9 18 -9 51q33 0 55.5 11.5t22.5 32.5q0 16 -16.5 26.5t-41.5 10.5q-18 21 -18 47l52 63q-123 0 -174 -3q0 17 3.5 40t8.5 38 q44 2 66 11t31 31.5t9 69.5v414h-2q-53 0 -81.5 -30t-45.5 -98q-71 0 -103 15q11 41 18 95.5t7 95.5q84 -3 313 -3q182 0 307 3q0 -42 6.5 -93.5t17.5 -96.5q-39 -16 -104 -16q-14 69 -38.5 98.5t-74.5 29.5h-20z" glyph-name="uni0162" horiz-adv-x="719" unicode="Ţ"/><glyph d="M309.5 -76.5q23.5 -26.5 23.5 -61.5q0 -50 -45.5 -77t-130.5 -27q-9 18 -9 51q33 0 55.5 11.5t22.5 32.5q0 16 -16.5 26.5t-41.5 10.5q-18 21 -18 47l47 57q-59 10 -88 53t-29 127v183q-28 12 -75 12q0 47 14 79h61v115q44 4 88 20t70 37q18 -8 25 -22.5t7 -47.5v-102 h117q0 -43 -10 -80q-61 0 -107 -18v-164q0 -46 4.5 -69t14 -31t28.5 -8q13 0 29 3t28 8q15 -22 15 -64q-18 -12 -49.5 -21t-68.5 -12l-27 -35q42 -7 65.5 -33.5z" glyph-name="uni0163" horiz-adv-x="399" unicode="ţ"/><glyph d="M457 601v-414q0 -48 7.5 -70t27.5 -31t63 -11q10 -26 10 -78q-56 3 -195 3q-165 0 -231 -3q0 17 3.5 40t8.5 38q44 2 66 11t31 31.5t9 69.5v414h-2q-53 0 -81.5 -30t-45.5 -98q-71 0 -103 15q11 41 18 95.5t7 95.5q84 -3 313 -3q182 0 307 3q0 -42 6.5 -93.5t17.5 -96.5 q-39 -16 -104 -16q-14 69 -38.5 98.5t-74.5 29.5h-20zM152 838q18 22 40 36t54 20q38 -24 116 -57q8 4 15.5 7.5t14.5 6.5q50 22 78 40q24 -3 42 -18.5t25 -34.5q-104 -62 -151 -102q-34 -11 -90 -11q-53 53 -144 113z" glyph-name="Tcaron" horiz-adv-x="719" unicode="Ť"/><glyph d="M558.5 513.5q-27.5 -58.5 -76.5 -102.5q-45 0 -76 20q31 31 43 55.5t12 51.5q0 21 -17 31.5t-54 14.5q0 36 3 59.5t13 55.5q83 3 126 32q30 -8 42 -29.5t12 -71.5q0 -58 -27.5 -116.5zM119.5 33q-39.5 42 -39.5 141v183q-28 12 -75 12q0 47 14 79h61v115q44 4 88 20 t70 37q18 -8 25 -22.5t7 -47.5v-102h117q0 -43 -10 -80q-61 0 -107 -18v-164q0 -46 4.5 -69t14 -31t28.5 -8q13 0 29 3t28 8q15 -22 15 -64q-22 -15 -63 -24.5t-85 -9.5q-82 0 -121.5 42z" glyph-name="tcaron" horiz-adv-x="588" unicode="ť"/><glyph d="M457 601v-214h117q0 -53 -13 -89q-45 1 -104 1v-112q0 -48 7.5 -70t27.5 -31t63 -11q10 -26 10 -78q-56 3 -195 3q-165 0 -231 -3q0 17 3.5 40t8.5 38q44 2 66 11t31 31.5t9 69.5v111q-31 0 -48 -1l-63 -1q0 55 13 91h98v214h-2q-53 0 -81.5 -30t-45.5 -98q-71 0 -103 15 q11 41 18 95.5t7 95.5q84 -3 313 -3q182 0 307 3q0 -42 6.5 -93.5t17.5 -96.5q-39 -16 -104 -16q-14 69 -38.5 98.5t-74.5 29.5h-20z" glyph-name="Tbar" horiz-adv-x="719" unicode="Ŧ"/><glyph d="M389 25q-22 -15 -63 -24.5t-85 -9.5q-82 0 -121.5 42t-39.5 141v41q-58 -2 -92 -4q0 41 9 65h83v81q-28 12 -75 12q0 47 14 79h61v115q44 4 88 20t70 37q18 -8 25 -22.5t7 -47.5v-102h117q0 -43 -10 -80q-61 0 -107 -18v-74h92q0 -32 -9 -58h-83v-32q0 -46 4.5 -69 t14 -31t28.5 -8q13 0 29 3t28 8q15 -22 15 -64z" glyph-name="tbar" horiz-adv-x="399" unicode="ŧ"/><glyph d="M583 131.5q-13 -54.5 -47 -87.5q-57 -53 -177 -53q-100 0 -158 25.5t-82.5 79t-24.5 143.5v247q0 47 -5.5 69.5t-18.5 31.5t-42 14q-8 34 -8 78q41 -3 136 -3q160 0 208 3q0 -50 -6 -78q-29 -5 -41.5 -14t-17.5 -31t-5 -70v-230q0 -93 28 -138.5t84 -45.5q25 0 48 10.5 t38 32.5q14 21 21 60t7 112v180q0 50 -6 77t-20 39.5t-40 17.5q-6 41 -6 78q41 -3 112 -3q70 0 107 3q0 -49 -8 -78q-26 -4 -39.5 -15.5t-18.5 -36.5t-5 -73v-199q0 -91 -13 -145.5zM410 742q-18 7 -40 21q-16 11 -28.5 16t-28.5 5q-42 0 -78 -47q-18 18 -27 35t-10 41 q27 38 67 56.5t78 18.5q24 0 42 -6.5t44 -19.5q19 -10 32 -15t27 -5q37 0 61 40q40 -8 65 -34q-27 -54 -68 -83.5t-92 -29.5q-26 0 -44 7z" glyph-name="Utilde" horiz-adv-x="697" unicode="Ũ"/><glyph d="M640 78q0 -30 -13 -53q-97 -2 -180 -34q-21 8 -29.5 22t-8.5 35q0 22 7 50q-14 -41 -38 -62q-21 -19 -58.5 -31t-84.5 -12q-80 0 -119 43t-39 145v89q0 35 -4 52t-17 25.5t-41 11.5q0 50 13 75q69 0 123.5 10t81.5 23q34 -15 34 -64v-196q0 -64 10.5 -87.5t32.5 -23.5 q34 0 58 38.5t24 111.5v29q0 34 -5.5 52t-20.5 26t-45 11q0 50 13 75q73 0 131 8t83 20q34 -15 34 -64v-207q0 -41 4 -59.5t15.5 -25t36.5 -7.5q2 -9 2 -26zM349 544.5q-18 7.5 -40 21.5q-19 13 -33.5 19t-32.5 6q-48 0 -90 -51q-17 16 -26 33t-10 40q72 84 149 84 q24 0 41 -7t42 -21q20 -12 33 -17.5t29 -5.5q42 0 72 43q40 -6 64 -32q-35 -61 -72 -90.5t-83 -29.5q-25 0 -43 7.5z" glyph-name="utilde" horiz-adv-x="653" unicode="ũ"/><glyph d="M583 131.5q-13 -54.5 -47 -87.5q-57 -53 -177 -53q-100 0 -158 25.5t-82.5 79t-24.5 143.5v247q0 47 -5.5 69.5t-18.5 31.5t-42 14q-8 34 -8 78q41 -3 136 -3q160 0 208 3q0 -50 -6 -78q-29 -5 -41.5 -14t-17.5 -31t-5 -70v-230q0 -93 28 -138.5t84 -45.5q25 0 48 10.5 t38 32.5q14 21 21 60t7 112v180q0 50 -6 77t-20 39.5t-40 17.5q-6 41 -6 78q41 -3 112 -3q70 0 107 3q0 -49 -8 -78q-26 -4 -39.5 -15.5t-18.5 -36.5t-5 -73v-199q0 -91 -13 -145.5zM593 763q-224 0 -384 -13q0 50 9 78h384q0 -35 -9 -65z" glyph-name="Umacron" horiz-adv-x="697" unicode="Ū"/><glyph d="M640 78q0 -30 -13 -53q-97 -2 -180 -34q-21 8 -29.5 22t-8.5 35q0 22 7 50q-14 -41 -38 -62q-21 -19 -58.5 -31t-84.5 -12q-80 0 -119 43t-39 145v89q0 35 -4 52t-17 25.5t-41 11.5q0 50 13 75q69 0 123.5 10t81.5 23q34 -15 34 -64v-196q0 -64 10.5 -87.5t32.5 -23.5 q34 0 58 38.5t24 111.5v29q0 34 -5.5 52t-20.5 26t-45 11q0 50 13 75q73 0 131 8t83 20q34 -15 34 -64v-207q0 -41 4 -59.5t15.5 -25t36.5 -7.5q2 -9 2 -26zM149 631h375q0 -32 -9 -58q-203 0 -375 -10q0 44 9 68z" glyph-name="umacron" horiz-adv-x="653" unicode="ū"/><glyph d="M583 131.5q-13 -54.5 -47 -87.5q-57 -53 -177 -53q-100 0 -158 25.5t-82.5 79t-24.5 143.5v247q0 47 -5.5 69.5t-18.5 31.5t-42 14q-8 34 -8 78q41 -3 136 -3q160 0 208 3q0 -50 -6 -78q-29 -5 -41.5 -14t-17.5 -31t-5 -70v-230q0 -93 28 -138.5t84 -45.5q25 0 48 10.5 t38 32.5q14 21 21 60t7 112v180q0 50 -6 77t-20 39.5t-40 17.5q-6 41 -6 78q41 -3 112 -3q70 0 107 3q0 -49 -8 -78q-26 -4 -39.5 -15.5t-18.5 -36.5t-5 -73v-199q0 -91 -13 -145.5zM404 721q-180 0 -180 144q33 13 72 13q15 0 32 -3q9 -50 89 -50q38 0 59 12.5t22 37.5 q22 4 34 4q28 0 56 -10q0 -148 -184 -148z" glyph-name="Ubreve" horiz-adv-x="697" unicode="Ŭ"/><glyph d="M640 78q0 -30 -13 -53q-97 -2 -180 -34q-21 8 -29.5 22t-8.5 35q0 22 7 50q-14 -41 -38 -62q-21 -19 -58.5 -31t-84.5 -12q-80 0 -119 43t-39 145v89q0 35 -4 52t-17 25.5t-41 11.5q0 50 13 75q69 0 123.5 10t81.5 23q34 -15 34 -64v-196q0 -64 10.5 -87.5t32.5 -23.5 q34 0 58 38.5t24 111.5v29q0 34 -5.5 52t-20.5 26t-45 11q0 50 13 75q73 0 131 8t83 20q34 -15 34 -64v-207q0 -41 4 -59.5t15.5 -25t36.5 -7.5q2 -9 2 -26zM486 565q-53 -48 -156 -48q-101 0 -153 46.5t-52 137.5q33 14 77 14q9 0 29 -2q6 -36 35.5 -55.5t77.5 -19.5 q47 0 74.5 19.5t29.5 55.5q17 3 32 3q31 0 59 -10q0 -93 -53 -141z" glyph-name="ubreve" horiz-adv-x="653" unicode="ŭ"/><glyph d="M583 131.5q-13 -54.5 -47 -87.5q-57 -53 -177 -53q-100 0 -158 25.5t-82.5 79t-24.5 143.5v247q0 47 -5.5 69.5t-18.5 31.5t-42 14q-8 34 -8 78q41 -3 136 -3q160 0 208 3q0 -50 -6 -78q-29 -5 -41.5 -14t-17.5 -31t-5 -70v-230q0 -93 28 -138.5t84 -45.5q25 0 48 10.5 t38 32.5q14 21 21 60t7 112v180q0 50 -6 77t-20 39.5t-40 17.5q-6 41 -6 78q41 -3 112 -3q70 0 107 3q0 -49 -8 -78q-26 -4 -39.5 -15.5t-18.5 -36.5t-5 -73v-199q0 -91 -13 -145.5zM310 736.5q-35 23.5 -35 65.5q0 45 37.5 70t98.5 25q57 0 91.5 -22t34.5 -66t-37.5 -70 t-99.5 -26q-55 0 -90 23.5zM433 770.5q10 11.5 10 31.5t-10.5 37t-30.5 17q-15 0 -23.5 -12.5t-8.5 -35.5q0 -22 10 -35.5t28 -13.5q15 0 25 11.5z" glyph-name="Uring" horiz-adv-x="697" unicode="Ů"/><glyph d="M640 78q0 -30 -13 -53q-97 -2 -180 -34q-21 8 -29.5 22t-8.5 35q0 22 7 50q-14 -41 -38 -62q-21 -19 -58.5 -31t-84.5 -12q-80 0 -119 43t-39 145v89q0 35 -4 52t-17 25.5t-41 11.5q0 50 13 75q69 0 123.5 10t81.5 23q34 -15 34 -64v-196q0 -64 10.5 -87.5t32.5 -23.5 q34 0 58 38.5t24 111.5v29q0 34 -5.5 52t-20.5 26t-45 11q0 50 13 75q73 0 131 8t83 20q34 -15 34 -64v-207q0 -41 4 -59.5t15.5 -25t36.5 -7.5q2 -9 2 -26zM232 543.5q-37 27.5 -37 75.5q0 50 39.5 80t102.5 30q59 0 95.5 -25.5t36.5 -76.5q0 -50 -39.5 -80.5t-103.5 -30.5 q-57 0 -94 27.5zM357 587.5q9 11.5 9 31.5q0 21 -9.5 38t-27.5 17q-14 0 -22 -13t-8 -36q0 -22 9.5 -35.5t26.5 -13.5q13 0 22 11.5z" glyph-name="uring" horiz-adv-x="653" unicode="ů"/><glyph d="M583 131.5q-13 -54.5 -47 -87.5q-57 -53 -177 -53q-100 0 -158 25.5t-82.5 79t-24.5 143.5v247q0 47 -5.5 69.5t-18.5 31.5t-42 14q-8 34 -8 78q41 -3 136 -3q160 0 208 3q0 -50 -6 -78q-29 -5 -41.5 -14t-17.5 -31t-5 -70v-230q0 -93 28 -138.5t84 -45.5q25 0 48 10.5 t38 32.5q14 21 21 60t7 112v180q0 50 -6 77t-20 39.5t-40 17.5q-6 41 -6 78q41 -3 112 -3q70 0 107 3q0 -49 -8 -78q-26 -4 -39.5 -15.5t-18.5 -36.5t-5 -73v-199q0 -91 -13 -145.5zM285.5 743.5q-27.5 6.5 -43.5 15.5q24 50 42 109q39 15 102 15q41 0 61 -6 q-55 -62 -108 -141q-26 1 -53.5 7.5zM485.5 743.5q-27.5 6.5 -43.5 15.5q24 50 42 109q39 15 102 15q41 0 61 -6q-55 -62 -108 -141q-26 1 -53.5 7.5z" glyph-name="Uhungarumlaut" horiz-adv-x="697" unicode="Ű"/><glyph d="M640 78q0 -30 -13 -53q-97 -2 -180 -34q-21 8 -29.5 22t-8.5 35q0 22 7 50q-14 -41 -38 -62q-21 -19 -58.5 -31t-84.5 -12q-80 0 -119 43t-39 145v89q0 35 -4 52t-17 25.5t-41 11.5q0 50 13 75q69 0 123.5 10t81.5 23q34 -15 34 -64v-196q0 -64 10.5 -87.5t32.5 -23.5 q34 0 58 38.5t24 111.5v29q0 34 -5.5 52t-20.5 26t-45 11q0 50 13 75q73 0 131 8t83 20q34 -15 34 -64v-207q0 -41 4 -59.5t15.5 -25t36.5 -7.5q2 -9 2 -26zM210.5 536q-27.5 6 -43.5 14q24 46 38 81.5t23 74.5q38 13 102 13q40 0 64 -4q-84 -100 -130 -185q-26 0 -53.5 6z M410.5 536q-27.5 6 -43.5 14q24 46 38 81.5t23 74.5q38 13 102 13q40 0 64 -4q-84 -100 -130 -185q-26 0 -53.5 6z" glyph-name="uhungarumlaut" horiz-adv-x="653" unicode="ű"/><glyph d="M667 679q0 -49 -8 -78q-26 -4 -39.5 -15.5t-18.5 -36.5t-5 -73v-199q0 -91 -13 -145.5t-47 -87.5q-17 -16 -32 -23q-78 -46 -78 -97t76 -51q19 0 34 3q7 -9 12.5 -31.5t5.5 -41.5q0 -9 -1 -13q-37 -5 -73 -15.5t-61 -22.5q-10 -1 -23 -1q-30 0 -61 13t-51.5 40.5 t-20.5 69.5q0 34 21.5 62t84.5 55h-10q-100 0 -158 25.5t-82.5 79t-24.5 143.5v247q0 47 -5.5 69.5t-18.5 31.5t-42 14q-8 34 -8 78q41 -3 136 -3q160 0 208 3q0 -50 -6 -78q-29 -5 -41.5 -14t-17.5 -31t-5 -70v-230q0 -93 28 -138.5t84 -45.5q25 0 48 10.5t38 32.5 q14 21 21 60t7 112v180q0 50 -6 77t-20 39.5t-40 17.5q-6 41 -6 78q41 -3 112 -3q70 0 107 3z" glyph-name="Uogonek" horiz-adv-x="697" unicode="Ų"/><glyph d="M619 -124q7 -9 12.5 -31.5t5.5 -41.5q0 -9 -1 -13q-37 -5 -73 -15.5t-61 -22.5q-10 -1 -23 -1q-30 0 -61 13t-51.5 40.5t-20.5 69.5q0 33 19.5 63t76.5 56q-33 15 -33 55q0 22 7 50q-14 -41 -38 -62q-21 -19 -58.5 -31t-84.5 -12q-80 0 -119 43t-39 145v89q0 35 -4 52 t-17 25.5t-41 11.5q0 50 13 75q69 0 123.5 10t81.5 23q34 -15 34 -64v-196q0 -64 10.5 -87.5t32.5 -23.5q34 0 58 38.5t24 111.5v29q0 34 -5.5 52t-20.5 26t-45 11q0 50 13 75q73 0 131 8t83 20q34 -15 34 -64v-207q0 -41 4 -59.5t15.5 -25t36.5 -7.5q2 -9 2 -26 q0 -30 -13 -53q-61 -10 -89.5 -40t-28.5 -62q0 -50 76 -50q19 0 34 3z" glyph-name="uogonek" horiz-adv-x="653" unicode="ų"/><glyph d="M975 679q0 -27 -1.5 -44t-7.5 -34q-19 -7 -31.5 -20.5t-24 -41.5t-27.5 -81l-135 -458q-15 -4 -47 -6.5t-61 -2.5q-69 190 -154 400l-139 -393q-30 -7 -104 -7q-80 269 -147 476q-22 63 -32 88t-19.5 33t-27.5 10q-5 16 -6 37.5t-1 43.5q48 -3 168 -3q125 0 172 3 q0 -46 -8 -78q-30 -5 -43 -14t-13 -30q0 -23 18 -73q37 -116 61 -202l140 394q29 8 84 8q83 -204 161 -416l57 190q14 45 14 76t-15.5 46.5t-49.5 20.5q-10 26 -10 78q42 -3 120 -3q68 0 109 3zM380 746.5q-18 15.5 -25 34.5q104 62 151 102q34 11 90 11q53 -53 144 -113 q-18 -22 -40 -36t-54 -20q-39 24 -116 57q-8 -4 -15.5 -7.5t-14.5 -6.5q-50 -22 -78 -40q-24 3 -42 18.5z" glyph-name="Wcircumflex" horiz-adv-x="985" unicode="Ŵ"/><glyph d="M787 461q0 -18 -3 -41t-9 -36q-25 -5 -37 -19t-22 -46l-102 -319q-25 -9 -112 -9q-41 90 -59.5 136t-31.5 94l-104 -221q-25 -9 -115 -9q-24 79 -58.5 181.5t-51.5 152.5q-11 29 -25 43t-35 15q-12 36 -12 78q76 -3 146 -3q94 0 169 3q0 -39 -12 -77q-18 -2 -25 -6 t-7 -15t10 -51q15 -57 23 -107l103 250q25 9 82 9q59 -139 105 -270l32 118q6 20 6 33q0 17 -9.5 25.5t-30.5 13.5q-11 33 -11 77q39 -3 96 -3t100 3zM280 537q-17 17 -23 35q104 70 168 136q40 15 87 15q65 -78 160 -157q-17 -20 -38.5 -32.5t-51.5 -18.5q-64 47 -134 83 q-28 -15 -66.5 -39.5t-62.5 -43.5q-22 5 -39 22z" glyph-name="wcircumflex" horiz-adv-x="797" unicode="ŵ"/><glyph d="M624 678q0 -43 -9 -77q-19 -4 -34 -21t-36 -63l-122 -269v-50q0 -52 7 -76t27.5 -34t64.5 -13q6 -20 8 -36t2 -42q-58 3 -214 3q-60 0 -160 -2l-53 -1q2 53 12 78q51 4 72 12.5t27.5 32t6.5 79.5v52l-139 291q-26 54 -66 59q-8 29 -8 77q48 -2 168 -2q127 0 168 2 q0 -38 -7 -77q-33 -4 -33 -32q0 -14 14 -51l11 -28q37 -91 59 -152q39 100 76 186q9 21 9 38q0 36 -38 39q-9 33 -9 77q36 -2 103 -2q61 0 93 2zM212 746.5q-18 15.5 -25 34.5q104 62 151 102q34 11 90 11q53 -53 144 -113q-18 -22 -40 -36t-54 -20q-39 24 -116 57 q-8 -4 -15.5 -7.5t-14.5 -6.5q-50 -22 -78 -40q-24 3 -42 18.5z" glyph-name="Ycircumflex" horiz-adv-x="634" unicode="Ŷ"/><glyph d="M569 462q0 -20 -3.5 -41.5t-9.5 -37.5q-23 -6 -36.5 -20t-29.5 -50l-147 -350q-37 -89 -68 -134.5t-60 -61.5t-67 -16q-33 0 -65.5 15.5t-48.5 38.5q-1 6 -1 23q0 49 14 85q20 -8 50.5 -13.5t65.5 -5.5q36 0 54.5 9t34.5 34l5 9q-79 188 -170 373q-17 35 -31.5 47.5 t-35.5 16.5q-10 29 -10 78q57 -3 153 -3q110 0 171 3q0 -20 -3.5 -43t-8.5 -35q-23 -4 -32.5 -9.5t-9.5 -16.5q0 -14 19 -50q31 -61 57 -131l48 122q15 36 15 54q0 14 -8.5 21t-26.5 10q-11 28 -11 78q47 -3 101 -3q55 0 95 4zM176 537q-17 17 -23 35q104 70 168 136 q40 15 87 15q65 -78 160 -157q-17 -20 -38.5 -32.5t-51.5 -18.5q-64 47 -134 83q-28 -15 -66.5 -39.5t-62.5 -43.5q-22 5 -39 22z" glyph-name="ycircumflex" horiz-adv-x="579" unicode="ŷ"/><glyph d="M624 678q0 -43 -9 -77q-19 -4 -34 -21t-36 -63l-122 -269v-50q0 -52 7 -76t27.5 -34t64.5 -13q6 -20 8 -36t2 -42q-58 3 -214 3q-60 0 -160 -2l-53 -1q2 53 12 78q51 4 72 12.5t27.5 32t6.5 79.5v52l-139 291q-26 54 -66 59q-8 29 -8 77q48 -2 168 -2q127 0 168 2 q0 -38 -7 -77q-33 -4 -33 -32q0 -14 14 -51l11 -28q37 -91 59 -152q39 100 76 186q9 21 9 38q0 36 -38 39q-9 33 -9 77q36 -2 103 -2q61 0 93 2zM184 742q-27 23 -27 57q0 38 23.5 64t70.5 26q49 0 73 -24t24 -64q0 -35 -27 -58.5t-67 -23.5q-43 0 -70 23zM436 743.5 q-26 24.5 -26 65.5q0 38 26 59t70 21q42 0 69.5 -23t27.5 -57q0 -39 -22.5 -64.5t-69.5 -25.5q-49 0 -75 24.5z" glyph-name="Ydieresis" horiz-adv-x="634" unicode="Ÿ"/><glyph d="M556 183q-9 -38 -18 -93.5t-10 -92.5q-78 3 -258 3q-128 0 -220 -3q-20 28 -20 71q99 175 161 289t126 244h-53q-32 0 -52 -12t-34.5 -42.5t-28.5 -90.5q-74 0 -106 14q13 45 19 101.5t6 106.5q50 -2 234 -2q161 0 222 2q18 -30 21 -70q-73 -152 -137 -274t-144 -259h36 q45 0 71.5 11t44 40t32.5 86q65 -5 108 -29zM227 753q35 55 61 119q43 10 94 10q40 0 68 -6q-66 -69 -121 -141q-53 0 -102 18z" glyph-name="Zacute" horiz-adv-x="586" unicode="Ź"/><glyph d="M498 22q-11 -24 -47 -24q-55 0 -90 1l-111 1q-117 0 -189 -2q-9 14 -15 34.5t-6 39.5q127 162 221 311h-38q-24 0 -37.5 -8t-21.5 -28.5t-14 -60.5q-31 -2 -60 2t-47 14q12 61 12 159q62 -3 213 -3q130 0 196 3q16 -24 16 -63q-89 -152 -215 -323h48q31 0 46.5 11 t22.5 35t10 70q53 3 98 -11q0 -110 8 -158zM246.5 536q-27.5 6 -43.5 14q24 46 38 81.5t23 74.5q38 13 102 13q40 0 64 -4q-84 -100 -130 -185q-26 0 -53.5 6z" glyph-name="zacute" horiz-adv-x="518" unicode="ź"/><glyph d="M556 183q-9 -38 -18 -93.5t-10 -92.5q-78 3 -258 3q-128 0 -220 -3q-20 28 -20 71q99 175 161 289t126 244h-53q-32 0 -52 -12t-34.5 -42.5t-28.5 -90.5q-74 0 -106 14q13 45 19 101.5t6 106.5q50 -2 234 -2q161 0 222 2q18 -30 21 -70q-73 -152 -137 -274t-144 -259h36 q45 0 71.5 11t44 40t32.5 86q65 -5 108 -29zM218.5 736q-27.5 22 -27.5 59q0 43 30 66t79 23q53 0 80.5 -22t27.5 -65q0 -37 -31 -60t-84 -23q-47 0 -74.5 22z" glyph-name="Zdotaccent" horiz-adv-x="586" unicode="Ż"/><glyph d="M498 22q-11 -24 -47 -24q-55 0 -90 1l-111 1q-117 0 -189 -2q-9 14 -15 34.5t-6 39.5q127 162 221 311h-38q-24 0 -37.5 -8t-21.5 -28.5t-14 -60.5q-31 -2 -60 2t-47 14q12 61 12 159q62 -3 213 -3q130 0 196 3q16 -24 16 -63q-89 -152 -215 -323h48q31 0 46.5 11 t22.5 35t10 70q53 3 98 -11q0 -110 8 -158zM177.5 536q-27.5 22 -27.5 59q0 43 30 66t79 23q53 0 80.5 -22t27.5 -65q0 -37 -31 -60t-84 -23q-47 0 -74.5 22z" glyph-name="zdotaccent" horiz-adv-x="518" unicode="ż"/><glyph d="M556 183q-9 -38 -18 -93.5t-10 -92.5q-78 3 -258 3q-128 0 -220 -3q-20 28 -20 71q99 175 161 289t126 244h-53q-32 0 -52 -12t-34.5 -42.5t-28.5 -90.5q-74 0 -106 14q13 45 19 101.5t6 106.5q50 -2 234 -2q161 0 222 2q18 -30 21 -70q-73 -152 -137 -274t-144 -259h36 q45 0 71.5 11t44 40t32.5 86q65 -5 108 -29zM92 838q18 22 40 36t54 20q38 -24 116 -57q8 4 15.5 7.5t14.5 6.5q50 22 78 40q24 -3 42 -18.5t25 -34.5q-104 -62 -151 -102q-34 -11 -90 -11q-53 53 -144 113z" glyph-name="Zcaron" horiz-adv-x="586" unicode="Ž"/><glyph d="M498 22q-11 -24 -47 -24q-55 0 -90 1l-111 1q-117 0 -189 -2q-9 14 -15 34.5t-6 39.5q127 162 221 311h-38q-24 0 -37.5 -8t-21.5 -28.5t-14 -60.5q-31 -2 -60 2t-47 14q12 61 12 159q62 -3 213 -3q130 0 196 3q16 -24 16 -63q-89 -152 -215 -323h48q31 0 46.5 11 t22.5 35t10 70q53 3 98 -11q0 -110 8 -158zM60 666q7 20 25 33.5t47 23.5q62 -47 133 -79q32 13 68 35t62 44q22 -5 39 -22t23 -35q-97 -73 -156 -139q-35 -13 -90 -11q-62 70 -151 150z" glyph-name="zcaron" horiz-adv-x="518" unicode="ž"/><glyph d="M292 197q0 -65 23 -91.5t86 -30.5q9 -25 9 -78q-57 3 -180 3q-133 0 -202 -3q0 51 7 78q29 2 42.5 11t19 31.5t5.5 69.5v170q-40 12 -75 12q0 55 14 79h61v29q0 118 68.5 179t182.5 61q42 0 85.5 -9.5t65.5 -23.5q-7 -36 -7 -93q0 -19 2 -45q-18 -8 -53.5 -11.5 t-65.5 -1.5q0 50 -13.5 79t-34.5 29q-15 0 -23.5 -10t-12.5 -38t-4 -82v-314z" glyph-name="longs" horiz-adv-x="420" unicode="ſ"/><glyph d="M547.5 117.5q5.5 -22.5 19 -31.5t41.5 -11q8 -30 8 -78q-58 1 -148 2t-161 1q-143 0 -261 -2q-8 110 -31 179q13 12 41 21.5t61 12.5q20 -73 49.5 -104.5t80.5 -31.5h17q31 0 47.5 10t23.5 35t7 72v107h-1q-45 0 -62 -13.5t-21 -54.5q-29 -10 -86 -10q4 58 4 119 q0 53 -4 117q57 0 88 -12q1 -40 17.5 -55.5t63.5 -15.5h1v227h-49q-69 0 -98 -29t-40 -89q-54 0 -101 18q9 33 14.5 84t6.5 94q84 -3 270 -3q178 0 271 3q0 -50 -7 -78q-30 -4 -43.5 -12.5t-18.5 -30t-5 -67.5v-304q0 -47 5.5 -69.5z" glyph-name="uni018E" horiz-adv-x="646" unicode="Ǝ"/><glyph d="M582.5 592.5q87.5 -92.5 87.5 -241.5q0 -108 -42 -189t-118.5 -125t-177.5 -44q-147 0 -220 88.5t-77 226.5q4 18 13 34t21 27h394q-7 113 -50 177t-134 64q-60 0 -84 -32t-31 -110q-6 -1 -19 -1q-22 0 -43.5 5t-34.5 13q5 45 5 78q0 38 -6 77q49 22 111 33.5t127 11.5 q191 0 278.5 -92.5zM465 289q-110 5 -240 5q0 -112 30 -169t89 -57q115 0 121 221z" glyph-name="uni018F" horiz-adv-x="705" unicode="Ə"/><glyph d="M498.5 709q34.5 -5 51.5 -13q-10 -30 -18 -80t-8 -79q-12 -6 -43.5 -9.5t-57.5 -3.5v24q0 48 -5.5 69.5t-25.5 21.5q-17 0 -28.5 -17.5t-22 -57t-24.5 -116.5h92q0 -62 -10 -83q-53 0 -99 -13q-8 -47 -13.5 -84t-10.5 -65l-10 -66q-22 -136 -54.5 -217.5t-95 -124.5 t-169.5 -43q-39 0 -73.5 5t-50.5 13q10 30 18 80t8 79q12 6 43.5 9.5t57.5 3.5v-24q0 -47 5 -69t26 -22q29 0 53.5 50.5t34.5 157.5q18 183 38 320q-41 14 -80 14q0 55 14 79h82l1 6q18 92 46 146.5t87 84t162 29.5q45 0 79.5 -5z" glyph-name="florin" horiz-adv-x="441" unicode="ƒ"/><glyph d="M681 679q0 -20 -1 -40.5t-6 -37.5q-27 -4 -40 -15t-18 -39.5t-5 -88.5v-458q-19 -6 -39 -7.5t-52 -1.5l-341 462v-360q0 -114 -29.5 -190.5t-79 -114t-111.5 -37.5q-41 0 -72 15.5t-48 38.5q-1 6 -1 23q0 49 14 85q19 -7 50.5 -13t60.5 -6q74 0 107.5 43.5t33.5 139.5 v477l-14 19q-8 14 -21.5 19.5t-45.5 8.5q-8 29 -8 78q39 -3 133 -3q86 0 113 3l275 -379v158q0 59 -6.5 87t-23.5 40t-55 16q-7 27 -7 78q42 -3 131 -3q70 0 106 3z" glyph-name="uni019D" horiz-adv-x="711" unicode="Ɲ"/><glyph d="M700.5 493.5q25.5 -62.5 25.5 -139.5q0 -107 -42.5 -189.5t-121 -128t-182.5 -45.5q-106 0 -184 43.5t-119.5 123t-41.5 183.5q0 105 44 182.5t122 119.5t179 42h1q23 0 34 -1q20 -1 60 -5q56 -6 77 -6q43 0 61 17.5t18 65.5q0 29 -5.5 58t-13.5 47q36 14 85 14 q17 0 23 -1q23 -16 38.5 -48.5t15.5 -64.5q0 -36 -20.5 -70.5t-54.5 -59t-73 -31.5q49 -44 74.5 -106.5zM487 140q34 71 34 193q0 77 -18.5 140t-53.5 100t-82 37q-61 0 -94 -63.5t-33 -181.5q0 -129 38.5 -212.5t113.5 -83.5q61 0 95 71z" glyph-name="Ohorn" horiz-adv-x="761" unicode="Ơ"/><glyph d="M660 471q-19 -37 -52.5 -62.5t-74.5 -29.5q45 -57 45 -142q0 -117 -74.5 -181.5t-205.5 -64.5q-132 0 -200 60.5t-68 168.5q0 82 36.5 137.5t99 82.5t141.5 27h1v0h1v0h1v0h1v0h1v0h1h1h1h1h1h1h1q40 -1 97 -12q38 -6 49 -6q39 0 55 26t16 74q0 60 -19 100q36 14 85 14 q17 0 23 -1q23 -16 38.5 -48.5t15.5 -67.5q0 -38 -19 -75zM369 106.5q19 38.5 19 97.5q0 62 -13.5 105t-35.5 64.5t-47 21.5q-35 0 -53.5 -38.5t-18.5 -98.5q0 -82 25 -136t72 -54q33 0 52 38.5z" glyph-name="ohorn" horiz-adv-x="638" unicode="ơ"/><glyph d="M788.5 825.5q15.5 -32.5 15.5 -65.5q0 -38 -20.5 -74.5t-54 -60t-70.5 -24.5q-26 -4 -39.5 -15.5t-18.5 -36.5t-5 -73v-199q0 -91 -13 -145.5t-47 -87.5q-57 -53 -177 -53q-100 0 -158 25.5t-82.5 79t-24.5 143.5v247q0 47 -5.5 69.5t-18.5 31.5t-42 14q-8 34 -8 78 q41 -3 136 -3q160 0 208 3q0 -50 -6 -78q-29 -5 -41.5 -14t-17.5 -31t-5 -70v-230q0 -93 28 -138.5t84 -45.5q25 0 48 10.5t38 32.5q14 21 21 60t7 112v180q0 50 -6 77t-20 39.5t-40 17.5q-6 41 -6 78q41 -3 112 -3h37q35 2 49.5 21t14.5 60q0 29 -5.5 57.5t-13.5 46.5 q36 14 85 14q17 0 23 -1q23 -16 38.5 -48.5z" glyph-name="Uhorn" horiz-adv-x="797" unicode="Ư"/><glyph d="M715.5 480.5q-19.5 -33.5 -54.5 -58t-79 -32.5v-194q0 -41 4 -59.5t15.5 -25t36.5 -7.5q2 -9 2 -26q0 -30 -13 -53q-97 -2 -180 -34q-21 8 -29.5 22t-8.5 35q0 22 7 50q-14 -41 -38 -62q-21 -19 -58.5 -31t-84.5 -12q-80 0 -119 43t-39 145v89q0 35 -4 52t-17 25.5 t-41 11.5q0 50 13 75q69 0 123.5 10t81.5 23q34 -15 34 -64v-196q0 -64 10.5 -87.5t32.5 -23.5q34 0 58 38.5t24 111.5v29q0 34 -5.5 52t-20.5 26t-45 11q0 50 13 75q73 0 131 8t83 20q25 10 34.5 30.5t9.5 53.5q0 30 -5.5 56t-13.5 42q36 14 85 14q17 0 23 -1 q23 -16 38.5 -48.5t15.5 -64.5q0 -35 -19.5 -68.5z" glyph-name="uhorn" horiz-adv-x="733" unicode="ư"/><glyph d="M532 652q78 -26 125 -97t47 -200q0 -147 -64.5 -226t-146 -104t-154.5 -25q-71 0 -161 -1t-148 -2q0 48 8 78q28 2 41.5 11t19 31.5t5.5 69.5v304q0 46 -5 67.5t-18.5 30t-43.5 12.5q-7 28 -7 78q71 -3 209 -3q26 0 41 1l64 1q110 0 188 -26zM462.5 128q39.5 53 39.5 209 q0 266 -158 266q-22 0 -40 -8v-403q0 -47 7 -72t23.5 -35t47.5 -10q41 0 80.5 53zM1295 183q-9 -38 -18 -93.5t-10 -92.5q-78 3 -258 3q-128 0 -220 -3q-20 28 -20 71q99 175 161 289t126 244h-53q-32 0 -52 -12t-34.5 -42.5t-28.5 -90.5q-74 0 -106 14q13 45 19 101.5 t6 106.5q50 -2 234 -2q161 0 222 2q18 -30 21 -70q-73 -152 -137 -274t-144 -259h36q45 0 71.5 11t44 40t32.5 86q65 -5 108 -29zM831 838q18 22 40 36t54 20q38 -24 116 -57q8 4 15.5 7.5t14.5 6.5q50 22 78 40q24 -3 42 -18.5t25 -34.5q-104 -62 -151 -102 q-34 -11 -90 -11q-53 53 -144 113z" glyph-name="uni01C4" horiz-adv-x="1325" unicode="Ǆ"/><glyph d="M532 652q78 -26 125 -97t47 -200q0 -147 -64.5 -226t-146 -104t-154.5 -25q-71 0 -161 -1t-148 -2q0 48 8 78q28 2 41.5 11t19 31.5t5.5 69.5v304q0 46 -5 67.5t-18.5 30t-43.5 12.5q-7 28 -7 78q71 -3 209 -3q26 0 41 1l64 1q110 0 188 -26zM462.5 128q39.5 53 39.5 209 q0 266 -158 266q-22 0 -40 -8v-403q0 -47 7 -72t23.5 -35t47.5 -10q41 0 80.5 53zM1237 22q-11 -24 -47 -24q-55 0 -90 1l-111 1q-117 0 -189 -2q-9 14 -15 34.5t-6 39.5q127 162 221 311h-38q-24 0 -37.5 -8t-21.5 -28.5t-14 -60.5q-31 -2 -60 2t-47 14q12 61 12 159 q62 -3 213 -3q130 0 196 3q16 -24 16 -63q-89 -152 -215 -323h48q31 0 46.5 11t22.5 35t10 70q53 3 98 -11q0 -110 8 -158zM799 666q7 20 25 33.5t47 23.5q62 -47 133 -79q32 13 68 35t62 44q22 -5 39 -22t23 -35q-97 -73 -156 -139q-35 -13 -90 -11q-62 70 -151 150z" glyph-name="uni01C5" horiz-adv-x="1257" unicode="ǅ"/><glyph d="M637 78q0 -30 -13 -53q-97 -2 -180 -34q-21 8 -29.5 22t-8.5 35q0 11 4 37q-23 -37 -47 -55q-21 -16 -55.5 -27.5t-72.5 -11.5q-92 0 -148.5 50t-56.5 152q0 82 37 144t103.5 96t154.5 34q32 0 64 -7v79q0 36 -15 51t-59 19q0 50 13 75q70 0 130 10t86 23q35 -16 35 -64 v-457q0 -41 4 -59.5t15.5 -25t36.5 -7.5q2 -9 2 -26zM363 125.5q26 36.5 26 114.5v122q-14 18 -28.5 26t-34.5 8q-44 0 -74.5 -37.5t-30.5 -136.5q0 -57 17.5 -95t60.5 -38q38 0 64 36.5zM1148 22q-11 -24 -47 -24q-55 0 -90 1l-111 1q-117 0 -189 -2q-9 14 -15 34.5 t-6 39.5q127 162 221 311h-38q-24 0 -37.5 -8t-21.5 -28.5t-14 -60.5q-31 -2 -60 2t-47 14q12 61 12 159q62 -3 213 -3q130 0 196 3q16 -24 16 -63q-89 -152 -215 -323h48q31 0 46.5 11t22.5 35t10 70q53 3 98 -11q0 -110 8 -158zM710 666q7 20 25 33.5t47 23.5 q62 -47 133 -79q32 13 68 35t62 44q22 -5 39 -22t23 -35q-97 -73 -156 -139q-35 -13 -90 -11q-62 70 -151 150z" glyph-name="uni01C6" horiz-adv-x="1168" unicode="ǆ"/><glyph d="M479.5 106.5q29.5 31.5 49.5 104.5q33 -3 61 -12.5t41 -21.5q-23 -69 -31 -179q-118 2 -261 2q-71 0 -161 -1t-148 -2q0 48 8 78q28 2 41.5 11t19 31.5t5.5 69.5v304q0 46 -5 67t-18.5 30t-43.5 13q-7 28 -7 78q95 -3 174 -3q114 0 174 3q0 -28 -1.5 -46t-7.5 -32 q-29 -3 -42 -11.5t-18 -30t-5 -68.5v-299q0 -47 7 -72t23.5 -35t47.5 -10h17q51 0 80.5 31.5zM909.5 -34.5q-20.5 -68.5 -78.5 -121.5t-168 -93q-32 24 -37 74q39 26 61 54t32.5 71t10.5 112v426q0 49 -5 71t-18 30.5t-42 11.5q-9 30 -9 78q42 -3 174 -3q129 0 174 3 q0 -50 -9 -78q-30 -2 -43.5 -13t-17.5 -32.5t-4 -67.5v-353q0 -101 -20.5 -169.5z" glyph-name="uni01C7" horiz-adv-x="1034" unicode="Ǉ"/><glyph d="M746.5 537q-27.5 22 -27.5 59q0 43 30 66t79 23q53 0 80.5 -22t27.5 -65q0 -37 -31 -60t-84 -23q-47 0 -74.5 22zM479.5 106.5q29.5 31.5 49.5 104.5q33 -3 61 -12.5t41 -21.5q-23 -69 -31 -179q-118 2 -261 2q-71 0 -161 -1t-148 -2q0 48 8 78q28 2 41.5 11t19 31.5 t5.5 69.5v304q0 46 -5 67t-18.5 30t-43.5 13q-7 28 -7 78q95 -3 174 -3q114 0 174 3q0 -28 -1.5 -46t-7.5 -32q-29 -3 -42 -11.5t-18 -30t-5 -68.5v-299q0 -47 7 -72t23.5 -35t47.5 -10h17q51 0 80.5 31.5zM671.5 -219q-12.5 20 -15.5 44q49 49 67.5 95t18.5 117v252 q0 36 -15 51t-59 19q0 50 13 75q70 0 130 10t86 23q35 -16 35 -64v-320q0 -81 -36 -148t-88 -112.5t-105 -71.5q-19 10 -31.5 30z" glyph-name="uni01C8" horiz-adv-x="976" unicode="ǈ"/><glyph d="M29 75q27 2 40.5 9.5t19 25t5.5 52.5v387q0 29 -16.5 42.5t-57.5 17.5q0 50 13 75q70 0 130 10t86 23q35 -16 35 -64v-491q0 -34 5.5 -52t19.5 -25.5t41 -9.5q8 -25 8 -78q-37 3 -169 3q-133 0 -169 -3q0 54 9 78zM483.5 537q-27.5 22 -27.5 59q0 43 30 66t79 23 q53 0 80.5 -22t27.5 -65q0 -37 -31 -60t-84 -23q-47 0 -74.5 22zM408.5 -219q-12.5 20 -15.5 44q49 49 67.5 95t18.5 117v252q0 36 -15 51t-59 19q0 50 13 75q70 0 130 10t86 23q35 -16 35 -64v-320q0 -81 -36 -148t-88 -112.5t-105 -71.5q-19 10 -31.5 30z" glyph-name="uni01C9" horiz-adv-x="713" unicode="ǉ"/><glyph d="M681 679q0 -20 -1 -40.5t-6 -37.5q-27 -4 -40 -15t-18 -39.5t-5 -88.5v-458q-19 -6 -39 -7.5t-52 -1.5l-341 462v-235q0 -59 6.5 -87.5t22.5 -40t50 -15.5q7 -26 7 -78q-42 3 -121 3q-93 0 -129 -3q0 53 8 78q33 4 49.5 16t24 41t7.5 86v336l-14 19q-8 14 -21.5 19.5 t-45.5 8.5q-8 29 -8 78q39 -3 133 -3q86 0 113 3l275 -379v158q0 59 -6.5 87t-23.5 40t-55 16q-7 27 -7 78q42 -3 131 -3q70 0 106 3zM979.5 -34.5q-20.5 -68.5 -78.5 -121.5t-168 -93q-32 24 -37 74q39 26 61 54t32.5 71t10.5 112v426q0 49 -5 71t-18 30.5t-42 11.5 q-9 30 -9 78q42 -3 174 -3q129 0 174 3q0 -50 -9 -78q-30 -2 -43.5 -13t-17.5 -32.5t-4 -67.5v-353q0 -101 -20.5 -169.5z" glyph-name="uni01CA" horiz-adv-x="1104" unicode="Ǌ"/><glyph d="M816.5 537q-27.5 22 -27.5 59q0 43 30 66t79 23q53 0 80.5 -22t27.5 -65q0 -37 -31 -60t-84 -23q-47 0 -74.5 22zM575 676q70 0 106 3q0 -20 -1 -40.5t-6 -37.5q-27 -4 -40 -15t-18 -39.5t-5 -88.5v-458q-19 -6 -39 -7.5t-52 -1.5l-341 462v-235q0 -59 6.5 -87.5 t22.5 -40t50 -15.5q7 -26 7 -78q-42 3 -121 3q-93 0 -129 -3q0 53 8 78q33 4 49.5 16t24 41t7.5 86v336l-14 19q-8 14 -21.5 19.5t-45.5 8.5q-8 29 -8 78q39 -3 133 -3q86 0 113 3l275 -379v158q0 59 -6.5 87t-23.5 40t-55 16q-7 27 -7 78q42 -3 131 -3zM1002 403v-320 q0 -81 -36 -148t-88 -112.5t-105 -71.5q-19 10 -31.5 30t-15.5 44q49 49 67.5 95t18.5 117v252q0 36 -15 51t-59 19q0 50 13 75q70 0 130 10t86 23q35 -16 35 -64z" glyph-name="uni01CB" horiz-adv-x="1046" unicode="ǋ"/><glyph d="M686 -3q-90 3 -139 3q-118 0 -163 -3q0 51 10 78q48 0 48 98v69q0 56 -14.5 79.5t-47.5 23.5q-37 0 -60.5 -43.5t-23.5 -111.5v-28q0 -50 11.5 -68.5t35.5 -18.5q7 -17 9 -34.5t2 -43.5q-45 3 -153 3q-124 0 -169 -3q0 52 10 78q38 0 51 18t13 69v108q0 36 -4.5 52.5 t-19 25t-47.5 11.5q0 50 13 75q70 0 129 10t85 23q34 -15 34 -64q0 -22 -12 -61q10 25 18.5 40t20.5 27q25 25 59.5 39t75.5 14q74 0 124 -40.5t50 -122.5v-137q0 -50 9 -68.5t34 -18.5q11 -27 11 -78zM821.5 537q-27.5 22 -27.5 59q0 43 30 66t79 23q53 0 80.5 -22 t27.5 -65q0 -37 -31 -60t-84 -23q-47 0 -74.5 22zM746.5 -219q-12.5 20 -15.5 44q49 49 67.5 95t18.5 117v252q0 36 -15 51t-59 19q0 50 13 75q70 0 130 10t86 23q35 -16 35 -64v-320q0 -81 -36 -148t-88 -112.5t-105 -71.5q-19 10 -31.5 30z" glyph-name="uni01CC" horiz-adv-x="1051" unicode="ǌ"/><glyph d="M31 834q18 20 47 33.5t57 16.5q19 -14 43 -27.5t50 -27.5q44 23 74 54q51 -12 75 -52q-21 -16 -65 -54t-65 -54q-19 -6 -45.5 -10t-45.5 -4q-39 45 -125 125zM99.5 559q-4.5 21 -17.5 29.5t-43 12.5q-9 36 -9 78q50 -3 179 -3q109 0 169 3q0 -26 -1.5 -43.5t-7.5 -34.5 q-29 -3 -42 -11.5t-18 -30t-5 -68.5v-304q0 -47 5.5 -69.5t19 -31.5t41.5 -11q8 -29 8 -78q-45 3 -159 3q-118 0 -189 -3q0 17 3 40t7 38q28 2 41 11t18 31t5 70v304q0 47 -4.5 68z" glyph-name="uni01CF" horiz-adv-x="408" unicode="Ǐ"/><glyph d="M365 666q-15 -14 -73 -77q-38 -42 -57 -61q-19 -6 -45.5 -9.5t-45.5 -3.5q-48 67 -125 158q18 18 47 31t57 16q47 -47 93 -78q45 40 74 79q51 -15 75 -55zM41 75q27 2 40.5 9.5t19 25t5.5 52.5v127q0 36 -15 51t-59 19q0 50 13 75q70 0 130 10t86 23q35 -16 35 -64v-241 q0 -34 5.5 -52t19.5 -25.5t41 -9.5q8 -25 8 -78q-37 3 -169 3q-133 0 -169 -3q0 54 9 78z" glyph-name="uni01D0" horiz-adv-x="400" unicode="ǐ"/><glyph d="M450 404q65 -63 65 -170q0 -114 -68.5 -178.5t-185.5 -64.5q-113 0 -170.5 58t-59.5 161q9 37 33 59q152 0 256 6q-24 100 -127 100q-36 0 -72 -10.5t-58 -27.5q-11 7 -19 27t-8 42q43 30 94.5 45.5t117.5 15.5q137 0 202 -63zM308.5 100.5q17.5 35.5 18.5 98.5h-131 q0 -134 62 -134q33 0 50.5 35.5z" glyph-name="uni01DD" horiz-adv-x="545" unicode="ǝ"/><glyph d="M199.5 32.5q-79.5 41.5 -122 120.5t-42.5 190q0 108 43 184.5t123.5 117t191.5 40.5q62 0 124 -15t111 -37q-11 -63 -11 -155q-19 -9 -42.5 -11.5t-56.5 -2.5q-4 76 -36.5 109.5t-93.5 33.5q-76 0 -112.5 -69t-36.5 -171q0 -86 20 -153.5t57 -105t86 -37.5q24 0 35 4 q16 6 24 21t8 51v34q0 30 -5.5 45.5t-20.5 21.5t-45 8q-7 29 -7 77q40 -3 139 -3q102 0 144 2q0 -47 -6 -76q-25 -2 -31.5 -13t-6.5 -46v-24q0 -38 3.5 -58t13.5 -46q-49 -35 -116.5 -56.5t-141.5 -21.5q-110 0 -189.5 41.5zM179 838q18 22 40 36t54 20q38 -24 116 -57 q8 4 15.5 7.5t14.5 6.5q50 22 78 40q24 -3 42 -18.5t25 -34.5q-104 -62 -151 -102q-34 -11 -90 -11q-53 53 -144 113z" glyph-name="Gcaron" horiz-adv-x="699" unicode="Ǧ"/><glyph d="M462.5 83.5q41.5 -9.5 67.5 -37.5t26 -81q0 -65 -39.5 -113t-114 -74.5t-175.5 -26.5q-207 0 -207 113q0 34 18 59.5t53 38.5q-39 31 -39 87q0 41 18 68.5t48 49.5q-85 39 -85 136q0 81 58.5 122.5t165.5 41.5q51 0 92 -9h207q13 -30 13 -90q-50 20 -91 21q39 -43 39 -99 q0 -67 -63 -108t-185 -41q-33 0 -63 3q-13 -9 -13 -20q0 -19 29 -24t95 -6h44q60 -1 101.5 -10.5zM220 317q0 -52 16.5 -79t46.5 -27q53 0 53 89q0 52 -16.5 79t-46.5 27q-53 0 -53 -89zM360 -154q34 17 34 46q0 11 -7 16.5t-24.5 7.5t-54.5 3q-91 2 -133 10q-6 -9 -8.5 -16 t-2.5 -16q0 -36 23 -52t78 -16q61 0 95 17zM73 666q7 20 25 33.5t47 23.5q62 -47 133 -79q32 13 68 35t62 44q22 -5 39 -22t23 -35q-97 -73 -156 -139q-35 -13 -90 -11q-62 70 -151 150z" glyph-name="gcaron" horiz-adv-x="584" unicode="ǧ"/><glyph d="M470 -25.5q-19 -26.5 -19 -53.5q0 -51 76 -51q19 0 34 3q7 -9 12.5 -31.5t5.5 -41.5q0 -9 -1 -13q-37 -5 -73 -15.5t-61 -22.5q-10 -1 -23 -1q-29 0 -60 12.5t-52 37.5t-21 60t23.5 70.5t64.5 62.5q-105 1 -182 45t-118 122.5t-41 182.5q0 105 44 182.5t122 119.5t179 42 q104 0 182 -41t121 -116t43 -174q0 -121 -54 -209.5t-150 -127.5q-33 -16 -52 -42.5zM278.5 152.5q38.5 -83.5 113.5 -83.5q61 0 95 71t34 193q0 77 -18.5 140t-53.5 100t-82 37q-61 0 -94 -63.5t-33 -181.5q0 -129 38.5 -212.5z" glyph-name="uni01EA" horiz-adv-x="761" unicode="Ǫ"/><glyph d="M312 -37q-23 -23 -23 -46q0 -22 20 -33t56 -11q19 0 34 3q7 -9 12.5 -31.5t5.5 -41.5q0 -9 -1 -13q-37 -5 -73 -15.5t-61 -22.5q-10 -1 -23 -1q-30 0 -60.5 12.5t-51.5 38t-21 62.5q0 86 113 131q-103 13 -156 71.5t-53 153.5q0 82 36.5 137.5t99 82.5t141.5 27 q133 0 202 -63t69 -167q0 -96 -50 -157t-142 -80q-51 -14 -74 -37zM238.5 356.5q-18.5 -38.5 -18.5 -98.5q0 -82 25 -136t72 -54q33 0 52 38.5t19 97.5q0 62 -13.5 105t-35.5 64.5t-47 21.5q-35 0 -53.5 -38.5z" glyph-name="uni01EB" horiz-adv-x="608" unicode="ǫ"/><glyph d="M532 652q78 -26 125 -97t47 -200q0 -147 -64.5 -226t-146 -104t-154.5 -25q-71 0 -161 -1t-148 -2q0 48 8 78q28 2 41.5 11t19 31.5t5.5 69.5v304q0 46 -5 67.5t-18.5 30t-43.5 12.5q-7 28 -7 78q71 -3 209 -3q26 0 41 1l64 1q110 0 188 -26zM462.5 128q39.5 53 39.5 209 q0 266 -158 266q-22 0 -40 -8v-403q0 -47 7 -72t23.5 -35t47.5 -10q41 0 80.5 53zM1295 183q-9 -38 -18 -93.5t-10 -92.5q-78 3 -258 3q-128 0 -220 -3q-20 28 -20 71q99 175 161 289t126 244h-53q-32 0 -52 -12t-34.5 -42.5t-28.5 -90.5q-74 0 -106 14q13 45 19 101.5 t6 106.5q50 -2 234 -2q161 0 222 2q18 -30 21 -70q-73 -152 -137 -274t-144 -259h36q45 0 71.5 11t44 40t32.5 86q65 -5 108 -29z" glyph-name="uni01F1" horiz-adv-x="1325" unicode="Ǳ"/><glyph d="M532 652q78 -26 125 -97t47 -200q0 -147 -64.5 -226t-146 -104t-154.5 -25q-71 0 -161 -1t-148 -2q0 48 8 78q28 2 41.5 11t19 31.5t5.5 69.5v304q0 46 -5 67.5t-18.5 30t-43.5 12.5q-7 28 -7 78q71 -3 209 -3q26 0 41 1l64 1q110 0 188 -26zM462.5 128q39.5 53 39.5 209 q0 266 -158 266q-22 0 -40 -8v-403q0 -47 7 -72t23.5 -35t47.5 -10q41 0 80.5 53zM1237 22q-11 -24 -47 -24q-55 0 -90 1l-111 1q-117 0 -189 -2q-9 14 -15 34.5t-6 39.5q127 162 221 311h-38q-24 0 -37.5 -8t-21.5 -28.5t-14 -60.5q-31 -2 -60 2t-47 14q12 61 12 159 q62 -3 213 -3q130 0 196 3q16 -24 16 -63q-89 -152 -215 -323h48q31 0 46.5 11t22.5 35t10 70q53 3 98 -11q0 -110 8 -158z" glyph-name="uni01F2" horiz-adv-x="1257" unicode="ǲ"/><glyph d="M637 78q0 -30 -13 -53q-97 -2 -180 -34q-21 8 -29.5 22t-8.5 35q0 11 4 37q-23 -37 -47 -55q-21 -16 -55.5 -27.5t-72.5 -11.5q-92 0 -148.5 50t-56.5 152q0 82 37 144t103.5 96t154.5 34q32 0 64 -7v79q0 36 -15 51t-59 19q0 50 13 75q70 0 130 10t86 23q35 -16 35 -64 v-457q0 -41 4 -59.5t15.5 -25t36.5 -7.5q2 -9 2 -26zM363 125.5q26 36.5 26 114.5v122q-14 18 -28.5 26t-34.5 8q-44 0 -74.5 -37.5t-30.5 -136.5q0 -57 17.5 -95t60.5 -38q38 0 64 36.5zM1148 22q-11 -24 -47 -24q-55 0 -90 1l-111 1q-117 0 -189 -2q-9 14 -15 34.5 t-6 39.5q127 162 221 311h-38q-24 0 -37.5 -8t-21.5 -28.5t-14 -60.5q-31 -2 -60 2t-47 14q12 61 12 159q62 -3 213 -3q130 0 196 3q16 -24 16 -63q-89 -152 -215 -323h48q31 0 46.5 11t22.5 35t10 70q53 3 98 -11q0 -110 8 -158z" glyph-name="uni01F3" horiz-adv-x="1168" unicode="ǳ"/><glyph d="M707 -3q-40 3 -157 3q-138 0 -176 -3q0 46 8 78q22 5 32 14t10 23t-11 39l-7 15q-131 0 -227 -10l-2 -4q-5 -13 -5 -26q0 -19 10.5 -33t32.5 -18q8 -34 8 -78q-34 3 -117 3q-66 0 -96 -3q0 47 10 78q24 5 39.5 24.5t40.5 76.5l212 500q18 4 36.5 5t39.5 1l222 -487 q24 -52 38 -76.5t24.5 -33t26.5 -10.5q8 -27 8 -78zM378 231l-38 85q-33 73 -51 138q-18 -65 -48 -138l-33 -85h170zM254 736.5q-35 23.5 -35 65.5q0 45 37.5 70t98.5 25q57 0 91.5 -22t34.5 -66t-37.5 -70t-99.5 -26q-55 0 -90 23.5zM377 770.5q10 11.5 10 31.5t-10.5 37 t-30.5 17q-15 0 -23.5 -12.5t-8.5 -35.5q0 -22 10 -35.5t28 -13.5q15 0 25 11.5zM277 974q35 55 61 119q43 10 94 10q40 0 68 -6q-66 -69 -121 -141q-53 0 -102 18z" glyph-name="Aringacute" horiz-adv-x="717" unicode="Ǻ"/><glyph d="M576 78q0 -30 -13 -53q-97 -2 -180 -34q-21 8 -29.5 22t-8.5 35q0 25 7 50q-21 -46 -49 -68q-46 -37 -125 -37q-72 0 -112.5 30t-40.5 87q0 59 42.5 95.5t107 54t153.5 29.5q0 31 -5 52.5t-18 35.5q-20 21 -51 21q-33 0 -49.5 -28.5t-22.5 -80.5q-40 0 -63.5 2.5 t-45.5 10.5q2 26 2 41q0 39 -9 88q44 17 105.5 27t120.5 10q129 0 180 -51q21 -21 33.5 -58t12.5 -103v-66q0 -38 4 -55t15.5 -23.5t36.5 -7.5q2 -9 2 -26zM328 225q-66 -13 -92 -32.5t-26 -49.5q0 -21 10.5 -31t26.5 -10q31 0 56 28.5t25 77.5v17zM177 518.5 q-35 23.5 -35 65.5q0 45 37.5 70t98.5 25q57 0 91.5 -22t34.5 -66t-37.5 -70t-99.5 -26q-55 0 -90 23.5zM300 552.5q10 11.5 10 31.5t-10.5 37t-30.5 17q-15 0 -23.5 -12.5t-8.5 -35.5q0 -22 10 -35.5t28 -13.5q15 0 25 11.5zM200 756q35 55 61 119q43 10 94 10q40 0 68 -6 q-66 -69 -121 -141q-53 0 -102 18z" glyph-name="aringacute" horiz-adv-x="589" unicode="ǻ"/><glyph d="M966.5 94q-8.5 -48 -11.5 -96q-98 2 -283 2q-230 0 -287 -3q0 49 8 78q28 2 41.5 11t19 31.5t5.5 69.5v95q-128 -5 -183 -13l-55 -99q-17 -32 -17 -53q0 -34 46 -42q10 -24 10 -78q-46 3 -118 3q-102 0 -132 -3q0 22 2.5 44t7.5 34q35 5 54 19.5t44 57.5l213 367 q18 32 18 49q0 28 -47 33q-4 9 -8.5 35t-4.5 42q104 -2 208 -2h136q199 0 293 3q0 -45 6 -93t15 -85q-10 -8 -43 -13t-58 -5q-11 60 -40 89t-98 29h-49v-249h11q31 0 45 5t20 21t7 50q16 6 41 9.5t46 3.5q-3 -48 -3 -119q0 -76 3 -120q-66 0 -86 9q-2 34 -8 49t-20.5 20.5 t-44.5 5.5h-11v-94q0 -48 7 -73t23.5 -34.5t47.5 -9.5h17q34 0 55.5 11.5t38.5 40t38 84.5q32 -5 60 -14t40 -20q-11 -35 -19.5 -83zM459 352v188q0 24 3 54q-11 -23 -26 -48l-112 -194h135zM491 753q35 55 61 119q43 10 94 10q40 0 68 -6q-66 -69 -121 -141q-53 0 -102 18z" glyph-name="AEacute" horiz-adv-x="1001" unicode="Ǽ"/><glyph d="M702.5 87q8.5 -21 7.5 -41q-29 -24 -79.5 -38t-114.5 -14t-111 21.5t-76 58.5q-19 -35 -66 -57.5t-107 -22.5q-64 0 -97.5 30t-33.5 86q0 81 69 118.5t189 46.5v25q0 91 -51 91q-26 0 -38 -23.5t-18 -79.5q-30 0 -61 4t-51 14q2 22 2 40q0 51 -7 90q47 17 91 24t96 7 q48 0 81 -11.5t56 -36.5q27 24 65.5 36t76.5 12q75 0 118.5 -34.5t60.5 -82.5t17 -94q-14 -35 -38 -58q-119 0 -216 -4q5 -48 31.5 -77.5t74.5 -29.5q62 0 110 31q11 -10 19.5 -31zM466 276v-12q70 2 102 2q0 61 -12 93t-40 32q-50 0 -50 -115zM261.5 115q19.5 24 22.5 75 q-1 6 -1 16q-56 -6 -78.5 -21.5t-22.5 -46.5q0 -23 10.5 -35t27.5 -12q22 0 41.5 24zM368.5 536q-27.5 6 -43.5 14q24 46 38 81.5t23 74.5q38 13 102 13q40 0 64 -4q-84 -100 -130 -185q-26 0 -53.5 6z" glyph-name="aeacute" horiz-adv-x="752" unicode="ǽ"/><glyph d="M649 576q37 -43 57 -99t20 -123q0 -107 -42.5 -189.5t-121 -128t-182.5 -45.5q-100 0 -174 38l-46 -55q-33 0 -60.5 6t-43.5 16l74 88q-46 46 -70.5 111.5t-24.5 145.5q0 105 44 182.5t122 119.5t179 42q111 0 195 -48l51 63q30 0 59 -6.5t45 -17.5zM273 546.5 q-33 -63.5 -33 -181.5q0 -75 13 -133l228 295q-20 39 -49 61t-65 22q-61 0 -94 -63.5zM487 140q34 71 34 193q0 42 -6 81l-223 -286q38 -59 100 -59q61 0 95 71zM308 753q35 55 61 119q43 10 94 10q40 0 68 -6q-66 -69 -121 -141q-53 0 -102 18z" glyph-name="Oslashacute" horiz-adv-x="761" unicode="Ǿ"/><glyph d="M578 237q0 -117 -74.5 -181.5t-205.5 -64.5q-77 0 -135 22l-37 -44q-75 0 -105 15l67 77q-58 58 -58 159q0 82 36.5 137.5t99 82.5t141.5 27q75 0 133 -22l40 45q27 0 56.5 -6.5t44.5 -15.5l-64 -72q61 -60 61 -159zM238.5 356.5q-18.5 -38.5 -18.5 -98.5q0 -17 2 -47 l130 147q-25 37 -60 37t-53.5 -38.5zM369 106.5q19 38.5 19 97.5q0 28 -3 50l-131 -147q23 -39 63 -39q33 0 52 38.5zM287.5 536q-27.5 6 -43.5 14q24 46 38 81.5t23 74.5q38 13 102 13q40 0 64 -4q-84 -100 -130 -185q-26 0 -53.5 6z" glyph-name="oslashacute" horiz-adv-x="608" unicode="ǿ"/><glyph d="M707 -3q-40 3 -157 3q-138 0 -176 -3q0 46 8 78q22 5 32 14t10 23t-11 39l-7 15q-131 0 -227 -10l-2 -4q-5 -13 -5 -26q0 -19 10.5 -33t32.5 -18q8 -34 8 -78q-34 3 -117 3q-66 0 -96 -3q0 47 10 78q24 5 39.5 24.5t40.5 76.5l212 500q18 4 36.5 5t39.5 1l222 -487 q24 -52 38 -76.5t24.5 -33t26.5 -10.5q8 -27 8 -78zM378 231l-38 85q-33 73 -51 138q-18 -65 -48 -138l-33 -85h170zM123 836q27 13 66 19.5t78 6.5q11 -29 30 -65.5t39 -63.5q-49 -18 -102 -18q-61 73 -111 121zM333 840q25 11 61.5 16.5t72.5 5.5q11 -29 30 -65.5 t39 -63.5q-49 -18 -102 -18q-59 79 -101 125z" glyph-name="uni0200" horiz-adv-x="717" unicode="Ȁ"/><glyph d="M576 78q0 -30 -13 -53q-97 -2 -180 -34q-21 8 -29.5 22t-8.5 35q0 25 7 50q-21 -46 -49 -68q-46 -37 -125 -37q-72 0 -112.5 30t-40.5 87q0 59 42.5 95.5t107 54t153.5 29.5q0 31 -5 52.5t-18 35.5q-20 21 -51 21q-33 0 -49.5 -28.5t-22.5 -80.5q-40 0 -63.5 2.5 t-45.5 10.5q2 26 2 41q0 39 -9 88q44 17 105.5 27t120.5 10q129 0 180 -51q21 -21 33.5 -58t12.5 -103v-66q0 -38 4 -55t15.5 -23.5t36.5 -7.5q2 -9 2 -26zM328 225q-66 -13 -92 -32.5t-26 -49.5q0 -21 10.5 -31t26.5 -10q31 0 56 28.5t25 77.5v17zM106 620q-28 36 -69 75 q74 22 160 22q11 -37 30.5 -82.5t40.5 -83.5q-38 -18 -100 -18q-34 51 -62 87zM308.5 619q-26.5 36 -63.5 76q71 22 154 22q11 -37 30 -82.5t39 -83.5q-38 -18 -102 -18q-31 50 -57.5 86z" glyph-name="uni0201" horiz-adv-x="589" unicode="ȁ"/><glyph d="M707 -3q-40 3 -157 3q-138 0 -176 -3q0 46 8 78q22 5 32 14t10 23t-11 39l-7 15q-131 0 -227 -10l-2 -4q-5 -13 -5 -26q0 -19 10.5 -33t32.5 -18q8 -34 8 -78q-34 3 -117 3q-66 0 -96 -3q0 47 10 78q24 5 39.5 24.5t40.5 76.5l212 500q18 4 36.5 5t39.5 1l222 -487 q24 -52 38 -76.5t24.5 -33t26.5 -10.5q8 -27 8 -78zM378 231l-38 85q-33 73 -51 138q-18 -65 -48 -138l-33 -85h170zM352 879q180 0 180 -144q-33 -13 -72 -13q-16 0 -32 3q-9 50 -89 50q-38 0 -59 -12.5t-22 -37.5q-22 -4 -34 -4q-28 0 -56 10q0 148 184 148z" glyph-name="uni0202" horiz-adv-x="717" unicode="Ȃ"/><glyph d="M576 78q0 -30 -13 -53q-97 -2 -180 -34q-21 8 -29.5 22t-8.5 35q0 25 7 50q-21 -46 -49 -68q-46 -37 -125 -37q-72 0 -112.5 30t-40.5 87q0 59 42.5 95.5t107 54t153.5 29.5q0 31 -5 52.5t-18 35.5q-20 21 -51 21q-33 0 -49.5 -28.5t-22.5 -80.5q-40 0 -63.5 2.5 t-45.5 10.5q2 26 2 41q0 39 -9 88q44 17 105.5 27t120.5 10q129 0 180 -51q21 -21 33.5 -58t12.5 -103v-66q0 -38 4 -55t15.5 -23.5t36.5 -7.5q2 -9 2 -26zM328 225q-66 -13 -92 -32.5t-26 -49.5q0 -21 10.5 -31t26.5 -10q31 0 56 28.5t25 77.5v17zM119 668q53 48 156 48 q101 0 153 -46.5t52 -137.5q-33 -14 -77 -14q-9 0 -29 2q-6 36 -35.5 55.5t-77.5 19.5q-47 0 -74.5 -19.5t-29.5 -55.5q-16 -3 -32 -3q-31 0 -59 10q0 93 53 141z" glyph-name="uni0203" horiz-adv-x="589" unicode="ȃ"/><glyph d="M590 198.5q28 -9.5 41 -21.5q-23 -69 -31 -179q-118 2 -261 2q-71 0 -161 -1t-148 -2q0 48 8 78q28 2 41.5 11t19 31.5t5.5 69.5v304q0 46 -5 67.5t-18.5 30t-43.5 12.5q-7 28 -7 78q93 -3 271 -3q186 0 270 3q1 -43 6.5 -94t14.5 -84q-47 -18 -101 -18q-11 60 -40 89 t-98 29h-49v-227h1q47 0 63.5 15.5t17.5 55.5q31 12 88 12q-4 -64 -4 -117q0 -61 4 -119q-57 0 -86 10q-4 41 -21 54.5t-62 13.5h-1v-107q0 -47 7 -72t23.5 -35t47.5 -10h17q51 0 80.5 31.5t49.5 104.5q33 -3 61 -12.5zM87 836q27 13 66 19.5t78 6.5q11 -29 30 -65.5 t39 -63.5q-49 -18 -102 -18q-61 73 -111 121zM297 840q25 11 61.5 16.5t72.5 5.5q11 -29 30 -65.5t39 -63.5q-49 -18 -102 -18q-59 79 -101 125z" glyph-name="uni0204" horiz-adv-x="646" unicode="Ȅ"/><glyph d="M501 94q8 -20 8 -42q-43 -30 -94.5 -45.5t-117.5 -15.5q-137 0 -202 63t-65 170q0 114 68.5 178.5t185.5 64.5q113 0 170.5 -58t59.5 -161q-9 -37 -33 -59q-152 0 -256 -6q24 -100 127 -100q36 0 72 10.5t58 27.5q11 -7 19 -27zM236.5 357.5q-17.5 -35.5 -18.5 -98.5h131 q0 134 -62 134q-33 0 -50.5 -35.5zM119 620q-28 36 -69 75q74 22 160 22q11 -37 30.5 -82.5t40.5 -83.5q-38 -18 -100 -18q-34 51 -62 87zM321.5 619q-26.5 36 -63.5 76q71 22 154 22q11 -37 30 -82.5t39 -83.5q-38 -18 -102 -18q-31 50 -57.5 86z" glyph-name="uni0205" horiz-adv-x="545" unicode="ȅ"/><glyph d="M590 198.5q28 -9.5 41 -21.5q-23 -69 -31 -179q-118 2 -261 2q-71 0 -161 -1t-148 -2q0 48 8 78q28 2 41.5 11t19 31.5t5.5 69.5v304q0 46 -5 67.5t-18.5 30t-43.5 12.5q-7 28 -7 78q93 -3 271 -3q186 0 270 3q1 -43 6.5 -94t14.5 -84q-47 -18 -101 -18q-11 60 -40 89 t-98 29h-49v-227h1q47 0 63.5 15.5t17.5 55.5q31 12 88 12q-4 -64 -4 -117q0 -61 4 -119q-57 0 -86 10q-4 41 -21 54.5t-62 13.5h-1v-107q0 -47 7 -72t23.5 -35t47.5 -10h17q51 0 80.5 31.5t49.5 104.5q33 -3 61 -12.5zM316 879q180 0 180 -144q-33 -13 -72 -13q-16 0 -32 3 q-9 50 -89 50q-38 0 -59 -12.5t-22 -37.5q-22 -4 -34 -4q-28 0 -56 10q0 148 184 148z" glyph-name="uni0206" horiz-adv-x="646" unicode="Ȇ"/><glyph d="M501 94q8 -20 8 -42q-43 -30 -94.5 -45.5t-117.5 -15.5q-137 0 -202 63t-65 170q0 114 68.5 178.5t185.5 64.5q113 0 170.5 -58t59.5 -161q-9 -37 -33 -59q-152 0 -256 -6q24 -100 127 -100q36 0 72 10.5t58 27.5q11 -7 19 -27zM236.5 357.5q-17.5 -35.5 -18.5 -98.5h131 q0 134 -62 134q-33 0 -50.5 -35.5zM132 668q53 48 156 48q101 0 153 -46.5t52 -137.5q-33 -14 -77 -14q-9 0 -29 2q-6 36 -35.5 55.5t-77.5 19.5q-47 0 -74.5 -19.5t-29.5 -55.5q-16 -3 -32 -3q-31 0 -59 10q0 93 53 141z" glyph-name="uni0207" horiz-adv-x="545" unicode="ȇ"/><glyph d="M99.5 559q-4.5 21 -17.5 29.5t-43 12.5q-9 36 -9 78q50 -3 179 -3q109 0 169 3q0 -26 -1.5 -43.5t-7.5 -34.5q-29 -3 -42 -11.5t-18 -30t-5 -68.5v-304q0 -47 5.5 -69.5t19 -31.5t41.5 -11q8 -29 8 -78q-45 3 -159 3q-118 0 -189 -3q0 17 3 40t7 38q28 2 41 11t18 31 t5 70v304q0 47 -4.5 68zM-18 836q26 13 64 19.5t75 6.5q11 -29 30 -65.5t39 -63.5q-49 -18 -102 -18q-64 78 -106 121zM185 840q24 11 58 16.5t68 5.5q11 -29 30 -65.5t39 -63.5q-49 -18 -102 -18q-59 85 -93 125z" glyph-name="uni0208" horiz-adv-x="408" unicode="Ȉ"/><glyph d="M41 75q27 2 40.5 9.5t19 25t5.5 52.5v127q0 36 -15 51t-59 19q0 50 13 75q70 0 130 10t86 23q35 -16 35 -64v-241q0 -34 5.5 -52t19.5 -25.5t41 -9.5q8 -25 8 -78q-37 3 -169 3q-133 0 -169 -3q0 54 9 78zM29.5 621q-20.5 35 -50.5 74q60 22 130 22q10 -37 26.5 -82.5 t34.5 -83.5q-35 -18 -93 -18q-27 53 -47.5 88zM209.5 621.5q-19.5 34.5 -47.5 73.5q60 22 129 22q23 -85 59 -166q-34 -18 -95 -18q-26 54 -45.5 88.5z" glyph-name="uni0209" horiz-adv-x="400" unicode="ȉ"/><glyph d="M99.5 559q-4.5 21 -17.5 29.5t-43 12.5q-9 36 -9 78q50 -3 179 -3q109 0 169 3q0 -26 -1.5 -43.5t-7.5 -34.5q-29 -3 -42 -11.5t-18 -30t-5 -68.5v-304q0 -47 5.5 -69.5t19 -31.5t41.5 -11q8 -29 8 -78q-45 3 -159 3q-118 0 -189 -3q0 17 3 40t7 38q28 2 41 11t18 31 t5 70v304q0 47 -4.5 68zM374 722q-27 -11 -59 -11q-8 0 -26 2q-12 59 -96 59q-40 0 -63 -15t-25 -44q-15 -3 -29 -3q-25 0 -43 8q0 157 172 157q169 0 169 -153z" glyph-name="uni020A" horiz-adv-x="408" unicode="Ȋ"/><glyph d="M41 75q27 2 40.5 9.5t19 25t5.5 52.5v127q0 36 -15 51t-59 19q0 50 13 75q70 0 130 10t86 23q35 -16 35 -64v-241q0 -34 5.5 -52t19.5 -25.5t41 -9.5q8 -25 8 -78q-37 3 -169 3q-133 0 -169 -3q0 54 9 78zM379 532q-33 -14 -77 -14q-9 0 -29 2q-6 36 -29.5 55.5 t-63.5 19.5q-39 0 -60.5 -19.5t-23.5 -55.5q-16 -3 -32 -3q-31 0 -59 10q0 189 189 189q185 0 185 -184z" glyph-name="uni020B" horiz-adv-x="400" unicode="ȋ"/><glyph d="M196 34.5q-78 43.5 -119.5 123t-41.5 183.5q0 105 44 182.5t122 119.5t179 42q104 0 182 -41t121 -116t43 -174q0 -107 -42.5 -189.5t-121 -128t-182.5 -45.5q-106 0 -184 43.5zM487 140q34 71 34 193q0 77 -18.5 140t-53.5 100t-82 37q-61 0 -94 -63.5t-33 -181.5 q0 -129 38.5 -212.5t113.5 -83.5q61 0 95 71zM154 836q27 13 66 19.5t78 6.5q11 -29 30 -65.5t39 -63.5q-49 -18 -102 -18q-61 73 -111 121zM364 840q25 11 61.5 16.5t72.5 5.5q11 -29 30 -65.5t39 -63.5q-49 -18 -102 -18q-59 79 -101 125z" glyph-name="uni020C" horiz-adv-x="761" unicode="Ȍ"/><glyph d="M98 51.5q-68 60.5 -68 168.5q0 82 36.5 137.5t99 82.5t141.5 27q133 0 202 -63t69 -167q0 -117 -74.5 -181.5t-205.5 -64.5q-132 0 -200 60.5zM369 106.5q19 38.5 19 97.5q0 62 -13.5 105t-35.5 64.5t-47 21.5q-35 0 -53.5 -38.5t-18.5 -98.5q0 -82 25 -136t72 -54 q33 0 52 38.5zM133 620q-28 36 -69 75q74 22 160 22q11 -37 30.5 -82.5t40.5 -83.5q-38 -18 -100 -18q-34 51 -62 87zM335.5 619q-26.5 36 -63.5 76q71 22 154 22q11 -37 30 -82.5t39 -83.5q-38 -18 -102 -18q-31 50 -57.5 86z" glyph-name="uni020D" horiz-adv-x="608" unicode="ȍ"/><glyph d="M196 34.5q-78 43.5 -119.5 123t-41.5 183.5q0 105 44 182.5t122 119.5t179 42q104 0 182 -41t121 -116t43 -174q0 -107 -42.5 -189.5t-121 -128t-182.5 -45.5q-106 0 -184 43.5zM487 140q34 71 34 193q0 77 -18.5 140t-53.5 100t-82 37q-61 0 -94 -63.5t-33 -181.5 q0 -129 38.5 -212.5t113.5 -83.5q61 0 95 71zM383 879q180 0 180 -144q-33 -13 -72 -13q-16 0 -32 3q-9 50 -89 50q-38 0 -59 -12.5t-22 -37.5q-22 -4 -34 -4q-28 0 -56 10q0 148 184 148z" glyph-name="uni020E" horiz-adv-x="761" unicode="Ȏ"/></font>
</defs>
</svg>
